<svg version="1.0" id="Ebene_1" xmlns="http://www.w3.org/2000/svg" xmlns:xlink="http://www.w3.org/1999/xlink" x="0px" y="0px"
	 viewBox="0 0 1600 1600" style="fill: #121212;" enable-background="new 0 0 1600 1600" xml:space="preserve">
<g id="iqLjXT.tif">
	<g>
		<path d="M1585.5,792c1,403.8-303.2,772.3-746.2,798.8c-429,25.7-791.6-313.5-823.1-727.7
			C-17.5,418.5,324.7,53.6,730.1,18C1172.6-20.9,1567.8,321.4,1585.5,792z M313.7,638.7c7.2,3,12,5,19.6,8.2c-6,4.7-10.1,7-13,10.4
			c-6,7.1-11.4,14.8-17.1,22.2c8.7,6.5,16.6,15.1,26.3,19c14.1,5.7,24.4,30.9,14.6,41c-11.5,11.8-23,23.4-35.9,36.5
			c26.1,26.2,45.6-5.9,67.6-3c5.7,8.1,11.5,16.4,17.7,25.1c-6.7-0.4-12.6-0.8-25-1.5c20,14.2,32.8,18.3,41.7-1.9
			c30.2,22.2,23.6-23.1,43.5-18.4c31.5,16.8,31.5,16.8,36.5,32.2c15.9,2.6,32.4,0.4,39.6,7.6c15.7,15.5,29.9,25.8,53.6,22.8
			c19.4-2.4,40.1,3.7,59.1,0.2c19.7-3.6,38.5-13.5,57.1-21.7c32.3-14.2,53.5-39.9,67.5-71.2c11.6-25.8-2.7-48.7-12.4-71.6
			c-3.7-8.6-8.4-16.8-12.6-25.2c-4.9,27-0.6,52.3-6.1,75.4c-5.5,22.9-16.5,48.1-33.1,63.8c-16.8,15.8-42.6,27-65.9,30
			c-65.3,8.6-113.2-27.5-134.6-94.9c-6.1-19.3,29.5-96,50.2-109.3c29.5-18.9,62.6-32.9,96.3-25.6c31.6,6.8,73.1,4,83.5,51.8
			c2.3-7.9,2.9-12.9,1.4-17.2c-10.3-28.6-14.8-56.1,8.9-81.4c2.7-2.9,1.6-13.6-1.6-16.8c-11.9-11.8-25.4-22-38.4-33
			c-6.9,8.9-11.6,15-20.1,25.9c3.1-36-13.8-45.7-41.1-46.3c-17.1-0.4-34.1-4.3-51.1-6.6c-0.2-1.4-0.3-2.8-0.5-4.2
			c7.2-2.5,14.3-5,25.1-8.8c-21.5-9.2-39.6-16.9-59.2-25.3c-1-4.7-2.5-11.7-3.7-17c-23.3,1.8-50.4-24-66.5,10.5
			c-0.2,0.5-3.4,0.2-4.7-0.5c-15.5-8.7-21.6,6.2-22.4,13.6c-1.6,16.5-11.4,17.6-23.5,22.6c-12.3,5.1-21.6,17.6-31.3,26
			c5,3.9,8.9,6.9,13.9,10.8c-26.6,12.1-50.5,23.3-48.3,56.3c0.2,2.3-3.4,6.8-5.6,7.1c-29.8,3.7-25.8,31.5-39.1,51
			c9.9-1.5,16.3-2.5,22.6-3.4c0.7,1.3,1.5,2.6,2.2,3.9C338.5,617.8,327.1,627.4,313.7,638.7z M960.9,634.4c-2-5.7-4.6-19-11.2-30
			c-15.3-25.4-49.2-34.1-87-24.4c-36,9.2-60.4,39.6-63.8,79.2c-2.3,26.7,7.2,37.9,46.6,55C898.7,737.4,959.8,698.9,960.9,634.4z
			 M721,716.3c-5.9-11.2-9.5-24.9-18.1-33.3c-38-37-112.2-24.1-137,22.6c-17.5,33-17.4,57.5,0.5,75.3c24,24,65.5,31.2,99,17.3
			C696.3,785.3,717.7,752.4,721,716.3z M730.3,911.9c-1.2-2.1-2.4-4.2-3.6-6.2c-20,11.5-45.8,18.6-59,35.4
			c-38.4,48.8-33.4,84.3,16,106.1c35.1,15.5,83.2-1.1,105.1-33.8c33.6-50.2,13.9-93.4-46.1-100.8C738.6,912,734.4,912.1,730.3,911.9
			z M1044,870.9c-4.5-7.2-10.3-26.6-23.2-35.2c-45.7-30.3-109.7-6.5-128.7,45.1c-11.3,30.6-8.5,47.6,12.7,64.3
			c28.6,22.6,61,25.7,93.1,10.7C1028,941.7,1041.4,914.7,1044,870.9z M536.1,129c-106.6,34.1-196.9,94-271.8,175.9
			C140,440.6,74.9,600.6,76.7,786.4C101.2,477.1,251.6,256.6,536.1,129z M1149.1,1385c160.2-89.3,260.5-224.7,310-399.1
			C1399.1,1152.5,1300.6,1289.2,1149.1,1385z M978.8,590.5c0,18.5,2.3,37.3-0.6,55.4c-2.9,18.2-11,35.5-17.6,55.4
			C994.8,690.4,1007.2,624.5,978.8,590.5z M795,1031.8c-26.6,13.5-49.7,25.2-72.9,37C752.2,1070.5,774.9,1057.5,795,1031.8z"/>
	</g>
</g>
</svg>
