<svg version="1.1" id="Ebene_1" xmlns="http://www.w3.org/2000/svg" xmlns:xlink="http://www.w3.org/1999/xlink" x="0px" y="0px"
	 viewBox="0 0 1600 1600" style="fill: #ff0000; enable-background:new 0 0 1600 1600;" xml:space="preserve">
<g>
	<path d="M1007.5,1528.5c-14.4,5.1-28.1,12.6-44.2,11.9c-2.7-0.1-5.4,2.4-8.3,3.2c-6.8,1.9-13.7,3.8-20.6,5.3
		c-10.9,2.3-21.7,5.2-32.8,6c-19.4,1.5-39,1.6-58.5,2.3c-8.4,0.3-16.7,0.8-25.1,1c-24.2,0.6-48.4,0-72.5,2
		c-25,2.1-48.5-6.2-72.9-7.7c-9-0.6-17.6-5.5-26.5-7.7c-9.4-2.3-19.8-2-28.5-5.9c-15.5-6.9-32-7.5-48-11.3c-2.6-0.6-5.7-1.5-7.3-3.4
		c-8.6-10.4-21.6-8.1-32.4-11.9c-8-2.8-15.3-7.5-22.8-11.4c-11.8-6.2-23.3-12.8-35.3-18.6c-6.2-3-13-4.7-20.7-7.3
		c2.6-4,4.2-6.4,6.7-10.2c-4.2,0.3-8.8-0.9-10.6,0.9c-6.8,6.8-14.6,2.3-19.4-0.2c-13.8-7-26.4-16.4-39.3-25
		c-2.1-1.4-3.6-3.8-5.9-6.3c2.8-1.7,4.9-3,7-4.2c0-0.9,0-1.9-0.1-2.8c-5-0.6-10-1.1-16.4-1.9c-2.2-5.2-7.6-9.2-16.1-11.7
		c-7-2-13.1-7.8-19.1-12.5c-6.8-5.4-13.1-11.4-19.6-17.3c-5.4-5-10.5-10.4-16.2-15.1c-4.3-3.5-9.1-7.3-14.2-9
		c-11.2-3.6-12.4-4.9-10.3-16.9c0.2-1.2-0.5-2.5-0.2-1.5c-6.4-2.8-11.2-4.9-16-7c0.3-0.8,0.5-1.5,0.8-2.3c2.6-0.8,5.3-1.6,6.3-2
		c-6.3-3-14-5.3-19.7-10c-8.9-7.3-16.6-16.2-24.6-24.7c-9.4-9.9-18.5-20-27.8-30c-1.4-1.5-3-2.7-4.2-4.3
		c-5.1-7.1-9.1-15.4-15.3-21.3c-17-16.1-27.5-35.3-33-58c-1.6-6.6-8.7-11.7-12.6-17.9c-5-7.9-9.4-16.1-13.8-24.3
		c-3.4-6.4-6.3-13-9.4-19.6c-0.5-1.2-1.3-2.8-0.9-3.8c3.7-9.8-2.5-15.8-8.3-21.9c4.1-9,0.5-18.6-8.3-22.3c-7.3-3-11.1-12.4-8.3-20.3
		c1.4-4.1,2.4-8.4,4.4-12.1c2.1-3.7,5.3-6.8,6.9-12.6c-2.8,1.6-5.6,3.4-8.6,4.6c-2.1,0.8-5.2,2-6.7,1c-6-3.8-12-22.9-9.4-29.6
		c0.9-2.3,3.1-4.1,4.7-6.2c-3-3-6.1-6.1-9.1-9.1c0.6-0.7,1.3-1.3,1.9-2c2.7,1.6,5.4,3.2,8.6,5.1c3.3-6.2,3.3-10.3-3.6-12.2
		c-2.6-0.7-5.7-0.7-7.7-2.3c-2.8-2.2-6.3-5.3-6.8-8.4c-0.4-2.6,2.7-6.1,5-8.6c1.7-2,4.5-3.1,6.4-4.4c-6.8-2.5-12.5-4.5-19.2-7
		c9.2-12.2,4.6-19.7-5.7-27.4c-9.7-7.2,1.9-8.7,3.3-10.2c-4.8-12.5-9.4-23.6-13.1-35c-0.5-1.5,3.4-6.2,5.5-6.5
		c10.9-1.2,22-1.4,32.1-1.9c4.7-4,9.9-7.6,13.9-12.2c2.7-3.1,4.4-7.8,4.7-11.9c0.1-1.5-5.5-4.7-8.3-4.6c-5.9,0.3-13,0.7-17.1,4
		c-6.5,5.3-11,5-16.7,0c-2.3-2-5-3.4-7.5-5.1c-6.2-4.3-4.6-8.3,1.5-9.8c5.3-1.3,11.1-0.7,16.7-0.5c7.4,0.3,14.7,1.3,22,1.2
		c2,0,5.8-3.5,5.6-4.2c-1.3-3.6-3.2-7.3-5.9-9.9c-0.8-0.8-6.4,1-7.2,2.8c-4.2,9.2-7.8,5.8-12.2,0.3c-4-5.1-8.3-8.5-16.2-8.2
		c-4.4,0.2-9-6.1-15.7-11.1c6.8-2.1,11.2-3.5,14.3-4.5c-3.2-2.1-6.7-4.3-10.2-6.5c3-4.7,6-9.4,9-14c1.4,0.3,2.7,0.7,4.1,1
		c-2.7-9.8-5.5-19.5-8.4-30c10.1-3.1,18.2,2.2,25.2,8.7c6.4,5.9,8,6.8,17.9,2.9c-4-14.5-20.3-12.5-30.1-21.9
		c11-7.1,21.8-2.8,31.6-4.1c3.3,10.3,13,14.4,19.3,8.5c1.7-1.6,3.3-4.9,2.7-6.8c-0.5-1.8-3.8-3-6.1-4c-3.9-1.6-8-2.8-12.1-4.2
		c0-0.9,0-1.8,0.1-2.7c-2.2,1.6-4.4,3.3-4.6,3.5c-14.7-6.7-28.4-12.8-43.9-19.8c10.9-3.7,12.5-8.4,7-17c-1.9-3,1.6-9.5,3-15.7
		c9.8,10.6,19.1,8.8,28.8-4.7c5.9,5.4,11.6,10.6,18.5,16.9c0.6-12.5,2.2-13.8,12-9.5c17.3,7.4,32.4,1,47.5-7.9
		c-15.4-1.6-30.7-4.1-46.1-4.7c-15.5-0.6-31.2,1.2-46.7,1c-4.5-0.1-9-3.6-15.9-6.6c4.8-3.1,6.5-4.5,8.5-5.4
		c11.3-5.2,13.4-12.4,6.6-22.9c-5.4-8.3-5.4-8.3,0.5-16.7c-1.4-1.6-2.9-3.2-5-5.6c3.1-2.1,5.7-3.9,8.3-5.7c0.1,1.1,0.1,2.2,0.2,3.4
		c5.9,0.8,12.4,3.3,17.6,1.7c3.4-1,5.5-7.9,7.1-12.5c1.9-5.7,2.6-10.8,11.2-9.2c7.9,1.5,11.7-4,9.4-11.9c-1.4-4.8-3.1-9.6-5.1-15.9
		c-4.5,3.8-8.3,7.1-13.2,11.2c-2.4-3.1-4.8-6.1-8.9-11.3c6.4-3.5,12.2-6.6,19.2-10.4c-0.1-11.2-10.8-3.6-18.3-5.3
		c3-2.6,4.4-3.8,5.7-5c3.6-3.5,7.1-5.8,4.1-12.8c-2.8-6.5-1.1-14.3,3.5-21.8c7.3-12,11.8-25.7,17.4-38.7c1.6-3.7,2.8-7.5,3.7-10.2
		c4.8-1.1,8.6-1.9,12.5-2.8c-1.8-2.9-3.6-5.8-6.2-10c3.1-2,6.5-4.3,9.9-6.7c4.7-3.3,12.9-3.5,9-13.8c-0.8-2.2,7.7-7.9,13-12.9
		c-5-13.9,7.1-24.5,13-37.1c0.6-1.3,2.8-3,3.9-2.8c11.5,2.8,14.1-8.1,20.2-13.3c1.3-1.1,1.6-4.3,1.3-6.4
		c-1.4-11.5,3.7-19.4,15.3-21.2c5.6-0.9,8.2-2.3,6.2-8.3c-3.4-10.3,1.2-19.6,10.5-24.9c5.2-3,9.1-8.1,13.5-12.3
		c0.2-0.2,0.2-0.7,0.5-0.9c16.1-14,32.1-28.1,48.4-41.9c1.7-1.4,5.1-0.8,5.7-2.8c2.8-3.9,5.2-8.4,8.6-11.7c7.8-7.7,15.5-16,24.6-22
		c5.3-3.5,13.1-3.3,20.5-4.9c-1-1.4-2.3-3.3-3-4.1c10.1-8.3,19-17.7,29.8-23.8c9.4-5.3,19.2-14,32.4-6.6c2.9,1.6,9-2.5,13.6-3.9
		c-0.4-1.3-0.8-2.7-1.2-4c-3.9,0.7-7.8,1.5-11.6,2.2c-0.6-0.8-1.2-1.7-1.8-2.5c8.2-6.4,15.9-13.6,24.6-19.1
		c14.3-9.1,29.3-17.3,44.1-25.7c5.5-3.2,11.1-6.4,17-8.8c10.7-4.3,21.4-8.5,32.4-11.7c6.6-1.9,13.8-1.2,20.6-2.6
		c6.1-1.2,12-3.3,17.8-5.6c15.9-6.3,31.6-13.1,47.6-19.2c7.5-2.9,15.3-5.7,23.2-6.5c13.2-1.3,26.6-1.1,39.9-1.2
		c1.6,0,3.9,1.9,4.6,3.5c4.9,10.7,11,8.8,18,1.9c-1-1.9-2-3.9-3-5.8c21-2.7,41.4-5.3,61.3-7.9c10.4,23.2,24.5,5.5,39.3,3.7
		c-3.8-1.9-5.7-2.9-10.5-5.3c9.6-0.6,16.4-1.5,23.2-1.3c2.6,0.1,6.3,1.8,7.6,4c6.9,11.3,10.7,12.3,22.2,4.9c2.1-1.3,4.7-1.9,7-2.9
		c6.1,15.8,12,17.4,27.9,7.6c5.5-3.4,10-6,13.7,2.2c0.5,1.1,5.1,0.8,7.7,0.6c6.7-0.6,13.4-1.5,22.7-2.6c-2.7,6.7-4.2,10.5-6.3,15.8
		c13.5,0,26.4,3.5,39.3-2c2.7-1.2,6.8-1.8,9.3-0.5c9.1,4.5,18,3.7,27.6,1.8c4.9-1,11.3-0.8,15.4,1.7c10.9,6.4,21.1,14,30.9,21.9
		c2.1,1.7,1.6,6.6,2.6,11.2c1.3,0.4,4.1,1.1,7.2,2c-2.7-15.6-1.7-16.1,13.1-12.2c26.6,7,51.9,16.9,76,30.1c5.1,2.8,7.7,5.6,5.8,12
		c-1.1,3.7-0.4,8.1,0.4,12c1.1,5.4,2.3,12.4,9.5,3.5c1.3-1.6,5-1.5,7.5-1.6c8.9-0.2,18.4-6,28.3,4.7c-0.9,0.2-2.5,0.1-3.6,0.8
		c-2.2,1.6-4.1,3.6-6.1,5.5c2.9,0.4,5.9,1.5,8.7,1.1c11.1-1.9,23.4,0.2,29,6.9c-7.3,3.2-14.1,6.2-22.5,9.8c0,2.1,0,6.9,0,12.8
		c8.5,0,17.2,0,26,0c0.2,1.1,0.3,2.2,0.5,3.4c-5.5,2-11,3.7-16.4,6c-2.2,1-4.4,2.9-5.6,4.9c-0.6,1,1.6,4.9,2.1,4.8
		c2.4-0.3,4.6-1.7,6.9-2.6c5.5-2.2,11-4.4,16.5-6.5c0.7,0.8,1.4,1.6,2.1,2.3c0.4-3.4,0.9-6.9,1.5-11.6c7.2,2.8,13.7,5.4,22.8,8.9
		c1.1-1.4,3.8-4.8,7.4-9.5c1.5,0.4,5.3,0.6,8.3,2.3c1.6,0.9,3,5,2.2,6.6c-1.4,2.9-4.2,6.3-7,7c-14.4,3.5-16.7,5.1-18.7,17
		c-2.8-1.5-5.5-2.4-7.5-4.1c-6.4-5.8-12.6-7.2-19.7-0.9c-2.4,2.1-6,2.8-8.9,4.3c-3.9,2-7.7,4.5-11.7,6.3c-3.4,1.5-7.2,2.2-11.5,3.5
		c0.4,2.1,0.9,4.5,1.3,6.8c-0.6,0.7-1.2,1.5-1.8,2.2c-3.9-2.4-8.4-4.2-11.4-7.4c-4.8-5-9.4-7.7-16.4-2.7c1.5,2.6,3.1,5.3,4.9,8.4
		c-9.7,6.4-19.1,12.5-28.6,18.7c-5.1-7.7-4.3-10.5,4.3-13.1c2.9-0.9,5.9-1.4,8.7-2.4c2.1-0.8,4-2.3,9.2-5.3
		c-9.5-3.2-16.5-5.5-25.5-8.5c-2.4,8-6.3,15.9-6.7,23.9c-0.6,11.2,7.3,14.7,16.9,9c1.4-0.9,2.7-2.6,4.2-2.7c3-0.1,6,0.6,9,0.9
		c-0.4,3-0.5,6.1-1.5,8.9c-0.6,1.6-2.8,2.5-4.3,3.8c0.2,1,0.4,2,0.6,3c9.8-0.7,19.6-1.4,29.3-2.1c0-1.2-0.1-2.5-0.1-3.7
		c-2.7-0.4-5.4-0.8-9.3-1.3c0.6-3.3,1.2-6.4,1.6-8.7c6.2-1.1,11.5-2,17.8-3c0.3,1.2,0.9,3.5,1.7,6.7c3-0.3,6.2-0.7,9.8-1
		c0.9,1.8,1.9,4,2.4,5c4.8-4.8,9.9-8.9,13.6-14c5-6.9,9.5-4,14.4-0.7c4.9,3.3,8.8,5.9,12.8-2c1.2-2.4,11-4,12.4-2.3
		c3.8,4.8,16.2,7.4,7.1,17.9c-1.1,1.2,1.6,5.7,3.2,10.9c2.1-4.1,3.1-6,4.6-8.9c6.3,7.3,12.3,14.3,18.9,22c-9,8.3-24.8-7.1-33,6.9
		c-3.8-1.7-7.3-3.3-11.1-5c0-2.2,0-4.8,0-9c-11.4,10.7,1.3,16.3,3.1,23.9c-4.3,0.9-7.8,1.7-9.6,2.1c-3.4-4.4-6-7.8-8.6-11.2
		c-1.4,3.3-2.9,6.7-4.3,10.1c-0.8-1.6-1.9-3.7-4.2-8.4c-2,5.8-3.2,9.3-4.6,13.2c-5.5,1.5-15.1-8.1-15.5,9.4
		c-0.8-1.3-1.6-2.5-2.5-3.8c-0.8-3.2-1.6-6.4-1.8-7.3c-8.6-3.3-15.5-5.9-22.9-8.8c-1.4-9.4,3.3-14,13.4-12.1
		c1.6,0.3,3.6,1.6,4.8,1.1c3-1.2,5.6-3.3,8.4-5c-2.7-1.7-5.5-5.1-8-4.9c-6.7,0.5-15.4-3.5-19.1,6.6c-0.2,0.5-3.1-0.3-4.6,0.1
		c-3,0.8-5.9,2-8.9,3c6.1,7.6,10.9,13.6,16.3,20.4c-5.2,5.6-6.3,12,5.4,15.7c-1.6,0.8-3.2,1.7-4.9,2.5c0.5,0.9,1,1.8,1.5,2.7
		c2.4-1.4,5.1-2.4,7.2-4.3c1.3-1.2,1.6-3.5,2.4-5.5c9.1,4.3,17.8,4.1,26.3-0.1c7.2-3.5,14-3.8,22.2-1.4c8.3,2.4,17.9,0.5,27.9,0.5
		c1.6,4.5,3.9,11.1,6.9,19.5c4-3.9,6.8-8.4,10.8-10c3.2-1.3,7.8,1.1,13.5,2.1c1.8-2.3,5-6.4,8.1-10.3c3.2,4.1,5.4,6.8,8.4,10.7
		c-13.4,4.2-24.7,15.2-42.5,15.3c5,4,10.1,8,15.3,12.2c-0.1,0.1-0.2,1-0.7,1.2c-2.9,1.7-5.9,3.2-7.4,1.9c-6-3.5-12-6.9-19.6-11.2
		c-0.6,5-0.9,8.4-1.7,15.4c-5.9-6.2-10-10.6-14.2-15.1c-5.4,3-5.4,3-2.1,13.9c-3.5,0-7.1,0.3-10.5-0.1c-3.2-0.4-6.3-1.7-9.7-2.6
		c-2.4,7.1-5.6,14.4-16.1,12.5c-0.6,0.8-1.2,1.5-1.8,2.3c3.4,2.5,6.6,5.2,10.1,7.4c4.1,2.5,8.5,4.5,13.4,7.1
		c1.1-10.4,11-5.2,16.4-8.3c9.6-5.5,14.9-0.1,21.7,4.1c2-1.5,3.9-3,6.8-5.2c1.5,10,4.3,17.7,15.6,16.6c1.1-0.1,2.4,1.1,3.4,2
		c7.6,7.3,15.9,11.2,26.6,6.3c1.7-0.8,4-0.1,6.8-0.1c0.4-2.4,0.8-5.1,1.4-8.7c3.1,1.6,5.3,2.8,8,4.2c1.4-2.1,2.8-4.3,3.7-5.6
		c8.2-0.9,18,7.5,23.4-6.7c12.2-0.6,24.5-3,33.9-13.9c1.6-1.8,7.9,0.4,12,0.7c1-12.2,4.5-13.7,27.7-9.9c-5.8,7.4-11.2,14.3-17.2,22
		c-5.9-9.1-11.5-5.6-17.4-2.7c-12.6,6-25,12.7-38.1,17.2c-12.9,4.5-26.6,6.5-39.9,10c-18.1,4.8-35.6,0.2-52.8-4.1
		c-16.3-4.1-30.8-2.3-45.2,5.6c-1.8,1-5,0-7.3-0.7c-10.5-3.6-20.9-7.4-31.4-11.3c-6.5-2.4-9.9,0.8-11.7,4.5
		c7.1,6.1,13.4,11.3,19.5,16.9c8.6,7.9,17.9,13.6,30.2,13.1c3.1-0.1,6.7,1.5,9.3,3.5c4,3,7.2,6.9,10.8,10.5c1.5-0.2,2.9-0.5,4.4-0.7
		c-2.2,7.2-5.1,14.3-6.2,21.6c-0.5,3.1,1.9,8,4.5,10c2.9,2.2,7.6,2,12,2.9c0.9-3.2,0.9-6.6,2.6-8.8c1.4-1.8,5.6-3.8,7-3
		c7.6,4.3,14.8,9.4,21.9,14c17.3-14.4,17.6-14.4,22.5-0.3c2.5-3.1,4.7-5.8,7.7-9.5c4.9,2.6,9.9,5.2,15.5,8.2c0.9-2,2.5-4.9,3.4-7.9
		c0.9-2.9,1.1-6,1.6-9c-3.2-0.2-6.9-1.5-9.4-0.4c-14.7,6.9-30.1,4.3-45.3,5c-0.9-16.9,6.7-23.8,22.1-21.6c2.5,0.4,5.3-1.5,8-2.4
		c3.7-1.2,7.4-2.5,12.9-4.4c-1,6.2-1.5,9.6-2.5,16.1c7.9-8.3,13.9-14.7,21-22.1c0.3-1.9,0.8-5.9,1.3-9.9c1.3-0.1,2.6-0.2,3.9-0.3
		c0.9,7.2-0.2,15.6,3.1,21.4c5.6,9.8-2.8,13.5-7.4,19.2c0.8,0.8,1.6,1.7,2.4,2.5c4.8-1.5,9.5-3.5,14.3-4.4c3.1-0.6,7.6-1,9.7,0.7
		c4.9,3.9,8.9,6.4,13.4,0c4.7-6.6,4.1-12.8-1.8-18.1c-4.3-3.9-9-7.2-12.7-10.1c5.3-8.1,8.8-14.2,13.3-19.6c1.3-1.6,5.4-0.7,8.7,1.2
		c8-6.3,16-12.7,24.3-19.3c9,9,9.2,16-1.6,25.3c2.6,2,5.1,4,8.2,6.4c2.8-3.5,9.1-5.2,3.4-11.9c-1.1-1.3,0.1-6.5,1.8-7.8
		c1.9-1.5,6.3-1.8,8.4-0.6c5.2,2.8,10.6,6.2,14.3,10.6c6.1,7.3,10.9,6.5,17.5-1.4c-3.1,0.5-4.9,0.7-7.5,1.1
		c-0.1-2.6-0.2-5.1-0.3-7.2c19-0.2,20.2,17.5,27.8,28c8.1,11.2,12.8,25,18.7,37.7c1.2,2.6,1.5,5.7,2.3,9.4
		c-11.2-1.1-21.3-2.2-33.8-3.4c0.8,5.4,1.7,11.1,2.7,17.5c9.8-2.8,20,2.8,27.3-6.4c0.6-0.7,6.4,0.9,7.7,2.8c3.2,5,5.2,10.8,7.2,15.1
		c-6.2,2.8-12.1,5.2-17.6,8.1c-8.1,4.2-5.4,10.3-2.2,16.1c1.1,2,3.9,3.5,4.2,5.5c2.5,17.1,14.4,19.3,28.4,18.2
		c15.3,26.1,17.2,55.6,22.4,83.9c3,16.3,2.9,33.2,4.3,49.8c0.2,3,0.8,6,1.4,8.9c1,4.6,4,9.7,2.9,13.7c-5.3,18.9,5.1,35.9,5.3,53.8
		c0.2,11.1-3,22.3-4.9,35.7c0.4,1.9,1.6,6.6,2.7,11.3c-0.8,0.2-1.6,0.5-2.4,0.7c-0.6-1.9-1.2-3.8-2.9-9.1c-3.2,7-5.3,11.5-7.4,16
		c-0.3,0.6-0.3,1.7-0.7,1.8c-10.9,2-10.5,8.9-5.9,17.4c5.7-4.6,12-9.7,18.9-15.4c-0.9,8.2-1.8,15.2-2.3,22.3c-0.2,1.9,0.2,4.2,1,5.9
		c4.8,10.6-0.1,17.7-8,24.3c-3.3,2.7-5.8,6.6-9.6,11.1c3.8,1.1,5.4,1.3,6.7,2c2.5,1.3,6.5,2.6,6.8,4.4c0.4,2.3-1.5,6.2-3.6,7.6
		c-9.8,6.5-20,12.4-30,18.6c-3.5,2.1-6.8,4.4-9.5,8c14.9,0.2,28.2-3.1,39.8-14.9c-0.3,3.6-0.4,7.3-1,10.9
		c-2.9,16.5-5.8,32.9-9.1,49.3c-0.5,2.4-3.2,4.5-5.2,6.5c-2.9,2.8-6,5.2-8.5,7.3c9.9,15.1,1.8,28.1-0.6,41.2
		c-0.7,3.6-2.1,7.4-4.3,10.2c-1.9,2.4-5.4,3.8-8.3,5.3c-4,2-8.2,3.5-13.8,5.9c5.8,4.9,9.3,7.9,13.7,11.7c-5.2,0.6-9,1.1-15.7,1.9
		c4.9,5.1,8,8.4,10.5,11c-4.6,12.2-9.6,24.7-14,37.4c-2.9,8.3-6.9,13.4-16.9,11.3c-3.1-0.7-7.4,0.8-10.2,2.7
		c-10.5,7.2-11.2,7.4-18.6,1.1c-6.1,2.2-11.2,3.4-15.5,5.9c-7.5,4.3-14.3,9.7-21.6,14.2c-2.7,1.6-6.2,2.5-9.4,2.5
		c-7,0-13.6-1.2-18.4,6.7c-4.6,7.6-18.7,7.8-31.8,2.3c-3.1-1.3-7.1-2.7-9.7-1.7c-1.7,0.6-3.1,6.5-2,8.6c1.5,3,5.3,6.1,8.5,6.7
		c5.8,1,12-0.1,18,0c1.4,0,2.8,1.3,4.3,1.9c7.5,3.5,15.1,6.6,22.3,10.5c2.2,1.2,3.4,4.4,5.8,7.6c2.6-1.6,8-3,8.4-5.3
		c2.1-11.8,11.2-16.2,20.5-18.9c5.8-1.6,14.6-1,18.8,2.5c3,2.5,3,12.8,0.4,17.2c-4,6.6-11.9,10.8-17.5,16.6c-3.5,3.6-7.3,8-8.7,12.7
		c-4.1,14.9-12.8,26.7-22.5,38.1c-6.9,8.1-14.1,15.8-20.8,24c-8.5,10.4-19,16.5-31.3,16.5c2.3,1.8,3.7,3,4.2,3.4
		c-6.6,8.6-12.8,17.6-19.8,25.9c-8.3,9.7-16.3,20-26.1,27.8c-12.8,10.1-22.8,23.5-39.3,29.7c-10,3.8-17.7,13.9-26.5,21.1
		c-26.3,21.5-52.4,43.2-86.2,52.4c-4.3,1.2-7.1,8.4-11.3,9.3c-21.5,4.7-39.2,16.7-57.9,27.4c-20.8,11.9-43.7,19.3-68.1,20.3
		c-2.5,0.1-5,1.5-7.6,2.3c-0.6-4.7-1.1-9.4-1.8-15.1c-5.3,4.7-9.3,8.3-13.8,12.4C997.4,1527,1002.4,1527.8,1007.5,1528.5z
		 M296.1,1028.7c3.4,2.9,6.7,5.7,10.1,8.6c1.1-0.3,2.1-0.6,3.2-0.9c0.3-5.1,0.5-10.2,0.8-15.3c-4.3,2.1-8.5,4.3-12.8,6.5
		c-0.6,0.3-0.9,0.9-1.4,1.4c-5-6-9.7-1.9-12.6,1.6c-2.4,2.9-2.5,7.9-3.6,11.9c0.7,0.3,1.4,0.5,2.1,0.8c-2.2,1.9-4.4,3.8-6.6,5.7
		C288.5,1048.3,290.3,1036.6,296.1,1028.7z M397.9,1368.4c-8.5-4-21.7,1.2-24.2-12.4c-11,0.5-12,8-11.8,15.4c0,2.7,3.3,5.3,5,7.9
		c3.1-2.8,6.2-5.7,9.3-8.5c2.4,1.3,5.9,4.8,9.2,4.6c4.6-0.3,13.7,4.1,12.4-7.2c4.5-1.2,9-2.4,14.5-3.8c-4.5-7-7.4-11.6-10.4-16.2
		c-1.1,0.1-2.1,0.2-3.2,0.4C398.3,1355.1,398.1,1361.7,397.9,1368.4z M1070,1157.9c7.2,0.4,14.5,2.2,21.4,1
		c7.8-1.4,14.9-5.7,22.6-8.2c4.4-1.5,9.7-1,13.6-3.2c2.6-1.4,5.1-6.2,4.6-9c-0.3-2.1-6.1-5.5-8.3-4.8c-16.5,5.4-32.8,11.5-48.9,17.9
		c-2.1,0.8-3.2,4.3-4.8,6.5c-14.7-5.9-39.1-0.7-46.9,11c13.9-2,26.7-3.7,39.5-6C1065.4,1162.7,1067.6,1159.7,1070,1157.9z
		 M1106.1,278.1c-4.4,3.3-8.9,6.7-13.3,10c0.5,0.7,1,1.4,1.4,2.1c4,0,8,0,13.3,0c-0.6-4.6-1-8.4-1.5-12.1c4.3,0.9,8.6,1.8,15.1,3.1
		c-0.7-3.3-0.4-7.2-2.2-9.1c-6.3-6.7-9.5-14.3-10.6-23.3c-0.9-7.3-6.2-7.6-9.8-3c-9.1,11.9-20.9,6.2-32,6.2c-2.6,0-5.8-0.6-7.5,0.7
		c-1.2,0.9-1,4.7-0.3,6.9c1.8,5.7,0.8,13.4,9.9,14.3c0.8,0.1,1.6,2.6,2.1,4.1c1.2,3.4,2.3,7,3.4,10.4c0.6-0.1,1.2-0.3,1.8-0.4
		c-0.8,5.1-1.6,10.2-2.7,17.1c4.5-1.5,7.1-2.4,8.9-3c-0.3-4.8-2.1-9.9-0.3-11.8c6.2-6.6,8.5-13.2,5.1-22c-0.6-1.7,2.9-5,4.6-7.5
		c1.9,2.1,5.4,4.2,5.4,6.3C1096.7,274.1,1100.2,276.9,1106.1,278.1z M394,1159.4c0,0,0.3,0.3,0.3,0.3c0.3-2.1,0.5-4.3,0.5-4.2
		c-12.5-2.5-24.2-4.8-37.1-7.4c2.9,4.3,5.6,8.4,9.9,14.8c-4.5-2.5-6.6-3.6-9.7-5.3c3.4,13.5,16,23.6,9.5,38.8
		c2.1,0.7,4.1,1.4,6.2,2.2c-0.4,2.6-1.4,5.1-0.9,7.2c0.7,3.1,2.4,5.9,3.6,8.9c2.3-2.5,4.9-4.8,6.7-7.6c1.2-1.7,0.7-4.6,2-6.1
		c6.7-7.8,14.9-14.7,20.2-23.3c3.2-5.2,7.2-13,1.6-19.7c-0.6,0.8-1.2,1.7-1.7,2.5C401.4,1160.1,397.7,1159.7,394,1159.4z
		 M780.8,1432.8c4.7,1.3,9.4,2.6,14.4,4c-1.7,9.9,9.8,19.7,0.7,30.4c6,2.9,10.6,5.1,15.4,7.4c1.4-4.5,2-7.9,3.5-10.8
		c2.7-5.3,9.9-5,9.8-1.1c-0.2,8.9,6.8,12,10.3,17.6c1.6,2.5,5.3,4.7,8.3,5c5.2,0.4,10.5-0.7,17.3-1.4c-1.3-3.5,2.8-8.7-5.9-8.2
		c-6.7,0.4-9.4-2.5-5.2-9.3c1.2-1.9,1.4-5.7,0.2-7.5c-3.4-5.6-2.3-9.4,0.5-15.4c2.3-4.8-0.8-13.4-4.1-18.8
		c-1.2-1.9-11.7-1.1-14.8,1.9c-4.7,4.5-6.7,12-9.9,18.1c-1,1.9-2.4,3.7-3.7,5.5c4.7-20.9-13.4-21.3-23.9-28.8
		c-1.2,2.3-2.4,4.5-3.5,6.5c-3.3,1.7-12.6-8.6-9.2,4.9c-5.4,6.2-7.5,0.2-10.6-2.7c-1.9-1.8-5.3-4.6-6.6-3.9
		c-7.7,3.8-15.1,8.4-22.9,13c7.4,4.2,13.8,8,18.1,10.4c5.5-1.1,9.2-2.2,13-2.6C778.5,1446.4,782.6,1440,780.8,1432.8z M958.1,883.7
		c-0.3,3.8-0.5,7.5-0.8,12.7c7.4-4.5,13.8-8.5,20.3-12.4c-0.1-1-0.3-1.9-0.4-2.9c-6.4,1-12.9,1.9-19.3,2.9
		c11.9-6.7,23.4-14.5,35.9-19.7c7.6-3.2,8.6-6.5,5.4-12.5c4.1-2.6,9.3-3.9,10.7-6.9c6.9-15.3,20.6-12.8,33.1-14
		c1.5-0.2,2.9-0.8,5.9-1.7c-4.9-4-8.3-8.1-12.7-9.9c-16.9-7-20.6-14.8-15.4-32.8c4.1-13.8,6.6-27.4-8.5-37.3
		c-3.1-2-4.2-6.8-6.5-10.1c-1.8-2.5-3.7-5.1-6.2-6.9c-11.7-8.6-23.6-16.9-35.8-25.6c-6.2,0.3-15.4,3.7-20.4,0.5
		c-8.8-5.6-15.1-2.3-22.7,0.3c-6,2.1-12.2,4.5-18.4,5.1c-13,1.1-15.6,12.9-21.4,20.5c-13.6,18-22.3,38.3-20.8,61.8
		c0.2,2.3-1.6,4.8-2.4,7.2c-2.7-1-5.4-1.8-7.9-3.1c-1.4-0.7-2.5-2-3.7-3c-0.9,0.8-1.8,1.7-2.6,2.5c6.2,6.5,12.4,13.1,19.1,20.1
		c-10.1,9.1,7.3,9.3,6.5,17.8c-5.4-1.7-10.1-3.2-15.7-5c-0.1,7.8-0.7,14.4,9.6,14.3c1.7,0,3.5,2.6,5.2,4.1c1.9,1.7,4,5,5.7,4.8
		c9.5-0.9,13.8,6.6,20.1,11.2c8.1,5.9,15.8,11.8,27.8,11.8C933.5,877.3,947.4,873.5,958.1,883.7z M745.4,737.9l0.2,0.3
		c0.1-10.7,11,2.3,12.2-5.4c-12.1-8.5-24.1-17-36.1-25.4c-0.4,0.6-0.8,1.1-1.2,1.7c-0.6-2.5-1.2-5-2.2-9
		c-6.8,8.1-21.5-7.8-23.4,10.6c-7.7-2.5-17.4-2.6-21.1-7.4c-5.6-7.3-11.3-4.9-16.6-3.9c-7.9,1.5-15.6,4.6-23,8
		c-9.7,4.5-18.9,9.9-28.4,15c-2.9-5.1-5.3-10.8-9-15.2c-5.2-6.2-11.7-11.3-17.1-17.4c-2.6-2.9-3.9-6.9-5.8-10.5
		c-1.4,2.6-0.1,4.7-0.6,6.1c-1.8,4.5-3.3,9.8-6.8,12.6c-2.4,1.9-8.2,1-11.7-0.5c-4.2-1.7-7.6-5.4-12.3-9c1.3-1,2.7-2.6,4.4-3.5
		c2-1,4.3-1.3,7.6-2.3c-7.8-6.1-7.8-6-13.8-2.2c-2.2,1.4-4.9,3.7-7,3.4c-11.8-1.6-19.3,5.4-26.9,12.4c-2.6,2.4-5.8,4.4-7.4,7.4
		c-1.9,3.4-3.4,7.7-3.1,11.4c0.2,2.4,4.3,6.8,5.9,6.5c10.6-1.9,20.5-1.3,30.7,2.8c7,2.8,15,2.9,23.1,4.4c1.2-2.2,2.6-4.8,4-7.4
		c0.1,0.9,0.3,1.8,0.4,2.7c6,0,11.9,0.1,17.9,0c4.4-0.1,9.8-2.2,12.8-0.4c6.2,3.9,10.1-0.2,14.8-1.7c-2.6,3.5-5.2,7-7.8,10.5
		c-10.6,14-19.1,28.7-17.9,47.1c0.3,4.1-0.3,8.3-0.6,13.3c-4.4-2.3-7.3-3.7-12.5-6.4c0,6.8,0,11.9,0,17c3.9-0.6,7.8-1.2,11.6-1.7
		c6.7,13.6,14.6,27.2,20.4,41.7c6.5,16.1,18.2,25.4,33.9,30.3c24.7,7.8,49,4.5,73.5-1.9c9.6-2.5,19.3-2.6,21.8-16.9
		c-5.4,2-9.8,3.7-14.6,5.6c7-17.2,13.7-21.2,30.2-18.7c2.7,0.4,5.5,1.1,8,0.6c2.9-0.5,5.5-2.2,8.2-3.4c-0.3-1.3-0.7-2.5-1-3.8
		c-6.2,0-12.4,0-18.3,0c-1.1-2.5-2.9-5.5-3.9-8.8c-0.9-3-1.4-6.4-1-9.5c0.7-6.9,2.1-13.8,3.1-20.7c1.4-9.6,2.8-19.3,4-28.9
		c0.8-6.1,4.5-7.7,10-7.2c7.9,0.6,15.8,1.1,23.2,1.5c0-4.4,0-7.5,0-7.7c-8.3-3.7-15.7-6.9-22.9-10.4
		C750.6,742.2,748.1,739.8,745.4,737.9z M1017,971.6c-7.3,0.4-16.3-9.5-20,8.9c-2.7-8.8-4.4-14.2-5.6-18.1c-2.2,0.7-4.8,2.5-6.8,2
		c-8.4-2.3-12.2,2.3-15.7,8.7c-2.9,5.3-6.9,10-11.5,16.5c-7.2-19.7-26.9-17-36.9-28.5c1.5,4.6,3,9.1,4.9,15
		c-5.4-3.5-8.8-5.7-13.6-8.8c-0.1-0.7-0.3-3.5-0.5-6.3c-3.2,2.8-5.5,6-5.5,9.3c-0.1,2.2,2.6,4.9,4.7,6.6c2.1,1.7,4.9,2.6,7.4,3.8
		c-2.9,0.6-5.7,1.2-11.6,2.5c6.3,2.7,10.7,5.1,15.3,6.4c5.4,1.6,11.2,1.3,12.4,9.1c0.4,2.6,4.2,4.6,8,8.6
		c-1.3-11.5,10.6-19.5,20-17.1c2.9,0.8,6.2,0.1,10.5,0.1c0.6,2.5,1.5,6.2,2.6,10.6c-7-2.3-12.1-4-17.3-5.7c0.4,4,2.4,6.9,4.8,9.6
		c1.7,2,4.8,3.2,5.6,5.4c1.8,4.8-4.7,20.9-8.9,21.8c-9.2,2.1-13.1-4.8-16.9-11.3c-1-1.7-1.3-4.2-2.7-5.4c-2.4-2.1-5.5-3.5-8.2-5.2
		c-0.7,0.7-1.4,1.4-2.1,2.1c2.8,6.3,4.2,16.4,8.6,18c10.9,3.8,17.4,20.1,32.5,12.5c0.6-0.3,2.7,0.9,3.3,1.8
		c6.2,10.9,14.3,4.2,22.2,3.3c-8.9-0.8-10.1-4.4-5.9-11.4c1.7-2.9,2.3-6.4,4-11.8c-5.3,2.2-8.2,3.4-10.9,4.5
		c-3.5-3.4-7.1-6.1-9.5-9.7c-1.3-2-1.3-5.6-0.5-8.1c0.5-1.6,3.6-2.3,5.5-3.4c1.2,2.5,2.6,4.9,3.6,7.5c0.6,1.6,0.4,3.5,0.6,5.3
		c1,0.7,2.1,1.4,3.1,2.1c1.3-2.4,2.7-4.7,3.1-5.5c5,2,9.9,3.8,14.6,5.7c-8.1,15.7-8.9,18.7-5.1,18.5c0.6-2,1.3-4.1,1.7-5.1
		c6.4-0.4,11.9-0.8,18.7-1.2c-2.5-5.2-3.3-8.8-5.5-11.1c-9.8-10.6,2.8-30.2-15.1-38.2c3,0.4,6,0.8,7.9,1
		C1010.2,981.6,1013.3,977,1017,971.6z M811.6,940.6c1.1-0.8,2.2-1.6,3.2-2.4c-2.4-3.7-4.1-8.5-7.5-10.7c-3.7-2.4-8.8-3-13.5-3.4
		c-20.3-2.1-40.6-4.7-60.9-5.3c-9.7-0.3-19.7,2.8-29.3,5.3c-2,0.5-4,5.6-3.9,8.5c0.3,4.9,2,9.8,3.8,14.5c1.1,3,2.9,7.7,5.1,8.1
		c9.8,1.8,19.7,2.4,29.7,3.2c4.3,0.3,8.7,0.3,13-0.2c10-1.1,20.4-1.4,29.9-4.3c8.4-2.6,22.4,2.3,23-13.8c0-0.2,0.5-0.4,1.1-0.8
		C807.2,939.5,809.4,940,811.6,940.6z M889.5,1187c-6.6-6.3-11.1-14.8-22-15c-2.6-0.1-5.2-3.3-7.8-3.4c-4.7,0-12.6,0-13.5,2.3
		c-3.4,8.4-4.4,17.7-6.3,26.6c-0.2,0.8-0.6,1.6-1,2.8c-1.9-2.2-3.5-4-5.9-6.6c-1.4,5-2.5,8.8-3.5,12.3c11.5,8.7,11.3,2.2,2.5,25.4
		c-2.4-4.3-6.7-8.6-7.3-13.5c-1.2-9-5.3-5.9-9.3-3.3c-3.1,2-6,4.4-8.3,7.3c-1.7,2.1-2.6,5.1-3.3,7.9c-0.1,0.6,3,2.9,3.5,2.6
		c2.3-1.4,4.3-3.5,7-5.8c1.5,3.5,2.9,6.8,4.2,9.9c4.3,0.8,8.6,1.6,12.8,2.4c6.4,1.2,10.3-2.9,7.5-8.9c-2.6-5.4-0.1-6.6,4.2-7.3
		c3.5-0.6,7.1-0.9,13.5-1.7c-4,4.9-6.3,7.8-8.6,10.7c0.3,0.4,0.7,0.9,1,1.3c9.4-3.9,18.7-7.8,28.5-11.8c3.5,7,6.8,13.4,9.3,18.4
		c8.3-6.4,15.9-12.3,25.3-19.6c1-2.9,3-8.5,4.6-13.1c-7.1-2.7-14.2-5.4-22.1-8.4c-0.9,3.4-1.8,6.7-2.7,10
		c-8.8-0.9-19.5-6.5-20.6,9.3c-5.8-3-11-5.7-17-8.8c0.8-2,1.8-4.5,2.7-6.8c3.6,0.9,7.3,3,8.9,1.9
		C873.5,1199.2,881,1193.2,889.5,1187z M1300.4,1220.7c2.4-5.5,3.9-8.4,4.9-11.4c0.8-2.5,1-5.2,1.2-6c-5.3,0.9-10.5,3-11.4,1.8
		c-4.8-6.3-8.5-13.3-13.5-21.6c0.1-0.1,1.7-2.8,3.3-5.4c-13.5-11.5-29.5-13.6-42.1-5.4c-1.6,1-2.5,4.6-2.2,6.8
		c0.2,1.3,3.1,3,4.9,3.3c5.9,0.9,12,0.7,17.8,1.9c2.4,0.5,5.8,3.3,6,5.4c0.4,2.9-0.9,7-2.9,9c-1.3,1.3-5.4,0.1-8.1-0.3
		c-2.1-0.3-4.4-2.1-6.3-1.7c-8.6,2.2-13-0.5-13.3-9.6c-0.1-1.7-1.8-3.3-3.5-6.2c-3.8,7.6-8,13.8-9.9,20.6c-1.4,5,0.2,10.8,0.5,16.2
		c4-0.7,8-1.5,12.7-2.3c5.9,8.7-6.5,8.1-8,13.6c6.1,0,11.5,0,19.8,0c-3.9-2.1-5.4-2.9-7.4-3.9c3.1-3.1,6-6,9.1-9.2
		c1.6,7.9,2.8,13.6,3.7,17.9c7.9-2.3,14.1-2.6,18.4-5.7c3.9-2.8,5.6-8.6,8.3-13.1c-0.8-0.7-1.5-1.4-2.3-2.2
		c3.5-0.8,6.9-1.5,11.4-2.5c-0.4,4.8-0.7,8.4-1,12.3C1295.2,1222,1299.1,1221,1300.4,1220.7z M1003,1082.5
		c-14.3-1.1-27-1.4-39.4-3.4c-3.8-0.6-7.9-5.1-10.1-8.9c-4-6.6-6.5-14-10-20.9c-2.3-4.7-5.6-10-11.4-4.7c-5,4.6-9.5,5-15.5,2.6
		c-2.3-0.9-6.7,0-8.1,1.8c-1.3,1.5-0.6,5.8,0.7,8.1c1.7,3.1,4.7,5.7,7.4,8.1c5.4,5,11.4,9.3,16.5,14.6
		c16.2,16.9,34.1,29.4,59.3,26.4c12-1.4,14.5-4.1,12.6-16C1004.4,1087.3,1003.5,1084.5,1003,1082.5z M1088,1372.3
		c2.4-11.1-3.2-19-12.3-24c-4.2,7.7-8.5,15.4-12.3,22.5c-12.5-7.9-24.3-15.4-36.8-23.3c3.7,12.5,3.6,12.2-10,16
		c-2.9,0.8-5,4.5-7.8,7.1c4.2,3.8,7.3,6.7,10.4,9.6c2.3-2.7,4.6-5.3,6.6-7.8c2.2,4.5,4.6,9.7,8,16.7c-2.9,2.1-7.3,5.2-11.1,7.9
		c4.7,3.5,9.6,7.1,14.6,10.8c0.1-1.1,0.2-2.3,0.3-3.4c5.3-0.9,10.6-1.8,17.3-3c-0.2-3.1-0.5-7.3-0.8-11.5c0.6-0.3,1.2-0.7,1.8-1
		c4.7,6.6,9.4,13.1,14.1,19.7c1.3,0,2.6,0.1,4,0.1c2.9-8,5.8-16,8.8-24.4c-8.4,0.6-16.8,3.7-22.8,1.2c-14.1-5.9-13.7-7-11.4-14.9
		c6.4,3.1,12.6,6,20.5,9.9C1073.9,1378.5,1081.3,1375.3,1088,1372.3z M1101.2,1044.1c-10.2,4.1-19.8,8.2-29.6,11.8
		c-9.9,3.6-22.6-4.2-32.2,9.4c6.1,0,10.6,0.1,15.1,0c16.4-0.6,31.8-3.6,45.1-14.8c5.5-4.6,15.9-10.2,20.3-7.9
		c12.9,6.4,20.8-3.6,30.6-6.2c3.5-1,8.2-8,7.6-11.5c-0.8-4.9-5.4-10.1-9.7-13.1c-1.7-1.2-7.2,3.4-11.1,5.3
		c-5.6,2.7-11.2,5.2-17.5,8.2c-0.3-4.6-0.5-7.4-0.8-12.5c-4.1,3.4-6.5,6.3-9.5,7.6c-2.7,1.1-6.1,0.4-9.2,0.2
		c-3.4-0.2-6.7-0.7-10.1-1c1,3.1,1.7,6.3,3.2,9.1c0.5,1,3,0.9,4.6,1.3c-0.8,0.9-1.7,1.7-2.5,2.6c-4.3,0.2-8.5,0.4-12.9,0.6
		c0.3-2.6,0.5-4.5,0.8-7.8c-5.7,2.7-9.9,4.7-14.2,6.8c0,1.2,0,2.3-0.1,3.5c6,2.2,12.2,6.4,17.9,6c6-0.5,11.5-5.6,19.6-9.9
		C1104,1037.7,1102.6,1040.9,1101.2,1044.1z M635.7,919.8c-3.5,6.6-7.1,11.4-8.4,16.6c-0.9,3.3,0.4,8.8,2.8,11
		c2.5,2.3,7.6,2.3,11.6,2.5c14.9,0.6,29.8,1,44.7,1.2c1.8,0,4.6-1.7,5.1-3.2c1.4-4.4,2.2-9.1,2.6-13.7c0.7-7.7-3.2-10.2-10.6-7.6
		c-1.2,0.4-2.8,0.2-4.1-0.2c-13.3-4.8-25.9-14.3-41.1-5.6C637.3,921.2,635.4,919.7,635.7,919.8z M676.7,1109
		c5.6,4.1,9.6,7.9,14.3,10.2c4.7,2.4,10.2,3.4,15.3,4.7c0.4,0.1,2.2-2.2,1.9-2.9c-0.5-1.2-1.9-2.4-3.1-2.6c-1.6-0.3-3.5,0.2-5.2,0.4
		c-0.7-0.8-1.4-1.5-2-2.3c2.6-3.5,4.9-9.4,8-9.9c7.1-1.1,9,5.3,10,11.2c0.5,3.1,0.8,6.3,1.1,8.9c9.5,1.5,17.7,2.8,29.6,4.8
		c-3.4-9.4-5.8-15.9-9.1-25.1c2.2-4.7,1.4-8.3-6.6-11.2c-12.9-4.7-26.1-8.7-39.4-13c-2.5,4.3-7.3,9-6.3,11.4
		C688.8,1102.8,685.3,1107.1,676.7,1109z M1142.8,1371.6c1.6,0.6,4.4,0.7,5.8,2.2c4.8,5.1,10.4,10.1,13.3,16.2
		c2.1,4.4-1.9,7.6-7.1,5.2c-5.3-2.5-10.2-6.1-15.6-8.3c-3.4-1.4-8.9-2.8-10.9-1.1c-4.3,3.7-2.4,8.4,2.2,11.6c0.4,0.3,1,0.1,1.6,0.2
		c-0.1-2.9-0.3-5.6-0.5-11.9c7.9,6.1,13.6,10.2,18.9,14.9c2,1.7,2.8,4.8,4.2,7.2c-2.9,1-5.9,1.7-8.5,3.1c-3.5,1.8-9.3,3.9-9.5,6.2
		c-0.8,10.8,2.9,13.1,15,11.3c0,12.7,11.2,8.1,17.2,12c4.7-16.5,3.4-23.6-5.6-32.8c8.7-2.7,15.6-12.1,12.5-18.4
		c-5.7-11.5-12.4-22.5-18.8-33.9C1151.7,1361.2,1147.7,1365.9,1142.8,1371.6z M798.7,1010.2c-0.6,0.2-3.5,1-6.6,1.8
		c0.9,8.6,1.1,16.7,2.7,24.5c2.6,12.5,10.3,22.1,19.7,30.3c1.3,1.2,4,2.4,5.2,1.8c5-2.4,9.8-5.5,13.7-7.7c-4-8.7-9.8-16.4-10.6-24.6
		c-1-10.2-4.3-18-10.8-24.7c0.2-4.2,0.5-9.1-1.8-11.8c-2.6-3-7.5-4-13.9-7C797.2,999.2,797.9,1004.3,798.7,1010.2z M858.6,1111.7
		c-1.5-0.4-2.9-0.8-4.4-1.3c2.2-5.2,4.5-10.4,6.5-15.7c1.9-4.9,10.1-9.2,3.3-15.1c-3.1-2.7-8.6-3.2-13.1-3.7c-1.9-0.2-5.2,1.4-5.9,3
		c-2.5,6.2-5,12.7-5.8,19.3c-0.5,4.4,0.3,11.4,3.2,13.3c12.3,8.3,25.5,15.3,38.6,22.2c0.9,0.4,5.6-3.6,6.1-6
		c0.9-4.8-0.4-10,0.1-14.9c0.7-8.6-3-14-8.2-16.3c-7.1,2.4-12,4.1-17.6,6C860.8,1104.8,859.7,1108.3,858.6,1111.7z M275.4,639.5
		c-35.1,8.9-70.1,12.9-96.7,38.2c7.3,6.2,20.5,7.1,29.3,2.3c6.4-3.4,13.3-6.8,20.4-7.9c8.1-1.3,16.6,0.1,25-0.1
		c2.6-0.1,5.2-1.6,7.8-2.5c0-1.2,0.1-2.4,0.1-3.6c-6.2-1.7-12.4-3.3-19.4-5.2c6.1-6.7,12.1-11.5,21.6-10.6
		C268.8,650.8,274.2,649.8,275.4,639.5z M478.5,1348.4c3.4-4.9,6.7-9.6,11.3-16.2c-2.3-11.5-17.8-4.3-23.8-14.5
		c-1.5,4.3-2.2,6.3-3,8.5c13.1,2.1,13.1,2.1,12,9.9c-1,6.8-9.6,13.2-16.3,12.4c0.7-5.7,1.4-11.3,2.1-17.1c-8.7,1.5-17,2.9-17.4,14.1
		c0,0.5-1.1,0.9-1.3,1.5c-2.7,7.4-6.8,14.7-7.5,22.4c-0.6,6.3,3,13,4.7,19.4c-11.7,6.4-11.8,7.7-0.2,17.4c2-3.7,4.2-7.6,6.4-11.7
		c-10.4-12.9,10.5-13.4,12.8-22.7c-5-5.2-10.1-10.8,0.9-16.7c0,3,0,5.3,0,7.6c0.9,0.3,1.7,0.7,2.6,1c1.9-3.5,3.2-7.7,6-10.2
		C470.5,1350.9,474.8,1350.1,478.5,1348.4z M1118.9,1231.2c2.9,4.6,7.9,8.3,15.1,2.8c5.6-4.3,10-23.3,6.1-28.9
		c-1.9-2.7-5.8-3.9-8.9-5.8c-1.5,2.6-3.3,5-4.3,7.8c-2.2,5.4-3.9,11-6.4,18c-1.8-2.9-2.4-3.6-2.8-4.5c-3.3-6.8-6.2-13.8-10.2-20.2
		c-1.2-1.9-5.4-2.9-7.9-2.5c-1.7,0.3-3.9,3.7-4.1,5.8c-1.2,12.8-2.1,25.7-2.3,38.6c0,1.9,5.6,5.9,6,5.6
		C1105.7,1243,1111.7,1237.5,1118.9,1231.2z M1044.2,476.8c-1.9,1.1-4.4,3.5-7,3.7c-11.8,0.9-16.4,7-16.1,18.6
		c0.2,4.8-2.5,7.8-8.7,6.6c-3.2-0.6-7,2.1-10.6,3.4c0.4,1.2,0.8,2.5,1.2,3.7c8.7-1,17.5-1.9,29-3.2c-3.5,10.1-6.4,18.3-9.5,27.1
		c9.4-1.1,12,5.3,14.4,12.4c0.9,2.5,3,4.6,4.5,6.9c1.3-2.4,3.2-4.6,3.8-7.2c1.7-7.5,2-14.5-6.7-19c-2-1-3.5-6.4-2.6-8.8
		c2.8-8,6.9-15.6,10.4-23.4c1.4-3.2,3.7-6.7,3.3-9.8C1049.2,484.3,1046.4,481,1044.2,476.8z M298.4,811.4
		c-4-10.7-12.9-17.7-20.2-16.4c-19.1,3.6-38.1,7.7-57.2,11.3c-6.7,1.3-7.7,4.8-4.9,10.1c1.9,3.5,4.4,6.6,6.1,9.1
		c16.9-2.6,30-14.8,47.2-11.5c2.4,0.5,5.8-0.4,7.7-1.9C283.9,806.6,290.7,805.7,298.4,811.4z M912.1,1241.5
		c-0.6,1.1-1.2,2.3-1.9,3.4c3.9,1.3,7.7,3,11.7,3.8c5.7,1.2,11.6,2.1,17.4,2.4c8.4,0.4,8.9,7.3,12.2,12.6c2.3,3.7,8.8,4.9,13.5,7
		c1.3,0.6,3.2,0,4.5,0.6c11,5.3,22,10.7,36.4,17.8c-3.8-10.5-6.7-18.5-9.1-25.2c-8,1.2-15.3,2.2-19.7,2.9c-3.8-5.7-5.4-9.7-8.3-11.9
		c-1.9-1.4-5.7,0.1-8.4,0.2c-8-5.9-16.3-13.4-25.8-18.6c-5.2-2.9-12.5-2.1-18.4-2.9c1.4,2.5,3.3,6.1,6.2,11.5
		C917.5,1243.4,914.8,1242.4,912.1,1241.5z M1169.1,918.3c-19.3-10.5-36.7-3.3-53.7,2.4c2.5,3,5.6,6.6,8.5,10.1
		c3.1,0.6,7,0.9,10.5,2.1c0.8,0.3,1.1,5.1,0.9,5.2c-5,1.2-10.1,2.1-16.2,3.2c-1.4,4.7-3,10.5-5.3,18.3
		C1136.9,949.8,1154.5,936.2,1169.1,918.3z M807.8,753.8c3-11.7,18.1-22.7,29.1-22.5c6.5,0.1,14.1,2.6,19-6.4
		c-15.7-2.3-31.9,4.2-47.2-6.9c-6.7,3.7-15.2,7.8-23.1,12.8c-3.3,2.1-5.4,6.3-8,9.5c3.6,1.9,7.1,3.9,11.4,6.2c0,1.6,0,3.9,0,6.9
		c5.9-6.2,11-11.6,16.4-17.2C810,743.2,793.6,748.6,807.8,753.8z M1215.3,964.8c18.9,1,27-6.2,27.9-20.6
		c0.9-14.3,5.5-17.5,17.1-12.4c0.2-4,0.4-8.1,0.6-14.4c-9.2,0-18.6-0.2-28,0.2c-1.3,0-2.5,2.8-3.6,4.3c-3.4,4.7-6.8,9.4-10.2,14.1
		C1217.4,944.7,1234.9,953.5,1215.3,964.8z M196.9,440.5c7.7-9.1,7.9-9.2,16.8,0.7c6.6,7.4,14.8,9.7,23.4,5.7c3.9-1.8,6-7.5,9-11.5
		c-3.3-2.1-6.3-5.3-9.9-6.2c-9.8-2.6-20.5-2.9-29.8-6.8c-10-4.2-18.7-7.5-28.6,0.4c3.7,4.6,7.5,9.2,10,12.4
		C191.7,437.4,194.2,438.9,196.9,440.5z M879.5,1470.4c-5.2,4-13.6,7.6-13.5,10.9c0.4,10.4,9.6,13.9,18.7,16.8
		c1.1-2.6,2.1-4.8,2.7-6.1c5.8,0,10.4,0,15.1,0c0.4-0.9,0.8-1.7,1.1-2.6c-12.7-3.1-7.3-12.5-7.7-20.2c-3.6,0.2-6.6,0.3-9.6,0.4
		c-1.3-1.6-2.7-3.2-4-4.9c3.7-1.6,7.4-3.3,11.2-4.9c-9.1-7.3-12.1-7.7-31.7-4C866.7,1462.3,868.2,1472.8,879.5,1470.4z M533.5,779.2
		c-2.4-2.3-4.2-5.3-6.9-6.3c-3.4-1.2-7.4-0.7-11.1-1c0.1,14.7,7.4,25.3,20.4,28.4c-2.6,4.7-4.9,9-7.3,13.2
		c8.9,6.7,16.5,6.2,22.5-4.1c0.6-1.1,2-1.6,3.1-2.4c4.9-3.6,4.4-20-0.8-22.8c-1.5-0.8-4.7-1.3-5.5-0.4c-6.9,7.5-13.5,1-22.9,0.8
		C529.7,781.6,532.1,780.1,533.5,779.2z M510.9,1235.9c1.7,5.2,3.1,9.7,5.2,16.2c15.5,0,31.8,0,48.7,0c0,2.9,0,5.7,0,9.5
		c6.4-1.9,14.6,2.6,17.3-8.2c-4.1,0.8-7.3,1.5-10.8,2.2c-7.5-13.2-22.2-4.9-34.2-11.4c2.6-4.5,5-8.7,7.5-13
		c-9.5-4.6-18.7-13.6-33.7-9.6c4.5,2.5,7.2,3.9,11.3,6.2C517.1,1231.4,513.4,1234.1,510.9,1235.9z M1156.4,527.1
		c4.9-6.2,8.4-10.8,12.2-15.3c1.8-2.1,4.2-3.6,5.9-5.7c0.3-0.3-1.8-3.6-2.5-3.5c-2.7,0.3-6.5,0.6-7.8,2.4c-5.2,7-11.9,6.5-19.1,4.9
		c-5.1-1.1-10.2-2-15.5-3c-3.5,7.3-6.7,13.8-10,20.6c3.7,4,10.8,6.9,3.5,13.7c-1.8,1.7-3.1,7.1-2,8.3c2.7,2.8,6.8,4.8,10.7,5.7
		c2.1,0.5,4.9-2,7.4-3.1c-0.2-0.6-0.4-1.1-0.6-1.7c-2.6,0-5.3,0-7.2,0c0.9-5.1,3.9-11,2.1-13.8c-6.3-9.9,1.9-14.7,5.3-21.9
		C1140.7,526.9,1149.7,526.7,1156.4,527.1z M1139.2,315.6c-1.2-0.5-2.5-1-3.7-1.5c7.5-5.2,9.3-10.4,3.2-15
		c-6.8,0.9-12.9,1.8-16.9,2.4c-2.9,9.1-5.5,17.2-8.5,26.6c0.3,0.1,3.1,1.3,6.1,2.5c-0.9,2-1.8,3.8-3.3,7.1
		c7.2-1.8,12.9-3.3,18.6-4.7c0.8-3.5,1.6-6.6,1.7-7.3c8.5-6.1,20.8,3.1,24.5-11.3c-3.9-2.9-7.6-5.6-10.9-8.1
		C1146.1,309.7,1142.7,312.7,1139.2,315.6z M1414.2,991c-4.5-2.1-10.8-6.5-12.2-5.3c-4.4,3.7-7.7,9.4-9.8,14.9
		c-0.8,2.2,2.4,6.5,4.7,9c2.3,2.6,5.8,4.1,8.7,6.1c-0.4,0.6-0.7,1.3-1.1,1.9c-3.5,0-7,0-10.8,0c0,3.6,0,6.6,0,12.8
		c10.5-7.1,19.5-12.2,27.2-18.8c4.2-3.7,6.2-10,9.1-15.1C1424.9,994.6,1419.7,992.9,1414.2,991z M287.1,643.9
		c6.5,6.2,12.6,12,18.7,17.8c6.7-12.5,6.7-12.5,15-9.4c-1.1,3.7-4.3,9.2-3,10.7c2.8,3.2,8,4.2,13.2,6.7c0-6.3,1.6-12.2-0.3-13.7
		c-9.7-7.6-2.3-9.8,3.1-13.3c1.3-0.9,2.6-3.6,2.2-4.8c-0.7-1.9-3.2-4.9-4.4-4.7C317.2,635.7,301.2,632.1,287.1,643.9z M1468.6,536.5
		c-7.1,3.7-14.7,5.2-16.8,9.4c-1.7,3.3,1.9,11.8,5.7,14.8c5.1,4,12.6,5.2,19.2,7c3.5,0.9,7.3,1,10.9,0.6c3.5-0.3,6.9-1.7,10.3-2.6
		c-1.5-4.4-0.7-10.2-8.1-10.9c-3-0.3-6-3.6-8.5-5.9C1477,545.1,1473.2,541,1468.6,536.5z M986.7,1481.2c7.3-1.7,13.9-3.1,20.4-4.9
		c7.7-2.1,7.9-9.4,8.7-15.2c0.3-2.1-5.1-5-8-7.5c-1-0.8-3-1.3-3.1-2.1c-1.3-10-8-6.6-13.8-5.8c-12.4,1.8-15.5-0.3-19.7-12.3
		c-0.8-2.4-2.2-4.5-3.3-6.6c-5.5,3.5-9.7,6.3-13.5,8.7c4.9,3,7.8,4.6,10.5,6.5c6.2,4.4,12.3,9,18.5,13.5c0.3-0.5,0.6-1.1,0.9-1.6
		c1.6,3.1,3.2,6.2,6,11.6c0.4-5.4,0.6-7.7,0.8-10c3.3,8.3,21.8-4.1,17.6,13.2C1001.4,1472.1,989.3,1466.1,986.7,1481.2z
		 M1172.6,1039.8c-1.1-1-2.2-2.1-3.2-3.1c-2.2,0.4-4.6,0.3-6.5,1.2c-11.5,5.5-22.9,11-34.1,17c-4.2,2.3-9.7,4.8-5.1,11.5
		c3.8,5.5,7.9,9.2,14.9,4.3c7.4-5.2,15.6-9.5,22.4-15.4C1165.7,1051.2,1168.7,1045.1,1172.6,1039.8z M45.5,878.2
		c-4.6,17.1,19.3,29.5,37.8,19.8c1.2-6.9,2.1-12.4,3.4-19.8C73.3,878.2,59.6,878.2,45.5,878.2z M1322.3,967.6
		c-0.7-1.1-1.4-2.2-2.1-3.3c-5.5,2.2-11,4.6-16.6,6.7c-7.2,2.7-14.4,5.7-21.9,7.5c-8.3,2-16.9,2.7-27.8,4.4
		c6.5,7.7,11.7,14,16.2,19.3c4.1-3.7,7.3-7.9,11.4-10c4.2-2.1,10-1.2,14.2-3.5c7.1-3.8,13.5-8.8,20-13.6
		C1318.2,973.2,1320.1,970.2,1322.3,967.6z M908.9,1406.8c0.8,7.9,2.6,13.8,1.6,19.2c-1.5,8.6,3,16.6,10.7,13.6
		c9.8-3.8,19.5-7.6,29.8-9.9c0.1,0-0.1-1.2,0-0.5c-4.1-1.8-7.3-4.2-10.8-4.5c-8.1-0.8-11.7-6.7-14.2-12.6
		C921.3,1400.4,916.4,1399,908.9,1406.8z M618.8,1006.6c2.9-3.8,5.9-7.8,8.9-11.7c-0.4-0.5-0.9-1-1.3-1.5
		c-5.1,2.1-10.1,4.1-15.1,6.2c1.2,3.7,3.7,7.7,2.8,8.8c-8.4,10.1-6.1,21.2-4.4,32.6c0.6,3.9-0.8,8.1-1.3,12.5
		c6.7,1.3,13.7,2.8,21.6,4.3c2.4-11.3-12.4-11.8-13-20.8C631.3,1017.2,629.8,1017.3,618.8,1006.6z M1122.4,416.4
		c-4.7,15.2-1.9,18.4,12.5,17.3c6.1-0.5,13.5-0.3,18.3,2.8c6.8,4.3,5.3-0.5,5.2-3.3c-0.2-8.6-0.1-17.4-1.5-25.8
		c-1-5.8-4.3-11.2-6.6-16.8c-1.6,0.6-3.1,1.3-4.7,1.9c1.9,5.5,3.7,11,5.6,16.7c-3,1.2-5.9,2.4-9.7,3.9c2.4,2.6,4,4.4,5.7,6.3
		C1141.1,423.5,1141.1,423.5,1122.4,416.4z M880.9,918.7c-11.1,11.7-1.4,22,1.3,32.3c0.8,2.8,8.2,4.7,12.7,5.2
		c1.2,0.1,4.4-6.2,4.6-9.6c0.7-15.8-13-24.7-18.9-37.5c-0.3-0.6-4.8,0.8-7.3,1.2c0.7,2.2,1.1,4.6,2.3,6.4
		C876.3,917.8,878.4,917.9,880.9,918.7z M1193.4,1196.9c0.1-0.8,0.2-1.6,0.3-2.3c4.7,0.8,9.3,1.8,14,2.3c2.2,0.3,5.5,0.7,6.5-0.5
		c5.5-6.4,10.5-13.3,16.3-20.7c-13-0.8-23.5-1.5-34-2.2c1.6,3.2,2.9,5.7,4.1,8.3c-7.4-2.1-12.9-10.3-20.2-0.1
		C1184.8,1186.9,1189.1,1191.9,1193.4,1196.9z M886.4,1303.8c3.6-0.7,6.3-1.3,9-1.8c-1-3.6-2-7.1-3-10.8c4.4-4.7,9.3-9.8,14.5-15.2
		c-1.9-0.2-3.8-0.1-5.6-0.7c-1.9-0.6-3.5-1.8-5.7-2.9c-1.4,1.5-2.5,3.9-4.1,4.2c-3.7,0.7-7.6,0.5-11.4,0.7c0.6,3.3,1.7,6.6,1.8,10
		c0.1,3.4-0.8,6.8-1.3,10.8c-3.7,3.9-8.2,8.5-13.7,14.1c7.4,4.4,12.8,7.7,19.5,11.7C886.4,1316.2,886.4,1310.3,886.4,1303.8z
		 M304.7,828.9c-16.1-8-30.3-8.6-44.5-4.9c-3.2,0.8-5.4,5.2-8.1,8c2.6,1.9,5.2,3.7,8.4,6.1c0.9,1.9,1.8,6.8,4.3,7.9
		c2.1,0.9,6.8-1.8,9.2-4.1c4.2-4.1,7.3-7.2,14.4-5.9C292.8,836.8,298.1,832,304.7,828.9z M914.3,1485.6c1.8-3.5,2.5-4.6,2.9-5.7
		c0.9-2.6,1.6-5.2,2.4-7.7c-2.7,0.5-5.7,0.6-8.1,1.6c-4.2,1.8-8.1,4.3-12.2,6.5c2.3,2.6,6.3,5.1,6.1,7.2
		c-0.7,9.4,4.9,14.5,10.7,20.3c6.6,6.6,18.8,6,23.7-3.5c-6.5,0-12.2,0-19.3,0c2.6-3.9,5.5-7.7,7.7-11.8c1.1-2.1,1.8-5.6,0.8-7.4
		c-0.8-1.5-4.4-1.8-6.8-1.9C920.4,1483.1,918.6,1484.2,914.3,1485.6z M413.2,1178c-0.2,0.7-0.4,1.3-0.6,2c2.7,0.5,5.5,1.3,8.2,1.4
		c11.6,0.4,20.8,3.9,24.7,16.3c0.6,1.9,4.6,3.7,7,3.7c4.7-0.1,13.4-16.9,11.3-21.2c-0.6-1.2-1.4-2.8-2.4-3c-8.3-1.7-16.7-4.5-25-4.4
		C428.7,1172.9,421,1176.2,413.2,1178z M590.1,871.4c-26.6-6.3-40.9-1.5-46.6,15.2C568.8,893.8,580.1,888.1,590.1,871.4z
		 M376.6,736.1c-4.2,15.5-3.7,16.1,10.8,13.7c2.3-0.4,4.9-1,6.9-0.1c6.5,2.7,10.2-1.3,12.1-5.8c4-9.7,11.9-14.4,20.2-19.3
		c2.1-1.2,2.8-4.9,4.1-7.5c-2.9,0.1-6.5-0.9-8.6,0.4c-5.8,3.8-10.4,10.4-16.7,12.4C396.4,732.8,389.1,744.9,376.6,736.1z
		 M1014,459.9c-21.4-5.5-28.7-0.3-27,18.3c2.9,0.8,5.8,1.6,10.2,2.8c-2.4,2.1-3.3,3-4.3,3.8c-1.8,1.4-3.7,2.8-5.5,4.3
		c2.4,1.1,4.8,2.9,7.2,3c2.9,0.2,6.7-0.2,8.5-2c3.1-3.1,7.7-9.9,6.8-11C1003,470.9,1004.5,465,1014,459.9z M374.9,1261.7
		c-8.6,0-16.7-0.6-24.6,0.2c-8.4,0.8-16.8,2.7-22.8,3.7c-0.5,4.6-1.4,7.5-1,10.2c0.2,1.7,2.4,4.6,3.3,4.5
		c10.9-1.4,21.9-2.5,32.5-5.2C368.8,1273.5,375.2,1269.9,374.9,1261.7z M284.5,463.1c18.7-1.4,35.7-2.6,52.6-4.2
		c1.7-0.2,3.9-2.1,4.7-3.8c1.2-2.7,1.5-5.8,2.5-10.3c-1.5-0.9-2.9-6.5-7.7,0.8c-2.6,3.8-7.6,7.1-14,3.6c-3.5-1.9-8.4-1.7-12.6-1.9
		c-12.1-0.4-12.6,0.2-8.4,12.8c-4.8-1.8-8.5-3.1-12.8-4.6C287.7,457.5,286.4,459.7,284.5,463.1z M401.7,516.3
		c13.9-0.4,16-3.9,15.2-21.7c-0.1-2.5-6-7.2-6.5-7c-8,5.6-15.6,11.9-23.3,18C392.9,509.8,398.7,514.1,401.7,516.3z M981.4,1322.5
		c-17.3-3.9-18.5-6.8-7.7-23.8c-11,5.6-19.5,9.9-28.9,14.6c0.3,6.7,1.7,15.7,10.3,15.6C963.6,1328.7,975.3,1337.2,981.4,1322.5z
		 M187.6,802.2c-8.4-1-17.3-4.3-25.1-2.5c-8.6,2-16.1,8.5-25.9,14.1C151.2,819.7,179.4,814.4,187.6,802.2z M981.4,1194.1
		c9.5-0.6,17.7-1.1,27.8-1.7c-11.6-18.7-30.4-10.5-42.9-19.3c-3.2,5.7-6,10.6-8.8,15.5c0.3,1.6,0.7,3.2,1,4.9
		c5.8-10.8,9.6-4.9,13.6-1.5c1.1-4.1,2-7.3,2.8-10.5c0.8,0,1.7,0,2.5,0C978.8,1186.1,980.3,1190.7,981.4,1194.1z M994.7,588.6
		c2,4,2.7,6.8,4.5,8.6c2.9,3,6.3,7,9.9,7.4c2.6,0.3,6.1-4.4,8.5-7.3c1.3-1.6,0.7-4.8,2-6.5c3-4,5.1-8.2-0.2-10.9
		c-3.8-1.9-9.7-3.1-13.2-1.5C1001.4,580.4,998,585.5,994.7,588.6z M370.7,894.4c-8.5-10.9-26.3-16.8-41.6-13.8
		c6.3,6.7,12.2,13.7,19,19.7c2.3,2,7.4,2.4,10.5,1.5C362.8,900.5,366.3,897.3,370.7,894.4z M922.8,1335.2
		c11.6,20.3,10.4-6.8,15.8-5.6c-2.2-2.7-5-6.2-9-11.2c5,0,7.6,0,10.3,0c-5.4-3.2-11.8-7.1-16.3-5.5c-4.2,1.5-6.5,8.8-9.7,13.8
		c-0.9-2.3-1.6-4-2.3-5.8c-1,0.5-2.1,1-3.1,1.5c2,4.5,3.7,9.2,6.4,13.2C915.3,1336.6,919.3,1335.4,922.8,1335.2z M1150.7,469.5
		c-1.2-0.9-2.3-1.8-3.5-2.7c-0.6,3.6-2.4,10-1.7,10.3c5.5,2.3,11.7,4.8,17.4,4.3c3.6-0.3,6.8-5.8,11.5-10.2
		c5.1,1.6,12.8,4.1,23.5,7.5c-5.1-7.2-8.6-12.2-12.1-17.2c-0.3,1.1-0.7,2.2-1,3.3c-5.2,0-10.4,0-15.6,0c-1.6,0-3.2,0.2-4.7,0.6
		C1159.9,466.8,1155.3,468.2,1150.7,469.5z M1195.3,1286.9c-6.8,8.8-12.1,15.7-17.5,22.7c16.8,10.6,20,10.9,28.1,3
		c-0.9-4.1-2.9-8-2.3-11.6C1205,1291.9,1200.8,1288,1195.3,1286.9z M566.1,976.9c0.2-1.3,0.3-2.5,0.5-3.8c-7.2-4-13.9-9.3-21.6-11.7
		c-11.3-3.6-9.6,10.7-19.3,14.4c9.4,3.1,16.3,6.8,23.4,7.1C554.7,983.2,560.5,979.1,566.1,976.9z M858.3,1281
		c8-0.5,11.7-5.2,9.7-11.4c-0.7-2.3-8-3.3-12.3-3.3c-11.6,0-17,7-18.3,18.6c6.2,7.5,12.8,15.5,20,24.1c1-2.4,2-3.7,1.7-4.1
		c-3.4-4.5-8.4-8.5-10.1-13.5c-1.5-4.4,0.5-10.1,0.9-15.2c0-0.6,0-1.1,0-1.7C858.7,1271.8,858.7,1271.8,858.3,1281z M250.6,431.9
		c14.5,7.6,14.5,7.6,26.2,2.3c-1.8,5.4-3,9.3-4.7,14.2c5-1.9,9.4-3.5,13.7-5.1c-1.6-4.7-2.6-7.9-3.7-11
		c-3.1-8.6-11.9-15.8-16.8-12.8C259.8,422.8,255.5,427.7,250.6,431.9z M404.3,1313.8c-0.9-0.1-1.8-0.2-2.8-0.3
		c-5.6,13.1-19.3,11.5-29.1,17.1c-2.6,1.5-4.5,4.1-6.7,6.2c2.3,1.3,4.4,3.2,6.9,3.7c9.8,2,17.2-9.7,27.9-5.2
		c0.9,0.4,5.2-3.4,5.3-5.3C406.1,1324.6,404.9,1319.2,404.3,1313.8z M359.8,1226.4c0,5.3,0,10.7,0,18.1c6-3.5,11.4-6.6,17.4-10
		c-5.3-4-8.8-6.6-11.7-8.8c0.6-3.9,2.3-7.4,1.4-10.1c-1.8-5.3-4.9-10.2-8-16.4c-1.5,0.9-8.6,4.2-8.4,5c1.7,5.2,5.1,9.9,7.9,14.8
		c-2.8-0.6-6.3-1.3-9.9-2c-0.3,0.7-0.7,1.5-1,2.2C351.5,1221.5,355.5,1223.9,359.8,1226.4z M1021.8,1190.2c9,11,22.4,10.1,37.2-2.5
		c-4.1-2.2-7.9-4.3-11.6-6.3c-2.2,2.6-4.2,4.7-4.8,5.4c-10.9-2.3-20.4-4.3-31.5-6.6c1.2,6.3,1.9,9.8,2.8,14.1
		C1017,1192.8,1019.2,1191.6,1021.8,1190.2z M673.4,1541.2c38.3,8.6,38.3,8.6,44.5,2.2c-13-4.3-25.9-8.9-39.1-12.6
		c-3-0.8-8.9,1-9.9,3.3c-1.7,3.6-0.5,8.6-0.5,13c1.1,0,2.2,0.1,3.2,0.1C672.2,1545.2,672.8,1543.2,673.4,1541.2z M607.4,1290.8
		c-6.4-7.5-6.4-7.6-30.3-14.4c-3.1-0.9-6.6-0.3-9.9-0.3c2.3,2.9,4.1,6.6,7,8.5c5.8,3.9,12.8,6.1,18.1,10.4
		C600.5,1301.6,604.1,1298,607.4,1290.8z M307,837c4.2,3.1,7.4,6.5,11.3,8c7.6,3.1,15.5,5.3,23.4,7.5c0.8,0.2,2.4-2.1,3.5-3.3
		c1.1-1.2,2.1-2.6,3.1-3.9C330.5,833,313.8,829.4,307,837z M1082.5,1250.6c8.2-8.8,0-16.3-4-27.7c-6.5,7.4-12,13.3-17,19.5
		c-1.2,1.5-2.1,4.9-1.3,6c1,1.4,4,2,6.1,2.1C1071.2,1250.8,1076.1,1250.6,1082.5,1250.6z M1206.9,1122.2c-1.5-8.2-2.9-15.1-4.3-22.7
		c4.6,0,6.8,0,8.9,0c0.2-0.7,0.4-1.4,0.6-2.2c-5.6-2.4-11.1-4.8-16.7-7.3c-0.7,0.5-1.3,1.1-2,1.6c10.2,13.2-7.7,16.3-8.3,25.5
		C1201.1,1125,1201.1,1125,1206.9,1122.2z M115.6,638.2c6.1,4.2,6,14.1,16.3,11.7c6.8-1.6,13.8-2.2,20.5-3.3
		C148.9,635.9,127.6,629.4,115.6,638.2z M416.3,656.8c-10.2-12.5-29.4,5-36.5-13.6c-0.9,5.3-1.9,10.5-3,16.6c12.6-4,20-0.6,20.8,9.3
		C403.8,665,409.6,661.2,416.3,656.8z M1220,922.3c-6.6-4.7-21.7-4-26,1.1c-4.1,4.8-7.8,10.7-2.7,19.6
		C1201.1,935.9,1210,929.5,1220,922.3z M522.1,559.8c-4.6-3.4-9.5-9.5-12.3-8.6c-8,2.5-15.4,5.5-23.9,2.2c-0.7-0.3-2,1.2-3.7,2.4
		c3.1,4.1,5.8,7.8,7.8,10.5c6.5-2,12-3.7,18.4-5.6c0.3,4.7,0.5,7.5,0.8,11C513.4,567.8,516.9,564.6,522.1,559.8z M451.6,500.1
		c-2.8-4.1-4.7-9.6-8.5-11.5c-3.7-1.9-9.2-0.1-13.9,0.1c1.5,4.6,3,9.2,4.6,13.8c0.3,0.9,0.8,2,1.5,2.6c3.3,2.3,6.7,4.4,10.1,6.5
		C447.1,508.4,448.8,505.2,451.6,500.1z M542.9,1041.8c2.6-4.7,6.3-9.1,7.5-14.1c1.2-5.1,0-10.8-0.2-16.2c-3.9,1.3-8.1,1.9-11.6,3.9
		c-3.9,2.2-7.1,5.5-8.9,7C534.4,1029.3,539.2,1036.3,542.9,1041.8z M1246.2,1163.3c-1.6-5.3-1.7-14.4-13.1-11.9
		c-7.6,1.6-15.1,3.7-22.4,6.3c-2.2,0.8-3.5,4.3-5.2,6.6c2.2,0.9,4.5,2.6,6.6,2.5C1223.6,1165.9,1235,1164.5,1246.2,1163.3z
		 M852.6,678.8c-4.9-6.6-16.1-8.7-23-5.1c-7.2,3.8-8.4,10.2-5.5,17.1c1.1,2.7,4.1,4.6,4.5,5c2.9-4.5,3.9-7.6,6-8.8
		C840,684,846,681.7,852.6,678.8z M651.9,1103c-0.5,4.4-1.2,6.1-0.7,7.3c0.9,2.1,2.5,3.9,3.9,5.8c1.9-1.4,4.9-2.4,5.5-4.2
		c0.6-1.8-0.6-5.7-2.1-6.4c-12.4-5.3-24.6-15-38.7-2.6C629.7,1110.2,639.8,1112.8,651.9,1103z M1040.4,562.1
		c-1.8,0.6-3.6,1.1-5.4,1.7c1.7,8.9,3,17.9,5.6,26.4c0.5,1.6,7,2.3,10.3,1.6c1.6-0.3,4-5.8,3.2-7.4
		C1050.1,576.7,1045.1,569.4,1040.4,562.1z M1030.1,543c-10.3,3.2-17.8,4.9-24.7,7.9c-2.4,1-5.5,5.6-4.9,7.3
		c1.7,4.5,5.3,8.4,10.1,15.3c-1.3-14.3,9.5-14.4,16.1-19.4C1029.1,552.4,1028.9,547.3,1030.1,543z M412.3,534.1
		c9.5,0.8,18.9,1.5,28.5,2.3c0.5-4.3,1-8.7,1.5-13.2C426.3,518.4,413.9,522.3,412.3,534.1z M1203.5,280.9c-0.8,0.8-1.6,1.7-2.3,2.5
		c0.5,2.5,1,4.9,1.5,7.7c-7.4,3.1-14.5,6-21.9,9.1c5.6,2.3,9.7,4.6,14.2,5.5c3.2,0.6,8.6,0.4,9.8-1.5c3.5-5.3,5.8-11.5,7.3-17.7
		C1212.4,285.4,1206.5,282.8,1203.5,280.9z M1021.4,1466c-2.9,15.5,12,11.6,16.2,18.8c1.1,1.8,6.5,1.1,10.1,1.6
		c0.3-2.3,0.9-3.5,0.5-4.2c-2.8-5.5-4.6-12.8-9.2-15.7C1034.7,1463.9,1027.4,1466,1021.4,1466z M1009.6,525.3
		c-14.2,1.6-20,5.9-18.8,13.7c1.2,7.7,7.1,7.4,12.5,6.3C1013.6,543.2,1014.3,540.5,1009.6,525.3z M816.4,811.8
		c-11.4-2.7-21.1-5.1-31.2-7.5c6.4,11.2,29.8,22.7,40.5,19.6C822.2,819.3,818.8,814.9,816.4,811.8z M1519.2,589
		c-2.9-2.8-5.3-7.3-8.2-7.6c-8.4-0.9-17-0.7-25.3,0.7c-1.9,0.3-2.6,7.4-3.3,9.5C1494.7,590.8,1505.4,590,1519.2,589z M1481.4,971.4
		c-0.1-1.1-0.3-2.1-0.4-3.2c-2.6-0.7-6.1-2.8-7.6-1.8c-8.5,5.9-16.6,12.6-24.5,19.3c-0.2,0.2,2.9,4.3,4.4,6.5
		c3.1-2.1,6.3-4.1,9.3-6.4c2.7-2,5.2-4.4,7.9-6.5C1474.1,976.7,1477.8,974.1,1481.4,971.4z M998.8,1350.5c1.6-0.7,3.2-1.5,4.8-2.2
		c-9.5-12.3-2.7-20,5-27.8c1.2-1.2,0.7-4.2,1.1-6.4c-7.3,4-13.2,8.2-17.4,13.6c-2.6,3.3-4.4,9.2-3.2,13
		C990.3,1344.6,995.4,1347.3,998.8,1350.5z M853.7,1250.8c-10-1.3-17.8-2.4-25.5-3.4c-0.3,1.2-0.5,2.5-0.8,3.7
		c3.4,1.3,7.4,2,10.2,4.1c2.8,2.2,4.5,5.9,6.4,8.5c3.4-1.4,6.8-3.1,10.3-4.3c3.2-1.1,8.8-1.1,9.4-2.9c0.9-3-1.3-7-2.6-12.3
		C857,1247.8,854.6,1249.9,853.7,1250.8z M957.7,1049.7c-3.9,13.6,8.7,25.5,24.2,23c-4.4-6.9-8.8-13.8-13.8-21.7
		C965.7,1050.7,961.7,1050.2,957.7,1049.7z M1102,145.3c3.3,5.5,5,10.9,12.3,5.8c1.2-0.8,3.9,0.5,5.9,1c2.6,0.7,5.1,1.6,7.6,2.4
		c0.7-4.4,1.9-8.9,1.6-13.2c-0.1-1-5.4-2.9-7.9-2.4C1115.5,140.3,1109.7,142.7,1102,145.3z M1383.9,946.1c-0.6-1-1.3-2-1.9-3.1
		c-3.4,0.7-6.9,1.4-10.3,2.1c-7.5,1.5-15.1,2.7-22.5,4.6c-2.7,0.7-5.1,2.7-7.6,4.2c3,1.4,6.2,4.2,9.1,3.9c8.6-1,17.3-2.9,25.6-5.2
		C1379.1,951.6,1381.3,948.2,1383.9,946.1z M359.8,500.7c-1.7-6.5-3.8-11.1-4-15.7c-0.2-6.2-4.1-10.2-9.9-7.9
		c-4.1,1.6-7.8,4.5-13.7,8c4.4,2.3,7,3.4,9.3,4.9c2.5,1.6,5.9,3.1,7,5.5C351.7,502.8,356.1,503,359.8,500.7z M814.2,1154.6
		c2.6-10,0.6-18.4-8.5-28c-3.1,5.7-8.2,10.8-7.2,14.1C800.4,1147.2,804,1154.7,814.2,1154.6z M878.5,654.8
		c-4.9,5.6-9.8,11.3-15.9,18.2c6.7,0,11.8,1.5,15-0.3c7-4.1,12.9-9.8,22-17.1c-5.3,0-10.1-1.4-11.4,0.2
		C882.6,662.3,880.4,657.3,878.5,654.8z M882.7,1392c-0.7-0.8-1.4-1.6-2.1-2.4c-5,6.7-10,13.4-17,22.7c12.8-3.5,22.7-6.1,35-9.5
		C891.5,1398,887.1,1395,882.7,1392z M976,906.2c0,1,0.1,1.9,0.1,2.9c4.6,0.4,10.3,2.7,13.3,0.8c2.9-1.9,4.7-8.7,3.6-12.4
		c-1.3-4.1-6.3-7.1-9.7-10.6c-1.1,0.5-2.2,1.1-3.4,1.6c0,4.9,0,9.7,0,15.5C979.7,904.1,977.8,905.2,976,906.2z M1522.2,625.5
		c-1-1.1-1.9-2.3-2.9-3.4c-4.5-0.8-10.5,0-13.1-2.7c-5.4-5.5-8.3-0.6-8.7,2.1c-0.6,3.8,1.4,8.3,3.2,12c0.3,0.7,5.4-1,8.7-1.7
		c2,1.1,5.1,2.7,8.3,4.3c0.1,0.1,0.7-0.9,1.3-1.7c-1.9-1.4-3.8-2.7-6.8-4.8C1516.2,628,1519.2,626.8,1522.2,625.5z M207.9,1241.2
		c0.6,1.3,1.2,2.6,1.7,3.9c8-2.7,16.9-4.1,23.7-8.7c4.1-2.7,5.1-10.3,6.9-15.9c0.2-0.6-3.2-2.5-5.8-4.4c-1.6,4-2.6,7.2-4.1,10
		c-1.2,2.1-2.8,4.4-4.9,5.6C219.8,1235.2,213.8,1238.1,207.9,1241.2z M119.3,835.1c-0.8,1.2-1.6,2.5-2.4,3.7c2,2,3.6,4.6,6,6
		c4.5,2.7,9.3,4.7,14,7.1c-0.3,0.9-0.6,1.9-0.9,2.8c3.2-1.3,6.5-2.6,9.8-3.9c-0.3-3.2-0.6-6.2-0.9-9.6
		C136.4,839.2,127.8,837.1,119.3,835.1z M1204.1,1024c10,5,18.8,9.3,28,13.9c4.2-10.4-2.3-13-7.5-15.5
		C1218.5,1019.5,1211.7,1014.3,1204.1,1024z M1253.8,1290.6c0.5,1.3,0.9,2.6,1.4,3.9c7.2,1.3,14.3,3.1,21.5,3.6
		c2.4,0.2,5-3.1,7.4-4.8c-2.2-1.9-4.1-4.7-6.7-5.6c-4.1-1.3-8.6-2.1-12.8-1.6C1260.9,1286.6,1257.4,1289,1253.8,1290.6z
		 M778.1,980.1c-10.2-3.8-16-0.5-18.9,6.9c3.8,6.1,6.7,10.8,11.4,18.3C773.3,996.2,775.5,988.6,778.1,980.1z M802.5,911.8
		c3.3-9,2.6-13.5-3.7-17.2c-7.9-4.7-12.6-0.2-19.1,4.4C787.9,903.6,794.9,907.5,802.5,911.8z M875.2,1440.6
		c5.3-0.9,9.7-1.7,12.4-2.1c0-6.1,0-10.9,0-17.4c-0.2-0.2-2.2-1.9-4-3.5C875.1,1423.7,875.1,1423.7,875.2,1440.6z M705.9,1324.2
		c6,2.7,9.7,5.9,12.2,5.2c6.1-1.8,11.7-5.5,17.4-8.6c0.2-0.1-0.7-3.1-1.7-4c-2-1.7-4.5-2.7-6.1-3.7
		C721.2,1316.4,715.1,1319.5,705.9,1324.2z M240.6,408.3c-8.9,1.4-14.5-10.9-25-5.8C221.4,418.7,227.3,420.1,240.6,408.3z
		 M909.1,1167.1c10.9-10.2,10.9-10.5,0.7-16.8c0.8-3.4,1.4-6.2,2.5-11C898.9,1148.4,898.6,1156.9,909.1,1167.1z M1161.7,190.3
		c-1.3-4.4-1.7-8.2-3.5-11.3c-0.9-1.7-4.8-3.8-5.9-3.1c-4.6,2.5-8.6,5.9-13,9.1C1142.5,192.1,1150.1,193.9,1161.7,190.3z M271,468.7
		c0.2-1.4,0.4-2.8,0.7-4.2c-2.9-0.9-5.7-2.3-8.7-2.5c-3.9-0.3-8.1-0.2-11.9,0.6c-2.6,0.6-4.9,2.8-7.4,4.2c2.7,2.2,5.5,6.4,8.1,6.2
		C258.2,472.7,264.6,470.3,271,468.7z M183.5,640.7c-4.6-1-9.7-3.6-13.7-2.5c-3,0.8-4.7,6.5-7.1,10
		C173.8,656.5,180.5,654.7,183.5,640.7z M1370.9,958.7c5.6,13.4,16.6,10.4,24.2,14.2c0.5,0.2,3.5-2.6,3.6-4.1c0.1-2-1.1-5.6-2.4-5.9
		C1388.6,961.2,1380.7,960.2,1370.9,958.7z M295.3,472.4c38.8,2.9,38.8,2.9,40.5-5.4C322,468.8,308.7,470.6,295.3,472.4z
		 M547.3,563.3c-0.1-1.3-0.2-2.6-0.3-3.9c-3.9-0.3-8.3-1.8-11.7-0.6c-9.2,3.3-4.6,10.6-4.4,17c4.1,0,7.6,0,12.6,0
		C535.9,568.1,542.4,566,547.3,563.3z M429.9,814.1c-0.7-1.7-1.4-3.3-2.2-5c-7.4,2.1-14.9,4-22.1,6.7c-1.5,0.6-1.9,4.3-2.7,6.6
		c1.9,0.6,4.3,2.3,5.7,1.7C415.9,821.1,422.9,817.5,429.9,814.1z M1261.9,508.8c-7.5-8.6-11.9-8.3-27,1.2
		C1244.3,520.8,1252.3,511.5,1261.9,508.8z M999.2,193.1c-11.2,2.4-17.2,9.4-18.4,20.7C989.4,215.3,994.9,209.4,999.2,193.1z
		 M780.2,1358.5c-14.2-7.8-29-8-37,0C756.9,1358.5,768.5,1358.5,780.2,1358.5z M567.5,572.7c2,3.3,3.3,5.4,4.5,7.5
		c1.8-1.2,4.7-1.9,5.3-3.5c1.9-5.3,3.1-10.9,4.2-16.4c0.1-0.4-4.3-2.2-4.6-1.9C573.6,562.9,570.7,567.7,567.5,572.7z M1164.2,1142
		c-0.8-8.2,0-16.2-10-17.9c-1.7-0.3-5.2,2.3-5.7,4.1C1147,1134.9,1153.4,1140.7,1164.2,1142z M1390.7,486.3
		c-1.2-0.1-2.4-0.1-3.6-0.2c5.5,1.1,10.9,2.2,16.4,3.3c-0.2-6.4-0.5-12.8-0.7-19.2c0.3,1.3,0.7,2.6,1,3.9
		C1399.4,478.1,1395.1,482.2,1390.7,486.3z M579.9,1025.5c5.6-3.7,9.1-5.6,12.1-8.1c2.1-1.7,4.1-4.1,5-6.6c0.3-0.9-3.6-4.7-4.2-4.3
		c-4.9,2.4-10.4,4.7-13.9,8.7C577.2,1017,579.5,1022.4,579.9,1025.5z M843.1,1401.7c-1.8,4-3.9,8.6-6.7,14.9
		c6.9-1.5,13-2.5,18.8-4.2c1.7-0.5,2.7-3.2,4.1-4.9c-1.8-1.2-3.4-2.9-5.4-3.6C850.6,1402.8,847.2,1402.5,843.1,1401.7z
		 M542.1,1064.2c-6.2,3.9-11.8,7.2-17.2,10.9c-1.5,1-3.2,3-3.1,4.5c0.1,1.4,2.4,3.4,3.9,3.6c1.9,0.2,4.2-1,6-2
		c2.1-1.3,3.8-4.2,5.9-4.4C546.4,1075.8,544.7,1071.1,542.1,1064.2z M427.8,1361.2c-8.1,8.7-22.3,5.9-24.7,20.1
		c4.3,1.1,8.1,2.1,13.3,3.5c-0.9-4.9-1.4-7.7-2.2-11.8c4.7-0.9,9.3-1.7,14.5-2.7C428.5,1368.1,428.2,1365.6,427.8,1361.2z
		 M901.7,1015.8c2.3,3.3,4.5,7.4,7.5,10.6c1.2,1.3,5.5,1.9,6.4,0.9c4.4-4.4,8.7-9.4,5.1-15.6C914,1013.2,908.1,1014.5,901.7,1015.8z
		 M1081.2,941.1c-1.4-13.3-2.7-25.4-4.3-40.3c-2,4.3-3.9,6.8-4.3,9.6c-0.8,5.5-0.8,11.1-1.1,16.7
		C1081.4,924.4,1072.8,937.6,1081.2,941.1z M906.8,1103.8c1.2-0.3,2.4-0.6,3.6-0.9c0-3.2,1.2-8.2-0.2-9.2
		c-5.3-3.5-7.6-14.6-18.3-8.6C897.3,1091.9,902,1097.9,906.8,1103.8z M220.5,724.3c-22.8,0-22.8,0-27.8,5.9
		C200.6,735.6,215.3,732.5,220.5,724.3z M1130.2,340.2c-4,0.7-10.1,1.7-15.7,2.6c8,7,14.9,13,21.8,19c0.5-0.3,0.9-0.6,1.4-0.9
		C1135.5,354.9,1133.4,349,1130.2,340.2z M608.8,984c-8.8,0.7-16.4,1.2-23.8,2.1c-1.2,0.1-3.3,2.5-3.1,3c0.6,1.6,2.1,3.7,3.5,3.9
		C593.8,994.6,602.7,996.6,608.8,984z M962.1,1360c0.5,0.8,0.9,1.7,1.4,2.5c7-3.7,14.1-7.5,21.5-11.4c-1.3-3.5-2.4-6.5-4.1-11.1
		C974,1347.4,968.1,1353.7,962.1,1360z M1471.5,942.4c8.6-4.8,15.3-8.5,22.5-12.4C1482.7,921.8,1475,925.6,1471.5,942.4z
		 M478.6,1387.3c0,6.9-0.8,13.1,0.3,18.9c0.8,4.3,4.1,8.2,6.3,12.3c0.5-0.5,1.1-1,1.6-1.6c0-8.2,0-16.3,0-25.7
		C484.9,1390.4,481.7,1388.8,478.6,1387.3z M980.5,1498.3c-5.3,3.6-19.6-5.2-14.5,10.1c3.3,10.1,9.4,1.1,14.5,1.3
		C980.5,1505.6,980.5,1502.4,980.5,1498.3z M1086,370c-5.1,5.8-8.4,9.5-13.1,15c5-0.4,7.3-0.5,10.4-0.7c-1.9,3.7-3.3,6.4-5.7,11.1
		c7.6-5.3,13-9.1,18.5-12.9c0.5-1.2,1-2.4,1.6-3.7C1087.6,383.8,1085.9,379.2,1086,370z M333.4,494.6c-9.2-13.5-21.6-6.3-33.5-6.5
		c1.3,1.6,2.2,3.8,3.3,3.9C312.9,493.1,322.7,493.7,333.4,494.6z M818.3,1489.5c-14.6-7.1-17,5.3-24.4,10.1c3.6,1.6,6.3,2.8,8.4,3.7
		C807.6,1498.8,812.3,1494.7,818.3,1489.5z M1137.1,165c10.8,0,20.3,0,29.9,0C1154.9,156.1,1146.5,156.3,1137.1,165z M274.5,498.9
		c-10,3.5-19.7,6.8-29.5,10.3C264.9,512.9,273.9,510,274.5,498.9z M1252.6,351.6c-0.3-13.8-6.9-17.1-22.2-11.2
		C1238.8,344.6,1245,347.8,1252.6,351.6z M225.6,489.6c6.1-6.2,13.4-10,6.8-17.5c-2.2-2.5-7.4-2.2-10.7-3.1
		C223.1,476.7,224.2,482,225.6,489.6z M1501.8,1025.3c10.4,11.2,13.1,11.7,22.8,4.5C1518.9,1020.8,1511.2,1022.3,1501.8,1025.3z
		 M780.6,864.3c5.8-0.7,9.7-1.4,13.5-1.6c2.3-0.1,4.6,0.7,6.9,1.1c0.2-1.5,1.1-4,0.5-4.5c-2.5-2-5.4-4.7-8.2-4.7
		c-6-0.1-12,1.4-18.3,2.2C777.1,859.6,779.3,862.4,780.6,864.3z M328.9,897c-12.2,5.3-13.4,9.5-4.4,15.5c2.9,1.9,7.9,1,11.9,0.9
		c0.7,0,1.3-2.6,1.9-4c-3.2-1-6.3-2-9.5-3.1c-1.2-0.4-2.2-1-3.9-1.8C326.4,901.8,327.5,899.7,328.9,897z M364.1,493.3
		c7.8-1.5,14.7-2.9,22.2-4.3c-6.3-4.2-11.7-7.7-18.2-12C366.8,482.2,365.5,487.5,364.1,493.3z M698.3,1409.3
		c-7.9,1.5-14.5,2.4-20.8,4.4c-0.8,0.2,0.1,6.3,0.8,9.5c0.1,0.5,4.6,1,5.8,0C688.4,1419.7,692.2,1415.4,698.3,1409.3z
		 M1216.3,1203.4c-4.5,0-10.1,0-16.3,0c6,5.1-7.4,13.6,2.6,19.1C1207.4,1215.8,1211.9,1209.5,1216.3,1203.4z M1150.5,491.2
		c-0.3,1.3-0.6,2.6-0.9,3.9c3.2,1,6.9,3.4,9.5,2.6c4.9-1.6,9.3-5.1,13.9-7.7c-0.6-1.3-1.2-2.6-1.9-4
		C1164.2,487.7,1157.3,489.4,1150.5,491.2z M563.5,1063.8c6.3-13.5-3.4-18.1-8-26.6c-2.5,6-4.3,10.3-7,16.8c4.5-1.6,7-2.5,9.9-3.5
		C559.7,1054.1,561.1,1057.8,563.5,1063.8z M800.1,1273.6c9.4,0,17.6,0,28.3,0C813.2,1261.7,811.5,1261.9,800.1,1273.6z
		 M414.9,1251.9c-5.4-8.5-11.8-9.5-19.8-2.6c2.8,3.4,5.4,6.7,9.2,11.5c1.5-4.6,2.3-6.9,3.1-9.4
		C409.9,1251.5,412.4,1251.7,414.9,1251.9z M1026.3,302.7c1,7.1,4.6,11.2,13,8.9c1.7-4,3.4-7.9,5.7-13.4
		C1038.1,299.9,1033,301.1,1026.3,302.7z M1353.5,889.1c-3.4,2.6-5.5,4.2-7.6,5.8c4.4,2.7,8.7,5.7,13.4,7.7c1.1,0.5,3.7-2.4,5.7-3.8
		C1361.4,895.8,1357.8,892.8,1353.5,889.1z M1161.9,219.5c0.2-1.3,1-4.8,0.8-8.3c-0.1-1-3.6-3.1-4.6-2.6c-4.9,2.5-9.5,5.6-14.2,8.6
		c0.4,0.8,0.8,1.6,1.2,2.3C1150,219.5,1155,219.5,1161.9,219.5z M592.4,1399.5c-3.9,3.3-6.9,5.9-9.9,8.4c2.7,1.6,5.7,4.9,8,4.5
		c3.4-0.6,6.2-3.8,9.3-5.9C597.7,1404.5,595.6,1402.5,592.4,1399.5z M803.4,1399.3c-4.4,5.9-7.1,9.5-9.6,12.8
		c3.8,1.4,7.5,2.8,11.6,4.3c-0.1-2-0.3-4.4-0.3-5.3c3.3-0.7,5.8-1.2,8.2-1.7C810.1,1406.3,807,1403.1,803.4,1399.3z M905.9,1451.9
		c-0.1,1-0.1,2.1-0.2,3.1c2.3,2.6,4.1,6.4,7,7.7c9.8,4.4,10.5-4.2,8.1-8.5C919.3,1451.6,911.1,1452.6,905.9,1451.9z M770.8,1033.3
		c-0.8,1-1.7,1.9-2.5,2.9c2.7,4.4,4.9,9.2,8.2,13.1c1.4,1.7,5,1.5,7.6,2.1c-0.1-2.4,0.8-5.6-0.5-6.9
		C779.6,1040.4,775,1037,770.8,1033.3z M1205.3,487.8c8.1-5.4,13.6-9.6,7.4-17.9c-3.6,1.4-7,2.8-11.2,4.4
		C1202.6,478.4,1203.7,482.4,1205.3,487.8z M1505.2,964.9c-7.3,13,1.7,16.4,6.7,22.9C1518.3,977,1509.4,973.2,1505.2,964.9z
		 M925,1105.2c-0.7,1.1-1.3,2.2-2,3.2c2.5,2.8,4.6,6.5,7.7,8.1c2.2,1.2,5.8-0.3,8.8-0.6c-1.2-2.6-1.8-6.2-3.8-7.5
		C932.7,1106.5,928.6,1106.2,925,1105.2z M1015.2,1161.2c2.2-4.4,4.5-7.3,3.9-8c-2.5-3.3-5.8-5.9-8.8-8.8c-1.4,2.2-4.5,5.1-3.9,6.4
		C1007.9,1154,1011,1156.5,1015.2,1161.2z M350.3,631.2c8.9,11,12.9,11.8,23.5,4.2C366,634,358.1,632.6,350.3,631.2z M389.9,519.6
		c-5.8-8-9.1,2.9-17,1.3c4,6.3,6.4,10.1,8.8,14C384.9,528.9,387.1,524.9,389.9,519.6z M360.2,1137c1.4-5.8,2.3-9.4,3.2-12.9
		c-6.8,0-12.4,0-17.9,0c-0.5,0.8-1,1.6-1.5,2.4C348.9,1129.7,353.7,1132.8,360.2,1137z M558.3,1082c3.4-4.6,5.9-7.7,7.8-11.1
		c0.1-0.3-4.3-4.3-5.4-3.9c-3.6,1.7-6.6,4.6-9.9,7C552.9,1076.2,554.9,1078.3,558.3,1082z M1166.4,436.6c-1.1,0.4-2.2,0.7-3.3,1.1
		c-1.3,5.9-2.5,11.7-3.8,17.6c0.6,0.6,1.1,1.2,1.7,1.8c3.5-3.4,8.1-6.2,9.9-10.3C1171.9,444.4,1168,440,1166.4,436.6z
		 M1209.4,1294.6c-0.7,0.9-1.3,1.8-2,2.6c4.1,3.5,8.2,7,12.3,10.5c1.4-4.4,2.8-8.8,4.1-13.2c0.5-1.6,0.6-3.4,1.3-7.4
		c-3.4,5-5.4,7.8-7.6,10.9C1214.5,1296.8,1212,1295.7,1209.4,1294.6z M952.5,1233.9c1.3,0.6,2.7,1.2,4,1.8c1.9-3.1,5.4-6.4,5.2-9.4
		c-0.2-3.4-3.8-6.6-5.9-9.8c-0.6,0.6-1.2,1.1-1.8,1.7C953.4,1223.4,953,1228.6,952.5,1233.9z M1168.9,343.6
		c7.7,2.8,14.1,5.2,21.4,7.9C1186.6,339.3,1181.2,337.1,1168.9,343.6z M1455.1,598.7c0-0.8,0-1.6,0-2.5c-4.1-1.4-8.3-2.8-12.7-4.3
		c-2.2,4.1-4.2,7.7-7.6,13.9C1443.3,602.8,1449.2,600.7,1455.1,598.7z M518.5,1203.9c1.7,3,2.7,4.7,3.6,6.5c0.7,1.5,1.2,3.1,1.8,4.7
		c1,0.2,2,0.4,3,0.6c1.9-4.5,6.7-10.3,5.3-13.2C527.8,1193.4,524.3,1205.7,518.5,1203.9z M414.3,1390.7c-7.3,0.7-12.5,1.2-17.6,1.7
		c0.8,2.3,1.2,6.2,2.5,6.5C404.5,1400.2,410.4,1401.3,414.3,1390.7z M1550.4,878.6c-1.3-8.5-2.3-14.9-3.6-23.1
		C1537.6,864.2,1537.6,864.2,1550.4,878.6z M1155.4,357.4c6.6,1.2,12.3,2.5,18,3.2c1.5,0.2,3.1-1.4,4.7-2.1c-1.1-1.4-2-3.8-3.3-4
		c-5.5-0.8-11.2-1.2-16.7-1.3C1157.3,353.2,1156.4,355.8,1155.4,357.4z M447.6,671c0.4-0.9,0.7-1.8,1.1-2.7
		c-5.2-3.9-10.3-7.8-15.5-11.6c-1.7-1.2-3.6-1.9-5.5-2.9c0.3,2.1-0.2,5.4,0.9,6.2C434.8,664,441.3,667.4,447.6,671z M1015.2,1395.1
		c0.3-1.5,0.7-3,1-4.5c-4.5-1.2-8.9-2.9-13.4-3.2c-1-0.1-2.3,4.7-4.5,9.6C1005.7,1396.2,1010.5,1395.7,1015.2,1395.1z M1084.5,313.8
		c-1.1-0.5-2.1-1-3.2-1.5c-2.2,4.7-4.4,9.3-6.6,14c1.6,0.7,3.2,1.5,4.8,2.2C1081.2,323.6,1082.8,318.7,1084.5,313.8z M1136.5,845.1
		c0.9-8.1,1.6-14.6,2.5-22.4C1126.7,832.9,1126.3,835.7,1136.5,845.1z M858.5,897.3c0.9-1,1.9-2,2.8-3.1
		c-5.8-5.4-11.7-10.9-17.5-16.3c-1,1.1-2,2.2-3,3.3C846.7,886.6,852.6,892,858.5,897.3z M392.2,917.7c-5.5-0.9-11-1.7-17-2.6
		C378.4,926.5,378.4,926.5,392.2,917.7z M1191,507.9c-0.4,1-0.8,1.9-1.3,2.9c2.9,4.6,5.8,9.3,8.7,13.9c0.9-0.2,1.9-0.4,2.8-0.6
		c-0.3-3.8,0.4-8.3-1.3-11.3C1198.4,510.3,1194,509.4,1191,507.9z M1292.5,1009.7c5.3,6,10,7.3,14.1,1.8c0.9-1.2-0.2-4-0.3-6
		C1301.7,1006.9,1297.1,1008.3,1292.5,1009.7z M1118.5,1171.8c0.3,1.3,0.7,2.6,1,3.8c7.1,1,13.1-0.8,17.5-6.8
		c-0.4-1.1-0.8-2.2-1.2-3.4C1130.1,1167.5,1124.3,1169.6,1118.5,1171.8z M320.5,976.2c2.2,9.7,8,5.1,11.6,3.4c1.9-1,2-5.6,3-8.6
		c-1-0.4-2-0.9-2.9-1.3C328.2,971.9,324.2,974.1,320.5,976.2z M72.7,788.7c3.2,11.6,9.6,13.1,17.7,5.5
		C84.8,792.5,79.5,790.8,72.7,788.7z M1197.5,550.3c1.6,0.9,3.1,1.9,4.7,2.8c2.2-3.6,4.5-7.2,6.7-10.8c-1.8-1-5.2-2.9-5.3-2.7
		C1201.4,543,1199.5,546.7,1197.5,550.3z M561.3,1107.3c11.8-2.5,17.4-5.4,17.7-9.1C563.9,1098,563.9,1098,561.3,1107.3z
		 M596.5,1447.5c-0.7,0.5-1.5,1-2.2,1.5c2.3,3.3,4.6,6.6,6.9,9.8c3.1-2.6,6.3-5.1,9.4-7.7c-3-0.4-6-0.6-8.9-1.3
		C599.9,1449.5,598.3,1448.3,596.5,1447.5z M941.7,1164.5c-1.2-1.1-2.5-2.1-3.7-3.2c-3,2.3-6.1,4.6-9.1,6.9c2.4,2.1,4.7,4.2,7.1,6.2
		C938,1171.1,939.8,1167.8,941.7,1164.5z M1328.7,504.8c-3.3-2.4-6-5.2-6.9-4.7c-2.4,1.3-4.8,3.7-5.8,6.3c-0.4,1,3.5,5.2,4.1,5
		C1322.7,510.2,1324.9,507.9,1328.7,504.8z M328.7,1290.2c0.1,0.9,0.1,1.7,0.2,2.6c4.6,0.9,9.2,1.9,13.9,2.4c1.8,0.2,3.7-1,5.6-1.5
		c-1.3-1.7-2.5-4.9-3.8-4.9C339.3,1288.7,334,1289.7,328.7,1290.2z M642.2,886.3c-8-2.1-13.5-3.6-19.1-5.1
		C623.1,890.3,628.5,892.1,642.2,886.3z M976.3,479.9c-0.8-0.2-1.7-0.5-2.5-0.7c-1.1,4.2-3.8,9-2.6,12.4c0.8,2.2,7.3,2.5,10.7,3.5
		C979.8,489.4,978,484.7,976.3,479.9z M750.4,786.2c0.3,1,0.7,2.1,1,3.1c3.9-0.4,13.5-11.7,9.5,3.9c0,0.1,3.8,1.2,6.3,1.9
		c0.3-6.9,0.3-12.9-7.8-12.9C756.4,782.2,753.4,784.8,750.4,786.2z M715.4,507.4c-1.1,0.4-2.3,0.8-3.4,1.2c0.9,3.6,1.8,7.2,2.7,10.7
		c3.2-1.8,6.4-3.7,11.3-6.5C720.6,510,718,508.7,715.4,507.4z M1208.3,496.4c-7.9-2.4-15-4.6-22-6.7
		C1194.4,498.9,1203.7,501.1,1208.3,496.4z M473.3,1192c1.2-0.4,2.3-0.8,3.5-1.2c2.7-9.1,2.2-10-8.7-14.7
		C470,1182.2,471.7,1187.1,473.3,1192z M995.7,179.5c-6.3,2.5-11.1,4.4-15.8,6.5c-0.1,0,1,2.6,1.5,4c4.6-1.9,9.3-3.8,13.9-5.7
		C995.4,184.2,995.3,183.7,995.7,179.5z M1010.7,243.2c0.9,0.6,1.9,1.3,2.8,1.9c4.4-3.2,8.7-6.3,15.4-11.2c-4.4-0.9-7.9-2.7-8.9-1.7
		C1016.4,235.4,1013.7,239.5,1010.7,243.2z M1157.5,1301.8c14,8.9,12.3-9,20.5-8.4c-0.4-0.9-0.9-1.7-1.3-2.6
		C1170.7,1294.2,1164.8,1297.6,1157.5,1301.8z M822.2,1249.1c-0.6-0.9-1.2-1.8-1.8-2.7c-4.8,0.8-9.7,1.6-14.5,2.5
		c-0.1,1.4-0.2,2.7-0.2,4.1c3.3,1,6.9,3.2,10,2.6C818.1,1255.1,820,1251.4,822.2,1249.1z M483.5,1224.6c-2-3.2-3-6.7-4.8-7.2
		c-4.3-1.3-8.9-1.2-13.4-1.4c-0.4,0-1.5,2-1.3,2.3c0.8,1.2,1.9,2.7,3.2,3C471.8,1222.4,476.6,1223.2,483.5,1224.6z M1297,1025.2
		c-0.9-0.7-1.9-1.4-2.8-2.1c-5,3.4-12,5.4-9.4,17.7C1289.9,1034.3,1293.4,1029.7,1297,1025.2z M657.1,898.5
		c6.8-2.6,12.1-4.6,17.3-6.7C666.1,886.5,660.4,887.8,657.1,898.5z M1394.1,445.7c-1.7,5.6-3,10-4.8,16.1
		C1401.7,456.7,1402.4,454.4,1394.1,445.7z M1477.7,462.3c-2.5-13.7-4.5-15.3-15-12.9C1467.6,453.6,1471.8,457.2,1477.7,462.3z
		 M192.4,405.6c6.1,2.6,10.3,4.3,16.8,7.1c-1.2-5.6-1.9-8.9-2.8-13C201.6,401.8,198,403.2,192.4,405.6z M1201.4,364.4
		c0.3-1.6,0.6-3.3,0.9-4.9c-5-1-10-2-15.1-3c-0.3,1.8-0.7,3.5-1,5.3C1191.3,362.6,1196.3,363.5,1201.4,364.4z M513.3,255
		c-0.6-0.4-1.2-0.7-1.8-1.1c-4.3,0-8.6,0-13.7,0c-0.4,1.6-1,4.2-2.3,10.2C503.3,260.1,508.3,257.6,513.3,255z M610.2,645.3
		c5.9-0.3,10.9-0.6,16.3-0.9C621.2,635.3,616.2,635.8,610.2,645.3z M268.5,940c5.9-11.5,0.9-12.5-8.4-10.9
		C263.3,933.3,265.9,936.7,268.5,940z M167.1,730.6c4.4,7.6,9,7.1,13.6,3.8c1.1-0.7,0.7-3.4,1-5.2
		C177.1,729.6,172.6,730,167.1,730.6z M632,1138.6c-2.9-2.6-5.1-4.6-7.3-6.7c-1.1,1.6-3.6,3.9-3.2,4.7c1.5,2.9,3.9,5.3,6,7.8
		C628.7,1142.8,630,1141.2,632,1138.6z M114.8,811.6c8.4,7,14.2,6.7,21,0C128,811.6,121.4,811.6,114.8,811.6z M772.5,1142.8
		c-3.7-4.3-7.4-8.6-11.8-13.7C758.6,1138.9,762.9,1142.8,772.5,1142.8z M450.3,1389.3c-0.1,1-0.2,2-0.2,3c5.6,0.3,11.2,0.6,17.9,0.9
		C462.7,1380.8,455.8,1390.3,450.3,1389.3z M229.3,726c0.1,1.7,0.3,3.3,0.4,5c4.2,0,8.3,0,12.5,0c-0.5-1.7-0.8-4.6-1.5-4.7
		C236.9,725.8,233.1,726,229.3,726z M330.6,829.7c5.1,0.9,9.4,1.7,15,2.8C339.8,820.8,338.6,820.6,330.6,829.7z M1086.8,177.7
		c-0.3-1.5-0.6-3.1-1-4.6c-5.1,1.7-10.3,3.5-15.4,5.2c0.4,1.4,0.8,2.7,1.3,4.1C1076.7,180.8,1081.7,179.2,1086.8,177.7z M851.5,66.4
		c-0.8,1.5-1.5,2.9-2.3,4.4c2.6,1.8,5.1,3.7,7.7,5.5c1-2.2,1.9-4.3,2.9-6.5C857,68.6,854.3,67.5,851.5,66.4z M757.6,1402.3
		c10.7,0.4,16.6-3.6,17.9-12.5C769.5,1394,763.9,1397.9,757.6,1402.3z M1124,476.8c-0.2-0.8-0.4-1.5-0.7-2.3
		c-3.1,1.9-7.1,3.2-8.8,5.9c-1.2,1.9,0.9,5.9,2,11C1119.9,484.8,1121.9,480.8,1124,476.8z M1122,380c1.3,0.3,2.6,0.5,3.9,0.8
		c0.5-3.2,2.2-6.9,1.1-9.4c-0.7-1.7-5.5-1.5-10.3-2.6C1119.4,374.5,1120.7,377.3,1122,380z M399.3,839.2c0.6,1.4,1.2,2.9,1.8,4.3
		c5.5-2.7,11-5.4,16.5-8c-0.5-0.9-0.9-1.9-1.4-2.8C410.6,834.8,405,837,399.3,839.2z M749.2,1152c-0.4-1.5-0.9-3-1.3-4.5
		c-4,1.1-8.1,2.2-12.1,3.3c0.6,1.7,1.6,4.8,1.8,4.8C741.5,1154.6,745.4,1153.3,749.2,1152z M1289.8,508.4c-14.9,0-15.3,0.3-12.8,10
		C1281.3,515,1285.6,511.6,1289.8,508.4z M1218.1,335.7c-4.7,2.4-9.4,4.9-16.2,8.4C1212.1,346.7,1217.1,344.7,1218.1,335.7z
		 M1393.6,425.5c-1.5,14.2-1.5,14.2,4.7,16.5c0.2-0.9,0.9-2,0.7-2.7C1397.3,434.7,1395.4,430.1,1393.6,425.5z M128.4,857.8
		c-3.5-3.5-6.1-6.2-10-10.2C116.3,860.2,117.5,861.4,128.4,857.8z"/>
	<path d="M1259.3,461.7c4,2.2,7.9,4.4,12.7,7.1c-9.3,4.5-18.6,1.3-18.4-5.4c0.4-13-5.6-8.7-13.8-3.7c0.9-4.1,0.7-6.7,1.8-7.6
		c6.3-4.7,13-9.1,19.7-13.3c0.1-0.1,2.2,2.3,2.8,3.7c1.1,2.5-0.2,7.8,5.4,4c0.9,2.3,2.7,4.7,2.4,6.9c-0.2,2-2.3,4.4-4.2,5.4
		c-1.7,0.9-4.3,0.2-6.6,0.2C1260.6,459.9,1260,460.8,1259.3,461.7z"/>
	<path d="M1442.7,1156.9c3.6,4.2,7,8.1,12.2,14.2c-5.7-0.5-9.9-0.5-14-1.3c-4.1-0.7-8.3-1.6-12-3.4c-2.2-1.1-3.5-4.2-5.2-6.5
		c2.1-1.5,4.2-4,6.4-4.2C1434.4,1155.4,1438.6,1156.4,1442.7,1156.9z"/>
	<path d="M1269.2,264.7c5.2,0.5,9.7,0.9,16.9,1.5c-1.9,4.8-4.1,10.1-7.3,18C1274.7,275.9,1272.1,270.6,1269.2,264.7z"/>
	<path d="M1332.1,355.6c5.8-2.5,11.5-4.9,17.3-7.4c0.5,0.7,1,1.4,1.5,2.1c-5.4,3.2-10.9,6.4-16.3,9.6
		C1333.8,358.4,1333,357,1332.1,355.6z"/>
	<path d="M745.4,737.9c-0.3,3-0.7,5.9-1,8.9c-0.2,2.4-0.5,4.7-3.2,7.6c-3.1-5.2-6.3-10.5-9.4-15.7c0.4-1,0.7-2,1.1-3
		c4.2,0.8,8.5,1.6,12.7,2.5C745.6,738.2,745.4,737.9,745.4,737.9z"/>
	<path d="M995.2,1091.4c-7.5,1.5-15,2.9-23.6,4.6c6.3-9,6.6-9.1,23-7.3C994.8,1089.6,995,1090.5,995.2,1091.4z"/>
	<path d="M827.8,1439.7c4.5,2.4,8,4.2,11.5,6.1c0,0.8-0.1,1.7-0.1,2.5c-4.6,1.4-9.2,2.7-15.8,4.6
		C825.1,1447.9,826.3,1444.4,827.8,1439.7z"/>
	<path d="M394,1159.4c-0.9,3.5-1.9,7-3.2,11.8c1.5,0.9,4.4,2.7,7.4,4.5c-0.2,0.9-0.4,1.7-0.6,2.6c-6.2-1.1-12.5-1.8-18.5-3.5
		c-1.2-0.3-2.8-5.2-1.9-6.4c2.4-3.3,5.7-6.4,9.2-8.5c2-1.2,5.2-0.3,7.8-0.3C394.3,1159.6,394,1159.4,394,1159.4z"/>
</g>
</svg>
