<svg version="1.1" id="Ebene_1" xmlns="http://www.w3.org/2000/svg" xmlns:xlink="http://www.w3.org/1999/xlink" x="0px" y="0px"
	 viewBox="0 0 1600 1600" fill="#121212">
	<g>
	<path d="M768.6,505.7c-7.4,11.2-12.2,23.6-22.8,34.3c0,0-2.6-3.4-4.7-2.7c-8.3,1.9-14.5,10.1-15.8,19c2.1-0.7,5.1-0.3,7.2-1
		c-0.3,2-0.6,4-1.8,5.8c-7.2,8.1-15-1.1-19.1-7.7c-2.5,3.7-5.9,6.2-9.3,8.8c3.8,1.5,6.7,2.9,10.5,4.5c-6.9,6.1-12,13.5-18,20.7
		c-1.2-6.2,1.7-11.9,0.5-18.1c-7.4,13.6-19.3,24.6-30.4,36c-11.1,11.5-21.3,23.4-25.5,39c-1.8-1.3-2.3-5.4-3.3-5.5
		c-25.7,3.5-39.3,28.9-58.8,45.3c-2.4,2.7,5.6,10.9-0.2,16.1c0,0-3-0.4-4.2,1.4c-0.3-5.1,0.4-10-1-14.3
		c-6.5,10.2-18.7,18.6-31.5,15.8c4.7-4.4,4.3-9.5,6.2-15.3c-5.8,5.3-14.4,9.1-14.6,18.2c3.1-0.6,5.5-3.3,8.5-2.9
		c-14.8,26.2-34.8,46.7-63.8,59.8c-4.4,2.4-4.5,10.5-7.3,9.1c-4.5-3.7-7.4-12.1-15.7-10.3c6,7.9,2.6,17.5-2.5,24.9
		c25.5,12.6,48-11.5,68.2-25.9c3.2-1.6-1.2-6.2,0.4-10c1.3-1.8,2.8-5.7,4.5-3.4c17.3,13.5,34.6-23.5,51.1-33.3
		c6.5-3.1,9.4-9.8,15.2-15c2.3-1.7,5.6-4.3,8-7c2.3-1.7,3.1-7.6,6.2-8.2c3.1-0.6,8.6,3.2,7,8c-5.8,12.3-26.5,16.5-20.7,32.5
		c13.7-11.2,22-27.2,39.9-32.8c-9.3,8.8-14.9,20.1-26.1,27.7c-5.5,3.3-10.3,8.7-11.3,15.6c3.4-2.6,8.5-2.9,12-6.4
		c-7.7,12-23.4,15.9-37,19.1c6.3-9.2,23.3-14.9,15-28.2c-6.1,7.2-21.7,11.1-18,20.7c4.2,13.7-9.2,22.9-17.7,32.9
		c-4.7,4.4-9.9,5.7-16.1,6.8c4.8-5.4,11.4-16.6,6.3-16.3c-21.4,1.1-35.6,23.3-47.4,42.9c-1.4-4.2-1-14.3-5.6-10.9
		c-10.9,5.6-21.4,1.1-29.5,9c-5.6,4.3,1.7,9.3,6.7,10c9.9,1.4,19.4-1.3,28.9,3c-5.5,3.3-10.9,5.6-18.1,6.6
		c-6.2,1.2-2.2,15.8-7.2,15.2c-22.1-1-19.6-33-19-52.1c0.1-8.1-7-15.1-11-22.7c-0.2,9.1-3.9,13.6-10.7,18.7
		c-2.3,1.7,1.5,11.3-1.8,12.9c-6.8,5.1-14.5,10.1-13.2,15.3c1.6,10.3,11.6-3.4,17.2-7.7c0.5,11.2-14.9,20.1-2.2,30
		c0.9,1.1-1.5,3.8-3.5,3.5c-5.1,0.3-13.8-10-12.6-3.8c1.9,8.3,14.5,19.2,25.8,17.7c3.1-0.6,1.2-8.9,3.8-12.6
		c3.2,13.6,18.6,18.7,26.9,16.9c9.5-2.7,21.5-9.1,29.5-16.1c13.5-10.2,28.2-21.3,41.9-32.5c1.1-0.9-0.4-4.1,0.8-5.9
		c6.2-8.2,16.5-2.7,13.2-15.3c3.7,2.5,10.6,3.5,11.3-1.5c2.1-14.9,19-20.6,31-19.9c1,0.1,1,7.2,3.3,5.5c5.8-5.3,1.9-13.9,11.5-17.6
		c9.5-2.7,7.7-19.1,13-28.5c2.6,3.4,4.1,6.6,6.8,10c1.7-3.7,2.9-6.4,4.4-9.8c7.1,0.3,11.6-1.9,12.1-11.2c0.3-5.6,2.4-12.8,10.6-14.8
		c2.5-0.6,4.8-4.4,6.1-7.2c5.4-11.6,16.5-15.4,26.5-21.6c11.4-7,21.1-16.9,31.4-27.1c-4.8,1.6-9.6,3.2-14.2,4.7
		c2.2-9.2,9.5-13.9,18.7-14.3c4.7-0.2,9.7-3.7,13.6-6.9c7.8-6.3,14.9-13.4,14.2-24.6c15.8-0.6,27.1-5.7,33.1-21.9
		c2.8-7.5,11.2-12.9,17.3-19c4.2-4.2,8.9-7.8,14.8-12.9c-0.2,4.1-0.4,6.4-0.6,10.8c6.1-4.3,14.5-7.3,15-11.3
		c1.6-12.2-12.5-5.3-17.9-12.7c4.3-5.7,8.7-11.5,13.4-17.6c4.6-6.1,9.5-12.5,14.7-19.4c-4.6,1-9.8,3.8-15,7.5
		c-5.2,3.7-10.5,8.4-15.2,13.4c-9.3,9.9-16.3,21-15.6,27.7c3.2-3.4,5.6-5.8,8-8.3c1,0.3,2,0.6,2.9,0.9c-1.2,3.6-1.4,8-3.7,10.6
		c-7.4,8.6-15.6,16.6-23.3,24.9c-4.1,4.4-8,8.9-12.1,13.5c-8.6-13,8.3-17.9,8-31.5c-7.8,7.7-13.8,13.5-19.7,19.3
		c-1.6,1.6-3,3.7-4.9,4.7c-1.9,1-4.4,1-6.6,1.5c0.6-2.2,0.4-5.2,1.8-6.4c5.2-4.6,10.4-9.1,15.7-13.6c5.3-4.5,10.7-9,16.1-13.6
		c-1.4-1.1-2.4-1.2-4.4-1.5c3.8-5.5,6.7-12.2,11.5-17.6c13.8-12.2,23.7-25,36.6-38.3c5.8-5.3,13.7-4.2,18.5-9.5
		c2.4-2.7,2-6.8,4.1-7.5c15-6,22-20.2,30-34.2c8-14,28-5.2,42.1-12.3c-13.9,20.3-39.3,28.9-58.2,45.7c-6.5,5.4-12.1,10.9-15.2,16.8
		c-0.3,2,2.3,5.4,3.4,4.5c6.5-3.1,12.6-6.8,18.4-10.8c5.8-4,11.5-8.2,17.2-12.5c0.7,8.4,0.5,15.2-9,18.2c-2.7,0.9-6.7,3.8-6.8,6.1
		c-1,12.9-12.2,17.2-19.2,25.1c-5.2,5.9-7.5,14.4-11.1,21.8c1.2,0.6,2.3,1.3,3.5,1.9c15-15.8,30.1-31.6,45.1-47.3
		c5-5.3,10-10.5,15.1-15.8c11.7-11,23.6-23.5,38.4-28.5c-0.9-1.1-1.6-3.2-1.6-3.2c-12.6,3.3-23.6,16.9-33.5,15.5
		c-6.9-1,1.1-15,7.6-18.1c10.7-4.6,22.3-0.9,32.8-3.5c-8.1-0.1,2.1-7.8-1.6-10.3c-4.5-3.7-9.8-2.4-15-1.1c10.7-4.6,21.8-4,32.8-3.5
		c-2-0.3-2.7-2.4-2.7-2.4c24.2-6.7,53.9,4.5,75.9,13.6c-5.1,0.3-15.3-6.2-17.4,1.6c-4.7-2.7-11.3-5.6-13.6-3.9
		c-11.1,7.5-22,6-33.8,3.4c5.1-0.3,10.6-3.6,15.5-2.9c-10.3-5.5-24.3-6.4-28.3,7.2c-0.3,2-0.6,4,0.3,5.1c33.4,6.7,66.5,8.2,100,13.9
		c-1.7-2.3-3.4-4.5-5.3-5.8c9.1,0.2,16.3,6.3,24.2,7.4c14.7,3.1,24.7-10.7,24.7-24.8c-0.3-34.4-14.4-63.6-25.1-95.4
		c-0.6-3.1,1-6.9,1.4-9.9c3.3,5.5,6.5,11,9.8,16.5c-2-14.4,4.5-32.7-6.8-45.4c1.6,10.3,0.4,19.2-3,28.9
		c-2.4-11.4-10.4-26.7-5.6-32.1c9.7-11.8,16.6-25,16.5-39.1c0.3-2-5-0.7-6.7-2.9c4.4-2.4,7.9-6,12.3-8.4c0.4,4.1,1.7,9.3,2.2,13.8
		c3.1-6.2,5.9-10.8,9.5-16.8c0-0.5-0.1-3.4-0.2-6.3c3.1,1.1,6.3,2.2,10.8,3.7c0.5-7.3-6-19.9,10.1-21c-2-1-4-2-6.4-3.2
		c5.1-9.7,12.2-11.2,21.5-5.9c2.5-9,4.6-16.5-2.9-24c-1.9-1.9,1.4-9.1,2.4-14.2c18.8,7.4,28.4-2,27.5-26.5
		c8.7,4.9,16.2,9.1,23.6,13.2c-5.9,14.2-10.7,27.4-16.8,40c-3.3,6.8-9.5,12.1-12.9,18.9c-4.7,9.5-9.2,17-20.6,21
		c-6.2,2.2-10.8,12.3-13.4,19.8c-2.5,7.1-4.2,12.9-14,12.2c-5.7,51.2-7.8,102.4,4.3,153.6c3.9,15.7,4.5,32.9-2.6,48.1
		c-1.4,2.8,0.2,6.1,3,7.5c-2.1,0.7-4.2,1.4-6.2,1.2c-45.1-9.3-92.8-14.9-140.3-7.4c-5.1,0.3-8.5-4.2-13.9-1.9
		c-5.4,2.3-7.9,13-17.9,4.2c-3.5,7.8-6.5,15.9-10.2,23.7c-1.6,3.4-4.4,6.3-7,9.2c-7.6,8.5-15.4,16.9-24.3,26.7
		c1.1-5.3,1.9-9.2,3.3-15.6c-9,7.3-13.5,13.1-6.1,21.3c-4,3.2-7.6,6.1-10.7,8.6c-2.2-0.7-5.2-2.7-6.6-1.9c-2.1,1.2-4.7,5.2-4.1,6.5
		c3.9,7.8-2.2,9.3-6.6,12.5c-3,2.2-5.4,5.3-7.6,8.4c-3.6,4.8-6.8,9.9-11.4,16.6c6.9-1.8,12.7-3.2,19.6-5c-1.3,4.9-2.3,8.4-3.6,13.3
		c5.9-1.9,10.4-3.4,15-4.9c0.5,0.8,0.9,1.6,1.4,2.4c-3.4,2.4-6.6,6.4-10.4,7c-17.6,2.9-31.5,11.9-44,23.9c-0.3,0.3-1.2-0.1-3.9-0.5
		c5.9-6.3,11-11.8,16.6-17.9c-9.1-1.2-20.6,7.8-24.6,16.2c-6.1,12.8-15.4,21.4-30.2,25.7c-8.2,2.3-14.3,11.8-20.7,18.7
		c-4.9-0.5-17.5,9.5-17.2,15.8c0.7,12.3-1.8,15.5-14.5,18.9c-4.5,1.2-8.9,2.4-15.7,4.3c1.9-5.7,3.6-10.7,5.2-15.6
		c-0.5-0.7-1.1-1.5-1.6-2.2c-5.8,4.9-11.6,9.7-18.6,15.7c8.6,4.9,16.4,9.5,24.3,14c-0.4,0.8-0.7,1.5-1.1,2.3
		c-2.5-0.8-5.2-1.3-7.6-2.3c-44.4-17.7-90.5,3-105.2,47.3c-13.8,41.6,13.1,87.8,58.3,99.3c6.1,1.5,11.4,2.6,9.8,12.9
		c5.4-4.3,8.8-7.1,12.3-9.9c0.7,0.5,1.3,1,2,1.5c-1.6,2.7-2.6,5.9-4.8,7.9c-7.8,7.4-16,14.3-23.8,21.6c-4.2,3.9-7.1,9.4-11.7,12.6
		c-7.1,4.8-15.1,8.3-24.1,13c-3.1,6.3-7.4,15-11.7,23.7c0.6,0.9,1.2,1.8,1.7,2.7c5.4-3.1,11.6-5.3,16.1-9.4
		c10.2-9.4,19.7-19.6,29.1-29.7c2.5-2.7,3.9-6.6,6-9.7c2.1-3.2,4.2-6.5,6.9-9.1c6.1-5.6,13-10.4,18.8-16.3
		c6.4-6.5,13-11.2,22.8-10.8c3.8,0.2,9.5-1.7,11.3-4.6c5.5-8.7,14.7-11.9,22-17.8c3.9-3.2,6.1-8.4,9.7-12.1c2.5-2.5,5.9-5.1,9.1-5.5
		c8.9-1.2,15.5-10,13.2-17.9c5.2-4.3,9.8-8.8,15-12.3c2.8-1.8,6.8-1.9,10.4-2.6c2.6-0.5,5.9,0.3,7.8-1.1
		c15.5-11.1,40.1-38.7,47.8-56.8c-0.7-0.7-1.3-1.3-2-2c-16.3,16.6-32.5,33.2-49.3,50.4c-1.4-4.2-2.4-7.6-3.4-10.5
		c-8.7,8.4-16.6,16.7-25.3,24.2c-6.1,5.2-12.9,10.1-22.7,4.7c-0.5-12.4,1-24.1,10.5-35.2c7.8-9.1,12.1-21.3,17.6-32.3
		c0.5-1-2.2-3.7-3.6-5.9c6.3-10.6,13-21.8,19.6-32.9c0.8,0.5,1.7,0.9,2.5,1.4c-0.3,3.7-0.6,7.4-0.9,12c5.6-2.1,10.3-3.9,15-5.6
		c-7.3,12-22.3,17.2-23.7,32.6c9.7-4.6,18.6-8.2,26.8-13c2.4-1.4,4.9-6.6,4.1-8.9c-2.3-6.2,1.4-8.1,5.3-10.7
		c7.3-4.9,14.5-10.1,21.5-15c-6.8-12.6-3.8-19.8,11.2-28.4c-1,7-1.8,12.8-2.7,19.6c2.9-0.4,5.2-0.8,7.7-1.1
		c-1.9,4.4-3.6,8.5-5.4,12.6c1,0.5,1.9,1.1,2.9,1.6c4.7-4.9,10.7-9,13.8-14.8c6.6-12.1,17.9-18.1,28.6-24.8
		c7.6-4.7,11-11.1,6.7-18.8c-3.6-6.3-2.6-10.2,2-15.5c2.8-3.1,2.8-8.8,4.6-15.4c2.6,4.3,4.4,7.4,6.7,11.2
		c7.1-7.3,14.1-14.5,21.2-21.8c0.9,0.5,1.7,1.1,2.6,1.6c-4.3,7.6-8.6,15.3-12.7,22.6c1.2,3.1,2.5,6.6,4.3,11.3
		c3.9-3.1,8.4-6.4,12.5-10.2c13.2-12.2,26.5-24.3,39.6-36.7c4.4-4.1,8.7-8.2,13.4-12.2c39.8-44.4,101.4-29.8,153.5-26.6
		c48.2,1.7,21.4-59.6,22.6-89.7c1.5-18,1.4-39.2,12.9-56.8c5.1-7.4,14.9-13.1,14.9-24.6c0.1-3,6.5-8.1,10.3-8.4
		c10.2-0.8,13.6-7.6,17.8-14.1c-5.3-1.9-9.5-3.3-13.7-4.8c2.9-4.1,5.6-8.2,8.7-12.1c7.7-9.6,15.5-19.1,23.3-28.7
		c1.2-1.4,2.6-2.6,3.9-3.9c11,13.7,10.4,21.2-2.2,31.2c-6.4,5.1-12.6,9.3-13.2,19.7c-0.4,7.7-6.7,15.1-10.6,22.5
		c-3.5,6.5-6.5,13.6-9.9,20.4c-19.7,36.3-37.6,85.3-14.8,124.8c-0.3-5.1-2.6-10.5-2.7-16.5c7,15.1,17.8,38.8,0.9,51.6
		c-2.1,0.7,1.3,5.2,0.2,6.1c-6.4,2.1-13.2,0.2-20.2,0.2c4,0.6,7.5,4.1,6.1,6.9c-0.7,5-9.3,1.7-12,6.4c12,0.7,32.8,10.6,32.5-8.6
		c3,0.4,6.7,2.9,9.8,2.4c-1.3-12.3-0.5-25.3,1.1-37.2c1.5-10.9-7.3-20.2-7.8-31.4c-1-14.3-11.1-28.8-7-44.4c0.9,1.1,3.8,1.5,3.7,2.5
		c-1.7,11.9,0.8,23.3,4.4,33.9c1.4-2.8,3.7-4.5,4.1-7.5c-0.2-13.2-4.5-25.9,0.3-38.3c6.2-15.3,25.5-23.7,25-42
		c-7.6,4-14.3,8.1-20.9,12.2c4.5-10.5,14.2-15.2,20.7-23.8c1.2-1.1,2.7-1.8,3.9-2.8c16.8-14,32.8-29,46.2-46.2
		c4.5-5.8,6.8-14.6,6.7-22c-0.1-6,1.7-8.5,5.7-11.8c9.9-8,19.5-16.5,30.2-25.7c0.5,0.5,2.8,2.9,5,5.4c15,17.2,30.4,34.2,44.9,51.8
		c13.8,16.8,13.1,20.9-0.6,38.1c-4.8,6-8.4,13-13.1,19.1c-3.7,4.7-8.3,8.8-12.5,13.1c-3.4,3.5-7.5,6.5-9.9,10.6
		c-5.7,9.7-10.3,20.1-16.2,29.6c-1.8,2.9-6.4,4.3-9.8,6.1c-3.6,2-7.8,3.1-10.8,5.6c-15,11.9-11.5,30.5-16.8,46.9
		c-0.6-3.1-3.4-4.5-4-7.6c-3.7,19.7-5.8,41.6-4.6,62c4.1,50-37.5,80.6-76.4,106.5c17,1.4,28.1-13.3,41.4-21.5
		c-2.5,3.7-6.1,7.2-6.7,12.2c19.9,1.8,26.9-19.5,38.5-30c2.4-2.7,5.6-4.3,8.9-5.8c-1.4,9.9-4.6,18.5-8.9,28c-1.6-3.2,0-7.1,0.4-10
		c-35.5,30.4-65.7,65.6-78.4,110.9c-4.3,8.6-9.5,16.7-16.1,24.4c-1.1,0.9-1,6.9,1.9,8.3c3.7,2.5,10.6,3.5,14.1-0.1
		c5.3-6.5,9.7-13.2,13.5-20s7-13.8,9.9-20.7c12-39.2,40-66.6,64.5-97.5c5.1-7.4,9.3-15.9,6.6-25.3c2.8,1.4,3.8-5.5,7.3-2
		c3.1-7.6-3.3-12.6-10-15.5c-2.8-1.4-1.4-4.2-1.2-6.2c11.4-16.6,5.2-37.6,6.9-56.6c3.1,6.5,4.2,13.7,6.2,21
		c4.2-15.6,7.5-32.3,16.5-46.2c5.7,16.9-10.1,28.9-10.3,45c-0.4,3,5.5,3.8,4.1,6.6c-1.4,2.8-6.9,6.1-6.3,9.2
		c0.7,9.2,0.9,15.3-1.3,24c-0.1,1,1.7,2.3,2.6,3.4c2.9-6.7,5-14.4,7-21.2c3.7,9.6-6.3,16.3-3.6,25.8c10.7-18.7,21.4-37.4,24.4-59.2
		c0.4-3,3.8-5.5,6.2-8.2c2.6,3.4,4,7.6,6.5,11c-3.1,0.6-8.1-0.1-8.1-0.1c-6.7,26.3-12.4,52.8-27.6,74.9c-2.7,4.7-3.5,10.6-4.2,15.6
		c6.1-7.2,7.4-17.1,14.3-23.2c0.6,3.1,3.4,4.5,4,7.6c3.5-10.6,3.2-22.8,9.5-32c1,7.2,3.2,13.6,4.2,20.8c3.5-3.5,7-7.1,10.7-11.6
		c-10.9-1.5-10.8-9.6-4.7-16.8c18.7-18.6,29.8-40.3,43.7-60.1c1.4-2.1,0-6.2-0.1-10.2c3.1-0.9,6.6-1.3,9.7-2.8
		c7.8-3.7,12.8-9.3,12.5-18.9c-0.1-2.8,2.7-6.1,4.9-8.5c2.3-2.5,5.6-4,8.5-6c-0.4-0.9-0.8-1.7-1.3-2.6c-2.9,0.2-5.8,0.5-9.4,0.8
		c-3.5-21.8,20.9-31.8,21.1-54.1c5.5,9.1,10.5,15.9,13.8,23.3c14.4,32,28.3,64.2,42.1,96.5c1.9,4.4,3.1,9.8,2.2,14.3
		c-1.4,7,0.2,17.9-14.2,14.4c-2.5-0.6-8.8,9.6-11.6,15.6c-2.7,5.9-3.2,12.8-4.7,19.2c-1.2,0.2-2.4,0.3-3.6,0.5
		c-2.4-2.2-4.9-4.3-7-6.7c-3.5-4-8.6-4-8.5,0.9c0.1,11-9,12.6-14.9,17.5c2,10.1-3.4,16.8-13.1,18c-3.5,0.4-7.9,3.2-9.6,6.2
		c-7.3,23.8-25.1,42.6-38,63c-12.5,17.4-26.7,32.6-40.1,48.9c-6.3,9.2-11.8,19.6-17.1,28.9c-26.7,39.7-62.4,71.1-85.3,112.3
		c-8.3,16-15.6,32.2-23,49.3c10.6,3.5,9.3-15.9,18.7-18.6c-9,21-24.5,38-34.4,58.8c-1.1,0.9-4.2,1.4-5.4,2.3
		c-12,13.5-15,35.3-32.9,40.9c0,0-2.1-6.4-3.7-9.6c-1.4,2.8-4.2,8.5-5.8,5.3c-8-15.2-18-8.6-29.9-3.1c-2.1,0.7-4.8-1.7-5.9-0.8
		c-6.9,6.1-3.6,18.7,5.4,18.9c3,0.4,4.8-5.4,6.2-8.2c6.1,14-8.8,20-19.9,19.4c-3-0.4-6.7-2.9-7.2-6.1c-0.4-4.1-2-7.3-3.4-11.6
		c-3.3-5.5-10.1-7.5-12-0.7c-11.7-17.8-34.1-8.8-41.5,8.4c3,0.4,5.7,2.8,5.3,5.8c-0.1,1-1.4,2.8-1.5,3.8c-8.1-0.1-15.4-5.2-23.3,0.8
		c-27.5,23.4-53.6,44-87.9,58.5c-37.6,16-76.4,26.7-105.4,54c8.5-2.9,16.8-4.7,24.3-7.7c-1.1,0.9-1.3,1.8-1.4,2.8
		c11.7-4.4,24-5.7,35.7-10.2c-0.6,4-7.2,8.1-3.5,10.6c6.5,3.9,13.4-2.2,19.8-4.3c-5.6,4.3-9.6,10.8-15.2,15c5.2-1.3,9.6-3.7,15-6
		c-9.7,4.7-17.3,15.8-7.4,24.2c-6.8-2-14.4,2-20.9-1.9c-5.7-2.8-18.7-3.6-22.3,0.9c-6.2,8.2-3.6,18.7-18.9,19.6
		c-3.1,0.6-2.2,8.8-0.9,14c-5.5-3.8-11.2-6.6-16.7-10.4c-1.8,5.8,1.6,10.3,1.9,15.4c-6-7.9-19-8.7-18.6-18.7
		c-0.2-6.1,7-7.1,12.1-7.4c2,0.3,3.5,3.5,5.7,2.8c6.1-0.2,11.9-5.4,14.4-9.1c4.1-7.5,7.3-16.1,12.2-22.5
		c-24.4,8.7-43.9,32.3-68.7,36.9c0-7.1,6.2-8.2,9-13.9c0.3-2,0.7-5,1-6.9c-10,6.7-15.5,17-22.8,26.1c-3.4,2.6-9.3,1.7-10.7,4.6
		c-2.2,8.8,8.4,12.3,14.8,17.2c0.3-2,0.7-5,1-6.9c4.7,2.7,9.4,5.3,14,8c-1.5-11.3,10.7-11.6,19.5-9.4c4.8,1.7,8.5,4.2,12.2,6.7
		c2.6,3.4,11.3,5.6,6.7,10c-6.1,7.2-19.9-1.8-25.1,6.6c-2.7,4.7,5.6,10.9,7.7,17.2c-8.9-1.2-13.5-12-20.7-18c-1.8-1.3-4-0.6-5.9-0.8
		c3.5,3.5,4.8,8.8,8.4,12.3c-12.9-1.8-19.9-16.9-33.3-14.7c10.1,14.5,29.2,15.2,39.4,28.7c2.7,2.4,4.3,12.7,0.1,14.1
		c-13.4,2.2-8.7,11.9-15.2,22.1c9.9,1.4,20.1,0.8,30.3,0.2c-0.1,8.1,4.5,3.7,10.3,5.5c-3.7,4.5-5.3,9.4-8.9,12.9
		c-2.6-3.4-6-7.9-8.5-11.3c-4.3,9.5-4.9,20.5-12.2,29.6c-5.4,3.7-11.4,6.6-19,10.9c2.4-5.4,4.1-9.4,5.8-13.5
		c-6.6-0.2-7.6,6.7-13.1,8.9c5.9,6.8,6.2,13.7-1.7,21.9c-0.4-4.6-0.7-7.6-1.3-13.7c-5.2,4.5-8.9,7.8-14.4,12.5c4.8,0.7,6.9,1,9,1.2
		c-0.2,0.9-0.4,1.9-0.5,1.9c-3-0.2-6.2,0.1-8.7-1.2c-1.1-0.6-0.7-4.2-1.2-6.3c-1.1-4.7-2.3-9.4-3.6-14.6
		c-11.6,4.1-12.2,12.2-13.3,21.3c3.3-1.3,5.8-2.3,11.2-4.4c-7.3,10.6-12.9,18.8-19,27.5c-2.5-2.2-4.7-4.2-7-6.2
		c-8.5,9.2-8.8,14.4-2.8,24.3c0.9,1.5-0.5,5.2-1.9,7.1c-5,6.8-4.3,8.7,3.4,11.3c5.8,1.9,11,5.4,16.8,7.5c5.2,1.8,10.9,2.6,16.3,3.9
		c0.8-0.9,1.6-1.7,2.5-2.6c1.6,7.2,3.3,14.5,5.3,23.2c1.9-5.2,3.1-9.6,5.1-13.5c1.4-2.7,4.5-6.9,5.9-6.6c2.9,0.7,5.3,3.8,7.7,6.2
		c1.1,1.1,1.7,2.6,2.7,4.4c4.9-1.3,9.5-2.5,14.1-3.7c0.3-1.1,0.6-2.2,0.9-3.3c-4.8-2.1-9.7-4.2-16.3-7c2.9-3.4,6.2-7.3,9.7-11.1
		c8-8.7,6.9-19.5-5.4-28c6.4-1.4,10.5-2.3,14.6-3.3c0.1,0.8,0.2,1.7,0.2,2.5c1.9-3.5,3.9-7.1,5.8-10.6c1.3,0.4,2.6,0.7,4,1.1
		c-8.2,15.9-15,31.7,6.3,43.8c2.1-6.3,4.2-12.9,6.5-19.8c9.3,6.1,9.5,8.8,3.3,15.2c-3,3.1-5.5,7.1-7.5,11
		c-4.2,8.5-1.5,12.1,10.5,12.7c-0.9-3-2.5-5.6-2.3-8.1c0.4-4.5,0.6-9.7,3-13.1c5.1-7.3,17-11.7,7.9-23.8c-0.6-0.7,0.4-3.1,1.2-4.3
		c2.4-3.8,5.1-7.4,7.4-10.6c5.9,0.5,11.7,1,17.6,1.5c-0.4-0.8-0.9-1.6-1.3-2.4c6.5-5.6,13-11.2,20.4-17.7c1,3.7,1.7,6.4,2.4,9.1
		c0.7,0.2,1.3,0.4,2,0.6c3-7.3,5.8-14.6,9.1-21.8c1-2.2,3.7-5.7,5.2-5.4c11.2,1.7,16-5.5,17.7-14c2.3-11.1,7.7-17.5,18.5-21.1
		c7.1-4.3,10.2-11.9,11.1-18.9c8.9,1.2,2.9,15.5,5.8,22.2c0.9,0,1.9,0.1,2.8,0.1c-5.6,10.8-11.3,21.6-17.2,33
		c-7.5-4.8-12.9-3.7-16.8,3c3.4,2.3,6.5,4.3,9.5,6.4c-2.9,3.3-5.2,7.3-8.7,9.7c-5.2,3.4-6.6,7.1-5,13.1c1.9,6.9-5.9,19.9-12.7,20.4
		c-3.6,0.2-7.6-3.4-13.2-6.3c-2.4,5-4.5,11-7.9,16.1c-2.4,3.6-6.3,7.9-10.2,8.6c-15.1,2.7-20,7.3-22.1,24c3.4-0.6,6.6-1.2,11.6-2.1
		c-2.7,2.9-4.4,4.3-5.5,6.1c-1.3,2.2-2,4.8-2.9,7.2c2.8,1.1,5.8,3.2,8.5,2.9c2.1-0.2,5.9-3.5,5.7-5c-1.8-13.7,9.4-19.3,15.7-27.9
		c1,0.4,2,0.8,3,1.2c-3.7,7.8-7.4,15.6-11.5,24.4c18.9,1.8,26.6-12,37.5-22.3c1.7,3.7,2.2,7.2,4.2,8.5c2.8,2,6.7,2.5,10.1,3.7
		c0.7-2.9,2-5.8,2.1-8.8c0.4-6.8,0.3-13.7,0.4-20.5c1.3-0.2,2.5-0.3,3.8-0.5c1,3.3,2,6.5,3.4,10.7c7.4-5.2,17.8-7.5,16.4-20.6
		c-0.2-1.9,4.6-4.4,7.2-6.6c0.6,0.7,1.2,1.4,1.8,2.1c-1.9,6-3.9,12-5.8,18c1.4,0.6,2.8,1.2,4.2,1.7c3.2-6.8,7-13.4,9.3-20.5
		c2.7-8.3,12.9-18.2,22.3-18.2c-4.5-14.9,7.3-21.2,15.2-30.5c4.9-5.7,5.7-15.5,6.8-23.7c0.8-5.8,1.3-11.7,1.7-17.7
		c0.3-5.8,1.3-12.7,0.1-19c-2.1,0.7-4.4,2.4-6.5,3.1c-1.2-6.2-3.6-10.6-10.1-7.5c-2.3-5.4-2.4-11.4-6.8-16.1
		c7.4,5.1,15.4,5.2,24.2,0.3c2.4-2.7,8.1,0.1,13,0.8c-2.2,8.8-7.3,16.1-8.7,24.9c-0.9,6.3-0.1,12.9-0.1,20.5c4.5-2.3,6.9-6.2,8-13.3
		c1.6-8.8,10-18.8,19.4-13.4c-0.6-3.1,1.8-5.8,3.1-7.6c5.3-9.4,28.4-8.2,16.5-24c2.8,1.4,6.1-0.2,6.2-1.2
		c-0.9-15.3,3.9-27.7,4.9-42.7c5.8,1.8,10.5,4.5,16.3,6.3c-1.5-11.3,3.2-22.8,10.1-28.9c3.4-2.6,14.6,4,15.8,2.2
		c23.4-23,50.4-35.4,76.9-51.9c26.4-15.5,49-32.6,72.8-51.5c4.4-2.4,9-6.8,10.8-12.6c0.8-5.9,1.7-11.9,5.5-17.4
		c3.7-4.5,9-6.8,11.7-11.5c8.8-20,25-34.9,42.3-46.2c5.2-3.3,10.3-6.9,15.2-10.6c4.9-3.7,9.8-7.6,14.6-11.4c1.6-1.3,1.2-5.1,1.7-7.9
		c12.8,1.1,15.4-11.3,22.4-17.6c13.2-11.8,24.1-26.3,37.7-37.6c11.7-9.7,25.7-16.6,40.3-23c-6.5,8.7-13.1,17.4-19.6,26.1
		c-2.2,2.9-4,6-6.3,8.8c-6.7,8.1-13.4,16.4-20.7,24c-1.4,1.5-5.4,0.4-5.4,0.4c-5.6,8.5-11.5,15.3-15.1,23.1
		c-4.5,9.8-17.6,12.5-18.3,26.1c-0.3,5.4-8.9,10.5-13.8,15.7c-1.2-1.2-2.4-2.5-3.6-3.7c0.7,2.6,1.4,5.3,2,7.7
		c-0.8,0.8-1.2,1.7-1.6,1.7c-9.8-0.8-15.8,3.6-21,9.3c-8,10.9-18.1,18.5-24.9,30.7c-5.3,9.4-17.9,12.7-26.2,21.6
		c-15.5,17-26,34.7-42.2,49.7c-27.6,24.4-52,47.3-80.4,69.6c-11.3,8.5-27.1,13.4-33.3,28.7c-1.8,5.8-10.5,2.6-14,6.1
		c-20.6,24.4-31.6,53.2-58.7,68.1c-2.5,2-6.1,5.9-5.5,7.8c4.4,14,1,22.2-12.8,28.3c-1.9,0.8-3.7,1.9-7.4,3.7
		c4.3,1.6,6.7,2.5,11.7,4.4c-3,7.1-4.9,19.1-9.2,20c-9.5,2.1-7.8,7.5-8.9,13c4.1,1.9,7.8,3.6,11.2,5.1c8-4.9,16.2-10,24.4-15.1
		c0.7,0.4,1.4,0.9,2.1,1.3c-0.7,2.5-1.6,4.9-2,7.5c-0.7,4.4-2.5,9.3-1.3,13.2c2.6,8-0.5,10.9-7.6,12.1c0.4-2.9,1.4-5.9,1-8.7
		c-0.4-2.9-2.3-5.5-3.5-8.3c-2.3,1.3-4.9,2.3-6.7,4.1c-2.6,2.7-4.6,6-6.8,9c2.5,2.5,4.4,4.3,6.3,6.2c-1-0.1-1.9-0.2-2.9-0.3
		c-3,8.5-5.9,16.9-8.9,25.4c1.2,0.6,2.4,1.1,3.6,1.7c1.5-2.5,3.1-5,4.6-7.5c4.5-7.3,8.9-14.5,13.4-21.8c1.1,9,1.5,18.1,3.5,26.9
		c1.8,8.2,5.5,8.8,11.3,5c-1.6-7.7-3.9-14.5-3.9-21.4c0-3.4,4.2-6.9,6.4-10.3c2.9,4.1,12.4,2.9,9,12.3c-2.2,6,2.2,6.6,6.6,4.8
		c2.6-1.1,4.9-2.9,8.2-4.9c1.3,3.8,2.5,6.9,3.7,10.4c6.6-10.3,16.1-19,12-32.7c-6.5,4.3-12.4,8.3-21,14.1c0.3-7.3,0.5-11.6,0.7-15.1
		c15.5,0.7,24.6-10,39.1-15.5c-6.2,8.7-10.8,15.1-15.4,21.6c0.9,0.7,1.8,1.4,2.7,2.1c2.1-1.7,4-4.2,6.4-5c3.4-1.2,7.2-1.3,10.8-1.5
		c1.8-0.1,4.2,1.3,5.4,0.6c7.5-4.8,15-9.9,22-15.4c1.2-0.9,0.2-4.8,0-7.3c-0.2-3.3-0.6-6.7-1.1-11.7c2.8,1.8,4,2.2,4.7,3.1
		c8.6,10.1,8.3,9.7,19,2.1c4.8-3.4,11.1-4.6,16-6.6c3.1,12.4,6.1,24.6,9.1,36.9c0.9,0.1,1.7,0.1,2.6,0.2c-1.7,1.8-3,4.1-5,5.3
		c-38.1,22.1-75.3,46-114.7,65.4c-42,20.7-86.9,34.1-132.3,46.1c-48.2,12.7-97.2,18.4-146.5,21.7c-62.7,4.2-124.8-3.3-186.3-16
		c-103.4-21.4-196.7-65.4-282.1-126.8c-45.9-33-86.3-72.3-123.2-115.2c-35.8-41.6-67.1-86.4-92.4-135.1
		c-25.7-49.5-46.4-101-61.2-154.9c-11.1-40.6-20.4-81.6-23.9-123.5c-2.7-32-3.6-64.4-2.8-96.5c0.8-31.8,3.1-63.8,7.9-95.2
		c4.6-29.7,13.2-58.9,20.3-88.2c2.9-12,5.7-24.1,10.1-35.7c2.8-7.6,8.4-14.1,12.4-21.3c1.5-2.7,2.2-6,3.2-9c5.1-16,10.2-32,15.4-48
		c0.5-1.5,1.4-3.1,2.6-4.1c15.5-12.3,15.4-32.4,24.4-47.8c5.7-9.9,14.3-18.1,21-27.4c3.6-5,5.8-11,9-16.4c2-3.3,4.2-7.7,7.3-8.7
		c5.7-1.7,12-1.2,17.9-1.6c3.5,4,4.9,8.2,7.5,11.6c5.9-6.2,12.7-11.4,17.7-18.7c-11.9,5.4-18.7-3.6-29.4-5.8c-0.6,0-2.6-5.7-1.6-7
		c12.8-16.7,25.9-33.1,39-49.5c3.8-4.8,7.5-9.9,12.1-13.9c6.2-5.3,13.3-9.6,20-14.4c1.8-1.3,4.7-2.5,5-4.1
		c2.1-14.3,14.3-18.9,24.1-25.9c2.2-1.6,4.3-3.6,6.2-5.5c10.3-10.4,18-22.5,31.1-29.7c2.1-0.7,8.9,8.3,11.5,4.6
		c20.5-31.5,52.3-56.3,88.3-68.5c0.9,8.2-7.7,12-10.7,18.7c-1.5,3.8-2.2,8.8-0.8,13c11.7-4.4,24.6-9.7,36.3-14.1
		c-12.2,15.5-30.9,26-40.3,42.9c-8,14-15.2,29.2-28.8,40.4c-4.7,4.4-2.6,11.7-4.5,17.6c-1.3,1.8-3.7,4.5-4.9,6.4
		c-1.7-2.3-3.3-5.5-3.9-8.6c-8.8,4.8-13,13.3-14.3,23.2c0.6,3.1-2,6.8-5.1,7.4c-11.3,1.5-26.7,3.4-27.8,18.3
		c8.6-10.9,21.3-8.1,30.4-0.8c3.5,3.5,1,7.2-1.5,10.9c-10.8,12.6-28.6,17.2-36.8,32.2c13.4-2.2,31.9-25.9,36.8-3
		c0.9,1.1-2.8,5.7-5.5,3.3c-9.1-14.4-13.8,5.1-24.7,10.7c-2.1,0.7-3.7,4.5-3.1,7.6c0.7,2.1,2.4,4.4,1.2,6.2
		c-2.8,5.7-7.5,10.1-13.1,14.3c-1.6-3.2-3.1-6.5-4.7-9.7c-7.8,5,0.2,13.2-2.9,20.8c17.5-2.6,26.8-25.6,46.2-19.8
		c-3.8,5.5-5.6,11.3-11.3,15.6c14.1-0.1,21.7-11.1,32.7-17.7c-7.6-3.1-15.4-5.2-23.1-8.3c12.4-9.4,29.1-13.1,35.4-29.4
		c1.7-4.8,9.8,2.4,13.3-1.2c4.8-5.4,4-14.6,9.6-17.9c7.8-5,13.7-11.2,17.9-19.7c2.5-3.7,5.8-5.3,10.5-2.6c-3.2,1.6-4.7,4.4-3.9,6.5
		c0.6,10.2,12.2,13.8,17.4,5.5c5.1-7.4,11.1-14.6,15.3-23.1c1.8-5.8,2.5-10.8,2.3-16.8c13.8,10,20.2-7.3,30.2-14
		c2.1-0.7,3.8,1.5,4.7,2.7c7.4,12.1-5.5,17.4-12.5,24.5c-3.4,2.6-9.3,1.7-13.7,4.2c19.1,7.7,9.3,20.5,2.4,33.6
		c-7.7,12-18,20.7-28.6,31.4c-6.8,5.1-13.5,10.2-20.2,14.4c-38.4,21.9-68.8,44.9-102.8,71.5c-4.5,3.4-10.9,5.6-16.9,5.7
		c3.2-1.6,5.9-6.2,9.2-7.8c-3-0.4-7.2,1-8.3,1.9c-15.2,22.1-39.5,29.8-62.1,39.8c2.6,3.4,6.2,5.9,7.8,9.2
		c-11.6-3.6-26.6,2.4-24,12.8c0.6,3.1,9-6.8,16.5-2.7c-6.8,5.1-11.8,12.5-18.7,18.6c3.8,1.5,6.9,1,10.2-0.6
		c66.7-51.3,124-107.9,204.4-141.2c2.3-1.7,7.5-3,5.1-7.4c-1.6-3.2-5.2,8.4-9.3,1.7c6.1-0.2,10.3-8.7,14.6-3
		c1.8,1.3,0.2,6.1-0.2,9.1c20.9-19.3,43-33.4,66.6-50.3c14.7-11.1,30.3-29.1,15.8-48.3c13.4-9.2,18.3-29.8,12.3-44.7
		c-1.3-5.2,2.4-9.8,6.9-13.2c17.8-11.7,30.9-26,47.1-40.9c5.8-5.3,14.6-3,22.9-4.9c-40.3,28.7-85.6,70.9-68.1,126.8
		c-0.1,1-1.1,7.9-3.5,10.6c-23.9,27-49.9,46.6-77.8,65.9c1.8-5.8,6.5-10.2,9.3-15.9c-9.6,3.7-15.8,11.9-18.2,21.7
		c-1.8,5.8-9.9,5.7-15.4,9c0.3-2-0.4-4.1-1.4-4.2c-5-0.7-12.3,1.3-12.8,5.3c-3.5,17.7-22.5,24.1-31.5,38c0.4-3-0.3-5.1-2-7.3
		c-14.8-17.2-35.2,6.2-48.5,14.5c-5.6,4.3-10.4,9.7-16.1,13.9c-24.7,17.8-54,32.9-70.6,57.8c2.1-0.7,5.1-0.3,7.2-1
		c24.8-18.8,50.2-34.4,79.9-44.4c13.7-4.2,21.8-19.2,35.8-25.3c-28.3,29.4-55.5,57.9-89.2,82.5c-8,7-17.9,12.7-26.9,19.5
		c-5.8,5.3-7,14.2-6.1,22.4c15.9-12.9,34.3-21.5,48.5-36.7c70-68,135.8-141.6,226.1-173.5c-6.8-9,7.2-15.2,14.6-18.2
		c4.2-1.4,9.5-2.7,13.7-4.2c3.1-0.6,7.6,3.1,8.8,2.2c12.5-10.4,24.1-13.8,39.5-15.7c4.1-0.4,8.4-9.9,5.2-8.4
		c-16.7,3.7-32.5,8.6-47.6,15.6c0.3-2-0.4-4.1-0.3-5.1c11.1-7.5,25.6-9.6,34.1-20.5c-9.2,0.7-18.4-5.6-25.8-10.7
		c2.8-5.7,13.7-4.2,12.5-10.4c-0.7-9.2-13.8-10-20-15.9c7.2-1,13.2-0.2,20.1,0.8c-17.8-2.5-26.9-16.9-14.7-32.3
		c15.5-17,32.4-29.8,52.2-41.2c2.1-0.7,4.1-0.4,6.1-0.2c-5.1,7.4-15.5,10-17.2,21.8c16.8-18.9,39.7-23.8,62.5-35.7
		c4.4-2.4,7.2-8.1,11.7-11.5c-15,6-29.4,15.1-46.3,13.7c31.2-20.9,64.6-36.4,101.8-42.4c4.2-1.4,8.6-3.9,11-6.5
		c13.9-20.3,24-42.1,41.6-59.8c-10-0.4-20.6,3.2-24.7,10.7c-14.6,32.3-45.5,58.3-80.1,60.5c20.2-7.3,41.9-25.5,49-47.7
		c2-6.8,12.3-8.4,17.2-14.8c1.1-0.9-0.4-4.1-2.3-5.4c-1.3,1.8-2.5,3.7-4.8,5.4c-11.7,4.4-20.6,10.3-27.1,20.5
		c-2.4,2.7-6.8-2-10.3-5.5c-0.8,5.9-2.8,12.7-3.6,18.7c-17-15.5,4.1-29.7,15.7-40.2c1.4-2.8-0.3-5.1-3-6.9c-1.2-0.9-1.6-3.4-1.6-5.1
		c-0.1-5.2,0.1-10.5,0.3-18.1c9.4-0.4,20.4-0.9,33.2-1.5c-4.5,8.7-6.7,17.5-9.9,26.1c10.9-5.6,23.4-8.9,17.4-23.8
		c64.6-14.2,133.1,1.3,198.2,12.4c-7,7.1-12.2,15.5-15.6,25.1c-3.6,11.6,0.7,24.3-7.8,34.3c-23.2,29.1-46,55.2-64.5,85.9
		c-2.5,3.7-6.9,6.1-10.3,8.7c-2.3,1.7-3.7,4.5-2.9,6.7c3.7,9.6,12.6,10.8,22.7,11.2c2,0.3-4.9,6.4,0,7.1
		c12.6,3.8,11.4-16.6,9.5-24.9c20.9,24.1-7.7,55.5-19.1,79.1c-1.5,3.8-1,6.9-1.5,10.9c10.9,1.5,13.5-10.2,18.6-17.6
		c4.1-7.5,15.7-3.9,18.5,4.6c0.9,1.1-2.4,2.7-1.5,3.8c3,7.5,11.5,11.7,18.3,6.6c13,23-18.2,36.8-34.6,45.7
		c11.2-0.5,24.7-3.6,33.2,0.6c4.8,1.7-0.7,12-6.9,13.2c-41.7,9.3-82.4,11.8-121.9,34.5c-7.6,4-8,14-11.1,21.7
		c-4.5-3.7-1.7-9.3,0.8-13c-13.7-2.9-18.1,13.6-21.5,24.3c-1.7,4.8-5.9,6.2-8.3,8.9c-1.2-6.2,2.5-10.8,2.1-16.5
		c-6.1,6.6-4.8,14.1-5.8,21c-1.6-3.2-2.4-9.5-3.8-7.7c-5.3,7.9-8.2,17.6-8.7,27.7s1.3,20.7,5.5,30.4c2.7-4.7,6.8-5.1,11.5-3.3
		C768.7,505.9,768.6,505.7,768.6,505.7z M302.4,597c-16.6,6.1-19,9.9-9.1,17.1c3.2-6,6.1-11.6,9-17.2c8.3-3.3,19-4.4,14.7-18
		C312.1,585,307.3,591,302.4,597z M810.6,1176.4c-0.9,3.1-2.4,6.1-2.6,9.2c-0.2,3.1,0.9,6.3,1.4,9.5c3.6-1,8.1-1,10.5-3.2
		c1.7-1.6,2.1-7.2,0.6-9.1c-2.2-2.9-6.6-4.2-10.1-6.2c-1.3-5.1-2.7-10.3-4.1-15.7c-5.1,8.3-19.2,10.5-14.7,27.1
		c5.1-4.6,9.2-8.2,14-12.6C806.2,1175.4,808.4,1175.9,810.6,1176.4z M343.7,1070.2c-0.7-1.7-2.2-3.6-2-5.2c0.6-4.5,2.6-10.6-4-10.5
		c-5.4,0.1-12.9,2.6-15.5,6.6c-3.4,5.3-4.4,9.3-11.9,5.9c-3-1.4-7.4,0.2-11.1,0.8c-1.4,0.2-3.1,1.5-3.6,2.7
		c-0.4,1.1,0.2,3.1,1.1,4.1c3.4,3.9,7.1,7.5,10.7,11.2c-5.2,9.7-10.1,18.8-15.9,29.4c8.5-0.5,14.5-0.4,20.5-1.2
		c5.3-0.8,9.2-10.5,6.5-14.9c-8.1-13.4-4.2-21.6,12.6-24c-2.7,11.1-8.3,21.9-1.9,33.6c5.7-8.4,10.4-17,14-26.1
		c1.5-3.7,0.3-8.4,0.4-12.7c1.9,0.5,3.9,1.8,5.6,1.4c2.9-0.6,5.7-2,8.1-3.6c0.6-0.4-0.5-3.2-0.7-4.9c-3,0.6-6.2,0.7-8.8,1.9
		C345.9,1065.8,345,1068.4,343.7,1070.2z M892.7,331.8c0.2,7.5,2.2,14.8-0.8,21.5c-0.1,1,2.7,2.4,2.7,2.4
		c4.5-3.4,14.3-8.1,10.7-11.6c-12.2-13.8-12.4-27-17.3-42.8c-2-7.3-15.7-3.2-19.6,3.3c-1.1,0.9,4.5,3.7,4.3,5.6
		c-3.5,10.6,0.8,16.3,1.2,27.4c0.7,2.1-1.5,3.8-3.8,5.5c-24.3,14.8-64.6,21.3-78,45.7c31.3-14.8,69.8-22.6,92.8-50.4
		C887,335.6,889.6,333.5,892.7,331.8z M1051,609.8c7.6-7.1,15.5-14,23.2-20.9c13.7-10.5,22.1-27.5,39.7-31.1
		c-2.8-1.4-6.7-2.9-9.5-4.3c4.9-6.4,7-14.2,10-20.3c2.6-6.9,5.4-13.7,11.4-18.8c1.6-1.4,3.3-3.9,3.1-5.7c-0.2-1.5-4.3-4.2-4.5-3.9
		c-5.2,4.6-11.8,8.7-14.7,14.5c-3.9,7.7-8.3,11.2-16.8,8.9c-8.3,11.3-16.4,22.5-24.6,33.6c6.9-3.3,12.3-8.2,18.3-12.2
		c2.3-1.6,6-1.2,9-1.6c-1.6,2.9-2.7,8-4.7,8.4c-11.4,2.4-16.5,11.5-23.6,19c-9.6,10-17.8,19.8-16.2,34.7c-2.6-2.1-5.2-4.3-7.9-6.5
		c-7.2,6.5-14.3,13.1-22.3,20.3c-1.4-1.3-3.7-3.3-6-5.3c2.4-3.7,4.3-6.6,6.9-10.6c-8.3,0.7-11.6,4.5-10.7,10.5
		c1.4,9.3-2.7,15.4-9.4,21c-3.6,3-6.3,7.1-9.4,10.6c0.9,0.9,1.8,1.8,2.7,2.8c4-3,9.3-5.2,11.6-9.1c4.8-8.2,8.5-9.3,13.1,0.9
		c4.4-10.9,11.3-16.6,21.1-20.2C1046.1,622.5,1053.5,618.7,1051,609.8z M439.9,1046.1c-8.5,7.3-20.4,13.1-24.6,22.4
		c-4.1,9-11.1,11.6-17.2,16.5c-1,0.8-4.4-0.2-5.7-1.4c-3-2.6-5.4-5.9-9.7-10.8c15.3,1.8,20.2-8.7,26.7-17.2c1-1.2,3.6-2.2,5.1-1.8
		c6.9,1.9,8.1-2.1,9.6-7.5c2.5-9.1,6-17.2,17.6-19c3.2-0.5,8.7-9.1,7.6-11c-7.8-14.1,0.2-25.1,5.4-36.8c1.2-2.6,1.7-5.6,2.5-8.3
		c-4.1-0.4-6.3,0.6-8.3,1.9c-7.1,4.8-8.8,12.5-12.2,19.9c-9,19.5-20.3,38.1-31.4,56.6c-3.1,5.3-8.6,9.1-14.6,15.2
		c-2.3-31.8-1-38.8,6.4-42.5c3,1.9,5.6,3.5,8.2,5.1c0.6-3.1,0.9-6.4,1.7-9.4c1-3.6,1.7-9.4,3.9-10.1c13.3-4.4,14.3-15.6,16.4-26.5
		c-5.9,1.1-11.7,3.2-17.5,3.1c-6.8-0.1-9.2,1.8-9.6,8.7c-0.5,6.8-1.6,14.2-4.6,20.1c-3.9,7.6-10.5,13.9-15,21.3
		c-3.3,5.3-6.1,8.9-12.2,3.6c-4.6,9.1-18.9,16.4-2.3,26.3c0.9,0.6,1.2,2.2,1.8,3.4c4.6,10.1,9.1,20.2,14,30.2c0.8,1.6,4,3.6,4.7,3.2
		c7.6-4.6,15.9-8.7,22.1-14.9c9.4-9.3,17.4-20,25.7-30.4c2.3-2.9,3.6-6.6,5.3-10c10.2-2.8,17.6-13.5,12.5-20.9
		C449.4,1033.4,436.4,1034.2,439.9,1046.1z M864.8,856.3c2.3,3.1,4.9,6.1,6.9,9.4c21.7,37.2,66.7,50.5,104.9,30.1
		c36.3-19.4,58.2-77.9,20.5-120.1c-22-24.6-57.9-32.7-88.3-19.7c-29.1,12.3-51.6,46.7-46.5,78.3c1.2,7.4,1.8,14.9,2.6,22.3
		c-1.8-2.9-3.6-5.9-5.4-8.8c-8.8,2.6-20.5,43.9-15.2,60.1c2.6-8,2.7-15.4,6.5-18.7C861.2,880.2,859,866.7,864.8,856.3z
		 M619.9,1355.3c0,0-0.1-0.1-0.1-0.1c-5.1,8.3-10.2,16.7-16.3,26.6c3-0.5,6.7-1.1,12.1-1.9c-3.1,4.4-5.9,7.7-8,11.5
		c-1.2,2.3-1.3,5.2-1.9,7.9c2.3,0.3,4.8,1.4,6.9,0.9c2.8-0.7,5.5-2.4,8-3.9c4.2-2.5,8.3-5.3,13.5-8.6c0.7,5.3,1.1,8.3,1.5,11.2
		c0.7,0.3,1.5,0.7,2.2,1c6.1-11.2,18.9-16.9,21.9-30.8c1-4.4,4-8.6,7-12.1c0.9-1.1,6-0.6,7.1,0.8c2.2,2.8,2.9,6.7,3.6,8.6
		c3.9-5.9,7.1-14.3,13.1-19.3c10.9-8.9,22.5-16.2,14.8-33.1c8.4,0.5,13-3.8,10.4-9.5c-2.4-5.5-5.5-11.5-9.9-15.3
		c-2.7-2.3-8.5-0.9-13.4-1.1c-2.8-7.7,2.8-10.5,8.3-12.2c1.8-0.6,4.8,3,8.3,5.3c1.3-3.9,1.6-11.1,4.9-13.1
		c7.6-4.7,13.4-9.3,18.7-17.3c5.9-8.9,17.5-15.4,27.9-19.7c14.7-6.1,21.4-17.3,27.4-29.9c-7-0.2-13.2-0.5-19.4-0.7
		c0.6-0.9,1.3-1.9,1.9-2.8c-2.3-5.2-3.7-13.9-7.2-14.8c-10-2.6-11.5,7.4-15.3,17.3c-3.2-14.7-9.8-3.7-18-5.5
		c4.9-6.9,8.5-12.8,12.9-18.1c3.4-4.2,8.1-7.4,11.5-11.6c4.4-5.3,8-11.2,12.2-16.7c2.3-3.1,6.5-5.5,7.2-8.8
		c2.2-9.8,8.9-13.6,18.4-16.3c-0.8,3.4-1.4,6-2,8.6c0.7,0.8,1.3,1.5,2,2.3c2.4-1.7,5-3.2,7.3-5c4.1-3.2,7.6-7.6,12.3-9.4
		c2.4-0.9,7.1,2.1,9.6,4.6c0.9,0.8-1,6-2.9,7.9c-3.4,3.3-8,5.3-11.7,8.4c-6.1,5.2-11.9,10.8-18.8,17.2c14.1,4.8,18.8-6,26.5-10.7
		c0.5,10.1,0.5,10.1,5.9,11c2.5-3.6,4.4-7.2,7.1-9.9c3.3-3.2,7.5-5.5,11-8.6c3.4-2.9,6.3-6.4,9.6-9.4c4.8-4.3,10-8.1,14.5-12.6
		c1.8-1.8,3.7-5.9,2.9-7.3c-1.2-2.1-5.1-2.6-7.5-4.2c-2.3-1.5-4.3-3.6-6.4-5.5c1.8-1.9,3.2-4.9,5.3-5.4c6.1-1.5,12.6-1.3,18.6-3.1
		c2.9-0.9,6.7-4.2,7.3-7c2.5-12.8,3.9-25.9,5.8-39.4c-0.8-0.2-3-0.8-6.4-1.6c10.1-12.3,19.6-23.5,28.6-35.1c1.4-1.8,0.6-5.3,0.9-8
		c-2.7,0.8-5.6,1.3-8,2.6c-1.2,0.6-1.1,3.3-2.2,4.2c-3.6,2.6-7.8,7.2-11.1,6.7c-8.4-1.3-14.7,1.5-20.8,6.1
		c-6.2,4.6-11.5,11-18.3,13.8c-6,2.5-13.6,1-18.9,1.2c-2.6,4.1-3.7,8.1-6.3,9.9c-8.4,5.6-17.3,10.4-25.5,15.1
		c0.6-2.9,1.6-7.1,2.5-11.3c-0.8-0.5-1.7-0.9-2.5-1.4c-2.2,2.8-4.6,5.4-6.5,8.3c-3.8,5.7-7,11.7-11.1,17.1c-1.3,1.7-5.4,3-7.2,2.2
		c-8.1-3.7-10.4,1.4-12.9,7.2c-1.5,3.5-2.7,7.6-5.3,9.9c-1.9,1.7-6,0.9-9.2,1.3c1.1-2.8,2-5.6,3.5-8.2c1.4-2.6,3.5-4.9,4.8-7.5
		c0.3-0.5-2.3-3.3-2.8-3.2c-2.8,0.9-6.2,1.9-8,4.1c-6.4,7.7-12.3,15.8-17.3,22.5c0.7,5.4,3,10.2,1.5,12.6
		c-5.9,9.3-13,17.9-20.5,27.9c-1.7-5.6-2.9-9.4-4.5-14.7c-2,4.5-3.2,7.2-5.2,11.5c-1-5.1-1.6-8.2-2.2-11.4c-1.1-0.3-2.2-0.5-3.3-0.8
		c-1.5,4.3-2.8,8.8-4.6,13c-3.3,7.5-6.8,14.9-11,21.9c-0.2,0.4-7.6-3.5-12.2-5.6c-11.5,5.6-8.1,27.1-26.7,27
		c-0.4,1.6-0.9,3.1-1.3,4.7c-1.6,6.2-2.3,13.4-11.7,6.9c-1.3-0.9-5.9,1-7.3,2.8c-12.6,16.5-24.9,33.1-36.9,50
		c-1.4,2-0.5,5.7-0.4,8.6c0.1,1.9,0.5,3.8,1.1,7.2c-3.4-1.7-5-2.6-6.7-3.4c-9.1-4.3-11.7-2.7-12.8,7.2c-0.3,2.3-1.8,5.6-3.5,6.2
		c-7.3,2.8-15.1,7-22.3,6.4c-10.2-0.9-17.4,0.7-23.3,9.2c-1.6,2.3-5.5,2.8-9.7,4.8c1.4,6.7,3.1,15,5.4,25.7c2.8-3.5,5-6.2,7.4-9.3
		c2.2,3.6,3.5,5.7,5.5,8.8c8.6-11.6,16.3-22.4,24.6-32.7c1.4-1.7,5.5-1.3,9.9-2.1c-8.3,10.1-14.9,17.5-20.7,25.4
		c-6,8.3-4.6,14.9,4,21c-2.6,2.5-5.2,4.9-6.3,6c-8.5-2.3-15.4-4.6-22.5-5.9c-1.7-0.3-4.5,2.4-5.8,4.3c-0.7,1,0.2,3.8,1.3,5.1
		c2.3,2.8,22.9,4.8,26.5,3.2c4.9-2.1,10.7-6.2,15-5.1c9.6,2.4,18.3,7.9,27.7,11.3c2.9,1.1,6.8,0,10.1-0.7c1.3-0.2,2.9-3.1,3.3-2.8
		c10.6,5.4,12.9-5.5,18-9.7c4.5-3.7,7.8-6.2,14.1-2.9c-2.6,5.8-4.8,11.6-7.6,16.9c-0.9,1.6-3.7,3.5-5.2,3.2c-9-1.7-10,6.9-14.4,11
		c-0.7,0.7,0.6,4,1.6,5.6c0.3,0.5,4.5-0.6,4.6-1.2C602.2,1356.7,612.4,1358,619.9,1355.3z M575.8,873.3c1.1-0.6,2.2-1.2,3.3-1.8
		c2,3.6,6.2,7.8,5.5,10.8c-2.1,9-4.5,18.7-9.8,26c-4.3,6.1-9.8,14.3-20.5,12.2c-1.4-0.3-4.1,3.6-5.5,6
		c-8.5,14.4-23.1,21.4-36.5,29.7c-1.8,1.1-4.5,0.4-6.6,1.1c-5.3,2-11.3,3.3-15.4,6.8c-7.8,6.6-14.4,14.5-21.5,22
		c-3.5,3.7-7.4,7.2-9.7,11.5c-1.3,2.4,0.3,6.3,0.5,9.6c3.2-0.9,7-1.1,9.5-3c2.3-1.8,3-5.4,4.5-8.2c1.3-2.4,2.3-5.1,4.1-7.2
		c3.8-4.3,7.8-8.4,11.9-12.3c3.5-3.4,7.3-6.4,11-9.6c0.6,0.7,1.2,1.4,1.8,2c-4.3,6-8.6,12-13,18.1c9.7,5.4,16.1,3.8,21.6-3.7
		c4.3-5.9,9.2-11.5,14.2-16.8c2.2-2.3,5.4-3.7,8.4-5.6c1.8,3.4,2.9,5.5,4.4,8.2c2.4-2.9,4-5.4,6.1-7.2c11.8-9.4,23.6-18.9,35.9-27.8
		c6.1-4.4,9.2-9.1,5.4-16.6c18.1,1.7,24.9-1.3,26.9-14.9c1.3-8.9,8.2-10.6,12.6-10.4c10.4,0.5,12.2-8.6,18-11.1
		c-3.9-3.5-7.9-5.7-9.7-9.1c-6.3-11.7-8.5-12.8-21.3-11.4c-4.1,0.5-8.5-1.7-12.7-2.6c11.1-4.9,13.1-8.1,9.4-17.4
		c-2.7-6.9-6-13.5-9-20.4c-2-4.6-3.8-9.3-5.6-14c-1.3,0.1-2.6,0.2-3.9,0.4c-0.9,3.7-1.9,7.4-2.8,11.1c-0.8,3.3-1.2,6.8-2.6,9.8
		c-1.7,3.6-4.2,6.8-6.7,10c-1.5,1.9-3.4,3.6-5.4,5.1c-3.3,2.4-7,4.3-10.1,6.9c-9.7,8.3-19.4,16.6-28.6,25.5
		c-8.8,8.5-16.9,17.6-25.1,26.7c-1.1,1.2-1,5.4-0.2,5.9c2.2,1.2,5.6,2.1,7.5,1.2c8.4-4.1,16.5-8.8,24.7-13.4
		c0.9,1.3,1.8,2.5,2.7,3.8c-4.2,3.1-8,7.4-12.7,9.2c-9.5,3.7-13.9,11.2-19.2,19.2c8.1,3.8,12.5,3.2,17.7-3.6
		c6.6-8.6,16.1-14.9,23.6-22.9C561.4,892.5,576.1,889,575.8,873.3z M1331.8,353.1c-1-0.7-1.9-1.4-2.9-2.1
		c-3.4,3.5-7.3,6.7-10.1,10.7c-9.2,13.3-16.9,27.6-27.1,40c-12.9,15.7-27.7,29.7-41.5,44.7c-13.2,14.4-25.6,29.4-39,43.5
		c-5.4,5.7-11.1,11.3-16.8,16.7c-5.7,5.5-11.5,10.9-17.2,16.4c-22.5,24.4-45.6,45.4-68.3,70.5c-15.6,18-46.6,29.9-46.9,54.1
		c20.7-11.2,34.8-32.5,56-39.7c4.2-1.4-7.3,9.1-5,14.4c0.7,2.1,5,0.7,7.2-1c23.4-30.1,38.1-63.4,63.2-90.8
		c5.4-7.5,11.8-13.4,21.3-15.2c-2.8,3.7-5.7,7.5-8.5,11.3c0.7,0.7,1.5,1.3,2.2,2c8.3-7.3,16.8-14.4,25.2-21.6s17-14.4,25.6-21.7
		c1.9,1.7,3.9,3.4,6.4,5.7c6.7-8.8,18.5-13.1,16.5-27.7c-3.6,3.1-7.2,6.2-10.7,9.2c0.3-10.9,7.4-19.3,18.3-21
		c0.2,2.8,0.4,5.4,0.8,11.5c6.8-7.9,11.6-13.6,16.5-19.2c-0.6-0.7-1.2-1.3-1.8-2c-3.3,1.1-6.6,2.2-10.6,3.5
		c4-13.2,19.8-28.6,29.8-28.9c-2.6,3.6-4.7,6.7-7.4,10.4c9.9,3.5,11.4-5.4,15.8-9c0.9-0.8,0.2-5.8-1-6.4c-7.3-3.8-3.7-8-0.6-11.7
		c4.9-5.9,10.3-11.4,15.3-16.8c3.5,2.1,6.1,3.6,8,4.8c4.4-7.2,8.3-13.4,12.2-19.9c-2.2-1.1-4.3-2.2-6.3-3.2
		c2.2-3.9,3.9-7.2,5.7-10.4c-0.7-0.9-1.5-1.8-2.2-2.8c-6.8,2.6-13.5,5.3-20.8,8.1C1332.9,357.8,1332.4,355.4,1331.8,353.1z
		 M187.5,947.1c6.7-2.2,10.8-3.5,12.6-4.1c4.8-9.1,8.9-17,13-24.9c-10-6.3-10-12-0.1-19.7c2-1.5,3.1-4.2,4.8-6
		c2.2-2.3,4.6-4.3,6.9-6.5c0.6,0.6,1.1,1.1,1.7,1.7c-3,5.6-6,11.1-9,16.7c9.3-1.2,13.4-7,14.4-14.1c1.8-13-11.2-12.4-17.9-18.7
		c0,5.5,1.8,12.6-0.4,14.2c-9.7,7-17.2,18.8-32,17.6c1-2.7,2-5.4,3-8.2c-16.5-2.3-24.7,3.2-26.1,17.2c-14.2-5.1-9.9,8.3-14,14.2
		c-3-0.4-6.3-0.9-8.7-1.2c3.8-8.4,6-17.6,11.4-24.3c5.6-6.9,13.8-12.2,21.7-16.8c22.2-12.8,30.4-27.4,20.4-51
		c-0.6-1.4-3.8-2.9-5.1-2.5c-9.1,3.1-11.2,14.3-4.4,21.3c0.6,0.6,0.8,1.7,0.7,1.5c-2.6,4.9-4.8,8.9-6.9,13c-2.2,4.3-4.2,8.8-7,14.7
		c-2.7-4.4-4-6.6-5.7-9.3c-4.5,4-8.3,7.4-13.2,11.8c1.9-6.9,3.2-11.6,4.5-16.3c-1.3-0.6-2.5-1.2-3.8-1.8
		c-5.9,7.6-11.9,15.2-19.3,24.8c6.9,1,10.8,1.5,14.6,2c-1.7,9.4-7.5,20.7-12.7,25c-6.1,5-5.4,10.2,2.1,13.2c2.9,1.2,6.1,1.5,9.4,2.2
		c-0.6,4.4-1.1,8.1-1.9,13.9c-4.1-4.7-7.1-8.1-10.5-11.9c-8.3,11.3,1.2,17.8,5.7,27.4c3.5-4.6,6.2-8,8.9-11.5
		c1.1,0.5,2.2,1.1,3.3,1.6c-2.1,4.7-3.7,9.8-6.4,14.2c-3,4.9-7,9.1-10.6,13.6c7.9-3.6,14.6-8,23.7-5c-2.3,4.4-4.1,7.9-6,11.6
		c5.4,0.1,9.2,0.2,13,0.3c0.5,0.9,0.9,1.8,1.4,2.7c-6.9,3.6-10.8,8-5.5,13.3c-4.5,3.6-8.5,6.7-12.4,9.9c4.1,3.9,8.1,7.9,13.6,13.2
		c1.8-7.3,2.8-11.3,4.4-17.9c5,8.4,8.1,14.6,12.2,20c3.1,4,14.3,0.2,16-3.8c-3.7-0.2-7.9-0.5-12-0.7c2-2.9,4.7-5.5,5.9-8.7
		c1.6-4.1,2.5-8.6,3-13c0.1-0.7-3-2.9-4.3-2.7c-5.7,1.2-10.3-0.8-9.1-6.3c0.9-3.9,6.1-6.9,9.4-10.2c0.6,0.7,1.2,1.4,1.8,2.2
		c-1.1,2.6-2.3,5.2-3.4,7.8c7.6-4.2,18.5-3.3,19.7-14.8c0.9-8.5,2.3-16.9,3.2-23.5c-4.6-0.6-7.4-1-11.1-1.5
		c-3,7.2-6.7,16.2-10.3,24.8c-5.9-1.4-9.8-2.3-16.1-3.7c6.6-3.7,11.3-6.4,14.1-7.9c-1.2-5.2-3.3-8.7-2.3-10.8
		c3.6-8.3,3.4-14.8-8.5-19.4c5.8-3.9,9.8-6.6,14.4-9.7C186.4,934.5,186.9,940.6,187.5,947.1z M505.8,424.4
		c-44.4,41.7-95.4,74-141.6,116c-1.3,1.8-4.1,7.5-2.1,7.8c21.2-0.1,38.1-12.9,53.4-27.9c65.5-64.6,129.5-125.4,216.6-156.7
		c10.6-3.6,19.9-12.4,29.1-20.2c2.3-1.7,2.8-5.7,1.2-8.9c14.7,3.1,30.9-11.9,27.8-25.4c-5.3-19.9-30.1-23.4-39.5-42.8
		c-3.9-8.6-11.3,1.5-17.7,3.6c-2-0.3-4.8-1.7-5.7-2.8c-0.6-3.1,4.7-4.4,6.1-7.2c2.9-6.7-4.7-9.7-9.1-7.3s-9.9,5.7-9.7,11.8
		c1.2,13.3,21.5,12.1,32,16.6c28.8,11.1,16.9,45.8-2.3,60.3c-25.8,18.6-52.8,31-81.9,44.1c-14.1,7.1-31.8,10.7-41.6,23.5
		c3.4-2.6,8.6-3.9,12.8-5.3c-0.1,1-0.3,2-0.6,3.3C525.3,411.6,517.5,416.6,505.8,424.4z M717,415.7c0.3,1,0.6,2,0.9,3
		c-3.5,1.3-7.1,2.4-10.4,4.1c-2.9,1.5-7.1,3.2-7.8,5.6c-5.1,17.1-14.3,24.9-32.4,26.4c-1.7,0.1-3.8,1.4-5,2.7
		c-6.6,7.2-13.3,14.3-19.5,21.9c-7.1,8.6-13.2,18.3-20.9,26.3c-11,11.5-23.1,22-34.5,33c-8,7.8-16.7,15.1-19,27
		c-0.5,2.7-2.4,5.1-3.7,7.7c2.9-1.1,6-1.8,8.6-3.4c4.1-2.4,7.9-5.4,11.9-8.1c0.7,0.9,1.5,1.8,2.2,2.7c-8.5,8.9-17.1,17.9-25.6,26.8
		c0.8,0.8,1.5,1.6,2.3,2.4c7.3,0.2,11.1-5,15.3-10.3c3.3-4.2,7.5-7.9,11.6-11.4c1.9-1.6,5.2-1.5,6.8-3.2c9-8.9,17.3-18.5,26.5-27.1
		c5.5-5.1,11.9-9.6,18.5-13c10.6-5.5,12.9-14.1,5.9-19.7c-4.5,4.1-8.8,7.9-13,11.8c-1.4,1.3-2.9,2.5-4.2,3.9
		c-7.7,8.4-14.9,17.2-23.2,24.9c-3.6,3.3-9.4,4.1-14.3,6.1c-0.5-0.9-0.9-1.9-1.4-2.8c1.3-1.8,2.2-4.3,4-5.2
		c19.5-10.8,22.7-37.3,44.2-46c0.8-0.3,1.2-1.5,1.7-2.4c6.5-10.2,14.1-19.1,24.4-26c6.3-4.2,11-10.7,16.7-15.8
		c11.7-10.5,23.8-20.6,35.4-31.2c7.5-6.9,14.4-14.4,21.4-21.8c2.4-2.5,4.4-5.5,7.1-8.9c-11.8-3.4-20.7-4.3-21.1,9.7
		c-7.3,0.9-14.4,0.1-16.2,9.4C712.9,415.3,715,415.5,717,415.7z M519.5,665.5c0.4,0.7,0.8,1.4,1.2,2c2.7-0.8,6.4-0.7,8-2.6
		c9.7-10.7,21.7-18,33.4-26.1c16.6-11.5,30.9-26.4,46.1-40c1.6-1.5,3.3-3.6,3.6-5.6c1.8-11.4,10.3-12.5,19.5-13.5
		c0.5-11.2,6.2-19.9,16.2-25.4c6.4-3.6,14.5-4.8,19.6-9.5c10.9-10.1,19.5-22.6,30.5-32.4c7.7-6.9,16.3-12.5,20.9-22.3
		c0.4-0.7,1.7-0.9,2.4-1.6c10.2-9.8,20.6-19.5,30.5-29.6c1.9-2,2.1-5.6,3.1-8.5c-0.7-0.4-1.4-0.8-2.1-1.1c-3.1,1.6-6.1,3.2-10.7,5.6
		c2.7-4.7,4.4-7.6,6.1-10.6c-0.8-0.8-1.7-1.6-2.5-2.3c-6.3,5.9-12.6,11.9-19,17.8c0.6,0.8,1.1,1.5,1.7,2.3c2.7-1,5.4-2.1,8.1-3.1
		c-2.3,5.8-5.9,10.1-9.9,14c-10.1,10-20.7,19.3-30.3,29.8c-11.4,12.4-20.3,27.3-39.7,29.1c-4.6,0.4-8.8,5.3-11.7,7.2
		c-5.5,8.2-9,16.7-15.3,21.9c-5.3,4.3-12.9,5.4-14.5,14c-0.3,1.5-4.7,3.5-7,3.2c-7.5-0.9-11.6,1.8-13.8,8.9
		c-0.9,2.9-3.6,5.3-5.6,7.8c-8.7,10.7-16.9,21.2-28.9,29.4c-13.9,9.5-24.6,23.7-36.6,35.9C521.3,661.7,520.6,663.7,519.5,665.5z
		 M222.1,1011.1c-2.7,7.5-4.4,12.4-6.2,17.4c1.1,0.5,2.3,1.1,3.4,1.6c2-3.2,4-6.4,5.9-9.6c4-6.6,7.6-13.5,12-19.8
		c1.1-1.7,4.6-2.7,6.8-2.3c1.5,0.2,2.5,3.3,4.8,6.6c-4.7-0.4-7-0.6-11.9-1c3.5,4.7,5.4,7.9,8,10.4c1.5,1.5,4.1,2,6.3,2.9
		c0.7-2.3,1.8-4.5,2.1-6.9c0.9-6.7,0.4-13.7,2.3-19.9c2-6.3,5.9-12.2,9.7-17.8c1.7-2.6,5.2-4,7.9-5.9c0.6,3.5,1.4,6.9,1.7,10.4
		c0.1,1.1-1.3,2.2-1.8,3.4c-6.3,14.6-12.8,29.1-18.7,43.9c-1,2.4-0.2,7.8,1.2,8.3c3.2,1.2,9.9,1.6,10.5,0.2c3.5-8,9.9-18.1,7.5-24.6
		c-4.5-12.1,1.4-16.4,8.6-21.6c0.7-10.4,0.6-20.6,9-28.4c5.9-5.5,2.4-9.4-3.1-13.3c-1.8,2.5-3.2,4.5-5,7.1c-1.3-2-2.2-3.5-2-3.1
		c-7.9,0.5-14.5,0.9-21.7,1.4c-0.8,11-7.7,18.9-16,26.8c-8.6,8.2-15.4,18.1-23.2,27.1c-4.6,5.3-9.5,10.4-14.3,15.6
		c-0.5-0.5-1-1-1.5-1.5c1.4-5.5,2.8-11,4.3-16.5c-1.5-1.3-3.1-2.6-4.6-3.8c-3.5,3.4-6.9,6.9-10.2,10.2c11.4,19.2,6.4,51.2-8.8,62.1
		c3.2,1,6.6,1.6,9.6,3c5.6,2.6,8.4-1.2,7.6-5c-1.9-8.4,3.3-13.3,6.6-19.4c1.9-3.5,3.9-8.4,2.8-11.6
		C207.5,1025.5,208.2,1021.7,222.1,1011.1z M887.4,757.6c-0.1,0.1,1.3-0.4,1.9-1.3c5.3-7.8,10-16.1,15.8-23.4
		c9.4-11.9,19.5-23.3,29.4-34.8c0.9-1.1,3.1-2.5,3.9-2.1c9.2,4.6,11.8-3.4,16-8.2c4.9-5.6,9.8-11.1,14.3-17
		c4.8-6.4,11.4-12.2,9.7-21.6c1.9-0.3,3.9-0.5,5.2-0.7c0.2-5.8,0.3-10.6,0.6-17.7c-7.5,6.9-13.5,12.4-19.8,18.2
		c3.6,1.3,6.2,2.2,10.6,3.8c-8.3,7.9-15.1,14.9-22.5,21.2c-9.5,8.1-20,15.1-29.3,23.5c-6.9,6.2-11.1,6.8-16.5,0.7
		c-3.2,4.3-5.7,11.5-10,12.7c-9.2,2.7-8.1,5.8-2.5,10.7c-3.9,5.2-7.9,9.7-10.8,14.7c-1.4,2.4-1.4,6-0.7,8.8
		C883.7,749.3,885.7,753.2,887.4,757.6z M321.6,1178.3c-2,7-6.9,8.9-12.4,5c-14-9.9-27.1-6.5-36.1,10c7.8-0.6,15.2-8.1,22.9-0.9
		c-4.4,8.3-8.7,16.1-12.6,24c-0.7,1.4-0.4,3.8,0.4,5.2c0.3,0.6,3.3,0.8,4.3,0.2c12.5-7.9,24.8-16,38.3-24.8
		c7.2,5.4,1.4-11.4,8.1-10.2c0.7,2.5,1.3,5,2.3,8.6c7.6-5.3,1.2-21.8,17.4-17.5c-4.1-3.3-9.3-4.9-10-7.6
		c-1.9-6.8-3.4-13.6-12.1-11.8c-5.9,1.3-11.5,4.6-16.5,8.2c-2.4,1.7-3,5.9-4.4,9C314.4,1176.5,317.6,1177.3,321.6,1178.3z
		 M294.5,1157.2c7.6-6.5,14.8-12.7,23.8-20.3c-0.5,7.9-6,15,3.8,17.4c3.8-4.9,7.4-9.7,11.8-15.5c6.2,4.3,11.5,8.3,17.2,11.7
		c1.9,1.2,5.5,1.9,7.1,0.9c6.3-3.8,12.2-8.4,18.2-12.7c6-4.4,11.9-8.8,17.8-13.3c0.7,0.4,1.3,0.8,2,1.2c-2.1,4.9-4.2,9.8-6.4,15.3
		c3.6,1.1,6.4,2.1,9.7,3.1c-0.8-11.1,10.9-19.4,4.4-30.6c-0.4-0.7,2.5-3.4,3.9-5.1c3-4,6-7.9,9-11.9c-1-1-2.1-2-3.1-3
		c-4.7,3.6-9.8,6.7-14.1,10.8c-9.8,9.3-17.7,21.8-34.4,17.1c-0.5-0.1-1.3,1.1-2.5,2.2c2.6,1.9,4.8,3.5,8,5.9
		c-6.7,3.8-12.4,7.1-18.1,10.4c-1.5-3-3.9-8-6.4-13c-13.4,8.6-17.2,8.8-28.9,2.8c-6.6,4.9-13.2,9.3-19.3,14.4
		C294.4,1147.8,288.9,1151.1,294.5,1157.2z M792.1,401.8c0.7,0.9,1.4,1.8,2.2,2.7c-11.4,12.2-22.8,24.4-34.1,36.7
		c-1.6,1.7-2.4,4.2-3.5,6.4c2.3-0.5,5.4-0.3,6.8-1.7c8.9-9.3,17.3-18.9,25.9-28.4c7.6-8.4,15.4-16.6,23-24.9c-4-0.5-6.7,1.1-9.6,1.9
		c-1.9,0.5-4,0-6-0.1c0.4-2,0.2-4.7,1.5-6c3.8-4,8.3-7.3,12.1-11.2c8.5-8.7,16.8-17.6,25-26.5c0.3-0.3-0.6-1.6-1.5-4.1
		c-22.1,20.7-43.7,40.8-65.2,60.8c-1.1-1-2.1-1.9-3.2-2.9c4-11.4,18.4-17.4,19.3-32.6c-13.2,13-25,24.6-36.3,35.7
		c4.4,3.9,8.2,7.4,12.1,10.8c-0.6,1.2-1.3,2-1.5,2.8c-0.5,3.2-0.9,6.5-1.3,9.8c3.2-1.7,6.8-2.8,9.3-5.2c1-1-0.9-4.6-0.6-6.9
		c0.3-2.3,2.1-6.5,2.6-6.4c9.2,1.8,11.8-4,13.1-11.3C785.8,401.5,788.9,401.6,792.1,401.8z M727,1275.2c11.6,2.9,20.8,5.7,28-2.6
		c4.9-5.6,9.3-10.6,17.9-7.2c1.7,0.7,6.2-1.6,7.1-3.6c3-6.6,5-13.7,7.4-20.6c0.8-2.2,0.6-5.2,2-6.7c8.1-8.9,10.2-20.6,15-31
		c0-0.1-1-0.6-2.7-1.6c-1.4,2.8-2.5,5.7-4.2,8.1c-2.6,3.5-5.9,6.6-8.7,10.1c-4.3,5.3-10.4,10.2-12,16.2c-2,7.4-5.6,8.9-11.6,8
		c-3.6-0.6-6.9-2.6-12.1-4.7C745.3,1250.7,736.6,1262.3,727,1275.2z M403.3,730.8c-0.1,0.7,0.6,2.9,0.5,3.8
		c25.8-25.7,47.9-53.9,74.4-77.5c-0.4,3-1.8,5.8,0.9,8.2c31.8-32.9,57.3-70.8,101.9-93.9c0,0,0.8-5.9-0.2-6.1
		c-30.1,5.9-49.1,33.6-69.2,55c-1.6-3.2-3.5-3.5-5.8-1.8c-9.2,7.8-12.7,18.4-18.1,28.8c0.6-4,2.1-7.8,0.7-12
		c-24.4,22.9-41.5,51.8-65.8,74.7C416.1,716.9,409.7,723.9,403.3,730.8z M591.4,1395.1c-2-3.8-6.2-8.9-7.1-14.5
		c-1-5.7,1.3-12,2.3-19.5c-16.5,11.9-16.5,11.9-20,0.5c-5,1.3-9.9,4-14.5,3.6c-10-0.8-16.7,2.3-20.9,12.4
		c15.7,5.7,1.9,13.4,0.3,21.1c11.1,1.3,7.5,8.1,4.9,15.2c4.5-1.9,7.3-3.1,8.4-3.6c1.6-11.8,3-21.9,4.5-32.5c9,2,18.7,4.3,28.8,6.5
		c3.2,7.1,1.5,11.8-7.2,14c-2.3,0.6-4,3.9-6,6c2.5,1.9,4.7,5.1,7.4,5.4c2,0.3,4.6-2.8,6.8-4.6C583.1,1402,587,1398.7,591.4,1395.1z
		 M510.6,645.9c0.6-1.3,0.9-3.3,1-4.3c-16.1,13.9-16.5,39.1-34.2,49.8c-15.4,9-30.9,26-38,41.2c-7.2,15.2-28.2,21.3-40.3,35.8
		c-0.1,1,2.6,10.5,6.1,6.9c47.4-42.9,91.6-85.2,129-136.5c0,0-3.1-6.5-5.8-8.9c-9.3,8.8-15.9,20-24.4,29.9c0.1-1-0.7-2.1-0.4-2.8
		C506.4,652.7,508.5,649.2,510.6,645.9z M318.3,806.1c-5,0.4-13.5,5.9-20.9,12.8c-7.4,7-14,15.6-16.4,22.9
		c5.3-3.3,10.3-5.7,14.3-9.1c4.2-3.5,7.1-8.4,11.4-12c2.4-2,6.1-2.3,9.3-3.3c0.2,3.9,1.3,8.1,0.3,11.6c-1.1,4-4,7.6-6.9,12.5
		c7.3-2.1,17.4-9,26-17.2c6.5-7.3,15.6-15.2,17-25.1c-5.4,2.3-11.8,12.5-15.4,9c-10.6-10.6,10.2-22.8,18.5-31.7
		c3.7-4.5,0.2-9.1,1.8-12.9c-11.6,3.4-14.1,14.2-21.9,21.5C329.7,792.1,324.4,798.4,318.3,806.1z M237.1,859.3
		c-0.6-1-1.2-1.9-1.7-2.9c-3.2-0.4-6.4-0.6-9.4-1.6c-0.6-0.2-0.5-4.2,0.3-6c2.6-5.8,5.8-11.4,8.1-16c7.9-4.8,16-9.8,25.2-15.3
		c-4.9-3.1-8.1-5.1-11.2-7c-6.4,4.3-12.5,8.4-18.8,12.7c-0.5-2.1-1.1-4.4-1.8-7c-17,12.4-26,31.7-21.9,49.1c3-3.7,5.3-6.6,7.7-9.6
		c0.2,1.4,0.4,2.7,0.6,4.1c4.5,1.4,8.9,3.7,13.4,3.9C230.7,863.8,233.9,860.9,237.1,859.3z M1027.4,782.2c0.5,0.5,1,1,1.5,1.4
		c-4.5-0.1-8.9-0.1-15.5-0.2c5.2,4.9,8.5,8,12.5,11.7c0.7-0.6,2.3-2.1,4-3.4c9.3-7,17.7-16.7,28.2-20.2c8.5-2.9,12.9-7.6,17.5-13.6
		c7.3-12.5,23.1-17.4,28-30.8c1.1-0.9-1.6-3.2-2.6-3.4c-10.6,3.6-18,20.7-30,17.1c-5.7-3-8.7-1.4-10.3,5.3
		c-2.9,12.4-12.3,20.1-22.2,27.1C1034.6,775.9,1031,779.1,1027.4,782.2z M360.9,896.7c-0.5-1-1-2-1.4-3c1.6-1.3,4.2-2.3,4.8-4
		c1.2-3.2,1.2-6.8,1.8-10.3c-2.6,1.2-5.9,1.7-7.6,3.6c-6.5,7.2-12.3,15-18.5,22.4c-4.3,5.1-3.3,9.2,3.8,15.3c2-3.3,4.1-6.6,6.5-10.6
		c4.8,8.1,8.2,13.7,12.6,21c2.6-5.3,4.2-8.6,5.4-11.1c6.2-1.9,11.9-3.7,17.3-5.3c-4.2-8.6-7.9-15.9-11.3-22.8
		C369.9,893.4,365.4,895,360.9,896.7z M1161.5,747.1c51.5,27.4,63.2-49.7,74.1-84.5c-5.9-0.8-12.4,2.3-15.1,7
		c-12.2,22.5-14.1,57.6-41.3,64.9c-5.2,1.3-11.2-6.6-18.3-6.2C1159.1,729.9,1159.9,735.7,1161.5,747.1z M574.3,526.7
		c18.2-9.1,41.5-17,49-34.1c4.8-12.5-22.8-3.2-34.1-1.7c-3.2,1.6-5.6,4.3-8,7c8.3-1.9,16.8-4.7,25.3-0.5c-7.5,3-14,6.1-19.6,11.4
		C581.4,513.7,577.5,519.2,574.3,526.7z M142.7,692.3c-4.2-1.3-7.3-2.2-10.3-3.1c-4-1.1-8.7-4-11.9-2.9c-4.9,1.7-9.2,5.8-12.8,9.8
		c-0.6,0.7,3.9,5.8,5.8,8.9c3,4.9,8.4,10.1,8.1,14.8c-0.9,12.7,5.2,11.7,13.5,9.2c1.7-0.5,3.8-0.2,5.6-0.3
		c0.1-14.9-3.6-20-18.5-22.5c3.9-2.2,6.4-4.8,8-4.3C140,705.1,141,698.3,142.7,692.3z M624,347.8c-0.7-1.3-1.5-2.6-2.2-3.9
		c-5.6,3.1-11.8,5.3-16.5,9.4c-18.5,15.7-36.5,31.9-54.7,48c-4.6,4-9.6,7.7-13.8,12.1c-1.7,1.7-1.7,5.1-2.5,7.7
		c2.5-0.2,6,0.6,7.4-0.8c5-4.7,9.1-10.5,14.1-15.3c6.7-6.4,13.1-15.8,21.1-17.6c9.9-2.2,14.4-8.3,20.4-14.3
		c4.1-4.1,8.6-7.7,12.8-11.6C614.8,356.9,619.4,352.3,624,347.8z M371.1,382.6c13.5-12.9,26-25.1,38.7-37
		c6.1-5.7,12.7-10.9,18.8-16.7c1.6-1.5,2-4.2,3-6.3c-1.4-0.5-3.4-1.9-4.2-1.4c-10.3,6.9-24.3,8-31.5,20c-2.6,4.4-6.2,8.8-10.5,11.4
		C374.4,359.3,370.5,368.9,371.1,382.6z M239.5,624c-0.8-0.3-1.6-0.7-2.5-1c-18.3,19.5-36.6,39-54.8,58.5c1.2,1.4,2.4,2.9,3.5,4.3
		c4.3-2.8,9.1-5.1,12.8-8.6c3-2.8,4.2-7.4,7-10.4c3.1-3.3,8.2-8.7,10.7-7.9c8.5,2.7,12.9-2.5,15.2-7.6
		C235.4,642.8,237,633.2,239.5,624z M281.9,377.8c26.1-12.3,41.3-36.4,63.5-52.9c-0.8-1.1-1.6-2.1-2.3-3.2c-4,1.7-7.9,3.4-12.2,5.2
		c-1-2.1-1.9-3.9-3.7-7.8C311.5,339.6,296.7,358.7,281.9,377.8z M445,791c21.5-20.3,45.3-39.2,61.9-64.2
		c-26.6-4.7-35.1,27.4-47.8,45.9c-1.1,0.9-3.1,0.6-4.1,1.3C449.7,774.9,445.8,779.6,445,791z M850.4,170.4
		c-4.7,7.9-6.8,15.7-8.9,23.4c23.4-8.9,47.4-28.7,41.1-55.9c-0.4-4.1-5-7.8-10.9-8.6c0.3,5.1,2.6,10.5,2,14.4
		c-0.1,8.1-7.3,16.1-12.8,22.6C857.5,169.6,855.1,169.9,850.4,170.4z M941.8,735.7c8.3,1.2,15.1,4.3,19.4,2.2
		c7.9-3.8,15-10,21.2-16.5c8.5-9,15.8-19.1,23.6-28.8c2.6-3.3,5.1-6.7,7.7-10c-0.9-0.8-1.8-1.7-2.7-2.5c-6.3,5.9-12.4,12-18.8,17.7
		c-13.8,12.5-23.8,30.3-44.8,33C946,730.9,945,732.7,941.8,735.7z M463.2,1037.3c-4.3,3.9-7.1,6.5-10.2,9.3
		c19.2,11.1,19.2,11.1,33.9-5.2c-2.1-6-3.5-11.2-5.8-16c-1.5-3.1-4.4-5.6-6.6-8.4c-2.6,3.3-5.8,6.4-7.6,10.1
		c-0.8,1.7,0.8,4.9,1.8,7.2c2.6,6.1,0.6,10.3-6,14.4C462.9,1044.7,463,1042.1,463.2,1037.3z M531.3,569.5c1,1.1,2.1,2.3,3.1,3.4
		c8.7-6.5,17.4-12.9,26.9-19.9c-1.6-4.2-0.2-7.7,7.2-8.6c3.3-0.4,6.7-3.6,9.2-6.3c1.5-1.7,2.4-5.6,1.4-7.3c-1.7-3-5.1-5.2-7.8-7.7
		c-1.3,2.2-2.4,4.5-4,6.4c-6.6,7.9-13.2,15.7-20.1,23.4C542.2,558.6,536.7,563.9,531.3,569.5z M226.6,1036.4c-1.5,0-3.1,0-4.6,0
		c-1.3,6.6-2.4,13.2-4,19.8c-0.5,1.9-2,4.2-3.8,5.2c-7.8,4.3-5.4,8.6-1.3,13.4c3.1-3.8,5.5-7.3,8.4-10.1c7.3-7,15.2-13.4,22.2-20.6
		c2-2,2.9-6.4,2.3-9.3c-0.4-2.1-4.1-3.5-6.3-5.2c-1.6,2.9-3.2,5.7-4.7,8.6c-2,3.8-4,7.7-5.9,11.5c-0.8-0.5-1.6-1-2.5-1.4
		C226.5,1044.3,226.5,1040.4,226.6,1036.4z M150.9,700.7c4.1-4.7,8.6-9.7,12.9-14.8c1.8-2.1,2.9-4.9,4.9-6.7
		c6.1-5.7,13-10.5,18.4-16.7c2.5-2.8,2.2-8.1,3.2-12.2c-11.5,4.3-16,16.1-28.1,16.3c-0.7,0-1.6,1.9-1.9,3.1
		C157.1,679.8,154.2,689.9,150.9,700.7z M311.1,924.4c-4,0.7-9.5,0.3-13.6,2.6c-3.3,1.8-7.5,8.9-6.7,9.9c4.5,5.5,10.4,9.9,15.9,14.5
		c0.5,0.4,2.4-0.6,3.3-1.3c2.9-2.4,6.3-4.7,8.1-7.8c1.2-2.1,0.8-5.9-0.2-8.4C316.4,930.6,313.6,927.8,311.1,924.4z M720.9,205.7
		c0-1.4-1-1.6-0.9-2.6c-25.7,10.6-57.6,22.3-70.5,49.8c3,0.4,6.8,2,10,0.4c14.1-14.2,25.5-30.8,44.9-38.5
		C709.8,211.8,715.2,208.7,720.9,205.7z M666.1,1441.7c7.5-6,15.4-12.3,22.6-18.1c11.6,6.1,4.3,12.4,2.9,18.6
		c-1.5,6.4-1.9,13.1-2.9,19.7c0.1,0,2-0.4,3.6-1.2c12.6-6.2,10.6-17.9,9-28.1c-0.9-5.3-5.8-11.3-10.6-14.3
		C684.8,1414.6,664.7,1435.2,666.1,1441.7z M421.6,1089c13.2,2.4,31.6-14.1,36.6-33c-7.1,2.3-15.2,2.5-19.2,6.7
		C432,1069.9,427.6,1079.6,421.6,1089z M480.2,537c0.5-3.8,2.9-10,1.3-11.3c-4.2-3.5-10.2-4.8-15.4-7c-0.9,3.3-1.8,6.6-2.3,8.4
		c-5.2,5.2-9.6,9.9-14.4,14.3c-1.2,1.1-3.3,1.5-5.1,1.9c-7.6,1.8-8.4,5.2-3.2,11.3c7.4-4.8,14.8-9.6,23.1-14.9
		c0.8-1.3,2-5.7,4.3-6.4C471,532.3,474.6,534.9,480.2,537z M830.1,936.2c0.7,1.2,1.3,2.5,2,3.7c3.3-0.6,9.2-0.8,9.4-2
		c2.1-11.9,14.6-11.6,21-18.8c-1.6-3-3.5-6-4.8-9.2c-2.4-6.1-6.4-5.5-9.4-1.5C841.8,917.4,836.1,926.9,830.1,936.2z M854.5,1022.9
		c16.9-13.3,32.9-25.8,49-38.5C886.8,980.1,859.4,1001.1,854.5,1022.9z M396.1,986.9c-5.9,1.3-11.3,2.5-16.4,3.7
		c-1.5,3.8-2,10.1-4.7,11.3c-13.4,5.6-6.6,12.2-2.1,20.1c5.2-6,9-12.6,14.7-16.3C395.5,1000.5,396.3,993.9,396.1,986.9z
		 M472.9,921.7c0.8,0.4,1.7,0.8,2.5,1.2c10.2-10.6,19.4-22.7,31.1-31.3c7.9-5.7,10.4-11.5,9.7-20.9c-4.6,3.5-8.8,7.6-11.7,12.4
		c-5.8,9.7-12.6,18.1-23.7,21.9C472,908.1,472.3,914.8,472.9,921.7z M769.1,159c-15.7,7.4-34.2,9.9-48,22.1c3.8,1.5,9.2-0.7,13,0.8
		c-3.7,4.5-8.3,8.9-12,13.5c11.6-10.5,38.4-7.8,39.4-27.1C761.4,167.2,765.3,163.9,769.1,159z M302.1,798.6
		c-5.7,11-20.2,3.6-25.6,16.2c-3.6,8.4-14.7,13.5-22.5,20.1c0.6,0.8,1.2,1.6,1.8,2.4c1.6-0.7,3.2-1.3,4.7-2.1
		c7.9-4.1,12.9-13.1,23.8-12.1C288.9,823.5,302.4,804.9,302.1,798.6z M651,370.2c-13.8-1-51,31.4-51.1,43.6
		C617,399.1,633,385.6,651,370.2z M723.6,259.5c18.6-5.7,42.9-6.4,55.5-23.8c-15.8,4.9-31.8,10.7-47.2,15.9
		C727.7,253.4,725.1,256.1,723.6,259.5z M266.6,558.9c-0.8-0.6-1.5-1.3-2.3-1.9c-10.5,5.5-21.8,9.7-26.9,22.4
		c-2.5,6.3-1.7,9.8,4.6,11c4.8-5.4,9.4-10.2,13.5-15.5C259.5,569.8,262.9,564.2,266.6,558.9z M286.8,364.9c-0.4-1.3-0.7-2.5-1.1-3.8
		c-4,0-9.5-1.6-11.8,0.4c-6.4,5.8-11.7,12.9-17,19.8c-1.1,1.4-0.6,4-0.8,6.1c2.4,0,5.7,1.1,7-0.1C271.3,380.2,279,372.5,286.8,364.9
		z M834.2,836.3c7.2,1.4,11,3,14.7,2.7c3.1-0.3,8.4-2.3,8.8-4.3c1.7-9.8,2.2-19.8,3-29.8c-1.7-0.6-3.4-1.1-5.1-1.7
		C855.1,817.8,847.7,827.9,834.2,836.3z M1123.6,732.4c6.7,5.4,16.7,13.8,22.3,9.5c6.9-6.1,3.9-20.7-1.2-27.4
		c-3.5-3.5-13-0.8-20.2,0.2c4.1,6.6,14.2,7,18.1,14.7C1136.2,730.2,1129.9,731.2,1123.6,732.4z M164.7,788.3
		c-4.3-0.3-8.2-0.6-12.7-1c1.5-3.8,2.7-6.8,4.6-11.6c-5.6,2.5-9.7,3.7-13.1,6c-5.6,3.7-6.1,13.2-1.2,15.3
		C150.6,800.7,159.2,797.6,164.7,788.3z M618.9,288.5c20.6-11,27.6-14.5,19.1-24.8C613.7,277.1,613.7,277.2,618.9,288.5z
		 M486.5,523.3c0.6,0.3,1.3,0.7,1.9,1c7.3-6.9,14.6-13.8,21.7-20.9c1.1-1.1,1.2-3.3,1.8-5c-1.7-0.5-3.5-1.7-5-1.4
		c-5.6,1.2-11.1,2.8-15.9,4.1C489.5,509,488,516.2,486.5,523.3z M492.7,1020.9c2.7-3.6,4.5-4.9,4.8-6.6c0.3-1.9-0.1-5.2-1.1-5.7
		c-2-0.9-5.2-0.9-7,0.2c-4.3,2.8-1.1,23.2,3.8,25c1.6,0.6,4.1,0.9,5.4,0.2c4.3-2.4,8.4-5.4,12.5-8.2c-0.3-0.8-0.5-1.6-0.8-2.5
		C505.2,1022.6,500,1021.9,492.7,1020.9z M335.9,746.2c31.3-16.6,61.8-54.7,93.7-80.6c0,0-1.7-2.3-2.6-3.4
		c-25.2,21.7-51.2,41.3-74.3,65.7C346.7,734,341.2,740,335.9,746.2z M418.5,687.2c29.4-22.1,55.7-51.8,73.2-83.7
		C471,621.9,455.5,646,436.8,666C430.8,673.2,424.6,680.3,418.5,687.2z M535.1,1045.4c-0.7-1.1-1.3-2.3-2-3.4
		c-2.6,1.2-5.6,1.9-7.6,3.7c-5.2,4.7-9.1,11-17.8,9.9c-1.1-0.1-4.7,5.4-4,6.8c1.5,3,5,5.1,7.6,7.5c2.3-3.2,4.6-6.3,7.4-10.2
		C523.6,1055.5,529.3,1050.4,535.1,1045.4z M276.5,1022.2c10.1-8.9,19.1-16.8,28.2-24.7c-9.4-6.5-16.8-6.2-19.6,0.7
		C282.2,1005.6,279.7,1013.2,276.5,1022.2z M789.7,1334c-0.5-0.8-1.1-3.1-2-3.2c-1.9-0.2-4.3,0.2-5.9,1.3c-3.8,2.7-7.6,5.6-10.9,9
		c-4,4.2-7.5,8.8-10.9,13.5c-0.7,1-0.7,3.4,0,4.3c0.8,1,3.6,1.7,4.1,1.2C772.7,1351.7,780.9,1343.1,789.7,1334z M227.4,568.2
		c0.7,0.9,1.4,1.7,2.1,2.6c3.6-2.4,7.5-4.5,10.8-7.3c6.7-5.5,13.3-11.1,19.4-17.2c1.3-1.3,0.4-4.9,0.5-7.4c-1.1-0.2-2.2-0.3-3.2-0.5
		C248.4,549.5,232.6,553.5,227.4,568.2z M318.1,368.6c-9.2-0.7-39,30.7-39,38.4c6.9-6.6,13.3-12.6,19.6-18.8
		C305.2,381.7,311.6,375.1,318.1,368.6z M214.2,972.4c1.3-1.7,2.5-3.3,4.1-5.5c2.1,4.5,3.1,6.5,4.4,9.2c4-8.7,7.4-16.2,11-24
		C217.1,951.7,214,955,214.2,972.4z M1194.6,1425.3c-8.2-1.1-15.2-2.1-23.2-3.2c-0.6,13,12.2,10.5,17.2,19.1
		C1190.9,1434.8,1192.4,1431,1194.6,1425.3z M720.2,437.1c-9.2,8.8-16.9,16-24.4,23.6c-0.8,0.8-0.3,4.5,0.6,4.9
		c1.6,0.8,4.4,1,5.8,0.1c3.1-2,5.4-5.2,8.5-7.4C717.3,453.6,719.7,447.2,720.2,437.1z M680.6,479.6c-16.8,4.4-16.5,19.9-23.3,30.1
		C664.6,500,679.5,496.4,680.6,479.6z M229.8,724.6c14.8,8.3,17.4,7.4,23.7-7.6C242.9,713.2,236.1,715.2,229.8,724.6z M1290.7,625.4
		c-11.6,14.9-17.3,34.3-17.8,52.4c9.9-12.8,9.1-29,18.5-41.8C1292.5,633.8,1291,629,1290.7,625.4z M676.2,569.3
		c8.6-10.1,16.6-19.4,25.8-30.2C688.6,540,672.2,560.8,676.2,569.3z M706.8,887.2c-1.1-0.3-2.2-0.6-3.3-0.9c-4.3,5-9,9.7-12.7,15.1
		c-0.7,1,2.1,4.5,3.4,6.8c4.6-3.3,10-5.9,13.4-10.2C709.2,896,707.2,890.9,706.8,887.2z M901.2,94.5c10.7-1,12.2-9,13-16
		c0.3-2.6-2.6-7.2-5-8.2c-5.2-2.2-10.4-1.2-13.6,5.7c3.6,0.5,6.5,0.8,10,1.3C903.9,82.7,902.7,87.5,901.2,94.5z M1125.6,1467
		c7.6-2.5,12-4,15.9-5.3c-2.4-7.5-4.4-14-6.9-21.9C1126.4,1447.3,1128.6,1456.5,1125.6,1467z M253.4,368.9c0.7,0.6,1.5,1.2,2.2,1.9
		c7.5-7.2,15.1-14.2,22.2-21.7c1.1-1.2,0-4.5,0-6.9c-2,0.1-5.2-0.5-6,0.5C265.5,351.3,259.5,360.2,253.4,368.9z M462.7,545.2
		c-15,7.8-15,10.1-13.2,11.5c1.8,1.4,5.3,2-2,7.2c5-2.4,11.9-5.9,12.1-6.4C461,553.5,461.4,549.9,462.7,545.2z M534.1,478.1
		c9-5.2,15.3-8.8,21.5-12.4c-0.2-1.2-0.5-2.3-0.7-3.5c-5.8,0-12.6-2-16.9,0.5C535,464.4,535.4,472.1,534.1,478.1z M815.1,816
		c0.8,0.7,1.5,1.5,2.3,2.2c9.5-8.8,19.1-17.6,28.6-26.3C836.6,790.7,817.6,807.7,815.1,816z M849.3,284.6c3.2-3.5,10.4-4.5,11.1-9.4
		c1.5-3.8-3-7.5-7.1-7c-6.4,2.1-7.3,9.1-11,13.3C842.8,281.6,846.6,283.4,849.3,284.6z M1151.8,1457.1c4.2-1.2,7.8-2.3,10.1-2.9
		c-0.3-9.3-0.5-18.2-0.8-27.4C1150.6,1434.8,1152,1446.8,1151.8,1457.1z M567.2,530.9c-8.3-3.8-17.5,11-26.2,15.9
		c-1.3,1.8-1.7,4.8-2.9,6.7c6.2-1.2,9-6.8,14.2-9.9C557.5,539.2,562.5,535,567.2,530.9z M477.1,400.5c-1.1-0.9-2.2-1.8-3.3-2.7
		c-5,5.9-10.2,11.6-14.7,17.8c-0.9,1.2,0.9,5.3,2.6,6.9c1.5,1.4,4.5,1.3,6.8,1.9c0-2.2-0.2-4.5,0-6.6c0.2-2.1,0.6-4.3,1.6-6
		C472.2,407.9,474.8,404.2,477.1,400.5z M1342.5,342.9c0.5,0.7,1,1.4,1.4,2c3.5-1.6,6.9-3.3,8.3-3.9c-0.5-7.8-0.9-13.1-1.3-19.4
		c-7.8-0.1-11.3,4.9-13.8,12.3c3.3,0.3,5.9,0.6,9,0.8C1344.7,338,1343.6,340.4,1342.5,342.9z M1040.7,1416.7
		c-9.9,5.7-8.6,14.7-9.7,22.1c-0.3,2.4,3.9,5.4,6.1,8.1c0.8-0.6,1.5-1.2,2.3-1.7C1039.8,1436.2,1040.3,1427.4,1040.7,1416.7z
		 M673.4,213.2c-11.2,6.1-23.1,11.6-33.4,20.2c11.5,11.7,19.3-8.4,30.6-13.3C671.7,219.4,671.9,216.9,673.4,213.2z M486.9,1338
		c4.4-0.6,8.7-1.2,13-1.7c-0.8-5.5-1.6-10.9-2.5-16.5C487.8,1322.2,487.1,1323.4,486.9,1338z M773.9,1185.3
		c13.4-7.3,13.6-7.6,11.5-11.9c-6-1.2-10.6-2.3-15.1-2.8c-1.8-0.2-3.8,1.1-5.6,1.7c0.7,1.6,1.1,3.4,2.1,4.8
		C768.7,1179.7,771,1182,773.9,1185.3z M241.8,487.2c-14.8,1-19.4,5.5-18.7,18.1C232.2,502.3,238.4,496.8,241.8,487.2z M939.2,334.7
		c-6.4-2.9-10.3-2-11.7,1.1c-1.4,3.1-1,8.4,1.8,14.5c2.5-2.5,4.6-5,6.1-7.6S938.2,337.3,939.2,334.7z M839.1,319.5
		c5.6-2.5,6.8-7.3,7.1-11.4c0.1-4-2.3-8-8.9-11.2c-2.2,2.3-3.8,5-3.2,8.7S836.9,314.1,839.1,319.5z M154.1,614.3
		c0.9,0.8,1.8,1.6,2.7,2.3c4.3-2.8,9-5.2,12.8-8.6c1.1-1,0.7-6.2-0.6-7c-2-1.3-7-1.7-7.9-0.5C158,604.6,156.3,609.6,154.1,614.3z
		 M199.9,1123.9c3.3-2.5,5.9-4.5,6.9-5.2c-1.8-7.4-2.6-12.3-4.2-16.9c-0.7-2-2.9-3.5-4.4-5.2c-1.2,2.2-3.7,4.7-3.4,6.7
		C195.7,1109.3,197.7,1115.2,199.9,1123.9z M270.1,461.5c-0.8-0.9-1.6-1.8-2.5-2.7c-10.4,3.9-18.1,10.7-22,21.1
		c0.8,0.8,1.5,1.6,2.3,2.4C255.3,475.4,262.7,468.5,270.1,461.5z M1191.4,1409.2c3.5,4.7,5.2,6.9,6.9,9.1c3.4-3.5,6.9-6.9,9.9-10.7
		c0.3-0.4-3.1-5-3.8-4.7C1200.5,1404.1,1196.9,1406.3,1191.4,1409.2z M451.1,1135.1c-1.1-0.6-2.2-1.1-3.3-1.7
		c-5.6,6-11.2,12-18.1,19.4c6.2,0,9.9-0.1,13.6-0.1C445.9,1146.7,448.5,1140.9,451.1,1135.1z M570.1,327.3c3.4-0.1,6.5,0.8,7.8-0.3
		c7.5-6.4,17-11.5,19.8-24.6C588,311.1,580.1,318.2,570.1,327.3z M417.9,733.1c19.7-8.9,31.5-28.4,39.2-47.6
		c-7.2,8.1-13.5,17.3-20.3,25C430.4,718.1,424.1,725.7,417.9,733.1z M463.7,925.4c-0.8-0.5-1.7-0.9-2.5-1.4
		c-3.4,1.7-7.4,2.8-9.9,5.3c-2,2-2,5.9-3,9c2.9,0,7.3,1.1,8.5-0.3C459.9,934.5,461.5,929.7,463.7,925.4z M1029.8,1457.8
		c-0.8-0.2-1.7-0.4-2.5-0.5c-3,6.2-6.2,12.3-8.7,18.6c-0.5,1.4,1.8,3.9,2.9,5.8c1.9-1.5,4.6-2.6,5.4-4.6c1.5-3.7,2-7.8,2.6-11.8
		C1029.9,1462.9,1029.8,1460.4,1029.8,1457.8z M342.2,968.4c0.8-0.2,1.6-0.4,2.4-0.6c5.4-6.4,10.8-12.7,17.5-20.5
		c-10.9-0.3-14.1,7.7-19.1,12.6C341.5,961.3,342.5,965.4,342.2,968.4z M563.2,1243.8c-1.6-0.8-3.1-1.6-4.7-2.3
		c-2.8,4.7-5.8,9.2-8.4,14c-0.8,1.4-0.2,3.6-0.3,5.4c2.1-0.2,5.4,0.3,5.9-0.7C558.7,1254.9,560.8,1249.2,563.2,1243.8z
		 M406.7,1182.6c1.1,0.4,2.1,0.8,3.2,1.2c3.8-7.1,7.6-14.2,11.3-21.3c-1-0.5-2-1-2.9-1.5C413,1167.4,403.2,1171.5,406.7,1182.6z
		 M270,394c-0.6-0.6-1.3-1.3-1.9-1.9c-4.6,1.8-9.5,3.3-13.8,5.7c-1.4,0.8-2.3,4.8-1.5,6.4c0.8,1.7,5.3,3.8,5.7,3.4
		C262.7,403.3,266.3,398.5,270,394z M399.5,367.9c0.8,0.6,1.5,1.1,2.3,1.7c12.8-7.4,20.4-16.7,21.4-19.7c-4.2,3.3-10,4.3-14.6,7.3
		C404.9,359.6,402.5,364.2,399.5,367.9z M582.1,1003.3c-12.3,9.2-14,13.5-8.2,24.5C576.4,1020.3,578.9,1012.8,582.1,1003.3z
		 M816.2,1476.2c-4.8,5.6-9.2,10.8-13.6,16C819.2,1489.8,822.2,1486,816.2,1476.2z M859.3,769.8c0.6,1,1.2,1.9,1.7,2.9
		c3.9-3.4,8.6-6.2,11.5-10.3c2-2.8,1.3-7.4,1.9-11.3c-0.9,0-1.8-0.1-2.6-0.1C867.6,757.3,863.4,763.5,859.3,769.8z M170.3,1050.4
		c0.9-0.7,1.8-1.4,2.7-2.2c-0.2-3.4,0.7-7.2-0.7-10c-3.5-7-9.5-6-11.2,0.2C160.3,1041.4,167,1046.4,170.3,1050.4z M497.5,929.4
		c4.4-5.7,7.4-9.2,9.7-13.2c0.3-0.6-2.8-3.2-4.4-4.9c-2.9,3.1-6.2,5.9-8.4,9.3C493.6,921.8,495.7,924.7,497.5,929.4z M300.4,907.7
		c13.2-2.2,18.9-9.3,17.8-21C312.3,893.8,307.2,899.7,300.4,907.7z M715.9,1330.4c0.8,0.5,1.7,0.9,2.5,1.4
		c4.1-7.4,8.1-14.7,13.5-24.4C717.3,1317.4,715.5,1320.2,715.9,1330.4z M796.2,220.7c9.9,2.5,29-12,38.5-21.8c-6.6,4.1-15,6-21,11
		C807.6,213.6,801.7,217.3,796.2,220.7z M831.3,142.1c0.5-2.1-0.1-5.2-1.2-4.3c-7.1,0-18.4,1.5-16.8,11.8c-0.1,1,2.8,1.4,4.8,1.7
		C822.8,149,827.1,145.4,831.3,142.1z M727.4,428.6c4.1,2.5,6.9,4.1,9.7,5.8c2.2-6.7,4.1-12.8,6.1-18.9c-0.5-0.3-0.9-0.6-1.4-0.9
		C737.3,418.9,732.9,423.2,727.4,428.6z M681.7,334.8c0.5,0.6,0.9,1.2,1.4,1.7c4.8-3.1,9.7-6,14.3-9.4c1.5-1.1,2.2-3.5,3.2-5.3
		c-2.5-0.2-6.1-1.4-7.4-0.3C689,325.5,685.5,330.3,681.7,334.8z M1195.7,901.7c0.8,1.2,1.7,2.4,2.5,3.6c6.6-4,13.2-8,19.8-12
		c-0.8-1.3-1.7-2.6-2.5-3.9C1208.9,893.5,1202.3,897.6,1195.7,901.7z M537,1034.8c0.7,0.7,1.4,1.4,2,2.1c7.4-4.2,13.3-9.5,15.8-17.7
		c-0.9-0.8-1.8-1.5-2.7-2.3C547.1,1022.8,542.1,1028.8,537,1034.8z M835.1,1189.4c3.6-3.7,6.6-5.5,7.3-8c0.4-1.7-2.4-4.3-3.8-6.5
		c-2.2,1.7-5.4,3-6.3,5.2C831.6,1182,833.6,1184.9,835.1,1189.4z M524.1,631.8c9.9-0.1,16.4-6.5,17.1-18.7
		C534.5,620.4,529.6,625.8,524.1,631.8z M332.3,939c0.7,1.2,1.3,2.4,2,3.6c5.8,2.6,9-1.1,11-6.1c0.5-1.4-1.4-3.7-2.1-5.5
		C339.6,933.6,335.9,936.3,332.3,939z M766.6,309.8c4,1.4,7.5,5.9,8.7,4.1c5.6-4.3-3.7-9.6-9.8-10.9
		C766.2,305.3,766.6,307.6,766.6,309.8z M978.5,1162.1c-0.9-0.7-1.7-1.3-2.6-2c-10.6,4.1-13.1,7.7-9,16.3
		C971.2,1171.2,974.9,1166.7,978.5,1162.1z M510.9,1124.8c5.9-5,11-9.3,16.9-14.3C514,1110.2,510.3,1113.2,510.9,1124.8z
		 M541.3,631.7c-0.3,2-0.7,4.9-1,6.9c4.9-6.4,12.8-12.4,12.3-21.2C549.2,619.2,547.2,613.7,541.3,631.7z M235.8,867.9
		c1,1.1,2,2.1,3.1,3.2c5.8-5.9,11.6-11.8,17.3-17.6c-0.9-0.9-1.8-1.8-2.7-2.7C247.6,856.4,241.7,862.2,235.8,867.9z M927.3,1161.8
		c-11.1,2.1-14.1,7-12.1,18.6C919.4,1173.9,922.8,1168.6,927.3,1161.8z M1311.9,449.7c0.5,0.9,0.9,1.8,1.4,2.7
		c3.3,0.2,6.8,1.3,9.8,0.5c6.5-1.7,6.5-6.8,1.2-8.6C1321.2,443.1,1316.1,447.7,1311.9,449.7z M501.8,589.3
		c13,0.3,14.2-15.7,20.1-23.6C515.2,573.3,509.1,580.5,501.8,589.3z M1050.9,1487c2.8-2.4,4.9-3.9,6.4-5.8c1.6-2,2.7-4.5,4-6.7
		c-2-0.4-4.4-1.6-5.9-0.9C1050.2,1476,1047.4,1479.9,1050.9,1487z M292.2,868.1c5.3-6.5,10.6-12.9,15.9-19.4
		c-0.8-0.6-1.6-1.2-2.3-1.8C299.6,852.8,292.2,857.6,292.2,868.1z M1472.2,559.4c4.1-4.8,6.6-7.1,8.1-9.9c0.6-1.1-1.3-3.5-2-5.2
		c-2.6,1.9-5.8,3.4-7.6,5.8C1469.7,551.2,1471.2,554.2,1472.2,559.4z M283.9,787.4c-6.9-4.7-11.8,8.8-17.3,12.1
		c0.9,1.1,2.7,2.4,3.5,3.3C274.5,797.7,279,792.6,283.9,787.4z M467.3,1109.7c4.8-6.1,8.1-10.4,11.7-14.9
		C469.9,1092.8,466.5,1096.5,467.3,1109.7z M1038.3,657.8c-0.4-0.5-0.7-1-1.1-1.6c-3,3.1-6.1,6.1-8.8,9.5c-1,1.3-1.7,3.4-1.4,5
		c0.2,1,2.9,2.5,3.8,2.1c1.7-0.8,3.5-2.5,4.2-4.2C1036.5,665.1,1037.3,661.4,1038.3,657.8z M550.7,1005.5c12-2.5,12.9-11,16.4-17.7
		c-0.8-0.6-1.7-1.3-2.5-1.9C560.4,991.8,556.2,997.8,550.7,1005.5z M219.9,482.1c-11.8,8.7-12.5,11.8-4.9,18.3
		C216.5,494.7,217.8,489.7,219.9,482.1z M322.9,928.8c0.5,0.8,1,1.5,1.5,2.3c4.3-2,8.6-4,15-6.9c-4.8-3-7.2-4.5-9.6-6
		C327.2,922.2,325,925.5,322.9,928.8z M1340.2,392c-1-0.7-2-1.3-3-2c-2.8,3.7-5.6,7.4-8.4,11.1
		C1338.2,402.4,1341.2,398.8,1340.2,392z M1233.9,874c-4.8,2.9-9.7,5.9-15,9.2C1226.7,887,1229.7,885.6,1233.9,874z M230.2,1081
		c-5.9,0.4-9.8,0.6-15,0.9c2,3.4,3.9,6.6,6.6,11.2C225.2,1088.2,227.4,1085,230.2,1081z M705.9,1416.4c-0.1-6.3-0.2-11.5-0.4-18
		C696.8,1409.7,696.8,1413.3,705.9,1416.4z M246.3,790.5c1.1,1.1,2.2,2.2,3.3,3.3c3.7-3.6,7.4-7.2,11.1-10.8
		c-1.1-1.2-2.3-2.3-3.4-3.5C253.7,783.3,250,786.9,246.3,790.5z M852.2,70.1c-11.8-2.6-13.9-0.1-10,12.2
		C845.5,78.1,848.5,74.5,852.2,70.1z M739.1,371.6c-1-1.1-1.9-2.1-2.9-3.2c-4.9,4.5-9.8,9.1-14.7,13.6c0.9,1,1.9,2,2.8,3
		C729.2,380.5,734.2,376,739.1,371.6z M813.2,120.3c0.8,2.1,2.7,3.4,4.5,4.6c2.9-6.7,14-13.2,6.3-19.5
		C820.4,110.5,816.8,115.4,813.2,120.3z M827.6,764c0.8,0.5,1.5,1,2.3,1.5c2.2-2.8,5.1-5.4,6.2-8.5c0.4-1-3.8-3.7-7.7-7.2
		C828,756.7,827.8,760.3,827.6,764z M520.3,988.6c4.3-3.6,8.6-7.2,13.6-11.4C525.6,975.1,522.2,977.6,520.3,988.6z M1434.5,578.9
		c-10.3,1.6-13.2,6.6-8.1,14.8C1429.2,588.6,1431.8,583.8,1434.5,578.9z M354.2,513.7c-0.5-0.8-1.1-1.6-1.6-2.4
		c-5.9,1.5-12.2,2.6-12.7,14C345.8,520.6,350,517.2,354.2,513.7z M484.3,1356.8c-0.5,1.6-1,3.3-1.5,4.9c3.8,1.2,7.6,2.4,11.4,3.5
		c0.5-1.7,1.5-4.8,1.4-4.8C491.9,1359.1,488.1,1358,484.3,1356.8z M993.7,658c-9.3-0.8-11.3,5-14.1,10.1c0.9,0.8,1.7,1.6,2.6,2.3
		C986,666.3,989.9,662.2,993.7,658z M598.5,778c-1.8-0.4-3.6-0.9-5.4-1.3c-0.9,3.9-1.8,7.8-2.7,11.6c1.5,0.4,2.9,0.8,4.4,1.2
		C596.1,785.8,597.3,781.9,598.5,778z M536,1351.8c1,1.1,2,2.3,3,3.4c2.8-2.2,5.6-4.5,8.3-6.7c-1.3-1.4-2.6-2.8-3.8-4.1
		C541,1346.8,538.5,1349.3,536,1351.8z M328.6,1037.4c1.3,0.8,2.5,1.5,3.8,2.3c2.4-4.2,4.8-8.4,7.2-12.7c-1.3-0.8-2.7-1.5-4-2.3
		C333.3,1028.9,331,1033.2,328.6,1037.4z M365.8,789.7c7.3,6.4,10.5-9.3,16.1-13.6c-0.9-1.1-2.8-1.4-3.2-2.6
		C374.3,779,369.9,784.4,365.8,789.7z M1107.1,1000.6c0.2-1.7,0.5-3.3,0.7-5c-2.7-0.5-5.7-1.8-8.1-1.3c-1.3,0.3-1.7,4-2.5,6.2
		C1100.5,1000.5,1103.8,1000.5,1107.1,1000.6z M1225.4,885.3c9.5-6.8,12-17.5,19.2-25.6c-1-0.1-1.1,0.9-2.4,0.9
		C1236.3,869.3,1230.8,877.6,1225.4,885.3z M565.6,1390.5c-9-5.3-11.2-4-11.5,5.9C558,1394.4,561.4,1392.6,565.6,1390.5z
		 M461.2,619.7c0.9,0.9,0.9,0.9,1.8,2.1c5.1-7.4,17.8-11.7,18.3-21.5C475.1,606.3,468.5,612.7,461.2,619.7z M214.2,928
		c0.7,1.2,1.5,2.4,2.2,3.6c4.1-2.9,8.2-5.7,12.2-8.6c-0.8-1.2-1.6-2.4-2.4-3.5C222.2,922.3,218.2,925.1,214.2,928z M209.3,631.6
		c1,0.9,1.9,1.8,2.9,2.6c3.2-3.4,6.4-6.7,9.6-10.1c-1.1-1-2.2-2-3.4-3.1C215.5,624.5,212.4,628.1,209.3,631.6z M211.8,542
		c-1.4-0.9-2.7-1.8-4.1-2.7c-1.9,3-3.7,5.9-5.6,8.9c1.3,0.7,3.4,2.1,3.6,1.9C207.9,547.5,209.8,544.7,211.8,542z M634.9,607.9
		c1.3,1,2.6,2,3.9,3c3-4.2,6.1-8.4,9.1-12.5c-0.9-0.7-1.8-1.4-2.7-2.1C641.8,600.1,638.3,604,634.9,607.9z M1172.9,699.8
		c1.7,2.8,3.4,5,5.1,7.3c3.2-8.6,12.2-15.5,4-23.3C1179.2,689.6,1176.1,695,1172.9,699.8z M460.3,433.5c-0.1-1.1-0.2-2.3-0.2-3.4
		c-2.6,0-5.2,0-7.9,0c0.1-2.1,0.3-3.9,0.4-5.7c-1.1,0-2.2,0.1-3.3,0.1c0.2,2.9-0.5,7.8,0.8,8.4C453,434.2,456.9,433.4,460.3,433.5z
		 M751.2,358.7c0-1.7,0.1-3.3,0.1-5c-2.9-0.4-5.8-0.8-8.7-1.2c0,2.1,0.1,4.3,0.1,6.4C745.6,358.9,748.4,358.8,751.2,358.7z
		 M1491.6,524c-1.6-0.5-3.2-0.9-4.8-1.4c-0.7,3.5-1.5,7-1.9,10.5c0,0.5,2.4,1.2,3.7,1.9C1489.7,531.4,1490.6,527.7,1491.6,524z"/>
	<path d="M955.3,269.9c-4.9,11.8,1.5,16.7,10.7,23c4.8,1.7,8,8.2,12.4,12.8c7.1,7,4.3,19.8,9,29.5c0.9,1.1,4,0.6,5.1-0.3
		c11.4-16.6-1-36.5-4.6-54.1c-1-7.2-3.9-15.7-6.9-23.2c-3.6,11.6-4.3,23.6-4,35.8c-17.1-29.6,7.1-58.6,17.1-86.5
		c0.1-1-3.5-3.5-6.7-2.9c10.3-8.7,21.4-16.2,31-27c6.1-7.2,4.2-15.6,9.2-22.9c4.9-6.4,5-21.5-8.8-24.1c11.9-4,19.8-6.6,26.1-8.7
		c1.1-8,2-14.1,3-21.9c8.8,3.4,16.5,6.4,23.8,9.2c-6.3,10.6-11,19.6-16.9,27.7c-3.5,4.8-9,8.1-12.4,12.7
		c-5.2,8.4-18.7,18.6-8.1,29.2c-10.4,9.7-23.7,17.9-28.3,29.4c-2.9,6.7-4.6,11.5-8.6,18c-0.3,2-0.6,4-0.8,5.9
		c1.4,4.2,4.7,9.7,4.3,12.7c-0.9,21.1-4.9,42.7,4.2,64.2c0.9,1.1-2.9,6.7-1.4,9.9c8,15.2,7.9,30.4,17,44.8c-0.1,1,4.4-2.4,6.6-4.1
		c6.6,18.1,25.9,46,9.7,53.8c-33.6,16.5-74.1-4.2-111.5-4.4c7.3-2,14.8-5,21.9-5c-13.5-4.9-27.4,1.2-40.9,3.4c3,0.4,5.5,3.8,9.6,3.4
		c-15.2,8-32.6,9.6-49.6,15.3c3.4-2.6,6.9-6.1,11.3-8.5c-22.2,7-36,26.3-49.9,43.8c-4,5.3-7.8,10.6-11.4,16c-5.1-2-9.8-3.9-15.1-6
		c-2.6,5.3-14.9,5.1-7.3,18.6c-5.1-3-7.4-4.3-8.5-4.9c-9.8,12.5-23.5,15.4-36.9,19.1c-0.8-0.7-1.5-1.3-2.3-2c2.7-4,5.2-8.2,8.1-12
		c4.4-5.6,9.5-10.7,13.7-16.5c4.5-6.4,7.8-11.7,17.9-12.1c10.1-0.9,10.8-12.9,16.6-18.2c1.3-1.8,6.1-0.2,8.3-1.9
		c49.5-43.6,111.8-49.1,175.7-51.3c17.3-0.6,16.2-22,13-35.5c-0.7-2.1-3.4-4.5-5.3-5.8c-1-0.1-3.1,0.6-4.2,1.4
		c8.3,13.3,1.3,34.5-16.8,34c-2-0.3-4.7-2.7-6.4-4.9c4.2-1.4,8.6-3.9,12.1-7.4c8.7-11.9-14.3-13.1-20.3-21c-4.4-4.7,3.5-3.5,6.5-3.1
		c1.8-12.9-9.7-17.5-14.4-27.2c7.3-2,10.2,6.5,16.3,6.3c-1.6-3.2-4.3-5.6-5.8-8.9c4.7,2.7,10.5,4.5,13.9,1.9
		c4.5-3.4-1.9-8.3-4.7-9.7c-1.8-1.3-4.8,5.4-5.5,3.3c-3.5-3.5-2.7-9.5-5.1-13.8c-1.6-3.2-6.9-1-6.2,1.2c-1,6.9,4.4,11.7,7.7,17.2
		c-38.1-16.4-33.5-64.2-8-87.9c2.3-1.7,0.1,14.1,5.3,19.9c-10.3,1.6-7,14.2-3.7,20.5L955.3,269.9z M1000.5,403.3
		c3.9,5,13.4,9.4,16.4,2.7c1.1-0.9-1.6-3.2-2.6-4.5C1010.3,402.5,1005.7,403.1,1000.5,403.3z"/>
	<path d="M685,120.9c-25.5-5.8-40.5,15.3-58.6,28.9c-4.5,3.4-5.5-3.8-8.8-2.2c-27.9,19.3-51.9,39.2-76.1,61.1
		c4.1-0.4,7.5-3,10.7-4.6c-24.1,20.9-46.5,44-60.7,73.3c-2.6-39.7,33.3-65,55.4-93.3c-3.8,5.5-4.8,12.5-9.6,17.9
		c21.6-10.1,43.2-27.3,57-46.6c-11.4,2.4-20.6,10.3-28.8,18.2c-0.9-1.1-2.6-3.4-2.4-4.4c11.1-14.6,41.6-23.5,27.4-46.6
		c2.6-1.8,5.3-3.7,9.9-6.9c-5.7,0.3-9.2,0.4-15,0.7c11.8-14.4,36.7-6,39.4-29.2c-2.1,1.7-4.3,3.3-6.2,5.2c-2,2.1-3.3,6.1-5.4,6.4
		c-3.4,0.5-7.1-1.3-10.7-2.1c1-2.8,1.5-7.6,3.2-8.2c11.5-3.6,23.3-6.3,36-9.6c-4,11.4-7.4,20.7-10.2,30.1c-0.8,2.8,0.2,6.1,0.4,9.2
		c2.7-2.1,5.5-4,8-6.2c0.8-0.7,0.7-2.3,1.1-3.4c1.2-0.7,2.3-1.4,3.5-2.1c2,3.8,3.9,7.7,5.8,12.4c3.9-7.7,6.6-14.5-3.4-20.9
		c11.8-2.9,21.4-6.4,24-18.5c0.1-0.6,4.5-1.1,6.5-0.5c7.3,2.4,14.2,5.8,21.6,7.7c1.8,0.5,4.6-3.1,6.9-4.8
		c-3.3-4.2,5.9-12.8-5.2-15.1c7.5-0.5,14.9-1.1,24.7-1.8c-3.6,9.6-7,18.8-10.3,27.8c-1.7,11.5-19.9,26.1-5.8,34.2
		c-8.3,1.9-17.9,5.6-23.7,10.8c-19,20.6-35.9,47.5-64.7,51.6c10.7-11.6,27.7-17.4,34.5-30.5c4.5-10.5,11.4-16.6,20.3-22.5
		C680.5,132.6,684.1,128,685,120.9z"/>
	<path d="M478.2,190.9c-3-10.3,2.6-22.6,10.6-28.1c9.4-6.4,18.5-13.2,26.8-20.9c2.8-2.6,4.2-8.7,3.4-12.5
		c-1.7-7.4-0.3-11.3,7.4-12.4c1.3-0.2,2.5-0.8,3.7-1.3c5.3-2.3,12.8-6.6,14.9,0.7c1.3,4.6-4.3,11.9-8.2,17c-3,3.9-8.1,6.1-11.3,10.3
		c20.3-6.6,35.3-20.1,49.9-37.3c0.8,3.3,2.6,6.2,1.8,8c-5.6,12-12.5,23.3-17.3,35.6c-5,12.8-11.7,24.4-20.9,34.2
		c-7.9,8.3-17.3,15-26,22.5c-0.8-0.7-1.6-1.3-2.3-2c2.3-3.5,4.9-6.9,6.9-10.6c2.4-4.4,8.5-7.9,3.9-14.6c-0.7-1,2.6-5,4.6-7.3
		c5-5.9,13.8-10.1,6-22.3C517.9,168.6,498.1,179.1,478.2,190.9z"/>
	<path d="M379.7,296.2c0.6-1.6,0.8-3.8,2-4.7c19.9-13.8,36-32,54.2-47.7c1.8-1.6,2.7-4.3,3.8-6.6c0.7-1.4,0.7-3.8,1.8-4.4
		c9.6-5.2,19.3-10.1,29.1-15c1.9-0.9,4-1.4,6-2c3.2-1.1,6.4-2.9,9.6-3c4.5-0.1,9.1,1.1,15.9,2c0.2,0.4,1.9,3,3.4,5.4
		c6.2-4.5,12-8.8,17.9-13.1c0.8,1,1.6,2.1,2.3,3.1c-6.7,6.5-13.3,13-19.9,19.5c-8.8-7.9-12.1-7.3-19.4,0.2c-3.9,4-9,6.8-13.6,10.2
		c-2.8,2.1-6,3.9-8.3,6.5c-6.1,6.9-10.5,16.3-22.8,11.6c-1.8-0.7-5.3,2.1-7.5,3.9c-11.6,9.5-27.3,13.2-36.3,26.8
		c-3.1,4.7-10.6,6.5-16.1,9.6C381.1,297.7,380.4,296.9,379.7,296.2z"/>
	<path d="M890.8,652c-5.7,0-10.1,0-15.1,0.1c0,5.6,0,10.9-0.1,16c-6.8-2.7-13.2-7.5-18.4-6.5c-5.1,1-8.9,8-13.2,12.3
		c-5.8-13.7,26.3-59.8,46.8-64.9c-4.8,5-8.6,8.9-12.5,12.9c0.3,0.9,0.6,1.8,1,2.6c4.3-0.8,8.6-1.6,13.8-2.5
		C892.4,632.1,891.6,642.1,890.8,652z"/>
	<path d="M1141.7,1163.2c-11.9,3.7-22.5,7-33.4,10.3c-1.4-5.1-2.8-9.5-3.9-14c-1.5-6,0.5-11.4,7-11.4c9.4,0,14.5-6.2,20.7-11.2
		c3.5-2.8,7.1-6.4,11.2-7.3c6.5-1.5,12.8-1.7,14.1-10.4c0.2-1.4,4.7-2.2,7.2-3.2c0.4,2.3,1.4,4.6,1.1,6.8
		c-0.8,6.6-3.8,11.5-9.7,15.8C1147.2,1145,1141.6,1154.3,1141.7,1163.2z"/>
	<path d="M1421.6,462.5c-1.7,15.4-2.2,11.4-17.5,13.7c0.7-4.9,0.2-9.8,2.1-13.6c4.5-8.8,10.8-16.7,15.1-25.7
		c4.4-9.3,7.2-19.3,11.4-30.7c1,0.4,5.3,0.9,7.2,3.3c4.4,5.5,8.8,11.6,10.9,18.2c1.5,4.9,0.5,11.4-1.5,16.4
		c-2.4,5.8-6.2,11.9-11.1,15.7C1434.5,462.5,1428.1,461.6,1421.6,462.5z M1426.7,454.1c2.6-3.2,4.1-6.8,6.8-8.4
		c7.4-4.3,4.2-7.8,0.3-11.9C1423,439.6,1420.5,446.8,1426.7,454.1z"/>
	<path d="M573.4,80c3.6,0.9,7.6,1.1,11.6,0.9c2.9-0.1,5.7-2.8,8.6-4.4c-0.8-0.4-1.6-0.8-2.4-1.3C585.4,76.9,579.4,78.5,573.4,80z"/>
	<path d="M1032.2,488.6c-3.3-3.1-6.1-5.7-9.6-9c5-6.7,10.3-13.9,16.6-22.3c3.3,6.3,2.1,10.5-2.1,15c-2.2,2.3-3,5.9-3.2,9.6
		c8.7-2.2,7.9-18.8,22.9-10.4c-9,10.5-17.6,20.6-27.2,31.8c2.7,2.5,5.9,5.3,11.4,10.4c-5.6,1.1-9.5,1.8-14.4,2.8
		c-0.1,0.9-0.3,3.5-0.5,5.5c-8.6,1.1-16.7,2.1-24.8,3.1c-0.2-0.9-0.5-1.7-0.7-2.6C1010.6,511.8,1020.6,501.1,1032.2,488.6z"/>
	<path d="M1519.4,864.3c2.7-7.5,4-14.1,7.2-19.6c5.3-9.1,11.8-17.5,19.8-29.2c3.1,6.3,6.9,10.2,6.3,13.2c-2.1,9.7-5.3,19.2-9.1,28.4
		c-2.7,6.6-7.5,10.3-15.1,5.3c-1-0.7-3.6,1.1-5.5,1.5C1521.2,864.2,1519.3,864.3,1519.4,864.3z"/>
	<path d="M788.4,702.6c-1.8,4.9-3.5,9.8-5.3,14.7c-0.9-0.2-1.7-0.3-2.6-0.5c-0.3-1.7-0.5-3.5-1.1-7.4c-3.9,4.2-6.6,7.8-10,10.4
		c-3.2,2.4-7.1,3.7-10.8,5.5c0.5-3.6,1-7.2,1.6-11.7c-0.4-0.2-4.5-1.5-4.6-3.2c-0.2-2.7,1.6-6,3.5-8.3c3.4-4.2,7.3-7.9,11.3-11.5
		c2.1-1.9,4.7-3.1,7.1-4.5c1.1,2.4,2.1,4.8,3.3,7.2c1.6,3.3,3.2,6.5,4.9,9.7C786.7,702.8,787.5,702.7,788.4,702.6z"/>
	<path d="M611.4,173.2c6.6-4.7,11.4-7.9,15.9-11.4c7.5-5.8,14.6-12.2,22.5-17.5c2.1-1.4,6.8-0.3,9.5,1c1.2,0.6,1.7,5.2,0.8,7.3
		c-3.2,8-7.5,14.2-17.7,15.6c-7.3,1-14.1,5.8-21.3,8.7C615.1,179.3,612.5,175.8,611.4,173.2z"/>
	<path d="M999.5,1293.5c-6.7,7.8-17.3,12.5-18.2,24.8c-0.2,2.6-4.3,4.9-7.6,8.5c0.2,4.9,7.3,12.3-1.5,18.2c-6.5-6.3-8.5-29.1-3.2-38
		c2,1.8,3.9,3.5,5.9,5.2c4.6-7.7,8.5-15,13.2-21.8c1.6-2.3,5.1-3.2,7.7-4.7c1.2,2.6,2.4,5.3,3.6,7.9
		C999.4,1293.6,999.5,1293.5,999.5,1293.5z"/>
	<path d="M1310.1,296.4c-9.4,5.3-19.1,10.7-28.8,16.1c-0.7-0.3-1.5-0.7-2.2-1c2.5-4.4,5-8.7,7.5-13.1c-0.4-0.6-0.8-1.2-1.2-1.8
		c-3.6,2.4-7.1,4.8-12.2,8.2c0.3-13.8,10-20.1,15.1-26.8C1295.7,284.1,1302.7,290.1,1310.1,296.4z"/>
	<path d="M1034.9,235.5c-0.2-8.8-0.3-17.2-0.5-25.5c-1.1-0.3-2.3-0.5-3.4-0.8c2.6-2.2,5.2-4.3,8.5-7.1c1.2,2.8,2,4.6,3.2,7.6
		c3.9-2.2,7.3-4.6,11-6.1c2.3-0.9,5.2-0.5,7.8-0.6c0.1,3.1,1.5,7.4,0,9c-7.3,8.1-15.4,15.5-23.3,23
		C1037.5,235.7,1035.9,235.4,1034.9,235.5z"/>
	<path d="M862.1,1286.8c6.1,12.7,4.4,16.5-12.8,28c-1.2-2.1-2.3-4.1-3.8-6.8c-6.2,8.1-10.2,1.1-12.4-2.8c-4.8-8.9,6.6-8.8,8.8-15.5
		C851.7,1304.3,856.1,1291.4,862.1,1286.8z"/>
	<path d="M1093.4,116.3c12,6,24,12.1,36.8,18.6c-6.5,7.1-11.6,4.1-16.5,0.9c-6.9-4.6-10.9-4-15.1,4.2c-2.3,4.6-9,7-14.9,9.3
		c2.8-10.9,18.6-17.3,5.6-31.8C1090.6,117.1,1092,116.7,1093.4,116.3z"/>
	<path d="M1175.2,1109.9c1,1.9,2.1,3.7,4.2,7.6c5.2-7.6,9.3-14.3,14.2-20.3c1.9-2.3,5.7-2.9,8.7-4.3c-0.2,3.6,0.9,8.1-0.8,10.7
		c-3.9,6.1-8.5,12.1-14.1,16.8c-3.4,2.8-8.9,2.9-13.5,4.3c-0.5-4.8-1.1-9.6-1.6-14.5C1173.3,1110,1174.2,1109.9,1175.2,1109.9z"/>
	<path d="M540.3,267.3c-7.8,26-33.1,34.4-50.8,51.3c0.2-1.7-0.2-4.1,0.8-5C506.9,298.1,523.6,282.7,540.3,267.3z"/>
	<path d="M1304.8,260.7c-1.6-3-2.9-5.4-4.1-7.8c0.7-0.7,1.4-1.4,2.1-2.1c8.6,3.6,13.9,11.6,22.3,17.9c-9.2,4.4-12,18.3-25.2,10.2
		c1.3-2,2.6-4,4.4-6.8c-3-0.8-5.5-1.5-9.1-2.5C1298.9,266.2,1301.6,263.6,1304.8,260.7z"/>
	<path d="M1239.9,1069.5c1.1,13.3-13.2,31.4-35.5,48.9c-3.1-7.6-0.5-12.1,6-16.1c4.4-2.7,8.1-6.8,11.5-10.7
		C1228.1,1084.4,1233.9,1076.9,1239.9,1069.5z"/>
	<path d="M980.1,282.4c10.5-9.4,21-18.8,31.5-28.1c1,0.8,2.1,1.5,3.1,2.3c-12.8,12-24.5,24.6-24,44.5c-6.2-3-9.6-4.7-13.2-6.5
		c0.9-4.2,1.8-8.3,2.7-12.4C980.3,282.2,980.1,282.4,980.1,282.4z"/>
	<path d="M1014.7,431.1c-1.3,3.6-2.6,7.2-4,10.7c-1.1,2.9-2.2,5.7-3.4,8.6c2.8,0.5,5.7,1,8.5,1.6c1.2,0.3,2.3,0.8,6,2.2
		c-4.8,3.2-8.4,7.4-11.1,6.9c-4.7-0.8-9.6-3.9-13-7.4c-1-1.1,2.9-6.8,3.9-8.9c-2.6-1.9-6.2-3.5-7.9-6.3c-0.9-1.4,1.5-4.9,2.5-7.5
		c3.4,1.3,6.7,2.6,11.8,4.6c1-0.7,3.9-2.5,6.8-4.4L1014.7,431.1z"/>
	<path d="M623.5,190.2c-2,2.3-4.3,4.3-5.9,6.8c-2.6,4.3-5.9,8.6-6.9,13.4c-1.9,8.6-7.8,11.6-15.1,13c-5.3,1-7.6-1.6-5-6.8
		c1.3-2.6,2.9-5.2,4.9-7.2c7.1-7.2,14.4-14.2,21.9-21.1c0.9-0.8,2.9-0.3,4.3-0.5C622.4,188.7,623,189.4,623.5,190.2z"/>
	<path d="M1014.8,431.2c4.5-10.4,8.9-4.2,15.5,3.1c5-4.4,9.9-8.7,14.9-13.2c0.4,4.9,0.9,10.5,1.2,14.1c-7.9,3.4-15.6,6.9-24.1,10.6
		c-2.6-4.2,3-14.1-7.6-14.8C1014.7,431.1,1014.8,431.2,1014.8,431.2z"/>
	<path d="M1079,1114.2c9.4-14.6,17.1-30.7,35.7-36.5C1106.5,1093.3,1094.4,1105.3,1079,1114.2z"/>
	<path d="M911.2,1259c-5.6,7.4-10.3,13.9-15.4,20.3c-3.8,4.8-7.9,9.3-12.1,13.7c-1,1.1-3.3,1.6-4.8,1.3c-0.8-0.2-2-3-1.5-4
		c6.4-13.5,17.2-23.1,28.9-31.8C907,1257.9,908.6,1258.7,911.2,1259z"/>
	<path d="M670.7,633.2c5.8,1.8,12.6,3.9,20.6,6.4c-4.1,6.7-7.2,11.7-10.2,16.7c-1.4,0.1-2.7,0.2-4.1,0.3c-0.6-3-1.2-5.9-2-10.3
		c-4.8,4.7-7.2,7.1-10.2,10.1C666.8,648.3,668.6,641.2,670.7,633.2z"/>
	<path d="M1086,238.6c-3.6-6.3-6-10.5-9-15.7c3.3-5,7.2-11,11.5-17.4c1.4,1.2,3.2,2.1,3.1,2.7c-1.4,7.9-0.3,15.3,2.9,22.7
		C1095.1,232.1,1088.9,236.1,1086,238.6z"/>
	<path d="M536.1,254.1c-1.4-8,1.3-13.4,9.1-17.1c3.8-1.8,6.2-6.6,9.6-9.4c1.7-1.4,4.5-1.5,6.8-2.2c0.1,2.7,1.1,5.6,0.2,7.9
		c-1.2,2.9-3.4,5.8-5.9,7.6c-6.4,4.7-13.3,8.7-19.9,13C536,254,536.1,254.1,536.1,254.1z"/>
	<path d="M1073.2,398.6c-1.7,2.1-3.4,4.2-4.5,5.7c1.7,3.4,4.8,8.4,4.3,8.8c-3.9,3.1-8.4,6.1-13.1,7.3c-1.6,0.4-5.2-4-6.6-6.9
		c-0.8-1.6,0.3-5.5,1.8-6.5c5.5-3.6,11.5-6.4,17.3-9.5C1072.6,397.9,1072.9,398.2,1073.2,398.6z"/>
	<path d="M1072.4,1117.4c-7.6,13.8-15,27.7-31.8,32.6c-0.7-0.7-1.4-1.4-2.2-2.1c10.5-10.9,21.1-21.8,31.6-32.8
		C1070.8,1115.9,1071.6,1116.6,1072.4,1117.4z"/>
	<path d="M791.2,690.7c5.5-6.4,10.7-13.1,16.8-18.9c1.3-1.2,6.1,1.4,9.2,2.3c-1.2,2.7-1.7,6.4-3.8,8c-6,4.4-12.7,7.9-19.1,11.8
		C793.2,692.8,792.2,691.7,791.2,690.7z"/>
	<path d="M1241.1,1393.8c14.5,7.2,14.8,9.6,4.9,17.5c-3.6,2.8-7,6.1-11.1,7.8c-2.4,1-5.9-0.7-8.9-1.2c1.8-2.9,3.1-6.5,5.6-8.5
		c2.3-1.8,6.1-1.7,9.2-2.7c2.1-0.7,4-2,6.2-3.2C1245.3,1400.8,1243.9,1398.4,1241.1,1393.8z"/>
	<path d="M1040.5,1166.3c7.3-4.3,13.8-8.7,20.7-12.1c7-3.4,14.5-5.9,24.6-9.9c-4.7,8.4-8.7,13.9-16.9,14.2
		c-7.3,0.3-12.7,2.5-17.5,8.6C1047.1,1172.5,1042.6,1170.9,1040.5,1166.3z"/>
	<path d="M1161.8,974.1c-1.7-18,2.5-24.1,19.3-25.3c-1.8,2.7-3.2,4.5-4.2,6.5c-2,4-3.4,8.3-5.6,12.2c-1.9,3.2-4.5,6-6.9,8.9
		C1163.5,975.6,1162.7,974.8,1161.8,974.1z"/>
	<path d="M945.6,566.9c8.2-6.5,2.9-22.1,16.9-24.5C970,552.7,962.8,563.8,945.6,566.9z"/>
	<path d="M1072.8,171.7c3,11.7-0.3,20-8.5,23.6c-1.5,0.7-5.3,0.1-5.6-0.8c-1-2.8-2.2-7.1-0.9-8.8
		C1061.9,180.7,1067.2,176.8,1072.8,171.7z"/>
	<path d="M1388.3,498.9c0.2-1.3,0-2.8,0.7-3.8c3.3-4.4,6.1-11,10.4-12.1c3.5-1,8.8,4.6,13.2,7.2c-0.3,1.2-0.6,2.5-0.8,3.7
		c-7.8,1.6-15.7,3.2-23.5,4.9L1388.3,498.9z"/>
	<path d="M709.4,601c7.3-3.1,14.6-6.3,21.9-9.4c-0.4-1-0.8-2-1.2-2.9c-2.1,0.7-4.3,1.4-7.2,2.3c0.4-1.4,0.5-2.7,1.1-3.5
		c5.4-7.8,9.8-0.7,17.2-0.1c-5.9,6.6-9.2,12.8-14.5,15.5c-4.7,2.4-11.5,1-17.3,1.2C709.4,603,709.4,602,709.4,601z"/>
	<path d="M1049.6,1100.7c5.6-0.7,9.9-1.2,14.3-1.7c3.8,15.6-5.7,19.8-18.8,15.2c1.5-2.2,3.2-4,4-6.2
		C1049.9,1106,1049.5,1103.7,1049.6,1100.7z"/>
	<path d="M748.1,1399.3c-0.8,3.6-1.3,7.2-2.5,10.4c-1.6,4.1-3.5,8.2-5.7,12c-1.2,2-3.3,3.4-5.1,5.1c-1.6-1.6-4.8-3.7-4.4-4.9
		c1.5-5.3,3.1-10.9,6.2-15.4C738.8,1403.4,743.4,1402,748.1,1399.3z"/>
	<path d="M1401.7,418.9c4.1-6.1,7.8-12.4,12.5-17.9c0.8-0.9,6,1.9,9.1,3c-2.6,4.3-4.6,9.4-8.2,12.8c-2.4,2.3-7,2.4-10.6,3.4
		C1403.7,419.8,1402.7,419.3,1401.7,418.9z"/>
	<path d="M1023.3,1121.4c1.5-6.7,2.3-13.5,4.7-19.8c0.8-2.2,5.5-2.9,8.4-4.3c0.5,0.7,0.9,1.4,1.4,2.2c1.2-2.4,2.4-4.8,3.9-7.8
		C1045,1099.4,1031.8,1118.8,1023.3,1121.4z"/>
	<path d="M1288.4,851.4c-4.3,6.1-8.3,12.4-13,18.1c-0.9,1.1-6.1,0.7-6.6-0.3c-1.1-2.1-1.4-6.3,0-7.6c4.9-4.8,10.7-8.8,16.1-13.2
		C1286,849.4,1287.2,850.4,1288.4,851.4z"/>
	<path d="M1063.3,169c3.8-8.1,5.7-14.7,14.1-13.7c2.6,0.3,5,2.7,7.5,4.1c-1.8,2.6-3,6.7-5.5,7.6
		C1075.1,168.5,1070.1,168.2,1063.3,169z"/>
	<path d="M424.1,280.6c-12,10.4-24.1,20.8-36.1,31.2c-1-1.1-1.9-2.2-2.9-3.3c12.1-10.4,24.2-20.8,36.3-31.2
		C422.4,278.4,423.3,279.5,424.1,280.6z"/>
	<path d="M489.9,816c11.2-9.3,22.4-18.6,33.6-27.9c0.9,1.1,1.9,2.2,2.8,3.4c-11.1,9.5-22.2,18.9-33.4,28.4
		C491.9,818.5,490.9,817.3,489.9,816z"/>
	<path d="M955.4,586.8c4.3-5.8-6.3-13.4,2.9-18.4c6.2-3.4,12.7-6.1,19.1-9c0.7,1.3,1.4,2.6,2,3.9c-2.4,1.3-4.8,3.6-7.2,3.6
		c-8.5-0.2-10.5,4.2-10.2,11.7c0.1,3.1-1.9,6.4-3,9.5C957.9,587.7,956.6,587.2,955.4,586.8z"/>
	<path d="M977.4,574c8.2,1.8,14.6,0.9,19.8-5.7c0.4-0.5,3.7,1.3,5.6,2c-2.6,3.8-4.9,7.9-8,11.3c-1.4,1.5-5.1,2.8-6.4,2
		C984.4,581,981,577.3,977.4,574z"/>
	<path d="M985.1,86.1c6.3-4.6,11.7-3.9,22,3C1000.6,97.2,992.2,96.1,985.1,86.1z"/>
	<path d="M613.3,186.9c-8.1,6.7-16.2,13.5-25.8,21.4C589.4,197.2,602.8,185.5,613.3,186.9z"/>
	<path d="M939.6,1234.2c5.7-3.6,10.5-6.6,15.3-9.6c1.9-1.2,3.7-3.2,5.6-3.3c1.7-0.1,3.6,1.9,5.4,2.9c-1,1.6-1.7,3.8-3.2,4.7
		c-4.8,3-10,5.3-14.8,8.2C941.5,1241.1,940.7,1236.3,939.6,1234.2z"/>
	<path d="M1082.1,131.8c-6.5,8.2-11.7,14.8-17.7,22.3C1060.5,142.5,1067.4,134,1082.1,131.8z"/>
	<path d="M633.5,658c1.4,7.5-6.7,19.1-17,20c4.7-7.2,9.4-14.5,14.1-21.7C631.5,656.8,632.5,657.4,633.5,658z"/>
	<path d="M962.8,138.7c-2.1-11.1,8.5-21.7,15.6-14.7c3.4,4.5-7.5,10.1-12,15.6C965.2,139.3,964,139,962.8,138.7z"/>
	<path d="M421.1,863c-5.5,9.3-7.4,9.6-15.7,2.2c-1.4,0.8-3.1,1.7-4.6,2.7c-1.2,0.8-2.4,1.7-3.5,2.5c-0.6-0.7-1.2-1.3-1.8-2
		c3.5-3.3,6.5-8.5,10.5-9.4C410.3,858.1,415.5,861.3,421.1,863z"/>
	<path d="M904.2,546.1c5.6-3.5,9.2-6,13-7.9c1.4-0.7,3.7-0.4,5.3,0.1c0.7,0.2,1.5,2.8,1,3.3c-3.1,3.6-6,7.7-9.9,9.8
		C912,552.2,908,548.3,904.2,546.1z"/>
	<path d="M764.6,512.9c1.1-4.4,12.4-12.9,16.5-11.8c1.7,0.4,3.8,2.9,4,4.6c0.2,1.4-2,4.2-3.5,4.5c-5.6,1.3-11.4,1.8-17.1,2.5
		C764.5,512.8,764.6,512.9,764.6,512.9z"/>
	<path d="M749.4,1449.6c2.3-6.5,4.4-13.2,7.1-19.6c0.4-0.9,3.7-1.4,5.2-0.8c1.2,0.5,2.7,3.5,2.2,4.4c-3.6,6-7.6,11.8-11.5,17.6
		C751.4,1450.7,750.4,1450.1,749.4,1449.6z"/>
	<path d="M1261.6,899.3c7.2-6.9,14.4-13.7,21.6-20.6c1.1,1.1,2.1,2.2,3.2,3.3c-7.1,7-14.2,14-21.2,21.1
		C1264,901.8,1262.8,900.6,1261.6,899.3z"/>
	<path d="M1067.8,1203.8c-1.1-10.5,2.5-15.3,15.5-18.9C1078.1,1192.7,1077.9,1201.6,1067.8,1203.8z"/>
	<path d="M770.2,738.4c0.9,10.2-1.7,14.7-11.1,18.9C757.6,750.5,760.2,746,770.2,738.4z"/>
	<path d="M1388.2,498.8c-4.7,6.8-9.3,13.6-15.1,22.1c-2.1-11.5,4.6-19.7,15.2-22C1388.3,498.9,1388.2,498.8,1388.2,498.8z"/>
	<path d="M990.6,320c-1.2,5.8-2.1,11.8-3.9,17.5c-0.5,1.5-3.6,2.1-5.5,3.1c-0.9-2.1-3.1-4.9-2.4-6c3.1-5.5,7-10.5,10.7-15.6
		C989.8,319.3,990.2,319.7,990.6,320z"/>
	<path d="M1090,1422.7c3.3-7.6,6.4-14.9,10.5-24.2C1103.3,1416.5,1101.9,1419.4,1090,1422.7z"/>
	<path d="M1154.7,145.1c-4.7,6.1-7.8,10.1-10.9,14.1c-1-0.3-2-0.6-3-1c1.1-5.1,2.1-10.3,3.1-15.4
		C1146.8,143.4,1149.7,144,1154.7,145.1z"/>
	<path d="M463.8,162.2c2.8-4.8,5.5-9.6,8.6-14.2c0.6-0.8,3.7-1.1,4.2-0.5c1,1.2,1.8,3.9,1.1,4.9c-3.1,4.3-6.7,8.2-10.2,12.2
		C466.2,163.7,465,163,463.8,162.2z"/>
	<path d="M778.1,1388.6c1.2-3.4,1.5-8,3.8-9.8c1.9-1.4,6.4,0.5,9.8,1c0.4,1.1,0.8,2.3,1.2,3.4c-4,2.3-7.9,4.7-11.9,7
		C780,1389.7,779,1389.2,778.1,1388.6z"/>
	<path d="M1195.9,1378.8c-3.5,4.9-7.1,9.8-12.2,16.9c-2.6-6.6-4.2-10.6-5.7-14.6C1185.7,1390.4,1189.4,1379.8,1195.9,1378.8z"/>
	<path d="M1511.1,882.9c-6,5.5-11.2,10.3-16.4,15C1498.3,883.5,1502.9,879.6,1511.1,882.9z"/>
	<path d="M1190.4,1069.7c4.2-3.7,8.4-7.4,12.9-11.4c2.1,3.5-5.3,6.2-8.3,9.8c-1.1,1.3-5.8-0.6-8.8-1
		C1187.5,1067.9,1189,1068.8,1190.4,1069.7z"/>
	<path d="M1384.8,541.6c-3.4,3.5-6.7,7-10.1,10.5c-1.3-1.3-3.8-3.5-3.7-3.6c3-3.8,6.3-7.3,9.6-10.9
		C1382,539,1383.4,540.3,1384.8,541.6z"/>
	<path d="M650.2,87.9c0.7-3.8,1.3-7.7,2.5-11.3c0.1-0.4,4.4,0.7,6.7,1c-1.2,3.9-2.4,7.8-3.7,11.8C653.9,88.9,652.1,88.4,650.2,87.9z
		"/>
	<path d="M1063.1,266.3c-4.7,4-9.4,8-14.1,11.9c-1-1-1.9-2-2.9-3c4.3-4.5,8.6-8.9,12.9-13.4C1060.4,263.4,1061.7,264.8,1063.1,266.3
		z"/>
	<path d="M936.5,211.1c-5.8,2.2-11.3,5.5-17,9.7c-1-7.2,6.6-11.2,9.8-16.6C931.4,206.3,933.2,208,936.5,211.1z"/>
	<path d="M1123.3,343.5c-3.5,4.1-7,8.3-10.6,12.4c-1.4-1.2-2.8-2.5-4.2-3.7c3.6-4,7.3-8,10.9-12
		C1120.7,341.3,1122,342.4,1123.3,343.5z"/>
	<path d="M967.4,355.3c1.8,12-0.9,14.6-12.6,12.8C959,363.7,962.5,360.2,967.4,355.3z"/>
	<path d="M1029.5,543.3c-3.6-4.2-7.2-8.3-10.8-12.5c1-0.9,2-1.9,3-2.8c4.1,3.7,11,4.7,10.7,12.8
		C1031.4,541.6,1030.5,542.5,1029.5,543.3z"/>
	<path d="M1016.8,113.4c1.5-2.2,2.8-4.6,4.7-6.5c1.7-1.7,4-2.8,6.2-3.7c0.3-0.1,2.7,2.8,2.4,3.4c-1.2,2.3-2.8,4.7-4.8,6.2
		c-1.9,1.4-4.5,1.7-6.8,2.5C1017.9,114.6,1017.4,114,1016.8,113.4z"/>
	<path d="M612.1,714.7c4-1.6,8.1-3.2,12.1-4.7c0.6,0.8,1.2,1.6,1.8,2.4c-5.3,4.2-10.5,8.5-15.8,12.7c-0.6-0.7-1.3-1.4-1.9-2.1
		c1.3-2.8,2.6-5.6,3.9-8.4C612.3,714.6,612.1,714.7,612.1,714.7z"/>
	<path d="M1109.6,171.2c4.4,11.8,2.1,14.8-8.7,12.9C1103.7,180,1106.1,176.4,1109.6,171.2z"/>
	<path d="M887.1,579c3.6-4.7,7.2-9.5,10.7-14.2c1.3,0.9,2.5,1.9,3.8,2.8c-3.5,4.8-7.1,9.6-10.6,14.4C889.7,581,888.4,580,887.1,579z
		"/>
	<path d="M936.3,1247.7c-3.2,2.5-6.4,5-9.8,7.3c-0.1,0.1-2-2.5-3.1-3.9c3.3-2.5,6.6-4.9,9.8-7.4
		C934.2,1245.1,935.3,1246.4,936.3,1247.7z"/>
	<path d="M1015.9,554.2c-4.8-4.1-7.8-6.6-11.2-9.5c2.9-2.7,5.9-5.5,10.1-9.3C1015.2,541.9,1015.5,547.2,1015.9,554.2z"/>
	<path d="M1037.3,1257.4c-1.9,4.3-3.9,8.6-5.8,12.8c-5-7.2-2.9-11.4,2.5-14.3C1035,1256.4,1036.2,1256.9,1037.3,1257.4z"/>
	<path d="M916.5,584.8c1.8-4.2,3.6-8.4,5.4-12.7c1.3,0.5,2.6,1,3.9,1.5c-1.4,4.4-2.8,8.8-4.3,13.1
		C919.8,586.1,918.2,585.5,916.5,584.8z"/>
	<path d="M952.9,581.6c-5.8,5-9.8,8.4-13.9,12C937.7,584.1,940.1,581.6,952.9,581.6z"/>
	<path d="M648.6,193.6c-8.7,4.5-16.6,10.5-24.5,16.5c4.6-11.5,17.1-13.8,25.5-21.5C649.3,190.2,648.9,191.9,648.6,193.6z"/>
	<path d="M1347,550.4c-3.9,4-7.3,7.4-11.3,11.6C1334.7,550.9,1337.1,548.4,1347,550.4z"/>
	<path d="M1297,1351.2c10.7,4.7,10.8,6.2,1,13.6C1297.7,1359.7,1297.4,1355.9,1297,1351.2z"/>
	<path d="M1310.4,307.8c-3.3,5.4-5.5,8.9-8.1,13.1C1297.4,310.7,1297.7,310.1,1310.4,307.8z"/>
	<path d="M443.9,352.2c4-3.6,8-7.2,12-10.8c0.9,0.9,1.7,1.8,2.6,2.7c-3.9,3.8-7.7,7.6-11.6,11.4
		C445.9,354.4,444.9,353.3,443.9,352.2z"/>
	<path d="M1094.2,1111.6c6.6-4.5,11-7.5,16.4-11.2C1109.4,1109.2,1106.9,1110.8,1094.2,1111.6z"/>
	<path d="M955.2,270c2.1-1.6,3.7-6.4,5.7-6.1c7.2-1,1.5,11.3,3.6,17.7c-3.5-3.5-6-7.9-9.3-11.7C955.3,269.9,955.2,270,955.2,270z"/>
	<path d="M1010.2,1145.3c3-2.3,6-4.6,9-6.9c0.9,1.2,1.9,2.4,2.8,3.6c-2.9,2.4-5.9,4.8-8.8,7.2
		C1012.2,1147.9,1011.2,1146.6,1010.2,1145.3z"/>
	<path d="M1256.7,1397c1.9-4.3,3.8-8.5,5.8-12.8c1,5.7,4.3,12.2-2.3,14.9C1259,1398.4,1257.8,1397.7,1256.7,1397z"/>
	<path d="M616.9,1294.8c-1.8-1.9-3.4-3.6-5.5-5.8c4.8-4.8,17.5-2.9,13-12.3c3.2-3.9,5.4-6,6.7-8.5c1.4-2.6,1.9-5.6,3.3-9.8
		c2.9,5.6,4.3,9.1,6.6,12c0.4,0.5,4.4-1.7,6.6-2.8c0.8-0.4,2-1.6,1.9-2.1c-4.6-15.8,11.8-13.2,17.9-19.7c-2.2,4.8-6.9,10.3-5.9,14.3
		c1.8,7.2-1,13.6-0.5,20.1c0.7,10-7.8,11.9-12.2,17.3c-0.4,0.4-5.8-1.8-6.7-3.7c-2-4.2-2.6-9.1-4-14.5
		c-13.3,4.8-13.2,24.4-31.8,25.1C610.7,1300.3,613.6,1297.8,616.9,1294.8z"/>
	<path d="M619.9,1355.3c2.8-7.4,11.9-13.1,18.9-10.4c6.8,2.7,10.2,0.5,13.3-5.2c2.8-5.1,5.7-10.3,9.4-14.7
		c9.3-10.9,14-12.3,28.9-9.8c-14.4,13.6-28.5,26.9-42.5,40.2c0.9,1.1,1.8,2.3,2.6,3.4c3.4-2.5,6.8-5,10.2-7.6
		c0.6,0.6,1.2,1.2,1.8,1.8c-3.5,3.2-7.1,9.1-10.6,9c-8.4-0.1-13.8,2.9-18.9,9.1c-2.2,2.7-7.2,3-11,4.5c0.4-4.1,0.3-8.4,1.5-12.3
		c0.8-2.8,3.5-5,6.5-9.2c-4.9,0.5-7.6,0.7-10.3,1C619.8,1355.2,619.9,1355.3,619.9,1355.3z"/>
	<path d="M588.8,1279.8c-3.6,5.8-4.9,11.1,1.1,16.5c1.4,1.2,1.8,5.8,0.7,7c-4.7,5.3-10.2,9.9-15.4,14.8c-0.8-0.7-1.6-1.4-2.4-2.1
		c1.4-2.9,2.7-5.8,4.9-10.4c-13.9,5-17.7,17.2-25.3,26.6c-2-9.9-4.1-19-5.4-28.3c-0.3-1.8,2.2-4.7,4.1-5.9
		c8.8-5.2,17.7-10.2,26.8-14.8c3.3-1.7,7.3-2.2,11-3.3L588.8,1279.8z"/>
	<path d="M681.9,1184.9c3.7-1.7,5.8-2.4,7.6-3.6c0.7-0.4,0.6-2.1,1.3-2.5c3.9-2.2,8-4.2,12-6.2c-0.8,4-0.6,8.6-2.7,11.7
		c-4.7,7-10.5,13.2-15.9,19.7c0.6,0.7,1.1,1.5,1.7,2.2c2.5-0.2,5.1-0.3,10-0.6c-6.6,8.2-12,14.9-17.4,21.7c-0.8-0.1-1.7-0.3-2.5-0.4
		c0.7-5.4,3.1-11.2,1.8-16c-1.2-4.2-6.5-7.3-11-11.8C674.8,1197.6,687.2,1198.3,681.9,1184.9z"/>
	<path d="M845.9,1062.9c0.5,3.2,0.9,6.4,1.5,10.4c2.9-1.2,5.3-2.2,7.6-3.1c0.5,0.9,1.1,1.8,1.6,2.7c-4.1,2.6-8.2,5.1-13.7,8.5
		c-0.4,0.8-2,6.4-2.9,6.2c-4.3-0.7-8.4-2.7-14.1-4.9c0.1-0.1-1.9,1.3-4.9,3.4c-0.3-2.9-1.1-5-0.4-6.4c2.9-6.3,5.8-12.5,9.5-18.3
		c0.8-1.3,4.4-1.6,6.6-1.3c3.1,0.4,6.1,1.9,9.2,2.9L845.9,1062.9z"/>
	<path d="M588.9,1279.9c2.6-4.5,5.7-8.8,7.5-13.6c1.2-3.2,0.7-7.1,0.6-10.7c0-3.7-0.5-7.5-0.4-11.2c0-0.3,4-1,4-0.8
		c1.2,3.7,2.1,7.5,3,11.3c0.2,0.9-0.1,1.9-0.3,3.7c3.2,0,6.1,0,10.9,0.1c-4.3,5.3-7.9,9.6-11.1,13.4c2.1,3.6,6.2,8.2,5.4,9.4
		c-3.3,4.9-8.2,8.6-12.5,12.8c-1-0.7-2-1.4-3-2.1c0.5-3.7,1-7.4,1.6-11.5c-2.1-0.3-4-0.6-5.9-0.8
		C588.8,1279.8,588.9,1279.9,588.9,1279.9z"/>
	<path d="M712.6,1232.7c5.8,1.9,10.5,3.5,15.3,5c0,1.1,0,2.3-0.1,3.4c-10.3-1.5-13.8,5.7-18.3,12.2c-2.5,3.6-6.1,6.5-9.5,9.5
		c-4.3,3.8-8.5,7.7-13.2,11c-2,1.4-5,1.5-7.6,2.2c0-2.9-1.2-7.2,0.3-8.6c5.1-4.8,10.7-10.9,17-12.3
		C708.4,1252.6,711.4,1245.4,712.6,1232.7z"/>
	<path d="M631.1,1322.1c6.8-4.5,12.9-9.4,19.7-12.6c2.7-1.3,7.2,1,10.8,1.6c-0.6,3.3-0.1,7.6-2,9.7
		C649.3,1332.1,639.9,1335.9,631.1,1322.1z"/>
	<path d="M688.7,1234.8c13.6-10.5,27.3-21.1,40.8-31.5c0.9,7.9-24.9,30.7-38.8,34C690,1236.5,689.3,1235.6,688.7,1234.8z"/>
	<path d="M633.1,1240.4c6.5-7.9,12.9-16.1,19.8-23.6c1.1-1.2,4.9,0,7.5,0.1c-0.5,1.7-0.7,4.7-1.5,4.8c-11.1,2.1-14.2,12.4-20.6,19.3
		c-0.6,0.7-1.6,0.9-2.4,1.4C635,1241.8,634,1241.1,633.1,1240.4z"/>
	<path d="M622.3,1233.3c-2.8-11.4,4-19.9,17.4-22.1C633.9,1218.5,628.1,1225.9,622.3,1233.3z"/>
	<path d="M845.7,1110.3c2.5,9.8-5.5,14.7-9.4,21.2c-0.2,0.3-5-1.3-5-1.7c0.5-3.7,0.5-8.1,2.6-10.8
		C836.6,1115.6,841.1,1113.6,845.7,1110.3z"/>
	<path d="M775.3,1126.5c-3.8,2.1-7.5,4.5-11.6,6c-1.4,0.5-4-1-5.4-2.3c-0.5-0.5,0.7-4.1,1.6-4.4c4.7-1.5,9.6-2.3,14.4-3.3
		C774.7,1123.8,775,1125.2,775.3,1126.5z"/>
	<path d="M743.4,1170.5c-6.9-7.8-6.5-9.3,3.9-16.8C746.1,1158.6,745,1163.6,743.4,1170.5z"/>
	<path d="M697.9,1311.2c0-4,0.1-7.9,0.1-11.9c1.7,0.1,4.9,0.2,4.9,0.4c0.3,3.9,0.1,7.8,0.1,11.7
		C701.4,1311.4,699.6,1311.3,697.9,1311.2z"/>
	<path d="M740.5,1226.9c2.9-4.4,5.8-8.8,8.7-13.1c1.3,0.9,2.6,1.8,3.8,2.7c-3,4.3-6,8.6-9,13
		C742.9,1228.5,741.7,1227.7,740.5,1226.9z"/>
	<path d="M865.6,1055.2c3.6-3.4,7.3-6.9,10.9-10.3c0.4,7.7-2,12.5-8.1,13.7C867.4,1057.4,866.5,1056.3,865.6,1055.2z"/>
	<path d="M846,1063.1c4.3-5.4,8.7-10.9,13-16.3c0.1,9.4-5.1,14.1-13.1,16.2C845.9,1062.9,846,1063.1,846,1063.1z"/>
	<path d="M550.4,878.1c7.3-15.3,20.1-25.3,34.7-33.8c-2.4,6.5-0.6,15.5-11.6,16.1c-2.2,0.1-3.9,5.5-6.3,8.1
		c-4.3,4.5-8.9,8.7-13.4,13.1C552.7,880.4,551.6,879.3,550.4,878.1z"/>
</g>
</svg>
