<?xml version="1.0" encoding="utf-8"?>
<!-- Generator: Adobe Illustrator 19.2.1, SVG Export Plug-In . SVG Version: 6.00 Build 0)  -->
<svg version="1.1" id="Ebene_1" xmlns="http://www.w3.org/2000/svg" xmlns:xlink="http://www.w3.org/1999/xlink" x="0px" y="0px"
	 viewBox="0 0 1600 1600" style="fill: #ff0000; enable-background:new 0 0 1600 1600;" xml:space="preserve">
<g>
	<path d="M436.5,684.8c-2.3,0.2-5.3,0.4-7.5,0.6c3.3-10.4,6.4-20.9,10.2-31.2c0.8-2.3,3.8-4.4,6.2-5.5c6.8-3.1,10.4-6.6,11.2-15.4
		c0.6-6.5,7.9-12.7,12.8-18.6c10.8-12.9,24.5-24.2,32.4-38.7c10.2-18.9,26.6-30.3,41.6-43.8c8.2-7.4,15.1-16.2,23.6-23.1
		c7.1-5.7,15.9-9.3,23.7-14.1c9.3-5.6,18.1-11.9,27.6-17.2c9.9-5.6,20.1-10.9,30.6-15.2c7.5-3.1,15.8-4.4,23.8-6.2
		c1.3-0.3,3,1.6,7,3.8c-19,10-36.5,18.4-53.1,28.2c-29.7,17.5-55.9,39.7-79.8,64.4c-11.3,11.7-23.3,24-29.9,38.4
		c-8.1,17.4-23.8,28.8-30.9,46.3c-0.4,0.9-1.6,2.1-1.4,2.4c6.7,10-5.1,12.4-7.6,18.6c-1.9,4.7-5.2,7.7-1.8,14.5
		c2.4,4.6-2.6,13.2-4.7,19.9c-1.1,3.6-3,7-5,11.4c3,0.2,5.3,0.3,10.5,0.6c-4.7,3.8-7.6,6.2-10.8,8.8c-2.8,12.5-6.5,26.3-8.8,40.3
		c-1.7,10.2-1.9,20.7-2,31c0,2.8,2.7,5.6,5.2,10.6c-0.9,1-4.8,3.4-5.3,6.4c-1,5.2-2,12.5,0.7,16c4.7,6.1,2,12,2.8,17.9
		c2.5,18,4.3,36.2,7.7,54c1.1,6,6.8,11.1,9.1,17.1c2.7,7,3.8,14.5,6.1,21.7c0.4,1.3,3.1,1.9,5.2,3.2c-1.2,2.3-2.5,4.8-4.2,8
		c6.6-0.2,11.5,0.5,7.5,8.2c-0.5,0.9-0.1,2.6,0.4,3.6c4.4,9.5,8.7,19.1,13.6,28.4c2.3,4.4,5.8,8.1,8.6,12.3
		c8.2,12.2,15.5,25,24.6,36.5c18.5,23.4,36,48.3,57.6,68.5c16.7,15.5,38.8,25.6,59.2,36.7c14.8,8.1,30.7,14.3,46.4,20.8
		c4.9,2,10.6,2.1,15.9,3.1c25,4.8,50,9.7,74.3,14.4c-0.9,1.8-2.4,4.8-3.9,7.9c-12.8-0.6-26.3-3.2-39-1.4
		c-18.3,2.7-33.1-5.8-49.2-10.6c-4.5-1.3-9.5-4.2-13.5-3.2c-9.8,2.5-16.6-2.9-24.3-6.5c-3.2-1.5-6.3-3.2-9.5-4.6
		c-8.7-3.8-17.3-7.2-25.2,2c-1.5,1.7-4.5,2.2-7.9,3.6c0.1-2.5,0.2-4.1,0.3-5.5c-6.9,0-14,0-20.4,0c-1.4-4.8-2.5-8.6-3.7-12.9
		c-7.7,7.3-24.1,0.5-30.2-11.4c-7.2-0.5-15.9,2.3-16.9-10.1c-0.2-2.2-7.9-3.7-14.8-6.6c2.5,5.1,3.7,7.3,4.8,9.6
		c-0.4,0.4-0.9,0.8-1.3,1.1c-3.2-2.3-6.4-4.7-9.6-7.1c2.3-4.1,4.3-7.6,6.3-11.1c-0.3-1-0.6-2-1-3c-5.2,0.8-10.5,2.5-15.7,2.1
		c-4.4-0.4-9.5-2.2-12.8-5.1c-5-4.3-8.8-10.1-13-15.4c-2.5-3.1-4.4-6.7-7-9.7c-4.5-5.3-9.9-10-13.7-15.7c-2-3-1.6-7.7-2.5-12.6
		c-2.5,0.4-6.5,1-10.6,1.7c-0.2-0.4-0.3-0.9-0.5-1.3c1.4-0.9,2.8-1.8,6-3.9c-6.8-7.7-13.5-14.8-19.7-22.4c-2-2.5-2.8-6-3.8-9.2
		c-1.4-4.2-2.5-8.5-4.2-14c1.2-0.6,4.1-2.2,7.1-3.8c-13.4-3.5-13.4-3.5-5.8-19c-4.5-1.9-9-3.9-13.2-5.7c3.6-5,5.7-7.9,7.9-10.9
		c-6.8-1.3-3.9-7.1-5-11c-6.4-22.7-12.6-45.5-18.7-67.8c-3.1,0.9-6.1,1.8-9,2.6c14-12.6,4.4-27.4,5-40.5c0.4-9.4-1.2-19-1.2-28.5
		c0-3.2,2.5-6.3,3.3-9.6c0.7-3.4,2.2-8,0.6-10.3c-5.2-7.4-2.1-12.4,2.8-17.8c7-7.7,6.2-15-2-20.3c3.1-7.2,6.4-14.4,9.2-21.7
		c3.9-10.5,6.4-21.2,8.2-32.4C423,694.9,431.4,690.2,436.5,684.8z M442.5,724c-6.4,15.2-7.2,32-10.7,47.8
		c-8.4,38.1,10.8,151.4,27.7,164.7C439,865.9,432.6,795.8,442.5,724z"/>
	<path d="M1529.7,823.9c-2.2-16.7-3.8-33.5-6.9-50c-1.4-7.3-6.9-13.8-8.4-21c-6.2-30.1-10.3-60.8-17.6-90.6
		c-8.6-35.1-18.2-70.1-30.4-104.1c-10.4-28.9-24.7-56.4-38-84.2c-6.7-14.1-14.5-27.8-22.9-40.9c-11.4-17.9-26.3-33.9-34.9-52.9
		c-6.8-14.9-18.8-24.7-27.3-37.6c-10.2-15.7-24.7-28.8-37.9-42.4c-15.5-16.1-30.8-32.4-47.6-47.1c-15.1-13.2-32.6-23.7-47.9-36.7
		c-23.6-20-51.7-32.5-77.9-47.9c-15.6-9.2-33.1-15.2-49.8-22.4c-16.6-7.2-33.1-14.6-50-21c-12.3-4.6-25.1-7.7-37.7-11.4
		c-20.2-6-40.4-12-60.6-18c-9.7-2.9-19.4-5.7-28.8-9.2c23.3-6.4,185.8,49.5,248.1,83.3c78.7,42.8,146.4,98.7,203.2,167.8
		c56.3,68.5,101.3,143.5,129.5,228.2C1513.8,649.6,1533.3,735,1529.7,823.9z"/>
	<path d="M1518,947.4c-35.6,170-123.4,308.9-254.8,421.4c-82.5,70.6-179.9,112.7-281.8,145.8c-0.9-1.1-1.7-2.2-2.6-3.3
		c2.3-3,4-7.4,7.1-8.7c14.7-6.1,30-10.7,44.6-17.1c23.1-10.2,45.7-21.4,68.5-32.1c12.7-5.9,25.4-11.5,38.1-17.3
		c5.1-2.3,10.6-4.2,15.2-7.2c10.9-7.2,20.7-16.5,32.3-22c21-10,39.3-23.5,56.7-38.4c10.1-8.7,18.7-19.1,28.6-28.1
		c8.1-7.4,17.3-13.5,25.5-20.7c6.9-6.1,13.6-12.6,19.7-19.6c11.5-13.4,22.8-27,33.7-41c10.3-13.3,19.9-27.3,30-40.8
		c4.6-6.1,10-11.6,14.2-17.9c7.5-11.5,14.1-23.6,21.5-35.1c7.1-11.2,15-21.9,22.1-33.1c2.9-4.6,4.3-10.1,6.5-15.1
		c4.8-10.5,9.4-21.1,14.7-31.3c1.8-3.6,5.6-6.2,8.2-9.4c1.3-1.7,2.4-3.8,3-5.8c3.4-11.7,6.2-23.6,10.1-35.2c1.7-4.8,5.7-8.9,9.8-15
		c-2.8-7.5,0.1-14.5,7.4-23.4c8.3-10.2,10.9-25.1,15.8-38.1c1.5-4.1,2.3-8.4,3.3-12.7C1516.2,946.4,1517.1,946.9,1518,947.4z"/>
	<path d="M630.5,714.6c-7.5-21.2-2.4-40.1,10.1-57.5c13.3-18.4,33-26.7,54-32.2c3.5-0.9,7.9,1.7,11.9,2.5c8.2,1.6,16.5,2.7,24.5,4.9
		c3.9,1.1,7.4,4,10.9,6.3c3.7,2.4,7.8,4.6,10.8,7.9c5.4,5.9,10.9,11.9,14.7,18.9c4.4,8.1,7.8,16.9,10.2,25.8
		c1.6,5.9,4.8,12.9-1.8,18.7c-1,0.9-0.2,3.7-0.6,5.5c-1.1,4.4-1.6,9.2-3.9,12.9c-4.2,7-9.1,13.8-14.6,19.9
		c-3.2,3.6-7.9,6.3-12.3,8.5c-12.4,6.2-23.1,16.9-38.7,14.8c-3.7-0.5-7.3-1.4-11-3c16.7-2.1,32-6.9,43.8-19.3
		c11.9-12.4,18.4-27.3,16.7-44.6c-3.7-38.2-27.3-61.3-64.1-62.5c-19.2-0.6-34,9.2-47,22.8C630.4,679.1,630.1,696.6,630.5,714.6z"/>
	<path d="M699.2,983.1c-33.1,2.1-63.9-24.7-68.2-56.4c-2.1-15.4-0.4-31.5,10.3-45.7c5.7-7.5,10.8-15.4,17.2-22.5
		c11.6-12.9,26.8-15.8,42.6-16.5c29.3-1.2,50.5,14.9,64,41.9c5.9,11.9,7.8,22,6.6,34.9c-2.1,23.5-12.1,40.2-32.4,52.6
		C726.1,979.4,712.9,984,699.2,983.1z M696.8,980.3c35.6,0.1,63.2-26.5,63.4-61.1c0.2-34.8-25-60.5-60.3-59.6
		c-39.5,0.9-60.5,25.2-63.4,59C633.5,953.2,669.5,982.3,696.8,980.3z"/>
	<path d="M985.8,681.3c0.5,5.4,1.6,10.7,1.3,16c-0.3,4.9-2.1,9.6-3.4,14.4c-0.9,3.1-1.9,6.1-3.1,9c-1.9,4.5-3.9,9.1-6.3,13.3
		c-2,3.6-6.1,6.4-6.9,10.1c-1.9,8.7-8.6,11.8-15.1,15.4c-5.6,3.1-11.2,7.2-17.3,8.5c-25.5,5.5-47.5,0.4-66.3-19.8
		c-11.8-12.7-20.9-25.9-22.9-43c-2.8-23.2,2.1-43.2,21.3-59.7c18.9-16.4,39.5-20.9,63-17.5c25.4,3.8,41.7,19.2,52.4,41.6
		c1.5,3.2,3,6.4,4.4,9.6c0.2,0.5,0.1,1.3,0.1,1.9C986.5,681.3,986.2,681.3,985.8,681.3z M850.9,702c-5,30.9,33.6,58.8,58.6,59.7
		c32.6,1.2,64-26.4,66.5-57.4c3.4-41.9-27.8-66.2-56.3-67.2C884.8,636,851.1,652.9,850.9,702z"/>
	<path d="M963.6,871.9c2.8,4,4.8,7.8,7.7,10.8c15.1,15.8,18.1,45.1,5.5,63.1c5.3-16.9,1.1-32.8-5.1-48.1
		c-9.7-23.9-28.2-36.7-53.7-39.3c-22.9-2.4-40.9,6.3-53.7,25.2c-21.8,32.1-15.8,64.6,15.7,87.2c5.4,3.9,10.7,7.8,18.1,13.3
		c-6.1-1.3-10.8-1.2-14.3-3.3c-9.5-5.8-18.6-12.3-27.5-19c-2.9-2.2-5.8-5.7-6.7-9.1c-3-11.6-6.7-23.4-7.2-35.2
		c-0.4-10.1-4.3-17.9-8-26.5c-1.8-4.1-2.6-9.9-1.1-13.9c1.9-5.1,6.5-6.6,13.4-5.7c6.3,0.8,13.5-2.9,19.7-5.9
		c6.3-3,12.1-7.1,17.7-11.4c10-7.6,37.9-8.4,48.1-1.2c8.8,6.2,17.8,12.2,26.9,18C960.7,871.8,963,871.8,963.6,871.9z"/>
	<path d="M398.6,888.1c0.6,0.4-0.6-0.4-2-1.2c0.6-0.5,1.2-1.3,1.4-1.2c2.3,1.2,5.9,2.2,6.4,4c1.6,5.5,2.3,11.2,2.8,16.9
		c0.4,4.4-0.2,8.9,0.3,13.3c0.3,2.8,1.8,5.5,3,8.8c-5.5,2.2-7.7-0.7-8.6-6.5c-1.1-7-2.9-14-3.9-21
		C397.5,897.8,398.2,894.2,398.6,888.1z"/>
	<path d="M815.5,1188.8c-2.7,1.6-5.8,3.4-8,4.7c-4.3-4.6-9.4-9.9-14.3-15.2c3.5-1.6,7.7-3.4,11.9-5.3
		C808.3,1177.8,811.9,1183.3,815.5,1188.8z"/>
	<path d="M559.8,1497.9c-17-6.4-34-12.7-51-19.1c0.4-1,0.7-2,1.1-2.9c17.1,6.2,34.2,12.4,51.2,18.5
		C560.7,1495.6,560.2,1496.8,559.8,1497.9z"/>
	<path d="M943.5,1520.3c10-0.6,17.7-11.3,28.9-6.4c0.2,0.9,0.4,1.9,0.6,2.8c-9.6,2.1-19.3,4.2-28.9,6.3
		C943.9,1522.1,943.7,1521.2,943.5,1520.3z"/>
	<path d="M407.4,938.6c7.7-6,9.4-4.2,13.8,13.8c-5.3-1.6-6.6-3.5-8.6-9.7C412.2,941.2,409.6,940.3,407.4,938.6z"/>
	<path d="M90.7,992.2c-2.4-12.5-4.8-25.1-7.2-37.6c0.6-0.1,1.2-0.3,1.9-0.4c3,12.3,6,24.7,9.1,37C93.1,991.5,91.9,991.8,90.7,992.2z
		"/>
	<path d="M955.9,973.3c-9,4.1-18,8.1-26.9,12.2c-0.5-1-0.9-2.1-1.4-3.1c9-4.2,18-8.3,26.9-12.5C955,971.1,955.4,972.2,955.9,973.3z"
		/>
	<path d="M833.5,1177.6c0,3,0,6,0,10.1c-2,0.7-5.1,1.8-8.2,3c-0.6-0.6-1.3-1.3-1.9-1.9c2.6-4.4,5.2-8.8,7.7-13.1
		C831.9,1176.3,832.7,1176.9,833.5,1177.6z"/>
	<path d="M873.8,1179.8c-5.8,1-11.6,2-17.3,3c-0.2-1.1-0.4-2.1-0.6-3.2c5.7-1.3,11.5-2.6,17.2-3.8
		C873.3,1177.1,873.5,1178.4,873.8,1179.8z"/>
	<path d="M687.2,456.1c2.5-2.6,5-5.3,7.7-7.6c0.3-0.3,2.3,1.4,3.4,2.1c-2.4,2.9-4.8,5.8-7.2,8.7
		C689.8,458.3,688.5,457.2,687.2,456.1z"/>
	<path d="M108.9,1038.7c2,7.3,3.9,14.7,5.9,22c-0.7,0.2-1.4,0.4-2,0.6c-2.4-7.2-4.8-14.5-7.2-21.7
		C106.6,1039.2,107.7,1039,108.9,1038.7z"/>
</g>
</svg>
