<svg version="1.1" id="Ebene_1" xmlns="http://www.w3.org/2000/svg" xmlns:xlink="http://www.w3.org/1999/xlink" x="0px" y="0px"
	 viewBox="0 0 1600 1600" style="fill: #ff0000; enable-background:new 0 0 1600 1600;" xml:space="preserve">
<g>
	<path d="M27.1,1142c14.4,2.5,23.7,21.5,22.8,31c-0.2,2.6-0.3,5.4,0.4,7.9c3.8,13.5,7.8,26.9,12,40.3c0.8,2.7,2,5.8,4,7.6
		c4,3.7,7.7,11.7,14.1,5.8c1.8-1.7-0.7-11.7-4.1-14.7c-7.3-6.6-7.5-13.7-7.5-22.6c0-10-3.7-19.9-5.7-29.9
		c-3.8-18.9-8.1-37.8-11.3-56.9c-2.4-14.6-4-29.4-4.9-44.2c-0.3-4.6,3.6-9.4,4.3-14.3c1.5-11.3,2.1-22.8,3.3-34.2
		c0.5-4.7,1.8-9.3,2.5-14c0.4-2.8,0.6-5.7,0.3-8.6c-0.8-7.4-2.6-14.8-2.6-22.2c-0.1-8.1,2.3-16.3,1.9-24.4
		c-1.1-22.4,4.7-43.3,11.9-64.2c5.9-17.1,9.7-35,15.2-52.3c8.7-27.1,14.7-55.8,28.4-80.2c11.7-20.8,17.8-42.8,26.5-64.3
		c2.8-7,9.7-12.2,13.5-18.9c7.3-12.8,13.6-26.2,20.8-39.2c2.8-5.1,6.8-9.7,10.4-14.4c8.1-10.9,12.8-22.4,13.2-36.8
		c0.3-11.8,6.9-22.5,18.5-28.8c4-2.2,7.5-6,10.3-9.8c9.2-12.1,18.4-24.1,26.7-36.8c4.5-6.9,7.3-15,10.5-22.7
		c0.5-1.2-0.7-3.9-1.9-4.7c-6.9-4.6-14-8.8-22.1-12.9c12,13.7,1.8,23.2-5.1,33.4c-2.3,3.3-4.2,6.9-6.5,10.3
		c-3.9,5.7-7.7,11.5-11.9,17c-1.8,2.3-5.1,3.4-6.8,5.7c-12.7,17.1-25.6,34.1-37.4,51.8c-3.1,4.7-2.5,11.8-3.1,15.1
		c-9,9.3-16.6,17.1-24.3,25c-1.1-0.5-2.3-1.1-3.4-1.6c1.2-6.2,1.3-13,3.9-18.5c6.4-13.4,13.8-26.3,21.1-39.2
		c1.4-2.4,4.5-3.7,6.5-5.8c1.8-2,4.8-5.4,4.2-6.7c-4.2-8.5,2.2-12.9,6.1-18.6c10.1-15.1,19.2-31,30-45.5c18-24.1,36.2-48.2,55.9-71
		c22-25.5,44.9-50.4,69.1-73.8c28.1-27.3,57.4-53.6,87.4-78.7c22.6-19,46.5-36.9,71.3-52.8c31.9-20.4,65.2-38.5,98.2-57.3
		c14.2-8.1,28.7-15.8,43.6-22.5c65.7-29.7,131.4-59.6,202.9-73.8c26.6-5.3,52.4-14.6,79.1-18.7c30.1-4.7,60.7-7.1,91.2-8
		c113.3-3.3,219.8,21.7,316.3,82.6c64.6,40.7,115.4,95.9,160.3,157.2c53.9,73.5,79.3,156.8,88.6,246.1
		c6.5,63.4-2.4,125.6-14.4,187.6c-10.6,54.8-28.3,107.3-48.8,158.8c-12.8,32.1-27.7,63.4-43.9,94c-19.4,36.8-40,73-62.3,108.1
		c-16.7,26.3-36.8,50.5-55.4,75.5c-38.9,52.2-85,97.9-132.4,142c-31.6,29.3-65.9,55.8-100.2,82c-53.7,41-111.9,75.1-173,103.7
		c-60.3,28.3-121.1,56.1-186.5,71c-43.4,9.9-87,19.7-131,26.4c-56.3,8.5-113.4,13.8-170.1,5c-35.5-5.5-70.9-14-104.9-25.3
		c-25-8.3-47.2-24.7-71.7-35c-16.9-7.1-32.8-14.8-46.8-26.5c-20.7-17.3-42.5-33.4-62.2-51.7c-16.4-15.3-32.1-31.9-45.4-49.9
		c-18.7-25.2-35.6-51.7-51.5-78.8c-4.4-7.4-11.3-16.4-7.4-27.3c0.4-1-2.8-3.2-4-5c-7.6-11.4-18-20.5-16.7-37.3
		c0.8-10.6-7.8-21.7-10-32.9C33.4,1179.9,20.8,1163,27.1,1142z M1392.1,224.1c-0.2,0.4-0.3,0.8-0.5,1.1c-3.2-4.7-5.7-10.2-9.7-14
		c-40.5-38.7-85.1-72.1-136-95.9c-58.4-27.4-119.5-45.9-184.3-49.8c-11-0.7-22.4,1.9-33.1-0.1c-36.6-6.7-73.1-1.8-108.6,3.7
		c-58.3,9-115.8,23-170.4,46.6c-11.5,5-24.2,7.3-35.5,12.6c-38.4,17.7-76.8,35.4-114.5,54.6c-22.7,11.6-44.1,25.7-65.8,39.2
		c-16.1,9.9-31.9,20.3-47.4,31c-13.9,9.6-27.9,19.2-40.5,30.4c-21,18.8-40.9,38.8-61.3,58.3c-17.1,16.3-34.5,32.3-51.3,48.9
		c-10.4,10.3-20.1,21.3-29.8,32.4c-6.1,6.9-8,17.2-19.1,20.4c-3.2,0.9-7.3,11.2-5.8,13.2c4.8,6.4,10.7,1.8,14.9-2.6
		c5.4-5.6,9.7-12.2,15.2-17.6c22.5-22.2,45.1-44.4,68-66.3c30.2-28.9,61.2-56.6,96.5-79.4c20.8-13.4,40.5-28.6,61.3-42.1
		c27.3-17.7,54.6-35.7,83.1-51.4c27.5-15.2,56.3-28.2,84.9-41.4c45.4-21,92.8-36.1,141.7-46.7c49.3-10.7,99.4-13.3,149.7-13.6
		c7.4,0,14.8-1,22.1-0.1c17.5,2.2,34.9,5.6,52.4,7.7c6.6,0.8,13.5-0.9,20.3-1.3c1.8-0.1,3.6,0.1,5.3,0.6c22,7.3,43.8,15.3,66,21.9
		c17.3,5.1,35.4,7.9,52.7,13c9.1,2.6,17.3,8.1,25.9,12.1c6,2.8,11.9,6.6,18.3,8.1c17.1,4.1,32.5,11.2,46.7,21.7
		c6.7,5,14.9,10.4,22.6,0.4c1.8,5.1,2.1,11.4,5.1,13.2c9.1,5.5,18.8,9.9,26.9,17.4c10.5,9.7,21.7,18.6,32.6,27.8
		c5.3,4.4,10.7,9.1,19.7,2.3C1403.8,234.4,1398,229.2,1392.1,224.1z M787.8,1063.7c42.8,0.3,78.1-34.8,78.4-78
		c0.4-42.2-34.7-77.8-77-78.3c-42.8-0.5-78.7,34.7-78.9,77.5C710.1,1028.2,744.7,1063.3,787.8,1063.7z M1060.9,808.3
		c0.2-42-35.4-77.3-78-77.3c-42.7,0.1-78,35.1-78,77.3c0,40.9,34.9,75.6,76.8,76C1024.5,884.8,1060.8,850,1060.9,808.3z
		 M725.6,615.1c-0.4,42.6,33.4,77.5,75.5,77.8c41.8,0.3,76.4-33.4,77-75.2c0.7-43.2-33.2-78.7-75.5-79.2
		C760.8,538.2,726,572.7,725.6,615.1z M610.7,712.8c-42.9-0.1-77.3,33.8-77.2,75.9c0.1,40.6,35,74.7,76.3,74.6
		c42.5-0.1,77.1-33.6,77.4-74.9C687.5,747.3,652.7,712.9,610.7,712.8z M693.3,1502.6c7.2,4.9,16.1,10.7,26.2,0.9
		c0.9-0.9,2.8-0.7,4.1-1.2c9.3-2.9,18.6-5.8,27.9-8.7c2.7-0.8,5.2-2.1,8-2.5c5.3-0.7,11.1,0.2,16-1.6c22.8-8.2,44.7-19.5,68.1-24.9
		c17.9-4.1,30.7-20.4,50.2-18.5c0.6,0.1,1.3-0.7,1.9-1.1c14.3-8.1,28.7-15.9,42.7-24.3c10.7-6.4,20.7-13.8,31.2-20.5
		c6.5-4.1,13.2-7.9,20-11.4c9.8-5.1,20.7-8.5,29.5-14.8c19.1-13.8,36.9-29.3,55.7-43.5c3.5-2.7,8.4-3.9,4-8.4
		c-2.2-2.2-8.4-2.9-11.2-1.4c-11.9,6.4-23.2,14-34.9,20.8c-12,7-24.1,13.8-36.2,20.6c-23,12.8-45.6,26.6-69.4,38
		c-18.3,8.8-38,14.7-57.1,21.8c-14.2,5.2-28.4,11-42.9,15.1c-19.4,5.5-39.2,9.4-58.7,14.3c-10,2.5-19.7,6-29.6,8.8
		c-8.7,2.5-17.6,4.3-26.2,7.1c-10,3.2-19.9,6.7-29.6,10.8c-5.2,2.2-10.6,5.1-14.5,9c-7.1,7.1-10.3-2.2-15.4-2.7
		c-0.7-0.1-1.4,0.3-3.1,0.8c0,3.5,0,7.2,0,9.5c-6.4-0.3-11.7-0.6-17.1-0.9c0.4,7.3,0.8,14.5,1.1,20.4
		C656.7,1516.3,675.8,1515.7,693.3,1502.6z M1473.6,856.6c1.8,0.1,3.5,0.1,5.3,0.2c6.9-16.2,14.7-32.1,20.4-48.8
		c10.5-31,24-60.9,31.3-93.2c8.6-37.9,15-75.9,16.2-114.6c1.4-47.5-1.7-94.6-16.4-140.3c-6.8-21.2-12.6-42.8-20-63.8
		c-3.1-8.8-9.5-16.4-14.3-24.5c-0.9,0.4-1.9,0.8-2.8,1.2c0.6,3.4,0.7,7.1,1.8,10.3c4.5,13,9.6,25.8,14,38.8
		c3.8,11.4,7.9,22.8,10.2,34.6c2.8,14.5,2.6,29.7,6.1,43.9c6.1,25.2,6.1,50.9,4.1,76c-3.3,41.7-9.7,83.3-16,124.7
		c-3,19.9-7.3,39.9-13.4,59.1c-9.3,29.2-25,56.4-28.7,87.5C1471,850.6,1472.8,853.7,1473.6,856.6z M1484.4,358.3c1-0.5,2-1,3-1.4
		c1-9.3-15-36.4-25.7-37.2C1469.2,332.6,1476.8,345.5,1484.4,358.3z M1034.2,736.3c10.5,11.4,21,22.8,31.4,34.2
		C1061.1,753.7,1049.8,743,1034.2,736.3z M867.4,940.1c1.1-0.7,2.1-1.5,3.2-2.2c-8.8-9.4-17.5-18.8-26.3-28.2
		c-1,0.9-2.1,1.9-3.1,2.8C849.9,921.7,858.6,930.9,867.4,940.1z M1427.7,268.7c3.5-10-4.2-13.5-9.1-17.9c-0.8-0.7-4.9,2.1-7.6,3.4
		C1417.2,259.6,1421.7,263.6,1427.7,268.7z M775.7,700.3c0.6-1.3,1.1-2.6,1.7-3.8c-8.4-4.2-16.9-8.5-25.3-12.7
		c-0.4,0.8-0.9,1.7-1.3,2.5C759.1,691,767.4,695.7,775.7,700.3z M630,1515.6c-1.7-5.9-3.3-11.9-5-17.9
		C617.8,1502.8,618.1,1504.5,630,1515.6z"/>
	<path d="M1292.5,1230.1c-0.5,2.5-0.1,6.1-1.6,7.5c-28.7,26.4-57.7,52.6-86.6,78.8c-0.4,0.3-1.3,0-5.3,0c9-7.5,16.5-12.9,23-19.2
		c11.3-11,21.7-23.1,33.2-33.9c11.9-11.2,24.6-21.6,37-32.3C1292.4,1230.9,1292.5,1230.6,1292.5,1230.1z"/>
	<path d="M1292.5,1230.1c0,0.5-0.1,0.8-0.3,0.9c2-3.6,3.3-8.1,6.2-10.6c6.8-5.8,14.4-10.7,22.2-15.5
		C1312,1214.1,1307.2,1227.3,1292.5,1230.1z"/>
</g>
</svg>
