<?xml version="1.0" encoding="utf-8"?>
<!-- Generator: Adobe Illustrator 19.2.1, SVG Export Plug-In . SVG Version: 6.00 Build 0)  -->
<svg version="1.1" id="Ebene_1" xmlns="http://www.w3.org/2000/svg" xmlns:xlink="http://www.w3.org/1999/xlink" x="0px" y="0px"
	 viewBox="0 0 1600 1600" style="enable-background:new 0 0 1600 1600;" xml:space="preserve">
<g>
	<path d="M1163.4,475.6c3.2-1.6,6.3-4,9.3-6.6c-1-0.4-2.1-0.7-3.1-1.1C1167.6,470.5,1164.1,473,1163.4,475.6z"/>
	<path d="M1081.3,470.1c3.4,3.5,6.1,6.9,7.7,10.4c5.2-2.5,10.5-4.8,16-7c-5,3.6-5,11,0.6,19.6c2.9-6.2,5.4-11.2,7.5-16.4
		c0.5-1.2-0.3-3.9-1.1-4.2c-1-0.3-2.2-0.5-3.4-0.4c6.2-2.4,12.5-4.5,18.9-6.6c-0.5-2.1-1-4.3-1.6-6.6
		C1110.4,461,1095.1,464.3,1081.3,470.1z"/>
	<path d="M1550.1,755c-1.8-35-4.6-69.7-13-103.8c-1.8-7.3-5.8-14.4-6.3-21.7c-1.4-21.6-4.9-42.1-18.5-59.8c-1.3-1.7-2.8-5.3-2-6.3
		c6.1-7.3,2.4-14.8-0.4-21.1c-5.9-13.1-4.9-30.2-20.5-38.4c-1.2-0.6-1.1-4.1-1.3-6.2c-0.4-4.1,0.6-8.7-1-12.2
		c-5.2-11.8-10.8-23.5-17.1-34.7c-3.5-6.2-8.9-11.4-13.9-17.6c1.6-4.7-4.5-22.3-9.9-25.2c-1.3-0.7-4.2-1-4.6-0.4
		c-2.9,4.7-5.4,9.6-8.6,15.6c7.5-0.6,12.2-0.9,16.8-1.2c-0.4,5.4-0.8,10.8-1.2,16.1c-1.3,0.4-2.6,0.9-3.8,1.3
		c-5-5.7-13-10.9-14.1-17.3c-1.4-8.7,2.5-18.3,4.3-28.6c-1.1-0.3-4-1.2-5.3-1.6c-3.6,5.3-6.2,9.1-8.8,13c-2.3-2.9-4.6-5.7-7.5-9.4
		c-2.6,2.5-5.4,5.3-8.2,8.1c-0.9-6.8-5.6-15.1,6.6-14.7c1.1,0,3.3-2.8,3.2-4.2c-0.1-1.4-2.2-3-3.8-4c-5.2-3.4-10.6-6.6-15.9-9.8
		c0.3-1.2,0.6-2.5,0.9-3.7c-5.2,1.5-10.5,3.1-17.1,5.1c0.4-1.8,1.1-4.3,1.7-6.8c1.1-4.6,2.3-9.2,3.4-13.8c-3.8-0.7-7.6-1.4-12.2-2.3
		c-1.3-1.9-3.3-5.1-6.6-10.2c-1.4,4.3-1.7,5.9-2.4,7.4c-0.8,1.7-1.8,3.3-2.7,5c-2.8-2.4-3.3-4.8-3.5-7.2c-0.1-1.8,0.9-4,0.2-5.4
		c-6-12.3-5.7-13.4,6.1-20c-2.9-4.8-5.8-9.7-8.7-14.5c0.7-0.5,1.5-1,2.2-1.4c1.8,0.8,3.6,1.6,3.4,1.5c0.6-2.6,1.9-5.3,1.8-7.9
		c-0.4-9.2-17-26.6-22.2-22.5c0.3,2.3,0.6,5,1.2,10.5c-5.3-2.7-8.8-4.5-13.3-6.9c-5.2,5.1-11.3,11.2-17.9,17.7
		c-13.7-4.5-15.6-8.3-12.5-22.9c0.8-3.5-1.3-7.7-2-11.7c-5.1,5.1-8.8,8.7-12.5,12.3c-1.3-4.3-2.6-8.7-4.4-14.6
		c-2.5,3.5-5.2,7.3-8.3,11.7c-3.6-6.6-5.8-13.7-10.5-18.6c-5.5-5.9-13.7-9.2-19.4-14.9c-6.7-6.8-22.6-7.2-15.2-24.9
		c-13.8,5-11.1-4.5-12.1-8.4c-5.1-2.2-9.3-3.1-12.4-5.5c-5.4-4.2-9.5-6.1-14.2,1c-1.4,2.1-5.4,2.4-8.3,3.5c0.4-1,0.8-2.1,1.2-3.1
		c-3.2-3.6-6.4-7.2-9.8-10.9c2.8-11.1,5.9-23,9-34.9c-8.1-11.9-12.4-11.6-19.3,2c-11.2-7.6-7.4-16.7-1.7-26.8
		c-5.1,0.8-8.5,1.4-12.1,1.9c0.9-7.8-7-13.4-22.3-16.9c0.6,1.7,1.2,3.6,1.2,3.4c-6.4-1.4-13.3-2.3-19.7-4.4
		c-2.8-0.9-5.2-3.7-7.2-6.2c-3-3.6-5.5-7.5-8.5-11.8c-4.2,7.4-6.9,12.3-10.4,18.4c-2.1-2.1-6.1-4.3-6.6-7.1c-1.3-6.9-5-7.9-11.2-8.9
		c-5.5-0.9-10.5-5.2-15.7-8c0.5-1.1,1-2.1,1.5-3.2c5.5,0.9,11,1.8,16.4,2.7c0.1-0.7,0.2-1.4,0.4-2.1c-11.3-3.3-22.6-6.6-32.4-9.4
		c1.4,5.5,2.6,10.4,3.9,15.4c-11.7-12.7-23.5-23.1-39.9-26.7c-11.1-2.4-22.4-4.2-33.7-5.8c-2.4-0.4-5.1,1.1-7.7,1.7
		c-0.6,1.2-1.1,2.3-1.7,3.5c17.2-0.3,16.1,15.7,24.5,23.2c1.2,1.1,2.7,1.7,4.5,2.8c1.8-3.2,3.3-5.9,6-10.5
		c5.3,12.6,8.1,25.3,22,28.5c0.9-1.9,1.8-3.8,2.8-5.8c8.3,12.7,21.6,6.8,31.7,10.6c3.1,1.1,8.4,4,8.2,4.8c-2,7.1,7.3,16.7-4.3,21.5
		c-1,0.4-3.1,0-3.8-0.8c-6.3-6.7-14.4-4-22-4.9c-4.7-0.6-9.2-2.6-13.7-4.5c-7.5-3.2-14.6-8.9-22.1-9.6c-10.1-0.8-20.5,2.2-31.4,3.7
		c3.3,3,5.9,5.4,10,9.1c-17,1.4-15.1-14.4-23.5-21.7c3.1,13.4-8.8,12.5-11.4,11.5c-4.6-1.9-7.4-8.3-10.9-12.9c0.7-0.7,1.5-1.4,2.2-2
		c-5.9,0.4-11.8,0.8-17.8,1.2c-1.5-2.7-3.8-4.7-5.3-4.3c-5.8,1.8-9.4,0.4-12.7-4.8c-2.8-4.5-7-8.2-10.7-12.4
		c-4.3,9.2-7.9,17-12.4,26.7c-4-7.4-6.6-12.3-9.3-17.2c-2.5,3-5,6-7.2,8.7c-6.4-4.1-12.1-7.5-17.6-11.3c-5.8-4-10.4-8.5-7.9-16.8
		c1.1-3.7,0.2-8.1-0.1-12.1c-0.9-10.8-10.2-14.5-17.9-17.1c-3.4-1.1-10.2,5.3-14,9.6c-4.5,5.1-6.9,4.4-9.5-1c-0.8-1.6-1.1-3.4-1.6-5
		c-7.5,3.1-14.3,5.9-21.2,8.7c-0.7-0.9-1.3-1.8-2-2.8c2-3.5,4.1-7,6.7-11.4c-6.7,0.5-12.8,1-18.5,1.4c-1.5,4-2.9,7.7-4.2,11.4
		c-0.8,0.2-1.6,0.3-2.5,0.5c-2.3-11.8-7.3-12.2-13.4-4.2c-3.6-2.2-6.4-4-9.3-5.7c-0.1,1.1-0.3,2.2-0.4,3.3c-4.9-0.3-10,0.3-14.5-1.2
		c-14.4-4.8-36.5,4.1-40.9,16.6c-5.3,0.3-10,0.5-16.8,0.9c3.3-3.9,5-5.8,6.7-7.8c-6.4-0.8-13-1.1-17.1,1.9
		c-13.2,9.6-29.3,7.4-43.5,12.4c-9.1,3.2-20.7,0.8-26.1,12.5c-1,2.2-6.3,4.7-8.3,3.9c-10.6-4.2-19.3,1.3-28.2,4.8
		c-12.7,5-12.5,5.2-6,16.6c0.8,1.3,0.6,3.1,0.8,4.1c-4.4,2.7-8.1,5-12.2,7.6c-1.5-4.8-2.9-9.3-4.3-13.8c-1.2,0-2.5-0.1-3.7-0.1
		c-1.7,8.1-3.9,16.2-4.9,24.3c-0.9,7.4-2.4,14.3-10.8,15.3c-5.9,0.7-12.1-0.6-19.6-1.1c0,7.2-3,17.2,0.6,23.2
		c7.1,11.8-0.1,21-2.1,31.7c-2.7-5.7-5.4-11.4-8.2-17.2c2.5-1.4,5.3-3,6.1-3.5c-1.7-6.6-3.6-11.6-4.3-16.8
		c-0.7-5.7,0.1-11.5-0.7-17.2c-0.4-2.8-2.3-6.9-4.5-7.6c-2.6-0.8-6.2,1-9.2,2.3c-3.7,1.7-6.9,4.5-10.7,5.8
		c-8.5,3.1-17.8,4.4-25.6,8.7c-9.7,5.3-18.3,12.8-27.2,19.5c-5.3,4-10.3,8.4-15.6,12.5c-7.4,5.7-15.3,10.7-22.2,16.9
		c-5.8,5.1-9.8,15.4-15.8,16.4c-13,2.1-14.7,11.1-17.2,17.9c-3.9,1.5-7.1,1.7-8.5,3.5c-5.6,7.2-8.5,17-19.9,18.1
		c-1.7,0.2-3.4,3.1-4.7,5.1c-4.6,6.7-10.8,11.7-16.6,17.2c-17.6,16.5-32.4,35.9-47.9,53.7c3.8,5.1,5.8,7.9,7.1,9.6
		c-5.5,1.1-12,0.3-14.3,3.1c-9.4,11.6-18.3,23.7-26,36.5c-5.9,9.8-8.7,21.4-14.5,31.1c-7.2,12-8.1,20.9-0.3,31.7
		c0.8,1,1.7,2.6,1.4,3.7c-2,7.7-4.4,15.4-6.6,23.1c-1-0.2-1.9-0.3-2.9-0.5c0.4-6.6,0.8-13.1,1.3-19.7c-1.4-0.2-2.9-0.4-4.3-0.6
		c-0.9,5.4-1.8,10.8-2.7,16.2c-2,11.8,1.2,25.9-14.6,31.6c-1.6,0.6-2,4.4-3.9,8.7c8.9-3.8,14.8-4.5,18.4,4.3
		c-9.2,2.9-12.7,8.3-9.5,17.7c0.9,2.8-1.4,6.6-2.2,10c-1.4,0-2.9,0-4.3-0.1c-0.3-8.1-0.6-16.3-0.9-24.4c-0.7,0-1.5-0.1-2.2-0.1
		c-2.1,7.2-4.2,14.4-6.3,21.5c-0.3-0.1-0.6-0.3-0.9-0.4c-0.2-8.5-0.3-16.9-0.5-25.4c-1-0.3-2.1-0.6-3.1-0.9
		c-4.6,5.8-11,11-13.4,17.7c-8.1,22-16,44.2-21.7,66.9c-8.1,32.3-15.1,64.9-21.1,97.6c-9.6,53.1-13.2,106.6-9.6,160.5
		c0.8,12.4,4.8,24.6,6,37c1.6,17.5,0.1,35.4,3.2,52.6c5.6,31.4,12.9,62.6,21,93.4c5.3,20.5,13.2,40.3,19.8,60.2
		c4.5-3.2,7.4-5.3,10.3-7.3c6.2,11.2,5.6,12.8-7.1,15.9c12.5,25.7,24.8,51.1,36.7,75.6c5.1-2,7.7-2.9,10.2-3.9
		c0.2,3.1,0.3,6.1,0.6,9.2c0.4,4.7-0.5,10.3,1.7,14c11.7,19.7,23.7,39.4,36.7,58.3c36.7,53.4,82.7,98.2,133,138.6
		c12.6,10.1,25.5,19.8,38.3,29.6c11.7,8.9,23.6,17.6,35.4,26.3c3.1-4.2,4.5-6,4.4-6c4,4.7,6.8,10.2,11.4,12.9
		c22.2,13.1,44.4,26.5,67.6,37.7c60.1,29,122.9,49.8,189.2,59.1c20.8,2.9,41.9,3,62.9,5c13,1.2,26,5.3,38.9,4.7
		c44.8-2.3,89.5-5.9,134.2-9.5c9.4-0.7,19.1-2.2,22.6-12c2.7,2.3,5.3,6.4,7.2,6c14.2-2.6,4.8-14.4,8.8-23.6c5.2,1.5,13.2,1.3,15.9,5
		c8.2,11.1,17.4,10.7,28.5,6.8c9.3-3.3,19.1-5.2,28.2-8.9c35.9-14.6,71.6-29.5,107.3-44.7c3.1-1.3,5.1-4.9,7.7-7.4
		c4.8-1.5,10.6-2.4,15.4-5c57.4-31.2,110-69,157.4-113.9c8.9-8.5,14.9-21.2,25-27c11.2-6.4,18.6-15.2,26.9-24.1
		c38.4-41,69.3-87.3,95.6-136.7c5.3-10,14.4-19.9,9-33.3c-0.5-1.2,0.7-3.1,1.4-5.5c2.3,1.5,4,2.5,6,3.8c1.5-2.7,2.7-4.7,3.8-6.8
		c29.7-61.3,49.3-126.1,63.2-192.5C1547.2,881.6,1553.3,818.6,1550.1,755z M174.3,1101.5c0.7,1.6-5.3,7.1-8.9,9.7
		c-2.8,2-6.7,2.4-10.1,3.5c-0.2-1.3-1-2.8-0.6-3.9c2.9-6.7,2.9-12.3-6.6-15.6c3.8-2.1,6.1-3.5,10.8-6.1
		c-16.1-2.9-27.4-8.8-31.1-23.6c-0.4-1.8-2.2-3.5-3.8-4.6c-2.9-2-6-4.6-9.3-4.9c-7.6-0.7-7.5-3.9-4.6-9.4c3.2-5.9,6.2-12,9.7-18.9
		c4.1,11.7,5.5,22.1,10.9,29.6c5.5,7.7,14,14.9,26.8,10.3c-0.5-7.5-1-15.7-1.5-23.9c1.1-0.8,2.2-1.6,3.3-2.4
		c6.4,4.2,12.8,8.4,20.7,13.6c-5.4,3.4-8.7,5.4-12.7,8c4.3,4.2,9,8.5,0.4,12.7c5.5,3.5,10,6.3,16,10.1
		C175.8,1090.1,170.5,1093.1,174.3,1101.5z M113.8,801.2c-1.3-0.1-2.6-0.2-3.9-0.2c0.4-8.1,0.8-16.2,1.3-24.3
		c1.6,0.1,3.2,0.1,4.8,0.2C115.2,784.9,114.5,793,113.8,801.2z M113.6,974.5c-1.6-1.3-4.6-2.5-4.7-3.9c-0.2-5.8,0.4-11.6,0.7-17.4
		c0.6,0,1.2-0.1,1.9-0.1c1.4,5.4,3.1,10.8,4.2,16.3C115.8,971,114.3,972.8,113.6,974.5z M103,737.3c3.8-12.1,7-22.1,10.6-33.6
		C122.7,718.8,119.9,728.1,103,737.3z M102.2,697.3c-1-0.1-2-0.3-3.1-0.4c-1.7-7.3-0.4-14.1,0.9-20.9c1.6,0.2,3.2,0.4,4.8,0.7
		C103.9,683.5,103,690.4,102.2,697.3z M101.5,768.3c4.7,12.1-0.8,22.2-3.3,32.6C92,787.2,93.1,777.3,101.5,768.3z M107.9,809.9
		c1.8,0.2,3.6,0.4,5.3,0.5c0,22.2-6.4,43.7-7.2,65.8c-1.6-0.2-3.2-0.3-4.8-0.5C103.4,853.8,105.6,831.8,107.9,809.9z M182.5,1000.2
		c-1.6,5-2.8,8.6-4.5,13.9c-4.9-1.9-8.5-3.2-13.1-5C171,1006,175.7,1003.7,182.5,1000.2z M165.9,962.8c-1.1,6-2.1,11.5-3.1,17
		c-2.4,13.7-4.8,27.3-7.1,41c-1.1,6.7-1.7,13.5-2.9,20.2c-0.2,1.3-2.2,2.3-3.3,3.5c-3.9-4.8-7.5-9.3-10.4-12.9
		c3.1-3.1,6.2-6.1,9.2-9.1c-3.8-3.3-7.2-7.5-11.5-9.7c-6.8-3.5-10.6-9-11.6-20.2c5.8-1,5.8-1,14.1,11.5c1.6-7.4,2.8-13.3,4.5-20.8
		c-5.7,1.1-9.3,1.8-12.9,2.5c-0.4-0.8-0.8-1.5-1.2-2.3c3.5-2.2,7-4.4,10.5-6.5c3.6,3.3,6.6,6,9.6,8.7
		C150,975.2,144.5,963.6,165.9,962.8z M146.5,725.9c4.3,3.2,11.4,5.7,12.3,9.7c1.2,5.4-2.1,11.9-4,17.8c-0.2,0.6-4,0.8-5.4,0
		c-1.3-0.7-2.9-4-2.4-4.6c6.3-7.6,1.9-13.6-3.3-19.6C144.7,728.1,145.6,727,146.5,725.9z M137.1,767.8c1,3.5-0.5,7.6,0.4,11.1
		c1.2,4.9,3.8,9.4,5.6,14.1c3.3,8.7,8.1,15.8,5.6,27.1c-4.5,20.7-4.4,42.3-6.8,63.5c-1.2,10.9-3,21.7-5.7,32.3
		c-2.3,9.1,1,19.5-6.6,27.6c-0.6,0.7,4.8,7,7.4,10.7c-19.1,3.7-24.2-2.4-20.1-24.6c9.2,1.8,11.3-3.1,10.7-11.3
		c-0.2-3.3,1.5-6.7,2.5-10c0.6-1.9,1.9-3.6,2.1-5.4c0.7-7,0.4-14.1,1.7-20.9c1.5-7.7-0.4-12.5-8.8-14.2c2.7-6.4,5.4-11.9,7.2-17.6
		c2.6-8.6,5.1-17.3,6.3-26.1c0.4-2.7-4.3-5.7-5.6-9c-2.8-6.9-5.5-14.1-6.9-21.4c-0.4-1.9,3.7-4.8,4.7-5.9
		c-2.1-7.2-4.6-13.4-5.3-19.8c-0.3-2.2,3.9-4.9,6-7.4C133.6,762.9,136.4,765.1,137.1,767.8z M111.2,579.5c2.9-5.7,9.2-9.8,18.4-5.9
		c-7.1,13.5-14.2,27.2-2.3,41.9c1.1-0.8,3.1-2.4,7.4-5.8c-1.9,12.9-3.5,23.2-5,33.6c-0.4,0-0.9,0.1-1.3,0.1c-0.7-4.3-1.4-8.6-2.1-13
		c-0.9-0.1-1.7-0.3-2.6-0.4c-2,4.6-4,9.2-6,13.8c-1,0-2.1,0-3.1,0c-0.2-10.4-0.2-20.8-0.8-31.2c-0.3-5.4-2.2-10.6-2.7-16
		C110.5,590.8,108.9,584.1,111.2,579.5z M93.9,637.8c7.6,4.3-4,17.1,11.1,13.4c0.1,0.9,0.2,1.8,0.3,2.7c-2.4,1.8-4.5,4.5-7.1,5
		c-1.7,0.3-5.6-2.6-5.7-4.3C92.2,649.5,93.2,644.3,93.9,637.8z M99.1,903.6c1.3,6.1,2.2,10.7,3.3,15.7
		C91.8,917.3,91.5,916.1,99.1,903.6z M110.6,1095.8C110.6,1095.8,110.6,1095.8,110.6,1095.8c-1.7-5.9-10.4-9.3-6.7-17
		c9,6.7,17.7,13.2,26.3,19.6c0,0.9,0,1.9-0.1,2.8c-3.1-0.4-6.2-0.3-9.1-1.2C117.4,1099,114,1097.3,110.6,1095.8z M121.2,1129.2
		c-0.1-5.4-0.8-9.1,0.1-12.3c0.6-2,4.9-5,5.6-4.5c3.1,2,5.5,5,8.7,8.3C130.6,1123.7,127.3,1125.7,121.2,1129.2z M180.4,1223.6
		c-7.1-5.5-14-10.2-19.9-15.8c-5.8-5.6-5.9-12.4-0.3-20.8c5.8,11.3,7.8,25.4,24.5,26.2C182.9,1217.7,181.7,1220.3,180.4,1223.6z
		 M170.5,1147.4c2.2,1.3,5.3,1.1,7.9,2c10.4,3.5,13.2,10.7,7,21.3c-3.1-3.8-5.9-7.2-9.5-11.6c-3.1,2-6.6,4.2-11.5,7.3
		c8.8,3.7,15.7,7.1,23,9.5c4.8,1.5,7.9,2.3,6.6,8.7c-1.2,5.9-3.6,8.5-9.5,7.7c-2.5-0.4-5.1-1-8.1-1.6c1-4.4,1.8-7.8,3-13
		c-5.5,3.4-10.5,8.6-13.1,7.7c-3.6-1.3-4.5-8.7-8.2-11.2c-6.3-4.2-6.5-9.8-7.8-16.2c-1.6-7.8-2.5-16-8.9-22.7
		c-3.6-3.7-1.5-9.7,6.7-10.7c-0.5,3.2-0.9,5.8-1.6,10.5c4.3-2.3,7.6-4,8.7-4.6c0.1-6.6,0.1-11,0.2-15.5c8.4,9,12.2,8.7,19.5-1.2
		c0.7-0.9,2.3-2.1,3.1-1.9c1.4,0.4,3.6,1.7,3.7,2.7c0.1,2.6-0.8,5.2-1,6.5c5.7,2.1,9.6,3.5,13.8,5.1c-5,3.9-7.9,6.9-11.4,8.9
		c-3.2,1.8-7,2.3-10.5,3.5c-2.2,0.8-4.3,2-6.4,3.1C167.5,1143.6,168.5,1146.3,170.5,1147.4z M200.4,913.7c-1.3-0.1-2.7-0.2-4-0.4
		c0.9-11.2,1.9-22.3,2.8-33.5c1.7,0.1,3.5,0.2,5.2,0.4C203.1,891.4,201.8,902.6,200.4,913.7z M200.3,728.6c-0.7-0.1-1.5-0.2-2.2-0.3
		c0.8-8,1.7-16,2.5-24c1.7,0.3,3.3,0.7,5,1C203.9,713.1,202.1,720.8,200.3,728.6z M225.1,623.7c-1.1,0.3-2.1,0.6-3.2,0.9
		c-1.3-4.8-2.5-9.6-3.8-14.5C230.7,611.9,227.8,617.9,225.1,623.7z M1341.5,302.9c1.9,1.3,4.4,1.7,7.7,3c-3.7,3.2-6.6,5.7-10.2,8.8
		c-1.7-3.1-3.4-4.9-3.8-7c-0.6-3.6-0.4-7.3-0.5-11C1337,298.8,1339,301.2,1341.5,302.9z M1347.5,492.6c-1.2,13.4-2.5,26.9-3.7,40.3
		c-1.1-0.1-2.2-0.3-3.3-0.4c-5.8-14.3-0.4-27.3,3.7-40.5C1345.3,492.3,1346.4,492.4,1347.5,492.6z M1324.5,519.5
		c11.5,8.5,1.6,18.2,2,27.4C1319.7,538.2,1327.3,528.5,1324.5,519.5z M1311.3,399.8c-0.3,2.4-0.8,4.7-0.8,7.1
		c0.1,3.1,0.9,6.2,1.1,9.2c0.1,2-0.2,4.1-0.4,6.2c-2-0.6-5-0.5-6-1.9C1299.2,412,1305.1,405.9,1311.3,399.8z M1304.3,623.9
		c1.3,0,2.7,0.1,4,0.1c-0.4,10.4-0.8,20.8-1.2,31.2c-1.7-0.1-3.4-0.2-5-0.3C1302.8,644.6,1303.5,634.2,1304.3,623.9z M1291.1,707.1
		c-1.1-14.8-2.2-29.6-3.3-44.4c1.6-0.1,3.3-0.2,4.9-0.3c0.7,14.9,1.4,29.7,2.2,44.6C1293.6,707,1292.4,707,1291.1,707.1z
		 M1292.1,737.5c-0.9,16.7-1.7,33.4-2.6,50c-1-0.1-2.1-0.3-3.1-0.4C1285.6,770.4,1281.8,753.3,1292.1,737.5z M1292.9,599.6
		c-5.6,11.6,14.1,15.8,3.8,27C1285.4,615.9,1283.8,608.9,1292.9,599.6z M1293.8,537.4c3.1,8.4,8.7,16,2.6,24.5
		C1286.3,554.6,1285,544.6,1293.8,537.4z M1286.9,299c1.4,3.7,2.8,7.4,4.2,11.1c-1.5,0.7-3,1.5-4.5,2.2c-2.1-3.6-4.2-7.1-6.4-10.7
		C1282.5,300.8,1284.7,299.9,1286.9,299z M1280.4,714.2c-1,9.9-1.8,17.8-2.9,27.9C1270.6,731.7,1271.5,721,1280.4,714.2z
		 M1268,812.7c-8.6-5.5-9-9.4-0.4-18.4C1267.8,801.8,1267.9,806.9,1268,812.7z M1196.5,278.9c1.1,8.5-3.5,14.1-11.5,14.9
		c-9.6,0.9-10.7-5.6-11.9-14.8C1182.2,283.3,1189.7,290.2,1196.5,278.9z M1108.4,146.3c4.2,10.6,10.5,13,20.8,7.1
		c1.6-0.9,6.8,3.7,9.9,6.2c2.1,1.7,3.4,4.4,5,6.6c1.2-1,2.3-2.1,3.5-3.1c-3.6-5-6.9-10.4-11-15c-8.6-9.4-8.7-9.8,3.9-13.2
		c0.9-0.3,1.9-0.4,3.3-0.7c0.8,4.8,1.3,9.5,2.3,14c1.3,5.9,3.9,10.8,11,11.4c2.2,0.2,5.1,1.3,6.2,3c1.7,2.6,2.4,5.9,2.6,9
		c0,0.6-4.3,2-6.7,2.1c-3.3,0.2-6.7-0.5-10.8-0.8c-0.2,3.1-0.5,5.9-0.7,9.1c-1.3,0.2-3.1,1.1-3.8,0.6c-4.2-3.1-8.1-6.7-12.4-9.8
		c-4.5-3.3-9-7.5-14.1-9.2c-8.2-2.7-12-7.1-11.8-17.7C1106.7,146.1,1108.3,145.9,1108.4,146.3z M1066.1,120.3
		c4.7,7.9,4.3,20.4,15.4,20.2c4.2-5.8,8.1-11.3,12-16.7c1,0.4,2,0.9,3.1,1.3c0.5,2.1,2,5.6,1.3,6.1c-10.2,7-3.2,14.1-0.3,21.1
		c0.4,0.9,0.5,1.9,0.8,3.3c-9.9,0.5-18.9-14.9-27.7,0c-3-11.7-5.8-22.6-8.6-33.5C1063.4,121.5,1064.8,120.9,1066.1,120.3z
		 M1037.5,196.3c0.8,4.4,1.6,8.8,2.4,13.2c-1.9,0.5-3.9,1-5.8,1.5c-1.2-4.2-2.5-8.3-3.1-12.6C1030.9,198,1035.2,197,1037.5,196.3z
		 M901.6,121.5c2.6-5.9,7.2-7.2,12.8-5.1c0.6,1.3,1.2,2.6,1.8,3.9c-4.2,2-8.5,4.1-12.7,6.1C902.8,124.8,901.1,122.6,901.6,121.5z
		 M892.6,134.4c-3.1,3.8-5.4,6.6-8.8,10.7c4.4,0.8,6.9,1.3,12.8,2.4c-4.6,5.3-7.8,8.9-10.5,12c-7.7-9.8-13.6-17.3-19.5-24.8
		c0.4-0.5,0.8-1,1.3-1.4c3.1,1.8,6.1,3.7,9.2,5.5c0.8-0.8,1.7-1.7,2.5-2.5c-4.1-4.7-8.2-9.3-13.3-15.1
		C879.3,119.7,887,124.7,892.6,134.4z M856.5,226.4c-1.8-4-4.1-7.9-5-12c-0.3-1.3,3.2-3.4,4.9-5.1c1.1,2,2.9,3.9,3.3,6.1
		C859,219,862,225,856.5,226.4z M899,308c8-4,20,5,26-4c3-4-2-7-4.5-10.1c17.7,12,17.8,20.6,12,26.3C918,331,927,349,937,360
		c-17-2-26-28-41-39c3,0,5,0,8,0C903,316,893,310,899,308z M972.2,384.5c0.8,1.5,2.8,1.5,3.8,2.5c-11,4-23,4-33.7-0.1
		C956.3,385.6,964.3,385,972.2,384.5z M961,342c5,1,11,1,16,5c7,5,10,14,3,20c-1,1-3,0-4.6-0.2c-1.7-2.8-4.1-5.8-5.7-8.6
		C967,353,965,347,961,342z M940.7,346.7c-3.1-5-2.9-9.8,1-13.1c6.8,8.6,12.5,17,17.7,27.7C950.2,357.1,943.8,351.8,940.7,346.7z
		 M940.7,428.2C945,425,950,422,956,424c-4,8-13,8-20,12c34,7,27,45,25.4,71.3c-0.5,11.2-4.1,22-11.5,32.3
		c-14.1,19.5-36,26.4-58,20.8c-23.9-6.1-45.8-19-52.4-46c-1.6-6.6-2.2-12.8-1.8-18.9C837,491,839,486,840,482c16-34,60-54,96.4-46.3
		C937.7,433.1,938.2,430.6,940.7,428.2z M1005,521.4c4-6.4,9-21.4,17-12.4c3,3-1,8-4.7,11.3c-4.4,5.8-6.5,12.9-6.4,20
		c0.1,7.1,2.4,14.4,6.9,20.5c1.9-6.2,3.7-12.3,5.5-18.4c1.9-6.1,3.9-12.3,6.1-18.7c10.2,6.3,10,12.2,3.3,21.2
		c-2,2.7-3.7,7.1-2.7,9.6c0.8,2.1,7.2,4.4,8.6,3.4c3.3-2.6,5.2-7,7.4-10.9c0.9-3.1,1.9-7.1,3.9-7.1c6-1,6,7,4,12.2
		c-4.2,4.4-8.4,8.9-12.8,13.1c-4.4,4.2-8.9,8.3-13.7,11.9c-2.3,1.8-11.8-0.9-13.3-4c-3.4-6.6-12.7-10.6-10.2-20.6
		c0.3-1.3-6.1-4.4-9.5-6.7c8.9,15-7.7,19.8-9.6,31c-6.6-6.6-9.1-12.2-5.6-19.9c1.3-2.9,2.6-6.7,1.8-9.5c-2.1-7.8-0.2-13.7,3.7-20.9
		c4-7.4,3.7-17.3,6.5-26.4c1-3.3,2.7-6.7,6.2-9.9c0.7,7.8,0.1,15.3-0.6,22.7c-0.6,7.4-2,14.6-3.7,21.9c1.2,0.4,2.5,0.8,3.7,1.2
		C999.5,531.4,1002.2,526.4,1005,521.4z M999.7,465.5c7.3-3.5,11.3,1.5,9.3,7.5c-1,1-6,2-8.7,3.4C999.8,472.7,999.6,469,999.7,465.5
		z M1015.6,446.1c8.2-3.9,17-7.7,28.1-12.4C1043.3,441.6,1029.4,446.4,1015.6,446.1z M1066.5,441.1c-7.3,2.3-14.2,4.6-21.3,7
		c-7.2,2.9-15.2,5.9-22.2,7.9C1034,444,1052,442,1066.5,441.1z M1063.2,646.8C1063.2,646.8,1063.2,646.8,1063.2,646.8
		c2.2-0.6,4.6-0.9,6.6-1.8c27.5-12.1,54.5-4.6,75.5,20.9c-17.4-5.3-37.9-8.3-59.9-8.3c-12.1,0-23.8,0.9-34.7,2.6
		c2.4-3.3,5.1-6.4,8.3-9C1060.5,649.9,1061.8,648.3,1063.2,646.8z M1151.7,649.7c6.1-0.1,9.6-0.2,14.2-0.2
		c-0.8,7.9-1.5,14.8-2.2,21.6c-0.8,0.2-1.5,0.4-2.3,0.7c-0.3-0.1-0.7-0.3-1-0.4C1157.7,664.8,1155.1,658.2,1151.7,649.7z
		 M1177.6,530.4c1.5,0,3.1,0,4.6,0c-0.4,8.2-0.9,16.4-1.3,24.6c-1.2,0-2.3-0.1-3.5-0.1C1173.4,546.8,1176.9,538.6,1177.6,530.4z
		 M1141.8,807.5c-0.3,7.5-0.6,14.9-0.9,22.4c-0.8,0-1.7,0.1-2.5,0.1c0.1-7.5,0.2-15,0.3-22.5
		C1139.7,807.5,1140.7,807.5,1141.8,807.5z M1128.9,831.8c1.3,6.1,2.6,12.3,3.9,18.4c-1.7,0.2-3.5,0.5-5.2,0.7
		c-0.9-6.1-1.7-12.3-2.6-18.4C1126.3,832.3,1127.6,832,1128.9,831.8z M1123.9,821.7c-1.4-0.2-2.7-0.4-4.1-0.6
		c2.5-17.1,5.1-34.1,7.6-51.2c1.6,0.3,3.2,0.5,4.7,0.8C1129.4,787.7,1126.6,804.7,1123.9,821.7z M1111.6,838.4
		c-0.5,2.8-4.3,4.9-6.6,7.4c-1.5-2.3-3.3-4.4-4.4-6.9c-1.5-3.6-1.8-7.9-3.9-11.1c-7.5-11.3-4.3-17.4,6.3-25.3
		c4.5-3.3,3.2-14.9,3.9-22.8c0.2-1.8-2.1-3.9-2.5-4.5c3.5-2.6,6.6-4.8,9.6-7.1c1.1-0.1,2.2-0.3,3.3-0.5c-0.2,7.4,0,14.7-0.8,22
		c-1,10.3-3,20.4-4.2,30.7C1111.9,826.3,1112.8,832.5,1111.6,838.4z M1081.4,970.1c-1.6,0.1-4.1,3.3-4.4,5.4
		c-2.4,17.3-3.9,34.8-6.5,52.1c-1.6,10.6-9,17.4-18.6,21.7c-1.1-0.5-2.3-1-3.4-1.5c3.1-6.7,6.1-13.5,9.9-21.7
		c-4.9-4.5-1.9-11.2,0.8-18.7c4.6-13,8-26.4,12-39.6c0.9-2.8,2.1-5.5,3.3-8.2c1.5-3.5,3.2-7,3.8-11.1c13.1-14.5,4.5-36.6,18.1-51
		c-3.6,15.9,7.2,32.4-3.1,48.5c-2.2,3.4-1.9,8.5-2.5,12.9C1089.8,964.5,1089.1,969.8,1081.4,970.1z M1088.7,1023.7
		c-2,0.1-4,0.2-6,0.2c-0.2-9.9-0.5-19.8-0.7-29.7c1.4-0.1,2.8-0.2,4.1-0.2C1087,1003.9,1087.8,1013.8,1088.7,1023.7z M774.6,497.7
		c-6.8-6.4-9.2-13.1-0.1-22.5C774.5,484.5,774.6,491.1,774.6,497.7z M761.4,472.1c-1.2,0-2.3,0-3.5,0c0.2-12.4,0.5-24.8,0.7-37.3
		C769.6,442.8,764.3,450.3,761.4,472.1z M732.7,522.6c-0.5,7.1-1,14.1-1.6,21.2c-1.5-0.1-3-0.2-4.5-0.3c0.6-7,1.1-14,1.7-21.1
		C729.8,522.5,731.2,522.5,732.7,522.6z M491.8,760.6c-1.3,0.4-2.6,0.7-3.8,1.2c0.5-4,1.1-8,1.6-12c1.2,0.1,2.5,0.3,3.7,0.4
		C492.8,753.7,492.3,757.1,491.8,760.6z M410.2,378.6c-7.5-9.6-2.3-14.2,3.8-18.6C412.9,365.4,411.8,370.7,410.2,378.6z
		 M412.3,347.6c-8.1-4.3-8.2-8.1,1-16.9C413,336.2,412.6,341.7,412.3,347.6z M412.5,1260.1c2.4,2.2,3.1,7.5,2.4,11
		c-0.4,2.2-4.8,3.6-6.2,4.6c-3.3-5.9-5.6-10.2-9.4-17.2C405.3,1259.1,410.3,1258.1,412.5,1260.1z M414.1,1251.8
		c0.2-10.6,0.5-21.1,0.8-33.7c5.8,7.9,10,13.6,14.7,20.1c3.6-7.1,6.6-13.1,10.5-20.7C442.8,1229.1,442.8,1229.1,414.1,1251.8z
		 M428.8,1257.2c0.3,4.3,0.7,8.6,1,12.8c4.2-1.9,8.7-3.8,12.2-5.4c0.5,7.1,2,13.5,0.9,19.3c-0.6,3.3-5.3,6.7-9,8.1
		c-2.5,0.9-8.9-1.4-9-2.7c-0.8-10.6-0.6-21.3-0.7-32C425.8,1257.3,427.3,1257.2,428.8,1257.2z M821.1,245c0.2,6.5,0.8,12,0.6,17.3
		C819,273,829,282,839,280c-3,3-6,8-10,7c-14-4-23-22-22-36C808,248,816,246,821.1,245z M816.2,189.7c4,9.8,7.2,17.5,11,26.9
		C814,211,812.3,206.8,816.2,189.7z M885.6,587c3,6.9,1.7,15.7,2.4,23.6c-0.9-0.2-1.7-0.4-2.6-0.6c-1.3,3.7-2.8,7.3-3.8,11
		c-1.3,4.4-1.2,9.6-3.5,13.2c-6.3,9.9-4.9,14.5,5.9,18.3c2.3-10.8,4.1-21.9,7.3-32.5c1.3-4.2,6.9-6.8,8.8-11
		c2.5-5.4,4.2-11.6,4.4-17.5c0.1-1.8-6.1-3.8-11.6-6.9c3.9-4.9,8.9-11.2,16.3-20.5c1.1,13.6,2.1,25.1,3.2,38
		c7.4-4.4,9.5-8.4,8.7-15.7c-0.6-5.5,2.9-11.5,4.3-16.4c4.4-1.5,8.2-3.3,12.2-4.1c2.3-0.4,4.9,0.8,7.3,1.2c-0.6,2-0.7,4.5-1.9,6
		c-2.7,3.3-6,6.2-7.1,7.2c0.1,5.7,1.7,11.6-0.1,12.9c-9.8,7.2-11.2,17.7-12.3,28.7c-1.3-0.6-2.2-0.8-2.4-1.2
		c-1.8-3.6-3.4-7.3-5-10.9c-1.7,3.9-3.6,7.6-5,11.6c-2.4,7.1-4.4,14.4-7,22.9c5.6,0.2,8.8,0.3,13.3,0.4c-0.4,3.6-0.9,6.8-1,9.9
		c-0.2,7.9,0,15.9-0.3,23.8c-0.2,4.4-1.2,8.8-1.7,13.3c-0.2,2.3-0.9,4.9-0.1,6.8c6.7,15.5-2.9,29.6-3.8,44.4
		c-8.1-13.6-6-27.4,1.2-43c-5.5,1.8-8.4,2.8-13,4.3c-0.1-10.4-0.2-19.8-0.3-29.2c-1.2-0.2-2.5-0.4-3.7-0.6
		c-2.3,5.1-4.5,10.2-6.8,15.4c-1,0.1-1.9,0.2-2.9,0.3c-1.1-5.1-2.2-10.1-3.4-15.4c-11.7,11.3-3,24.2-2.6,37.5
		c9.3-3.2,14.4,1,15.4,8.6c1.7,13.2,2.1,26.7,3,39.6c-12.3,4.2-16.1,9.9-15.6,22.9c2.1-0.5,4.1-1,6-1.4c3.4,16.2-10.2,17.6-20,23.9
		c-5.2-9,0.1-16.1,3.2-23.5c1.6-3.9,3.2-8,3.4-12.1c0.1-3.5-1.8-7-2.2-8.4c1.8-10,3.3-18.6,4.7-26.6c2.2-2.9,4.4-5.9,6.6-9
		c-3.1-1.7-6.1-3.3-11.7-6.3c-0.2-3-0.5-8.7-1.1-17.4c-5.7,8.7-9.5,15-5.3,22.9c5,9.3,3.3,14.8-8.9,22.4c0.9-3.6,0.7-7.2,2.2-8.1
		c10.5-6.7,3.9-9.3-4-12.6c3.6-21.2,7.4-42.6,10.7-64.1c3-19.1,5-38.3,8.2-57.4c1.9-11.6,4.5-23.2,8.4-34.3c1.2-3.4,7.5-5,11.7-7.5
		C900.1,576.8,880.6,575.4,885.6,587z M949.8,584.1c2.5-2,5.3-4.1,8.2-6.3c2.9,5.6,0.4,29-3.8,31.4c-9.7,5.6-10.3,14.9-11.6,24.1
		c14.6,5,15.2,8.3,4.1,18.3c-1.7,1.5-2.6,3.7-4,5.5c-2.9,3.8-5.3,8.6-9.1,10.6c-1.5,0.8-6.3-4.4-9.5-6.8c3-5.8,5.6-10.5,7.8-15.4
		c0.8-1.7,1.8-4.9,1-5.6c-12.2-10.8,2.5-14.8,5.4-21.7c1-2.3,3.8-4.5,3.5-6.4c-1.2-9.1,2.7-13.5,13.3-14
		C952.9,592.5,951.5,588.8,949.8,584.1z M1014.3,605.6c3.3,6.9,6.5,13.8,10.3,21.7c-10-1.4-12.1-5.2-13-20.4
		C1012.5,606.5,1013.4,606.1,1014.3,605.6z M1009.7,597.6c-4.1,2.9-6,9-9.8,15.5c-0.7-9.5-1.4-18.8-2.2-29.1c2.1-1.5,5-3.6,8.5-6
		c3.4,6.3,5.7,10.9,15,10.3c7.9-0.5,4.2,7.8,3.5,12.3C1018.2,599.1,1012.2,595.9,1009.7,597.6z M1087.3,772.2
		c0.6-0.9,1.1-1.7,1.5-2.4c1.7,0,3.5-0.1,5.2-0.1c-1.8,3.1-3.6,6.9-6.4,9.9C1087.4,777.1,1086.2,773.8,1087.3,772.2z M954.6,851.9
		c-4.1-5.3-1.9-15.5-2.5-23.5c1.2-0.1,2.4-0.2,3.6-0.3c2.7,6.8,5.1,13.8,8.4,20.3c1.2,2.4,4.6,3.6,7.1,5.4c1.4-2.7,3.3-5.2,4.1-8
		c0.8-2.8,0.5-5.9,0.8-9.7c-1.8,0.3-3.8,0.7-6,1.1c-5.3-15.4,5.9-19.7,17.3-24.8c-1.8,19.8-3.5,39.2-5.5,60.9
		C972,865.9,961.3,860.5,954.6,851.9z M980,1175.8c-1.6-11-2.9-19.6-4.5-30.6C985.1,1154.2,986.6,1164.9,980,1175.8z M913.4,1011.2
		c-0.9-5.9-1.8-11.7-2.8-17.6c1.6-0.2,3.2-0.5,4.8-0.7c0.8,5.9,1.6,11.8,2.3,17.7C916.3,1010.8,914.8,1011,913.4,1011.2z
		 M923.6,1124.5c-2.5,4.9-5.1,9.7-7.6,14.6c-1-0.2-1.9-0.4-2.9-0.6c0.7-3.7,0.6-7.8,2.3-10.9C916.5,1125.2,920,1124.2,923.6,1124.5z
		 M909.6,1100.4c-8.8-14.1-8.9-23.9-0.2-35.5C916,1077.5,910.5,1088.2,909.6,1100.4z M923.7,1076.9c1.4-0.2,2.8-0.4,4.1-0.5
		c0.7,5.7,1.4,11.4,2.1,17.1c-1.3,0.2-2.6,0.3-3.9,0.5C925.2,1088.3,924.4,1082.6,923.7,1076.9z M955.7,1039.4c1,0,2.1,0.1,3.1,0.1
		c0.4,12,0.8,24,1.2,35.9c-1,0-2,0.1-3,0.1C949.8,1063.9,954.2,1051.6,955.7,1039.4z M973.2,972.1c-2.2,0.2-4.3,0.3-6.5,0.5
		c-7.8-2.7-5.5-9.3-5.2-15c0-0.9,2.6-2.5,3.7-2.3c1.6,0.4,3.7,1.8,4.2,3.3C971,963,971.9,967.6,973.2,972.1z M954.4,764
		c2.6-5.4,5-10.3,8.1-16.8c1.5,0.3,5.4,0.1,7.1,1.9c1.3,1.3,0,5.5-0.8,8.1c-1.5,5.1-3.5,10-5.8,16.7
		C959.1,769.4,956.5,766.4,954.4,764z M979.3,748.5c-1.5-4.2-4.5-8.4-4.2-12.5c0.2-1.9,0.5-3.8,1.1-5.7c2.4,3.8,5.7,7.5,9.6,11
		C983.8,743.9,981.4,746.1,979.3,748.5z M973.7,701.6c-0.2,0.2-0.4,0.3-0.6,0.5c-5.1-5.2-10.3-10.4-17.5-17.7
		c5.3,0.2,9.6-0.8,11.3,0.8c3.6,3.4,6.3,7.9,9.3,12C975.2,698.6,974.4,700.1,973.7,701.6z M932.7,806.7c-0.3,11-0.6,19.2-0.9,28.9
		C922.2,827.2,922.3,820.1,932.7,806.7z M902.7,772.9c1.5,6.6,2.8,12,4.4,18.8c2.2-3.9,3.6-6.2,5-8.7c1.7,6.6,3.6,11.8,4.1,17.2
		c0.2,1.8-3.1,5.2-5.2,5.5c-3.8,0.6-7.8-0.6-12.4-1.1C899.4,794.5,890.2,783.5,902.7,772.9z M860.6,575.1
		c-7.2-9.6-3.6-12.8,5.2-14.1C864.3,565,862.9,568.9,860.6,575.1z M851.7,610.5c0.6-5.9,1.1-10.6,1.7-16.6
		C863.5,601.9,863.1,605,851.7,610.5z M862.2,776.6c0.4,4.7,1.4,8,0.8,11c-0.5,2.9-2.3,5.6-4.1,8.1c-2.2,3.1-4.7,6-7.4,8.5
		c-0.3,0.3-4.8-2.5-4.7-3.7c0.2-4.8,0.3-10.3,2.6-14.2C851.5,782.7,856.5,780.7,862.2,776.6z M895.6,837.1
		c43-1.1,78.9,48.8,61.5,87.4c-1.8,3.9-2.5,8.3-3.6,12.2c-4,2.7-7.5,4.6-10.5,7.1c-32.9,28.8-81.3,14.9-99.7-24.9
		C824.5,878.4,859.1,838.1,895.6,837.1z M897.7,1018.9c-2.1,0-4.2-0.1-6.3-0.1c0.1-5.9,0.2-11.8,0.3-17.8c0.9,0.2,1.9,0.4,2.8,0.6
		C895.6,1007.3,896.7,1013.1,897.7,1018.9z M868.4,1083c-1.1-5.9-2.1-11.8-3.2-17.8C878.7,1070,872.3,1076.6,868.4,1083z
		 M858.8,1024.3c9.4,9.2,8.2,18.1-5.3,34.9C846.8,1050.9,846.8,1050.9,858.8,1024.3z M853.4,1082.4c-1,8.7-2,17.4-3,26.2
		c-2-0.2-4-0.5-6-0.7c1.5-8.5,2.9-17.1,4.4-25.6C850.4,1082.3,851.9,1082.4,853.4,1082.4z M827.2,361c0.6-11.2,0.8-20.1,0.6-30
		c7.1,4.6,11,9.6,11.1,14.6C838.9,350.7,835,355.9,827.2,361z M820.1,1186.9c-1.2,0.1-2.5,0.2-3.7,0.3c-0.7-6.5-1.5-13-2.2-19.5
		c1.6-0.1,3.2-0.3,4.8-0.4C819.3,1173.8,819.7,1180.3,820.1,1186.9z M808.4,272.4c4.8,5.3,6.3,13.4,5.6,20.6
		c-1.5-2.9-3.4-5.7-5.5-8.2c0-1.5,0.1-3,0.1-4.5C808.6,277.6,808.5,275,808.4,272.4z M808.8,1084.6c-0.1,5.3-0.3,10.7-0.4,16
		c-2.5,0-5-0.1-7.5-0.1c0.5-5.3,1-10.6,1.5-15.9C804.6,1084.6,806.7,1084.6,808.8,1084.6z M791.7,1020.8c0.9,8.7,1.6,15.8,2.3,23.6
		C785.3,1042.3,784.4,1036.9,791.7,1020.8z M890.1,1441.2c-0.2,0.4-0.4,0.8-0.6,1.2c-0.7-0.4-1.3-0.9-2-1.3
		C888.4,1441.2,889.3,1441.2,890.1,1441.2z M983.6,1071.5c3.3,0.3,6.4,0.7,10,1c1.6-3.7,3.2-7.6,4.8-11.4c0.6,0.2,1.1,0.3,1.7,0.5
		c-0.4,2.8-1.3,5.5-1.2,8.3c0.1,2.9,1.1,5.8,2.3,11c9.4-10.2,8.4-20,7.7-30.4c-0.7-9.5,0.3-19.1,0.5-29.5c1.6,0.1,5.7,0.5,9.1,0.8
		c0.5-9.6,0.9-18.7,1.3-27.7c12.5,0.1,14.1-2.8,12.6-13.3c-1.1-8.1,0.1-16.5,0.2-24.7c1.6-0.4,3.2-0.7,4.7-1.1
		c0.9,3.3,2.6,6.5,2.6,9.8c0.1,12.8,0,25.6-1,38.3c-0.3,3.7-3.9,7.2-6.1,11c2,3.5,4.2,7.5,6.4,11.5c-0.6,0.5-1.2,1-1.8,1.5
		c-3.3-1.2-6.6-2.5-10.7-4c-16.9,33.5-10.8,65.8,4.2,100c-6.7,2.7-13.3,5.5-21.9,9c-1.2,6.5-2.9,15.5-4.7,25.3
		c-8.2-6.1-9.8-16.3-6.7-25.3c2.8-8,4.3-16.5,6.4-24.8C984.1,1102.5,983.2,1092.5,983.6,1071.5z M1022.5,877c3.3,7,5.6,12,7.9,16.9
		c-1.3,0.6-2.6,1.1-3.9,1.7C1020.6,892.1,1020.2,886.4,1022.5,877z M1029.5,1093.2c-2-1.7-4.3-3.1-5.8-5.1c-1.5-2.1-2.1-4.9-3-7.4
		c1,0.3,2.1,0.5,3.1,0.8c5.1-13.5,10.2-27,15.2-40.5c1.1,0.4,2.2,0.8,3.2,1.2c2.2,10.9,0.8,21.6-2.7,32.2c-1.5,4.5-3.8,8.7-6,12.8
		C1032.5,1089.4,1030.9,1091.2,1029.5,1093.2z M1041.6,936.4c-10.7-25.8-5.7-51.8-4.5-78.1c-1.8,3-3.1,6.7-5.6,8.9
		c-3.7,3.1-7.5,3.9-10.5-2.2c-5.7-11.7-13.5-22.5-17.9-34.6c-2.2-6.1-0.4-14.6,2-21.2c4-11,8.9-21.6,7.1-33.9
		c-3.6,1.3-6.5,2.3-9.4,3.4c-0.9-3.1-2.4-6.2-2.5-9.3c-0.2-6.1-0.3-12.3-0.3-18.4c6.7,3.7,14.4,7,22.8,9.7c0,3.6-0.1,7.3,0,11
		c3.6-1.2,5.8-1.5,7.6-2.6c7.2-4.3,9.7-1.6,10.2,6c0.2,3.3,1.8,6.8,3.6,9.7c4.5,7.2,7.2,13.7-1.1,20.5c-2.5,2-3.3,6.4-4.1,9.8
		c-0.3,1.2,1.7,3.5,3.2,4.3c0.7,0.4,2.8-1.2,4-2.2c10.5-8.4,8.6-19.3,6-30.3c-1.6-6.7-5.2-13.4-2.7-19.9c2.8,0.4,5.6,0.8,8.4,1.2
		c-0.5,2.8-0.8,5.6-1.3,8.4c0.9,0.2,1.8,0.4,2.8,0.6c2.2-2.7,4.4-5.5,6.6-8.2c1.2,0.1,2.4,0.2,3.6,0.3c-2.4,10.8-4.7,21.6-7.3,33.4
		c5.4,0.4,8.7,0.6,11.3,0.8c2.6-3.9,4.9-7.3,7.1-10.7c1.2,0.4,2.5,0.8,3.7,1.2c-0.1,5.2,0.2,10.4-0.4,15.5c-0.8,6.7-3.2,13.3-3.3,20
		c-0.1,6.7-3.9,10.4-6.9,15.5c-4.3,7.3-8,20.9-4.3,25.7c9.8,12.5,4.8,25.4,6.2,38c0.5,4.1-1.5,8.4-2.7,14.5
		c-9.7-12.2-3.1-24.5-5.1-35.6c-12.6-0.9-12.1-0.9-9.7-12.9c0.7-3.3-2.3-7.3-3.6-11c-1.8,2.7-4.8,5.3-5.1,8.2
		c-1.8,17.3-2.9,34.7-4.4,52C1044.8,928.2,1043.9,932.4,1041.6,936.4z M1059.3,620.9c-0.2,1.8-1.4,4.1-2.9,5
		c-5.2,3.5-22.7,1.3-27.5-3c3.3-13.5,12.3-25.8,8-41.1c-0.5-1.9,3.4-5.1,4.8-7c2.7,4.3,4.4,9.4,6.2,9.4c4.6,0.1,9.3-2,14.5-3.3
		C1061.5,593.5,1060.6,607.2,1059.3,620.9z M983.7,628.4c-0.9,0.4-1.9,0.7-2.8,1.1c-2.5-2.6-5.6-4.8-7.4-7.8c-1-1.7,0-4.7,0.1-7
		c2.3,0.7,5.8,0.6,6.6,2.1C982.1,620.2,982.6,624.5,983.7,628.4z M984,502c0,1-2,2-4,2.9c-3.3-2.6-9.2-5-9-8.2
		c0-15.7,12-31.7,27-36.7C989,472,985,487,984,502z M971,657.6c6.5,0.9,14.1,1.9,24.7,3.3c-4.3-15.8-12-32.1,10.5-39.1
		c0.8,7.8,0.6,15.8,11.1,16.3c1,0,1.7,5.2,2.5,7.9c-2.4,0.7-4.8,2.1-7,1.9c-4.5-0.5-8.8-1.9-13.3-2.9c-0.7,1.2-1.4,2.5-2.2,3.7
		c3.5,2.4,6.6,6.1,10.4,7.1c7.1,1.9,8.9,6.6,10.2,12.7c-4.3,1.5-8.3,3.2-12.1,5c-1.2-3.1-2.4-6.2-3.7-9.5c-3.9,3.9-6.9,6.8-9.8,9.7
		c0.2,0.9,0.2,1.7,0.6,2.1c0.9,1.1,1.8,2.1,2.7,3.2c-2.4,1.5-4.6,3-6.7,4.6c-0.9-0.5-1.8-1.1-2.5-1.8c-4.2-4.5-7.2-10.2-11.9-17.4
		c-0.5,4.2-0.2,6.3-1,7.8c-1.3,2.5-4.1,6.7-4.7,6.5c-4.2-1.7-11-4-11.3-6.8c-0.8-8.2,0.4-16.7,1.9-24.9c0.7-3.7,4.2-7,6.4-10.4
		c1.3,0.3,2.6,0.6,3.9,0.9C970.2,643.3,970.5,649.2,971,657.6z M963.3,566.5c-4.7-4-11.3-6.9-9.2-14.6c1.1-0.6,2.3-1.3,3.4-1.9
		c2.9,5,5.8,10,8.7,14.9C965.2,565.4,964.3,566,963.3,566.5z M845.4,255.2c14.8,17.9,14.8,17.9-1.6,20.9
		C849,269,850,263,845.4,255.2z M897,346c-1,7-8,15-2,18c4,1,12-9,16-4c3,3,1,13-2,15c-12,5-31-2-33-16c0-9-4-17-2-26
		c1-3,5-6,8.8-5.9C896.6,333.6,898.4,339.8,897,346z M895.1,387.8c10.2,1.1,17.7,2,29.2,3.5C918,404,910,416,894,421
		c-8,3-11,14-17,22c-1,0-3,0-4,0c3-4,5-9,9-12c-10-3-12,11-19,15c-3,2-6-2-7-5C849,415,878,401,895.1,387.8z M863.6,381.9
		C861,388,859,394,859,400c-4-3-9-4-14-6c8-8,0-31,13.5-28.4C865.6,370.8,865.4,376.2,863.6,381.9z M849,245c-4-3-5-8-10-9
		c-5,0-8,5-8.5,9c-2.8-3.5-5.1-5.7-6.4-8.3C823,234,823,232,822,229c9,1,16-4,25-3c6,1,11,6,12,12C861,246,855,248,849,245z
		 M832.1,209.1c2-2.7,4-4.8,5.4-7.3c1.1-2,1.4-4.4,2.4-7.8c8.9,13.6,8.9,14.3-1.2,23.3c-1.3-1.3-2.8-2.6-4-4.1
		C833.6,211.9,832.9,210.4,832.1,209.1z M858.3,172.6c-3.9,3.1-10.5-10.7-12.1,4.3c-3-4.3-4.6-6.7-5.9-8.5c0-1.2-0.1-1.8,0.1-1.9
		c13.7-9.8-0.7-13.2-4.1-19.4c-3.9-7.2-6.9-15-10.2-22.5C836.2,126.7,859.9,165.8,858.3,172.6z M808.6,143.3
		c4.9,5,9.8,9.9,14.8,14.9c-0.6,0.7-1.1,1.4-1.7,2.2c-5.4-4.5-10.9-9-16.3-13.5C806.4,145.7,807.5,144.5,808.6,143.3z M808.4,215.2
		c1.8,8.1,4.7,16,7.4,25.2c-4.8-0.3-9.5-2-13.6-4.4c-2.5-8.5-5.7-16.6-9.5-24.3c1.2-1.1,2.9-2.1,5-2.8
		C804.2,206.9,806.9,208.7,808.4,215.2z M792.8,77.6c1.1-0.2,2.2-0.5,3.4-0.7c1.7,5.2,3.3,10.3,5,15.5c-0.8,0.6-1.6,1.2-2.4,1.9
		c-2.9-1.3-5.7-2.6-9.1-4.1C790.8,85.6,791.8,81.6,792.8,77.6z M788.2,189.6c-1.6,2.1-3,3.9-4.7,6.1c-2.2-3.3-4.6-6.5-7.1-9.6
		c-0.8-1.6-1.6-3.1-2.4-4.7c0.3-0.5,0.7-1.1,1-1.6C779,182.9,783.2,185.9,788.2,189.6z M758.6,74.5c3.5-3.8,11.5-5,17.4-4.7
		c2.8,0.1,7.8,6.6,7.5,9.7c-0.8,7-2.7,15.2-7.2,20.1c-4.6,5-8.7,0-9.4-4.7c-4.7-1.5-10-2.2-10.1-3.3
		C756.5,85.8,755.4,77.9,758.6,74.5z M733.8,87.7c-1.2,0-2.5,0-3.7,0.1c0.1-3.7,0.2-7.4,0.3-11.1c0.4,0.1,0.9,0.2,1.3,0.3
		c-1.1-4.2-2.3-8.4-3.6-13.3C745.1,66.5,745.9,71.5,733.8,87.7z M548.7,453c22.7,22.8,22.8,62.1,0.1,84.7
		c-22.2,22.1-69.1,25-88.9,4.4c-19.4-20.3-20.7-61.9,6.5-88.6C489.3,430.4,525.9,430.2,548.7,453z M472.6,278.8
		c-2.5-1.6-7.9-2.1-8-3.5c-0.4-4.7,0.9-9.5,1.6-14.3c1.5,0,2.9,0,4.4,0.1c-3.3,11.2,3.9,13.5,12.4,16.4c-2-3.4-3.4-5.8-5.1-8.6
		c11.7,1.8,12.5,3.1,12.2,18c-2.5,1-5.1,2.1-7.8,3.3c0.5-0.8,1-1.6,1.5-2.4C480.1,284.7,476.6,281.5,472.6,278.8z M469.2,250.5
		c0.1-1.2,0.2-2.5,0.3-3.7c2.4-1.6,4.9-3.3,9.3-6.2c1.6,4.8,2.9,8.8,4.2,12.7C478.4,252.3,473.8,251.4,469.2,250.5z M492.5,231.7
		c2.1-3.6,1.7-8.7,2.5-13.8c9.9,2.4,10.1,3.7,4.2,37C485.5,247.1,485,244.3,492.5,231.7z M488,305.9c1.5,4.6,3.1,9.3,4.7,13.9
		c1-0.2,2-0.3,3.1-0.5c0.7-12.6,1.5-25.1,2.4-39.6c-0.1,0.1,2.4-0.9,6.2-2.3c-3.4-3.9-6.1-7-9.1-10.5c9.5,0.1,13.5,3,14.1,10.5
		c0.7,7.7-2.3,14,3,23.2c6.3,11.1,3.6,27.7,3.4,42c-0.1,8.3-4.5,16.5,1.5,24.6c0.5,0.7-2.6,5.8-4.5,6.2c-4.8,0.8-9.8,0-15.4,1.1
		c-9.1-8.7,2-19-2.3-31.4c6.1,1.5,10,2.4,13.9,3.4c0.6-11.7-0.5-12.5-8.8-10.3c-5.3-5.4-9.8-9.9-15.8-16c-1.7,6.1-2.7,9.5-4.1,14.3
		c-6.4-1.7-10.1-3.8-5.3-10.8C479.2,317.8,483.5,312,488,305.9z M495.1,407.2c0.3,6.4,0.6,12.8,1,19.2
		C486.5,409.1,486.5,408.5,495.1,407.2z M495.2,407.2c3.1-2.8,6.3-5.6,9.4-8.4c6.2,6.1,6.2,15.4-0.6,23.5
		C501,417.2,498.1,412.2,495.2,407.2z M517.2,268.9c9.7,8,10.6,21.4,1.3,31.7C518.1,290.7,517.7,280.8,517.2,268.9z M529.8,233.8
		c-3.4,5.9-6.8,11.8-10.5,18.3c-10.9-6.4-6.6-15.4-3.6-24.4c1.3,2.8,2.5,5.5,4.1,9c2.2-1.4,4.8-3,7.3-4.6
		C528,232.7,528.9,233.2,529.8,233.8z M477,166.5c4.2,1.9,7.8,5.2,11.9,7.4c1.9,1,4.5,1.5,6.5,1c1.1-0.3,1.8-3.2,2-5.1
		c1.4-11.4,2.6-22.8,4.1-35.5c7.5,7.2,19.5,9.7,13.5,23.9c-2.1,0.3-5,0.8-8.9,1.4c2.2,2.2,4,4.1,6,6.1c-12.9,7.1-14.7,18.3-4.7,25.3
		c1.4,1,3.8,1.9,5.2,1.4c10.2-3.6,10.8,2.1,10.2,11.1c-13.8-4.4-27.8-6.3-36.9-19.5c-5.1-3.1-10.5-5.8-15.2-9.5
		c-1.4-1.1-0.8-4.9-1.2-7.4C472.1,166.7,475,165.6,477,166.5z M479.9,190c0.1,7.5,0.1,14,0.2,20.5c-0.8,0.4-1.5,0.7-2.3,1.1
		c-1.2-1.6-3.6-3.8-3.2-4.8C476.7,201.5,467.3,193.3,479.9,190z M459,229.9c20.2-8,20.2-8,25.6-1.8c-4.8,1.9-9.9,4.5-15.3,5.8
		c-3.4,0.8-7.2-0.2-10.9-0.5C458.7,232.2,458.8,231.1,459,229.9z M457.9,305.1c7.9,0.7,9.6-15.8,19.2-8.6
		c-6.5,5.8-12.7,11.3-18.9,16.8c-0.7-0.2-1.4-0.5-2.1-0.7C456.8,310,457.6,305.1,457.9,305.1z M451.5,280.7
		c-0.7,0.2-1.4,0.4-2.1,0.6c-0.2-8.3-0.4-16.6-0.7-27.6c3,5.3,6.8,9.2,7.1,13.3C456.2,271.5,453.1,276.2,451.5,280.7z M445,212.6
		c2.8,5.2,5.1,9.5,7.5,13.8c-0.9,0.8-1.8,1.6-2.6,2.4c-3-1.4-6.1-2.8-8.9-4.2C442.3,220.7,443.3,217.6,445,212.6z M444.1,709
		c-0.2,6.6-0.5,13.2-0.7,19.8c-1.4,0-2.9,0-4.3,0c-1-6.6-1.9-13.3-2.9-19.9C438.9,709,441.5,709,444.1,709z M422.1,330.5
		c-7.5-13.1-7-18.9,3-24.1C424,314.8,423.2,321.6,422.1,330.5z M411.6,232.2c9.8,4.8,10,10.3,5.7,15.9c-0.8,1-3.8,0.2-5.8,0.3
		C411.5,243,411.6,237.6,411.6,232.2z M411.6,267.2c-1.7,0.7-3.5,1.4-5.2,2.1c-1.2-3-2.8-5.9-3.2-8.9c-0.1-0.8,3.4-2.1,5.2-3.2
		C409.4,260.5,410.5,263.9,411.6,267.2z M305.6,440.7c-6.1-7.1-2.9-13.4-0.3-19.9c2-4.9,4.5-9.6,7.1-15.1c8.3,5.3,8.5,14.7,0.5,21.7
		c-4.5,3.9-6.9,7.1-0.8,12.9c1.4-3.8,2.5-6.6,3.7-9.9c0.5,15.5,1,30.2,1.6,48.1c-3.9-8.3-6.8-14.6-10-21.4c-2.2,1.5-4.9,3.2-7.6,5
		c-0.6-0.4-1.2-0.7-1.8-1.1c1.9-2.9,4.3-5.7,5.5-8.9C305,448.4,307.2,442.6,305.6,440.7z M292.6,532.6c5-0.9,9.7-19.9,5.8-23.3
		c-9.1-7.9-7.2-15.4,0.4-24.6c1.1,3.9,2.6,6.9,2.7,9.9c0.1,3.1-1.3,6.2,0,10.2c1.7-2,3.5-4.1,5.4-6.3c0.7,0.7,1.7,1.2,1.9,2
		c2.5,10.6,4.5,21-5.4,29.5c-1.9,1.6-1,6-2.6,8.3c-2,2.9-5,5.4-8.1,7c-0.9,0.5-4.8-2.3-5.4-4.2C286,536.9,286.7,533.6,292.6,532.6z
		 M272.3,729.9c-22.7-22.8-23.8-60.2-1.6-82c19.5-19.2,56.1-26.7,82.8,2.2c22.2,22.1,22.9,60.3,1.5,82.1
		C333.2,754.3,295.6,753.2,272.3,729.9z M373.6,1053.1C361,1049,366,1032,362,1021c2,1,5,2,7.5,4.5
		C370.9,1034.5,372.3,1043.8,373.6,1053.1z M357.6,1416.9c-0.9-3.1-0.5-6.7,0.3-9.9c0.2-0.6,6.5-0.7,6.6-0.2c1,3.6,1,7.5,1.6,13.6
		C361.7,1418.7,358,1418.3,357.6,1416.9z M375.8,1362c-1.2,4.2-4.4,7.9-7.3,12.6c-2.3-6.1-3.7-9.6-5-13.1c-1.2-0.3-2.5-0.6-3.7-0.9
		c3.1-1.7,6.2-4.8,9.2-4.6C371.5,1356.1,376.2,1360.6,375.8,1362z M375.5,374.8c-1.7-5.5-3.5-10.9-5.4-17.1
		C380,359.4,380.6,361,375.5,374.8z M400,182.3c1.6,0.7,3.1,1.4,4.7,2.1c-1.9,4.2-3.7,8.3-5.6,12.5c-1.6-0.7-3.1-1.4-4.7-2.1
		C396.3,190.6,398.2,186.5,400,182.3z M400.7,1290c-0.8,0.3-3.2-3.8-6.3-7.7c8.1-1,13.8-1.6,19.5-2.3c0.4,1,0.7,2.1,1.1,3.1
		C410.3,1285.6,405.7,1288.3,400.7,1290z M438.6,1329.3c-8.2,0-15.6,0-22.9-0.1c-0.1-0.9-0.3-1.9-0.4-2.8c1.7-1,3.4-2.1,5.1-3.1
		c0.2-5.3-9.2-11.7,1.5-15.7c12-4.4,17.4-1.5,22,12c-2.8-0.4-5.1-0.7-8.6-1.1C436.5,1322.6,437.5,1325.9,438.6,1329.3z
		 M477.6,1094.3c3.7,0.5,5.7,0.7,8.8,1c0.7,8.5,1.4,14.6,2.9,25.7C484.8,1110.6,482.1,1104.5,477.6,1094.3z M500,1188
		c7,3,8,12,8.4,19.3c-3.7-3.7-6.2-6.3-9.6-10C499,1194,499,1191,500,1188z M502.6,1259.1c-0.1-2-0.2-4-0.3-6
		c6.5,1.3,12-5.3,17.7,1.8C514.8,1257.4,510.1,1258.6,502.6,1259.1z M657.8,655.3c25.1-27.6,66.5-29.3,92.5-5.4
		c28.3,26.1,20.7,66.6,2,86.4c-24.7,26.2-65.4,28.2-90.4,4.6C635.1,717.7,638.6,676.4,657.8,655.3z M770.7,1016.9
		c-10.7-5.5-8-12.2-2.6-19C769,1004,769.8,1010,770.7,1016.9z M710.2,781.5c-0.3,8.4-0.7,16.7-1,25.1c-1.5-0.1-3.1-0.2-4.6-0.4
		c1-8.3,1.9-16.7,2.9-25C708.4,781.4,709.3,781.4,710.2,781.5z M670.4,1134.1c-28.1-22-24.9-67.2-3.5-91.9
		c25.8-29.7,74.7-26.8,97.5,6.1c5.7,8.2,9.3,17.7,14.3,27.3c1.2-1.1,2.7-2.7,4.7-4.7c2.2,8.3,9.3,16.8-5.6,19.8
		c-1.8,0.4-2.4,6.6-3.6,10.1C760.8,1142.1,707.6,1163.2,670.4,1134.1z M735.5,1409.9c-2.4-2.7-4.9-5.8-7.9-7.5
		c-6.6-3.7-5.3-7.5-2.8-10.7c5.9,2.2,9.7,3.9,13.7,5.2c11.7,3.8,22.1,9.2,28.4,20.8C751.9,1424.1,746.8,1422.7,735.5,1409.9z
		 M746.9,1560.1c-1.9-2.5-5.6-5.5-5.2-7.5c0.6-2.7,4.2-4.9,6.6-7.2c0.7,4.5,1.4,8.9,2.2,13.4
		C749.2,1559.2,748.1,1559.7,746.9,1560.1z M748.4,1545.1c-6.1-6.4-4.3-12,1.8-17.1c3.2-2.7,6.7-5.2,10.5-8.1
		C762.3,1535.8,760.2,1539.8,748.4,1545.1z M766.4,1438.7c5.3,0.2,10.7,1,15.7,2.5c1.4,0.4,1.7,4.2,2.6,6.5
		c-0.7,0.8-1.5,1.7-2.2,2.5c-6.7-2.1-13.4-4.3-20.1-6.4C763.7,1442.1,765.1,1438.7,766.4,1438.7z M784.8,1472.3
		c-5.9,0.5-11.8,1.1-17.4,1.6c-0.5-5.7-0.8-9.6-1.2-14.7c6.2,3.2,12.4,6.5,18.7,9.8C784.8,1470.1,784.8,1471.2,784.8,1472.3z
		 M791.3,1537.5c5.3-1.6,9.6-2.9,14-4.3c0.9,0.8,1.8,1.7,2.6,2.5c-2.1,4-4.3,8-6.4,12.1C797.8,1544.1,795.3,1541.5,791.3,1537.5z
		 M825.8,1546.2c-1.1,3-2.5,6.6-5,8.2c-3.3,2.2-7.7,2.8-14.8,5.1c2-5.3,2.4-9.8,4.8-12c2.9-2.7,7.5-3.9,11.5-5
		C823.1,1542.2,826.1,1545.4,825.8,1546.2z M842.8,1556.2c-2.9-4.6-4.8-9.5,1.2-14.3c1.2,1.4,2.5,2.3,2.7,3.4
		c0.6,4,0.7,8.1,1.1,12.2C846,1557,843.5,1557.2,842.8,1556.2z M857.5,1527.3c-2.7,3.4-6.6,5.9-10,8.7c-0.8-1-1.5-2-2.3-3
		c1.5-4,2.9-8,5.4-14.6C853.7,1522.3,858,1526.7,857.5,1527.3z M1061.4,1182.4c-0.7,19.5-1.5,39-2.5,58.5c-0.4,8.1-2,16.1-2.3,24.2
		c-0.2,5,1,10.1,1.8,16.6c-9.7,11-5.7,26.9-7.4,41.3c-1.4,11.8,0.6,24,1,36c0,1,0.2,2.5-0.4,2.9c-12.3,9.1-3.4,21.6-5.1,32.4
		c-1.6,9.8-2.2,19.7-2.7,29.6c-0.1,2.8,1.7,5.7,3,9.7c-5.4,8.8-10.8,45.7-6.7,53.9c2.3-1.6,4.6-3.1,8.2-5.6c0.2,3.5,1.4,7.4,0.3,8.2
		c-6.3,4.8-14.6,13.8-19.7,12.3c-11.1-3.1-13,3.6-17.1,9.4c-1.1,1.6-2.4,3.1-4.5,5.8c-2.6-9.5-7.2-8.9-14.7-6.7
		c-4.5,1.3-10.7-3.5-18-6.2c0.5,6.5,1,12.7,1.7,20.7c-1.5,1.2-4.8,3.9-10.2,8.3c0.9-7.9,1.6-13.9,2-18.2c-7,2.3-13.3,4.4-19.5,6.5
		c-0.6-1.2-1.2-2.5-1.8-3.7c1.5-1.5,3-2.9,4.4-4.4c2.8-3,5.6-6,8.4-9c-3.6-1.1-7.3-2.1-12.2-3.5c4.7-7.7,9.6-15.7,14.4-23.7
		c-1-1.1-2-2.2-3-3.3c-14.5,10.1-29,20.2-43.4,30.3c0.3,0.7,0.6,1.3,0.9,2c6.3-1.3,12.6-2.5,18.8-3.8c2.3,5.6,4.9,10.4,6.3,15.6
		c1.8,6.6-0.6,11-8.2,10c-7.6-1-15.1-2.5-24.4-4.2c3.8-4.1,6.2-6.9,8.7-9.6c-11.6,5.6-21.2,2.6-30.5-5.3c3.9-5.3,6.9-9.1,14.7-8.2
		c4.6,0.5,9.9-5.1,14.8-7.9c5.4-3.1,10.8-6.1,17-9.6c-0.8-3-1.9-7.3-3-11.6c0.8-0.3,1.6-0.6,2.4-0.9c1.6,2.5,3.1,4.9,5.2,8.3
		c2.9-7,6-13.3,8.1-19.9c0.6-1.9-0.6-6-2.2-6.9c-8.5-4.7-8.6-11.4-6.2-20c-3.2,2.9-6.5,5.7-10.8,9.5c-0.8-2.4-1.1-4.7-1.1-6.7
		c7.8-3.1,15.2-7.2,22.1-12.2c0.1,5,0.1,9.5,0.2,15.1c2.9-0.7,6.3-0.6,8.6-2.2c10.5-7,17.4-14.9,19.2-29.6c0.6-4.9,1.1-9.5,1.2-14
		c11.9-17.6,20.5-39,24.5-62.6c0.9,0.2,1.9,0.4,2.8,0.6c1.7-2.4,4.5-4.6,4.7-7.2c0.2-1.8-3.1-3.9-4.9-5.9c-0.3,0.1-0.6,0.1-1,0.2
		c0.6-5.9,0.9-11.9,0.9-18c0-15.1-1.9-29.7-5.3-43.3c1.8-12.3,3.6-24.7,4.8-37c0.9-9.7,0.2-19.7-0.6-29.4c-0.2-2.3-4-4.3-6.7-7.1
		c0.7-5,1.5-10.9,2.3-16.8c6.5,1.6,12.1,4.1,17.6,4.1c7.2,0.1,9.8-3.6,5.2-10.6c-4.1-6.2-10.8-12.2-4.7-21.7
		c1.9,0.8,4.4,1.1,5.9,2.6c5.3,5.3,8.9,14.3,18.9,6.9c0.3-0.2,1.4,0.2,1.8,0.7c5.8,6.3,12.5,11.9,16.9,19.1
		C1062.9,1170.6,1061.6,1177.1,1061.4,1182.4z M1139.3,1140.3c-21,20.1-60.4,19.5-80-1.3c-23.8-25.4-23.2-61.6,1.4-84.9
		c17.9-21.2,57.5-20,80.4,3.8C1163.4,1080.9,1162.7,1118,1139.3,1140.3z M1213.6,1132.6c0.4-9.5,0.7-17.5,1.1-25.5
		c1,0.1,2.1,0.2,3.1,0.4C1218.5,1115.6,1225.5,1124.3,1213.6,1132.6z M1211,509c-1-3,3-2,4-2c5-1,13,3,15-2c3-6-6-9-5-15
		c0-6,5-11,2-17c-7,6-9,18-15,20c-11,5-30,0-37-10c-4-6,13-9,16-18c1,3,4,7,6,6c4.3-1.4,4.3-5.1,2.4-8.6c-1.2-0.2-2.4-0.3-3.7-0.5
		c0.2-1.2,0.3-2.4,0.5-3.6c-2-1.9-4.3-3.2-6.2-3.2c-5,1-10,8-15,12c-0.8,0.7-1.5,1.3-2.3,2c0.1,0.1,0.3,0.1,0.4,0.2
		c-2.5,15.5-2,32.4-8.6,45.9c-4,8.1-5.9,16.7-9.5,24.8c-1.6,3.6-1.8,7.9-2.2,11.9c-1,9.2-1.5,18.4-2.5,27.5
		c-0.7,6.4-3.1,12.8-2.6,19c1,12.9-2.9,22-16.5,26.2c-0.6-1.3-2.1-2.9-1.8-4.1c2.5-10.3,5.4-20.4,7.9-30.6c1-3.9,1.2-8,2-11.9
		c3.9-19.9,10.9-39.8,10.9-59.7c0-16.3,12.8-26.6,13-41.7c0-0.2,0-0.5,0.1-0.7c-4.8,2.4-10,2.8-15.4-1.6c-2-2-2-4-1-6c4-4,10-5,14-9
		c17-15,10-44-6-56c3,4,7,9,4,14c0,1-6-2-5,0c6,17,11,38-12,44c-4.9,1.5-9.8,3-14.6,4.5c0.9,3.9,1.4,7.5,0.9,11.1
		c-0.9,7.4-5.6,14.9-10.1,21.2c-8.8,12.4-5.4,23.4,3.6,37.3c4.4-11.4,8.1-21.1,11.8-30.8c1.2,0.2,2.4,0.4,3.6,0.7c0.7,2,2.2,4.1,2,6
		c-1.3,13.3-2.1,26.8-4.6,39.9c-2.2,11.8-6.5,23.3-9.5,35c-1,3.9-1.2,8-1.6,12c-1.2,12-2.3,24.1-3.7,36.1c-0.2,1.4-1.7,3.1-3,3.8
		c-6.9,3.5-23.5-8.7-23.8-19.1c5.5,3.8,10.1,7,14.8,10.1c0.7-0.8,1.5-1.6,2.2-2.4c-4-4.1-7.7-8.7-12.2-12.1c-5-3.7-10.9-6.3-17-9.7
		c-5.5,13.2-11.5,27.5-17.5,41.8c0.5-8.2,0.7-16.5,1.6-24.7c1.4-13.1,3.9-26.2,4.9-39.3c1.1-13.7,0.5-13.8-14.7-12.2
		c9.3-8.4,17.5-15.8,26.2-23.7c-6.6-4.7-8-10-4.3-17.4c3.1-6.2,4.4-13.4,6.3-20.2c0.7-2.3,0.2-5.3,1.6-6.9c6.5-7.5,7.3-14.5,4-21.5
		c-10.6,5.1-20.6,11.1-30,18.5c6,1,14-1,16,7c0,2-3,5-4,4c-12-5-17,4-27,7c-4,1-9-2-7-6c9.6-20.3,25.6-32.9,44.3-40.9
		c0,0-0.1-0.1-0.1-0.1c8.6-2.6,10.6-18.9,21.8-7.2c7-4.1,13.5-7.8,20.9-12.1c0.6,2.9,1.3,5.6,1.9,8.3c2.7-0.4,5.5-0.7,8.2-1
		c3-1,7-3,10-5c3-4,8-7,8-12c0-10-5-20-12-28c-1-1-4,0-4,1c-2,29-36,22-56,31c-4,2-8,5-11,6c-17,5-29,17-44,24c-2,1-5-2-5-4
		c-1-3,3-6,6-8c31-18,71-15,91-43c6-9-3-27-10-41c2,0,4-1,4-2c-5-16-16-28-23-43c8,6,14,13,22,18c-13-14-25-33-44-39c1,7,9,7,13,11
		c2,4-3,7-2,10c3,9,11,14,1,21c0,1-4-2-5-4c-4-10-5-23-15-26c-1,0-5,5-5,6c4,9,13,18,15,30c0,1,3,7,7,4c1-1,0-4-1-6
		c2.3,1.2,5,2.3,7.6,3.5c-4.6,11.8-2.1,22.1,7.1,30.6c1.8-5.8-9.2-13.3,1.8-14.5c-0.6-4.3-1.2-8.4-1.8-12.6c3.6,2,6.4,4.3,7.3,6.9
		c1.1,3.8,2.9,7.9,4.6,12.1c-0.3,1.4-0.6,2.8-0.9,4.2c0.9,0.1,1.8,0.3,2.8,0.4c3.8,10.1,5.7,20.3-4.5,27.2c0,1-3-3-5-6
		c-7,7-5,24-16,22c-23-3-42,0-64,7c-2,0-4-1-6-2c9-10,24-10,34-19c-17-4-39,4-45,17c-4,7-12,15-17,24c1-3,0-6-3-8c-7-4-17-4-18-14
		c0-10,14-14,13-21c-1-6-13-2-20-3c4-3,8-11,11-11c15,3,27,0,40-8c3-1,6,1,9,0c11-6,1-22-3-31c1,0,3,0,4,0c-5-3-13-3-15-8
		c-12-22-26-42-51-48c3-4,12-2,12-4c-1-16-23-19-34-28c-4,7-10,15-15,16s-8-10-15-12c2,7,4,14,7,20c-6-2-11-5-17-7c1,4,5,9,3,10
		c-11,4-28-1-29-12c0-8,12-9,12-19c1-19-17-48,4-59c0,0,3,5,2,8c-1,9-2,17,1,25c5,10,22,24,25,17c6-15,1-36-5.2-53.9
		c-1.9-5.6-4.2-11.3-6-17.2c-3.4,8.6-8.6,17-0.9,25.9c7,8.2,8.2,17,4.1,28.9c-2-3.5-4.8-6.6-4.3-8.2c3.7-11.8-5.9-18.2-9.2-26.4
		c-1.4-3.4-6.2-5.8-10-7.5c-6.8-3-6.6-6.3-2.4-11.6c2-2.5,3.6-6.3,3.3-9.3c-0.5-5.7-3.2-11.4,3.5-15.4c6.8-4,12.2-3.8,19,0.8
		c4.2-5.4,8.4-10.8,12.5-16.1c3.3,2,6.3,3.7,9.5,5.6c-1.3,10.4-4.1,21.6,7.9,29.9c2-2.7,3.7-5.1,5.5-7.6c-7.9-2.8-11-16-5.2-21.9
		c1.1-1.1,4.5-1.3,6.1-0.5c3.6,1.9,6.8,4.5,10,7c4.7,3.7,8.9,7.5,15.3,2.4c1.7-1.4,5.3-1,7.8-0.6c5.2,0.9,8.7,2.8,3.7,8.6
		c-1,1.1-0.8,3.3-1.1,5.1c1.8-0.2,3.5-0.5,5.3-0.5c4.8-0.1,10.1-1.4,14.2,0.3c10.6,4.3,14.1,3.3,18.5-7.5c1.4-3.4,3.5-6.5,7-9.4
		c-4.5,12.8-1.5,23.9,6.9,34.8c-3.4,0.9-5.5,1-6.9,2c-1.7,1.2-3.8,3.1-4.1,4.9c-0.2,1.6,1.5,4,3,5.3c3,3.8,8,4.8,11,8.8c0-2,1-5,2-5
		c11-2,18,9,23,17c9,15,11,35,26,45c-2-11-2-22-3-33c-11,7-14-4-18-12c7-4,12-12,22-12c-4,6-9,16,0,19c4,2,6-3,7.8-6.7
		c1.2-2,3.8-3,5.8-4.4c1.5,2.8,4.3,5.6,4.2,8.3C1092,256,1087,287,1066,287c-7,0-6-20-16-28c-1,8-1,16,2,22c4,7,13,11,18,17
		c12,12,18,30,34,38c1-3-1-6-2-9c4,0,7,3,10,5c-1.3-4.4-4.1-7.6-7.1-10.9c1.9-1.6,3.7-3.2,4.4-5.2c1.2-3.2-0.4-7.5-0.7-11.3
		c-1,0.1-2,0.2-3.1,0.2c-0.3,3.8-0.6,7.5-1.1,13.5c-5.8-10.5-10.6-19.2-15.4-27.9c0.6-1.5,1.2-2.9,1.9-4.4c2-3-2-9,0-13s7-6,8-11
		c1-3,3-6,1-10c0-2,2-5,3-4c7,4,8,13,12,20c2-5,5-9,10-8c17,1,0,25,7,36c1,1,3,1,4,1c-2-14,6-25,14.8-35.1c1.6-2-0.4-6.8-0.8-10.3
		c1-0.1,2-0.3,3-0.4c7,14.7-1,31.7,6,44.7c2.5,4.2,9.4,7,14.8,9.8c-8.8,3-8.8,9.8,0.4,23.5c-0.6-8.5,9-14.6,3.2-22.5
		c4.9-3.7,10.1-7.2,15.6-10.5c1.1,8.8,1.1,21.8-1.9,29.8c-5,11,4,27,14,39c1.4-5,0.8-10.8-0.2-16.7c3.4-2.6,6.2-4.8,10-7.8
		c-2.5-3.3-4.3-5.7-6.2-8.2c-3.1,1.6-5,3.4-6,5.2c-2.3-11.9-3.3-22.9,8.4-28.5c1,10,9,6,12,10c6.2,5.5,9,13.5,10.3,22.6
		c1.9-0.3,3.9-0.7,4-0.4c1.3,4,2,8.2,2.9,12.4c-1.9,0.4-3.8,0.8-5.7,1.2c0.5,10.7,0.4,21.8,2.6,31.2c-8-6-18-12-25-10
		c-6,2,4,10,4,17c-7-7-15-13-23-20c1,1,1,2,2,3c-9-3-16-9-17-19c1,0,1,1,2,1c-6-9-12-18-18-27c4,25,19,50,39,66c-2-1-5-1-7-1
		c23,19,40,45,43,75c12-19-11-42-22-59c-4-7-6-14-9-21c17,16,30,34,41,54c-5-11-7-23-13-34c20,31,35,71,24,108c-1-2-3-4-3-6
		c0-5,5-9,4-14c-2-5-6-12-11-8c-2,1-3,5-3,7c1,2,4,3,4,6c-1,5-4,10-7,14c-2-3,1-7-4-9c-1,6-5,10-8,15C1225,517,1215,516,1211,509z
		 M1061.5,521.6c3.7,9.1,6.2,15.1,9,21.8c-9.3,1.4-10.9-6.4-13.5-11.6C1056.1,530,1059.4,526.2,1061.5,521.6z M1087,455
		c10-4,20-3,30-6c-12,5-24,9-35.8,13.3C1080.9,459,1082,456.9,1087,455z M1087.4,295.8c2.8,6.7,5.5,13.5,8.5,20.1
		c0.5,1.2,1.3,2.3,2,3.4c-0.9,2.4-1.8,4.9-3,6.7C1087.3,316.8,1085,306.5,1087.4,295.8z M1254.1,1019.9c-0.1,5.2,0.4,12.7-7.9,10.5
		c-2.8-0.7-4.1-7.5-6.1-11.5c1-0.4,2-0.9,3-1.3c1,2.5,2.1,5,4,9.7c2.4-10.8,4.4-19.4,6.3-28
		C1253.7,1006.1,1254.2,1013,1254.1,1019.9z M1253.5,998.2c-2.2-19.3-1.1-29.7,3.9-39.4c1,0.1,2,0.3,3,0.4
		C1258.1,972.2,1255.8,985.2,1253.5,998.2z M1319.7,1026.2c-1-0.4-2.1-0.8-3.1-1.2c-3.5-10.8-3.2-11.5,7.9-11.3
		C1322.7,1018.3,1321.2,1022.3,1319.7,1026.2z M1338.3,945.3c-22.1,21.8-61,21.6-83.3-0.5c-23.6-23.3-24.4-64-1.8-86.7
		c21.9-22,59.5-20.3,83.4,3.8C1360.4,886,1361.1,922.8,1338.3,945.3z M1351.7,573.2c-4.2-1.6-6.7-11.1-3.7-17.7
		c0.8-1.8,4.8-2.2,8.9-3.9C1354.7,560.8,1353.2,567,1351.7,573.2z M1365.9,991.6c-0.6-3.3-0.3-6.7-0.4-10.1c2,0.5,5.4,0.5,5.7,1.6
		c1,2.8,0.7,6.1,1,10.6C1369,992.7,1366,992.4,1365.9,991.6z M1370.8,416.5c-0.1-5.4-0.2-10.4-0.3-15.3c1.3,0.1,2.5,0.3,3.8,0.4
		C1375,414.1,1374.8,415.1,1370.8,416.5z M1378.5,897.1c-1.6-3.6-3.3-7.1-4.9-10.7c1.9-0.9,3.8-1.8,5.8-2.6c0.9,4,1.9,8,2.8,12.1
		C1380.9,896.3,1379.7,896.7,1378.5,897.1z M1376.8,396.9c-1-1.8-2-3.6-3.1-5.4c3-4.1,6-8.2,8.9-12.3c1.1,0.4,2.2,0.8,3.3,1.1
		c1.6,4,3.2,8,4.8,12C1385,389.7,1380.5,386.9,1376.8,396.9z M1417.1,441.4c-4-7.9-6.4-12.8-9.6-19.1c7.2,1.1,11.6,1.8,18.2,2.8
		C1423.2,429.8,1420.8,434.3,1417.1,441.4z"/>
	<path d="M1203.6,438.4c-1.5-0.2-3-0.4-4.6-0.6c-0.9,6.8-1.9,13.7-2.8,20.5c1.3,1.2,2.4,2.7,3.2,4.1c0.4,0,0.7,0.1,1.1,0.1
		C1201.5,454.5,1202.5,446.4,1203.6,438.4z"/>
	<path d="M1234,354.9c0.1,0,0.3-0.1,0.4-0.1c-0.2-4.5-0.5-8.9-1.1-13.2c-0.7,0.1-1.4,0.2-2,0.3
		C1232.2,346.3,1233.1,350.6,1234,354.9z"/>
	<path d="M875.1,77c1.1-1.9,2.2-3.8,3.3-5.7c1.9-3.3,4.2-9.5,5.7-9.3c4.2,0.6,9.1,2.9,11.8,6.1c2.5,2.9,2.5,8,3.6,12.1
		c0.8,3,1.6,6,2,7.4c6.1-0.1,10.4-0.1,16.2-0.2c-3.4-8.5-6.7-16.7-10.2-24.9c-0.3-0.7-1.7-1-2.6-1.3c-7.7-2.4-15.3-5.4-23.1-6.7
		c-3.7-0.6-11.1,1.8-11.3,3.5c-0.7,6.2,0.9,12.6,1.7,18.9C873.2,76.9,874.2,76.9,875.1,77z"/>
	<path d="M1178.2,153.4c0-0.1,0-0.1,0-0.2C1178.2,153.3,1178.2,153.4,1178.2,153.4l0-0.2C1178.1,153.3,1178.1,153.4,1178.2,153.4
		C1178.1,153.4,1178.1,153.4,1178.2,153.4C1178.2,153.4,1178.2,153.4,1178.2,153.4z"/>
	<path d="M1179.9,179.7c3-0.6,6.4-0.5,8.9-2.1c6.1-3.8,11.8-8.3,18.9-13.5c-3.1-3.5-6.9-8.4-11.4-12.7c-6.5-6.2-13-6.6-18.1,2
		c0.9,6.2,1.9,12.3,2.5,18.5C1181,174.4,1180.2,177.1,1179.9,179.7z"/>
	<path d="M832.5,83.5c-0.8-4.5-1.6-9-2.4-13.5c3.9,0.3,7.7,0.6,12.3,1c7.2-11.5-8.7-7.5-11.3-14.3c4.2-0.2,7.5-0.3,13.6-0.5
		c-7.1-5-11.9-8.4-17.4-12.3c-5.3,3-5,32.5,1.7,39.6C830.2,83.5,831.4,83.5,832.5,83.5z"/>
	<path d="M1383,327.6c12.8,7.3,15.3,18.5,14.2,31.6c0,0.3,1,0.6,1.5,0.9c10.3-10.5-1.5-36.3-20.6-45.4c-1,0.6-1.9,1.1-2.9,1.7
		C1377.7,320.3,1379.4,325.6,1383,327.6z"/>
	<path d="M1299.2,239.8c-0.7-4.1-1.4-7.9-1.9-10.8c-5.1-1.5-9.1-2.6-13-3.7c0.2-0.6,0.4-1.3,0.6-1.9c1.2-0.3,2.4-0.7,3.4-1
		c-4.1-4.2-7.6-7.6-11.5-11.6C1275.4,224.7,1282.3,233.3,1299.2,239.8z"/>
	<path d="M137.6,495.9c1.5-13.9,2.7-26,4-38.1c-0.8-0.1-1.7-0.2-2.5-0.3C130.5,479,129.5,488.4,137.6,495.9z"/>
	<path d="M1260.1,208.9c-1.3-2.5-2.1-5.6-4-7.4c-1.1-1-4-0.1-6.1,0c-0.2,0.9-0.5,1.8-0.7,2.8c2.7,2.2,5.5,4.5,8.2,6.7
		C1258.4,210.2,1259.3,209.6,1260.1,208.9z"/>
	<path d="M852.1,96.8c0,0.1,0,0.1,0,0.2c0,0,0.1,0,0.1,0l-0.1,0c0,0,0,0.1,0.1,0.1c0,0,0.1-0.1,0.1-0.1
		C852.1,96.8,852.1,96.8,852.1,96.8z"/>
	<path d="M842.3,81.6c-0.9,0.8-1.9,1.6-2.8,2.4c4.2,4.2,8.4,8.5,12.6,12.7C853.1,88.6,849.9,83.6,842.3,81.6z"/>
	<path d="M1008.9,339.8c0.1,0.1,0.3,0.2,0.4,0.3c0-0.1-0.1-0.2-0.1-0.2C1009.2,339.9,1008.9,339.8,1008.9,339.8z"/>
	<path d="M1041,354c1,4,3,8,3,13c-11.9-7.9-23.7-17.8-34.7-26.8c1.6,3-0.3,5.9,0.7,8.8c6,16,20,30,15,48c11,2,10-7,14-11
		c2,4,7,7,9,11c2-11-3-21,12-19C1056,369,1050,359,1041,354z"/>
	<path d="M1008.9,339.8c0,0,0.3,0.1,0.3,0.1c-0.1,0-0.1-0.1-0.2-0.1C1009,339.8,1008.9,339.8,1008.9,339.8z"/>
	<path d="M1018,336c-4-26-38-29-57-45c2,2,3,6,5,8c18.9,8,27.9,27.9,43,40.8C1012.1,338,1018,339,1018,336z"/>
	<path d="M1104.8,285.2c-2.2-1-5-2.2-9-3.9c0.8,6.1,1.4,10.6,2,15.1c4.8-0.4,8.9,0.2,11.7-1.3c2.4-1.3,4.3-5.1,4.7-8.1
		c0.4-2.4-1.7-5.1-2.7-7.7C1109.4,281.2,1107.3,283,1104.8,285.2z"/>
	<path d="M933.5,252.8c-12.3-13.5-2-11.3,1-14.8c-1.4-4.3-2.5-8.5-3.6-12.5c-3.7,11.2-9.9,8.5-16.9,2.5c-0.3,0.9-0.6,1.7-0.9,2.6
		c4,6.6,8.5,13.3,13.4,20.1C928.8,251.4,931.1,252.1,933.5,252.8z"/>
	<path d="M1018,268.6c-0.8,4.4-1.1,6.9-1.3,8.4c10.2,7,20.2,15,30.2,22C1040,287,1027,279,1018,268.6z"/>
	<path d="M1008.7,288.9c0.8-0.3,1.6-0.5,2.4-0.8C1004,277,1002,262,986,267C993,275,1001,282,1008.7,288.9z"/>
	<path d="M1036.2,325.5c0.1-6.5,5.3-11-17.9-26C1024.7,309.5,1030.4,317.4,1036.2,325.5z"/>
	<path d="M1063.6,300.5c-9.7-8.6-17.4-15.5-24.7-21.8C1043.5,291.1,1051.5,298.8,1063.6,300.5z"/>
	<path d="M988,423c-1,7,12,1,16-2c2-2,3-4,3.3-6.3c-2.1-0.3-4.2-0.7-6.3-1C996,416,989,419,988,423z"/>
	<path d="M916,266.2c18.7,5.5,18.7,5.5,20.2,1.1C921.1,257.7,917.3,257.5,916,266.2z"/>
	<path d="M981.6,275.4C975,269,971,257,960,261c6,6,14,9,20.2,14.8C980.7,275.7,981.1,275.6,981.6,275.4z"/>
	<path d="M881.2,285.5c2.9-6.7,4.9-11.4,7.5-17.4c-6.1,2.9-10.8,5-16,7.3C874.5,277.7,876.6,280.3,881.2,285.5z"/>
	<path d="M1038.2,1315.6c-2.6,2.1-5.9,5.2-6.1,8.1c-1.1,19.2-1.5,38.4-2,57.6c0,1.2,0.6,2.4,1.8,6.9c2.3-5.1,4-7.4,4.3-9.9
		c1.1-8.4,1.5-16.8,2.4-25.2c0.9-8.9,1.8-17.9,3-26.8c0.4-3,1.8-5.9,2.8-8.8C1042.3,1316.7,1039.2,1314.8,1038.2,1315.6z"/>
	<path d="M1018.4,1349.8c6.4-9.1,9.1-42.1,3.9-51.6c-0.8,7.1,0.2,13.9-2.4,18.6C1013.9,1327.6,1014.1,1337.9,1018.4,1349.8z"/>
	<path d="M1044.8,1289.2c0.7-10.4,1.3-19.3,2-30.3C1035.3,1266.3,1034.4,1281.3,1044.8,1289.2z"/>
	<path d="M952.3,1461.9c15.3-1.9,18.7-7.6,15.2-28.2C961.6,1444.6,957,1453,952.3,1461.9z"/>
	<path d="M1030.1,1404.3c-0.3,5.5,1.2,11.6-1.1,13.6c-8.5,7.5-8.9,7-0.1,13.9c2.2-4.4,4.1-9.1,6.7-13.3
		C1040.3,1411.4,1037.8,1407.5,1030.1,1404.3z"/>
	<path d="M1016.6,1380.7c1.2-0.3,2.4-0.5,3.7-0.8c1.1-6.7,2.3-13.4,3.4-20c-1.3-0.8-2.7-1.6-4-2.4c-2.3,3.7-5.9,7.2-6.4,11.1
		C1012.7,1372.3,1015.4,1376.6,1016.6,1380.7z"/>
	<path d="M1007.3,1389c-2.6,10.6-4.5,18.7-6.5,26.7c1,0.4,1.9,0.8,2.9,1.2c2-4.8,3.9-9.6,5.8-14.3c2.7-2.3,5-4.2,7.3-6.2
		C1014.1,1394.3,1011.3,1392.1,1007.3,1389z"/>
	<path d="M1023.4,1260.3c0.1,8.6,0.2,16.3,0.4,25.9C1033,1275.5,1032.3,1265.4,1023.4,1260.3z"/>
	<path d="M1027.4,1476.8c-3.8,6.3-7.6,12.7-11.6,19.2C1027.2,1497.2,1027.2,1497.2,1027.4,1476.8z"/>
	<path d="M1015.9,1229c-1.2-0.1-2.4-0.2-3.6-0.3c-1,9.5-2,19-3,28.4c1.2,0.1,2.4,0.3,3.7,0.4C1014,1248,1015,1238.5,1015.9,1229z"/>
	<path d="M1019.5,1198.8c-1.6-0.1-3.2-0.1-4.8-0.2c-0.3,5.7-0.5,11.3-0.8,17c1.6,0.1,3.1,0.1,4.7,0.2
		C1018.9,1210.2,1019.2,1204.5,1019.5,1198.8z"/>
	<path d="M1040.2,1305.9c0.3-2.7,0.2-5.8-0.9-8.2c-0.5-1.1-3.7-1-7.6-1.9c1.2,4.9,1.7,8,3,10.8
		C1035,1307.2,1040.2,1306.4,1040.2,1305.9z"/>
	<path d="M1044.1,1224.2c9.6-2.1,10.6-6.1,3.6-15.9C1046.3,1214.6,1045.3,1219.1,1044.1,1224.2z"/>
	<path d="M1044.3,1237.8c0.3,4.8,0.6,9.7,0.9,14.5c1.6-0.1,3.2-0.2,4.8-0.3c-0.2-4.9-0.4-9.7-0.7-14.6
		C1047.7,1237.5,1046,1237.6,1044.3,1237.8z"/>
	<path d="M973,1452.3c1.1,5,2.1,9.2,3.2,14.5C982.8,1459.1,982.1,1456.1,973,1452.3z"/>
	<path d="M1070.6,832.4c4.1-8.1,0.4-15.9-8.4-18c-10.6,24.5-11.2,34.3-3.9,41.9C1062.3,848.6,1066.5,840.5,1070.6,832.4z"/>
	<path d="M1038.9,826.6c-2.1,7.7-4.3,15.4-6.4,23c1,0.3,2,0.6,3,0.9c3-7.4,12-13,6.9-22.9C1041.2,827.3,1040.1,827,1038.9,826.6z"/>
	<path d="M1024.6,796.3c-0.8,5.2-1.6,10.4-2.4,15.6c0.9,0.2,1.8,0.3,2.7,0.5c2.2-5,9.2-8.8,3.6-15.5
		C1027.2,796.7,1025.9,796.5,1024.6,796.3z"/>
	<path d="M1098.6,599.2c0.9,1.9,2,3.7,3,5.6c1.4-1.6,3.3-2.9,4.1-4.7c2.1-4.6,2.5-10.4,5.6-14c5.9-6.7,8.2-12.7,0.7-19.6
		c10-5,14.7-16.3,11.2-27.4c-3.6,3.6-8,6.2-9.9,10.1c-7.3,15.2-5.4,33.3-14.6,48C1098.5,597.8,1098.4,598.7,1098.6,599.2z"/>
	<path d="M1101.9,527.9c5.9-20.3,5-23.6-6.2-23.1C1098,526.4,1098,526.4,1101.9,527.9z"/>
	<path d="M1094.5,537.6c-1.4,6.2-2.7,11.3-3.6,16.4c0,0.2,2.7,0.9,4.2,1.4c1-5.2,1.9-10.4,2.8-15.7
		C1097.9,539.7,1097.3,539.4,1094.5,537.6z"/>
	<path d="M871.6,679.1c3-6.9,6-13.8,9.6-22.1C869,663.4,865.4,673.1,871.6,679.1z"/>
	<path d="M896.5,655c-1.9,5-3.3,8.5-4.2,11c6.2,3.2,11,5.7,18.3,9.4C905.2,667.7,901.3,662.1,896.5,655z"/>
	<path d="M882.3,422.9c4.7-7.7,8.7-14.2,12.8-20.6c-12.5,4.9-18.9,8-20.6,11C872.7,416.1,875.7,418.8,882.3,422.9z"/>
</g>
</svg>
