<svg version="1.1" xmlns="http://www.w3.org/2000/svg" xmlns:xlink="http://www.w3.org/1999/xlink" x="0px" y="0px"
	 viewBox="0 0 71.5 71" fill="#121212">

	<g>
		<path d="M45.6,30.9c0.2,0,0.3,0,0.5,0c0,0.4,0,0.8,0,1.3c0.4,0.1,0.9,0.2,1.4,0.3c0,0.2,0.1,0.4,0.2,0.7c0.4,0.1,0.8,0.1,1.2,0.2
			c0.8,1.1-1.2,0.6-0.7,1.7c0.4,0.1,0.8,0.2,1.3,0.3c0,0.2,0,0.3,0.1,0.7c-1,0.1-1.9,0.2-3.2,0.3c0.5,0.6,0.9,0.9,1.3,1.3
			c-0.5,0.4-1.1,0.9-1.7,1.3c-0.3-0.2-0.8-0.4-1.4-0.7c0.6-0.1,1.1-0.2,1.5-0.3c0-0.2,0.1-0.4,0.1-0.8c-0.4,0-0.8,0-1.2-0.1
			c-0.4,0.5-0.8,1-1.2,1.3c0-0.8-0.2-1.9,0.3-2.6c0.8-1.1-0.1-1.9-0.3-2.6c-0.3-0.9-0.2-1.8-0.8-2.4c-0.3-0.6-0.6-1.1-0.8-1.6
			c-0.5,0.3-0.8,0.5-0.9,0.5c-0.5-0.6-0.9-1.2-1.4-1.8c-1.8,0-3.4,0-5.1,0c-0.2,0-0.3,0-0.5,0c-1.8,0.2-3.6,0.6-4.4,2.6
			c-0.2,0.4-0.7,0.6-0.9,0.7c-0.1,1.6-0.1,2.9-0.4,4.2c-0.3,1.2,0.3,2.5,0.4,3.5c1.6,1.6,2.9,2.9,4.2,4.2c1.1,0.2,2.1,0.3,3.2,0.5
			c2.9-1,5.9-2,7.5-5.3c0,0.4,0,0.6,0,0.9c0.3,0.1,0.6,0.3,1,0.4c0,0.3,0,0.7,0,1c0.7,0.4,1.6,0.6,1.4,1.7c-0.2-0.1-0.4-0.2-0.7-0.3
			c-0.5,0.3-1,0.7-1.7,1.1c0,0.6,0,1.3,0,2.1c-0.4-0.2-0.7-0.3-1-0.4c-0.1-0.5-0.3-0.9-0.5-1.6c-0.9,0.8-1.4,1.6-1.4,2.6
			c-0.2-0.1-0.5-0.3-0.8-0.4c-0.3,0.3-0.6,0.6-0.8,0.9c-0.3-0.2-0.5-0.3-0.5-0.5c-0.5-0.3-0.8-0.5-1.3-0.7c0,0-0.2,0.2-0.8,0.6
			c0.9,0,1.3,0,2.1,0c-0.5,0.5-0.8,1-1.1,1.6c-0.9-0.3-1.7-0.7-2.8-1.1c-0.3,0.4-0.6,1.1-1.1,1.4c-0.6,0.3-1.1,0.5-1.1,1.2
			c0.3,0.7,1.4-0.2,1.5,0.8c-0.9-0.1-2,0.4-2.4-1c0.9-0.3,0.5-0.9,0.3-1.4c-0.2-0.7-0.9-1.2-0.8-2c0.1-0.1,0.3-0.1,0.5-0.2
			c-0.2-0.5-0.4-1.1-0.7-1.6c-0.4,0.2-0.9,0.4-1.2,0.6c-0.1,0.3-0.1,0.5-0.2,0.8c-0.2-0.1-0.3-0.2-0.3-0.3c-0.2-0.6-0.3-1.1-0.5-1.6
			c-0.6,0-0.9,0-1.2,0c-0.3,0.5-0.6,1-1,1.6c-0.4-0.2-0.7-0.4-1-0.5c-0.3,0.3-0.6,0.6-0.8,0.8c-0.3-0.2-0.6-0.4-1.2-0.7
			c0.6-0.1,0.8-0.2,1.2-0.2c0-0.5,0-1.1,0-2.3c-0.4,0.8-0.6,1.2-0.9,1.7c-0.4-0.8-0.6-1.2-0.9-1.7c0.4,0,0.8,0,1.1,0
			c0.9-1-0.3-1.6-0.2-2.7c0.2-0.3,0.6-0.7,1-1.1c-0.7-0.6-1.4-1.2-2.4-1.2c0-0.6,0-1.1,0-1.8c-0.4-0.1-0.9-0.2-1.4-0.3
			c0-0.2-0.1-0.4-0.1-0.9c0.5,0.1,0.9,0.2,1.3,0.4c0.4-0.5,0.3-1.1-0.6-1.7c0.8,0,1.1-0.1,1.6-0.1c0.1-0.4,0.1-0.9,0.2-1.4
			c0.3,0.2,0.5,0.3,0.8,0.5c1.9-1,1.4-2.8,1.5-4.5c0.4-0.5,0.8-1.1,1.3-1.8c1.2-0.2,2.7-0.5,4.3-0.8c0.3,0.1,0.7,0.2,1.3,0.4
			c0.4-0.6,0.7-1.2,1.2-1.7c0.5-0.5,1.1-0.8,1.5-1.2c0.7,0.2,1.3,0.3,2.4,0.5c0.7,0.9,1.7,2,2.8,3.3c0.3-0.2,0.6-0.4,0.9-0.6
			c0.6,0.2,1.1,0.4,1.6,0.6c0.4-0.4,0.8-0.7,1.2-1.1c0.1,0.5,0.2,0.9,0.3,1.4c0.2,0,0.4,0.1,0.8,0.2c0,0.5,0,1.1,0,1.7
			c0.6,0.1,1,0.2,1.5,0.3c-0.6,0.4-1.2,0.8-1.8,1.2c-0.1-0.1-0.3-0.2-0.5-0.4c-0.3,0.4-0.5,0.7-1.1,1.4c0.9-0.1,1.3-0.2,1.8-0.3
			C45.6,30.3,45.6,30.6,45.6,30.9c-0.2,0.2-0.3,0.3-0.5,0.5c0,0,0,0-0.1-0.1c-0.1,0.1-0.3,0.2-0.4,0.3c0.1,0.1,0.1,0.1,0.2,0.2
			c0.1-0.1,0.2-0.3,0.3-0.4C45.3,31.2,45.4,31.1,45.6,30.9z M26.3,36.6c-0.5-0.9-0.7-1.4-0.9-1.9c-0.7,0.1-1.2,0.1-2.3,0.2
			c1.3,0.6,2,1,4.2,0.7c-0.8,0.3-1.4,0.5-1.2,1.3c0.3,0.1,0.6,0.3,1,0.4c-0.2,0.2-0.3,0.4-0.6,0.6c0.5,0,1,0,1.5,0
			c0-0.5,0-1.1,0-1.6c-0.1,0.1-0.1,0.1-0.2,0.2C27.4,36.2,27.3,35.9,26.3,36.6z M27.9,29c1.1,0,1.1-0.4,0.7-1
			c-0.2,0-0.5,0.1-0.7,0.1C27.9,28.4,27.9,28.6,27.9,29z M32.8,45.4c-0.2,0.7-0.2,0.7,1,0.6C33.4,45.8,33.1,45.6,32.8,45.4z
			 M26.3,42.3c0-0.1,0-0.3,0-0.4C26,42,25.7,42,25.5,42.1c0,0.1,0,0.2,0,0.2C25.8,42.3,26,42.3,26.3,42.3z M35.4,27.1
			c-0.1,0-0.1,0-0.2,0c0,0.2,0,0.3,0,0.5c0.1,0,0.1,0,0.2,0C35.4,27.4,35.4,27.2,35.4,27.1z M37.4,26.7c0,0.1,0,0.1,0,0.2
			c0.2,0,0.3,0,0.5,0c0-0.1,0-0.1,0-0.2C37.8,26.7,37.6,26.7,37.4,26.7z"/>
		<path d="M27.6,9.5c0.3,3.9-1.3,3.8-1.8,5.3c-0.1,0.4-1,0.6-1.5,0.8c-0.4,0.1-0.8,0-1.2,0c-0.7,0-1.4-0.3-2.3-0.1
			c-0.5,0.1-1.2-0.5-1.8-0.7c-0.2-0.1-0.4-0.1-0.6-0.2c-1.5-2.1-2.8-4.2-2-7.2C18,4.8,18,4.8,20.9,3.5c1.2,0.1,2.2,1.9,3.5,0.5
			C25.5,4,25.1,5.3,26,5.5c0.4,0.1,0.6,1,0.9,1.5c0.2,0.4,0.3,0.9,0.6,1.2C28.8,9.4,28.9,10.9,27.6,9.5c-1.5-3.1-1.7-3.3-2.2-3.8
			c0.1,0.6,0.1,0.9,0.1,1.3C25.9,6.9,26.2,6.8,27.6,9.5z M21.1,7.9C21.1,7.9,21.1,7.8,21.1,7.9c0-0.2-0.1-0.4-0.2-0.5
			c-0.1,0.1-0.1,0.1-0.2,0.2C20.8,7.7,20.9,7.8,21.1,7.9c-0.1,0.6-0.3,1.2-0.5,1.9c0.8-0.5,1.3-0.8,1.9-1.1c0.1-0.1,0.1-0.4,0.1-0.7
			C22,7.9,21.6,7.9,21.1,7.9z M25.4,7.3c0.1,0.6,0.1,1,0.2,1.7c0.4-0.7,0.6-1,0.9-1.6C26.1,7.5,25.9,7.4,25.4,7.3z M23.7,8.3
			c0.3-0.4,1.1-0.6,0.6-1.5C23.9,7.3,23.2,7.5,23.7,8.3z M23.8,5.5c-0.1,0-0.1,0-0.2,0c0,0.2,0,0.3,0,0.5c0.1,0,0.1,0,0.2,0
			C23.8,5.8,23.8,5.6,23.8,5.5z M18.4,5.9c0.1,0,0.1,0,0.2,0c0-0.2,0-0.3,0-0.5c-0.1,0-0.1,0-0.2,0C18.4,5.6,18.4,5.8,18.4,5.9z
			 M21.6,6.1c0,0.1,0,0.1,0,0.2c0.2,0,0.3,0,0.5,0c0-0.1,0-0.1,0-0.2C21.9,6.1,21.8,6.1,21.6,6.1z M19.2,6.6c0,0.1,0,0.1,0,0.2
			c0.2,0,0.3,0,0.5,0c0-0.1,0-0.1,0-0.2C19.5,6.6,19.4,6.6,19.2,6.6z"/>
		<path d="M3.5,31.9C3.8,31.4,3.8,31,4,30.4C4.9,30.3,6,30,7,30c1,0,1.9,0.4,3,0.6c0.4,0.4,0.9,0.9,1.5,1.5
			c-0.1,0.1-0.2,0.3-0.4,0.5c0.6,0.5,1.3,1,1.8,1.4c0,0.4,0,0.7,0,1.1c-0.3,0.1-0.6,0.3-1.1,0.5c0.5,0.8,1,1.6,1.6,2.5
			c-1.1,1.1-2.3,2.3-3.4,3.4c-4.4,0.2-7.8-1.2-10-5.1c0-0.6,0-1.2,0-2.1c0.5-0.2,1.2-0.5,1.8-0.7c-0.1-0.2-0.3-0.4-0.5-0.8
			c0.6-0.6,1.2-1.2,2-2.1c0,0.5,0.1,0.8,0.1,1.1C3.5,31.9,3.6,31.9,3.5,31.9C3.2,32,3,32.2,2.9,32.4c0,0,0,0-0.1-0.1
			c-0.1,0.1-0.3,0.2-0.4,0.3c0.1,0.1,0.1,0.1,0.2,0.2c0.1-0.1,0.2-0.3,0.3-0.4C3,32.2,3.2,32,3.5,31.9z M4.3,34.7
			c2.8,0.2,4.2,0.2,4.8-1.2c-0.9-0.9-1.9,1-2.8,0.1c0.4-1.2,1.6-0.5,2.3-0.9c0-0.3,0-0.5-0.1-0.8c-1.1,0-2.1,0-2.9,0
			c-0.5,0.5-0.9,0.8-1.4,1.2c0,0.5,0,1,0.1,1.9c-0.3-0.3-0.6-0.6-1.1-1c0.1,0.6,0.1,0.9,0.1,1.3C3.8,35.2,4.1,35.1,4.3,34.7z
			 M3.2,33.3c-0.1,0-0.1,0-0.2,0c0,0.2,0,0.3,0,0.5c0.1,0,0.1,0,0.2,0C3.2,33.6,3.2,33.5,3.2,33.3z"/>
		<path d="M61.4,33.3c0.2,0,0.5,0,0.8,0c0.3-0.6,0.5-1.2,1-2.1c0.1,0.4,0.2,0.7,0.3,1c0.1,0.4-0.7,0.7-0.6,1.7
			c0.1,0.6-0.6,1.3-1.1,2.2c0.7-0.2,1.1-0.4,1.5-0.4c0.6-0.1,1.3-0.1,1.9,0c0.5,0,1,0.2,1.5,0.3c0.1-0.1,0.3-0.3,0.5-0.5
			c-0.1-0.3-0.3-0.6-0.4-0.9c-0.1-0.3,0.2-0.8-0.5-0.9c0.1-1.3-0.9-1.6-1.8-2c0.2-0.6,0.3-1.1,0.5-1.7c0.5,0,1,0,1.6,0
			c1,0.4,0.5,1.7,1.3,2.3c0.7,0.6,1.7,0.3,2.3,1c0.1,0.1,0.1,0.3,0.2,0.4c0.1-0.1,0.2-0.3,0.3-0.4c0.3,0.4,0.6,0.8,1,1.2
			c0,0.6,0.1,1.4,0,2.1c-0.1,0.6-0.4,1.1-0.7,2c-0.4,0.4-1.1,1.1-1.8,1.8c-0.9,0.3-1.8,0.5-2.7,0.8c-0.1,0.3-0.1,0.5-0.2,0.8
			c-0.8,0-1.6,0-2.5,0c-0.6-0.5-1.2-1-2.2-1.8c-0.2-0.9-1.1-2.1-1.6-3.4c-0.5-1.4-0.3-2.3,0.4-3.4c0.1,0.3,0.2,0.6,0.4,1.1
			C61,33.9,61.2,33.6,61.4,33.3z"/>
		<path d="M14.4,16.5c0.3,0.4,0.7,0.7,1.1,1.2c0.3-0.5,0.4-0.9,0.5-1.1c0.3,0.2,0.6,0.4,0.9,0.7c-0.3,0.9-1.7,1.3-0.9,2.5
			c0.3-0.3,0.5-0.7,0.9-1.1c0.3,0.6,0.5,1,0.7,1.3c-0.4,1.5-0.6,3.2-1.8,4.4c-1.5,1.5-3.5,1.8-5.6,1.6c-1.1-0.8-2.3-1.6-3.2-2.2
			c-0.5-1.4-0.8-2.5-1.2-3.8c0-1.1,1.6-1.1,2-2.3c0.4-1.2,1.7-1.3,2.7-1.4c0.2-0.4,0.3-0.7,0.5-1.2c0.4,0.6,0.7,1,1.1,1.5
			c0.3-0.5,0.5-0.8,0.7-1.3c0.4,0.2,0.8,0.4,1.2,0.5C14.1,16.2,14.2,16.3,14.4,16.5z M9.6,18.9c-0.1,0.3-0.3,0.5-0.5,0.9
			c0.7,0.5,1.4,1.2,2.3,1.5c0.9,0.3,1.9,0.3,2.9,0.4c0.2-0.2,0.4-0.3,0.3-0.3c-0.1-0.4-0.3-0.8-0.4-1.2c-0.5,0.3-0.9,0.5-1.2,0.7
			c-0.5-0.2-1-0.5-1.4-0.7c0.2-0.2,0.3-0.3,0.4-0.5c0.1-0.2,0.1-0.4,0.1-0.6c0.9-0.4,1.4,0.1,1.9,0.6c0.1,0.1,0.2,0.1,0.4,0.1
			c0-0.4,0-0.7,0-1c0-0.3-0.1-0.6-0.1-0.7c-1-0.2-1.8-0.4-2.6-0.6c-0.2,0.3-0.3,0.6-0.5,1c-0.5-0.2-1-0.4-1.4-0.6
			c-0.1,0.3-0.2,0.4-0.2,0.5c-0.3,0.1-0.6,0.1-0.9,0.2c0,0.1,0,0.2,0,0.3C9,18.9,9.3,18.9,9.6,18.9z"/>
		<path d="M17.3,64.5c-0.4-0.7-0.4-0.7-0.5-1.7c-0.5-0.4-1-0.9-1.6-1.3c0.2-1.3,0.5-2.4,0.7-3.4c0.3-0.3,0.7-0.6,0.9-0.9
			c0.3-0.6,0.7-1,1.5-0.9c0.2,1.2-1,1.4-1.4,2.2c0.3,0.6,1.3-0.3,1.4,0.7c-0.5,0-1.2-0.1-0.9,0.8c1.5,0.1,2.4,1.2,3.6,2
			c0.2-0.2,0.3-0.3,0.5-0.5c0.1-0.9,0.3-1.8,0.4-2.8c-0.2-0.1-0.5-0.3-0.8-0.4c-0.2-0.2-0.5-0.4-1-0.8c0,0.7,0,1,0,1.2
			c-0.6-0.2-1.2-0.5-1.8-0.7c0.3-0.5,0.6-1,1.1-1.7c-0.6,0-0.9,0-1.2,0c0.2-0.2,0.4-0.4,0.6-0.5c0.5-0.1,1-0.2,1.8-0.3
			c0.3,0.2,0.9,0.5,1.5,0.8c0.2-0.2,0.5-0.4,0.6-0.4c0.6,0.2,1.1,0.3,1.8,0.6c0.9,0.9,1.9,2.1,2.8,3.1c0,1.2,0,2.2,0,3.1
			c-0.4,0.6-0.9,1.2-1.4,1.9c-0.3-0.4-0.6-0.8-1-1.4c-0.3,0.5-0.5,0.8-0.7,1.2c-0.2-0.3-0.3-0.6-0.5-1.1c-0.1,0.6-0.2,1-0.3,1.5
			c-0.3,0.1-0.5,0.2-0.8,0.3c0,0.4-0.1,0.8-0.1,1.2c-0.8,0-1.5,0-2.3,0c0-0.1,0-0.2,0-0.2c0.5-0.1,0.9-0.2,1.6-0.3
			c-0.7-0.5-1.3-0.8-1.8-1.2c-0.1,0.1-0.2,0.2-0.3,0.2c-0.5-0.1-0.9-0.2-1.4-0.3c-0.1-0.2-0.2-0.3-0.4-0.5
			C17.7,64.2,17.5,64.3,17.3,64.5z M23.5,60.3c0,0.1,0,0.1,0,0.2c0.2,0,0.3,0,0.5,0c0-0.1,0-0.1,0-0.2
			C23.8,60.3,23.7,60.3,23.5,60.3z"/>
		<path d="M16.3,45.8c0,0.4-0.2,1,0,1.2c1.5,1.3,1.5,3,1.3,5c-1.2,1.2-2.5,2.6-3.9,4.1c-0.6-0.6-1-1.1-1.3-1.3
			c-1.2,0.1-2.1,0.2-3,0.3c-1-0.6-1.9-1.2-2.8-1.7c0.1-0.1,0.2-0.3,0.4-0.5c-0.3-0.2-0.7-0.2-0.9-0.5C6.1,52,6,51.6,5.8,51.1
			c0-0.7,0-1.7,0-2.7c0.6-0.5,1.3-1,2-1.6c-0.3,1-0.7,2-1,3c0.3,0.7,0.6,1.4,1,2.3c1.6-0.2,3-0.4,4.7-0.7c0.4-0.3,0.9-0.6,1.5-1
			c-0.9-0.5-0.9-0.5-1.3-1.8c0.4,0,0.8,0,1.3,0c-1.3-1.4-2.5-2.4-4.3-1.5c-0.1-0.5-0.1-0.9-0.3-1.5c-0.2,0.5-0.4,0.8-0.5,1.2
			c-0.4,0-0.8,0-1.1,0C8.3,46.1,9,45.4,9.4,45c2.5-0.6,4.2,0.2,5.9,1.3C15.7,46.1,16,45.9,16.3,45.8z M13.9,53.1c0,0.1,0,0.3,0,0.4
			c0.3-0.1,0.6-0.1,0.9-0.2c0-0.1,0-0.2,0-0.3c-0.3,0-0.6,0.1-0.9,0.5c0,0-0.1-0.1-0.1-0.1c-0.1,0.1-0.3,0.2-0.4,0.3
			c0.1,0.1,0.1,0.1,0.2,0.2C13.7,53.8,13.9,53.6,13.9,53.1z M16.3,47.9c-0.4,0.2-0.7,0.3-1.1,0.5c0.7,0.3,1.1,0.5,1.8,0.8
			C16.6,48.5,16.4,48.1,16.3,47.9z"/>
		<path d="M53.2,55.4c0.1,0.8,0.1,1.2,0.1,1.4c0.5,0.5,1.3,0.9,1.4,1.4c0.1,0.8,0.5,1.1,1,1.6c0,1.1,0,2.3,0,3.3
			c-0.4,0.4-0.8,0.7-1.4,1.3c-0.1,0-0.6,0.1-1,0.4c-0.5,0.2-0.9,0.6-1.3,0.9c0,0.3,0,0.7-0.1,1.1c-1,0-1.8,0-2.9,0
			c0.2-0.2,0.2-0.4,0.5-0.8c-0.3-0.1-0.6-0.2-1.3-0.4c-2,0.7-3.4-0.4-3.5-3.4c0.3-0.2,0.6-0.3,1.1-0.5c-0.4-0.5-0.7-1-1-1.4
			c0.1-0.1,0.2-0.2,0.2-0.2c1.8,1,4.2,0.6,5.8,2.5c0.6-1.2,1.2-2.3,1.8-3.5c-0.7-0.6-1.4-1.2-2.1-1.8C50.7,55.9,52.3,56.6,53.2,55.4
			z"/>
		<path d="M32.2,3.5c0.1-0.3,0.1-0.8,0.3-1c0.5-0.6,1.2-1.2,1.9-1.9c0.1,0.4,0.1,0.7,0.2,1c-0.1-0.1-0.2-0.2-0.2-0.2
			c-0.2,0.3-0.4,0.7-0.7,1.1c0.3,0,0.6,0,0.9,0.1c0-0.4,0-0.7,0.1-1c0.3,0.2,0.6,0.3,1.1,0.6c0.6-0.7,1.1-1.4,1.8-2.2
			c0.2,0.4,0.4,0.8,0.7,1.2c0.3-0.2,0.6-0.3,1-0.6c0.1,0.6,0.1,1.2,0.2,1.9c0.2-0.2,0.4-0.3,0.7-0.5c0.1,0.2,0.1,0.5,0.2,0.8
			c0.1-0.1,0.2-0.2,0.2-0.2c-0.1,0.5-0.4,1.2-0.2,1.6c0.1,0.4,0.8,0.6,1.2,0.9C41.8,6,42,6.8,42.2,7.8c-0.1,1.1-1.1,1.9-2,2.8
			c-0.9,1-2.4,0.3-3.5,1c-0.7-0.3-1.4-0.6-2.1-0.9c0.4-0.4,0.7-0.7,1-1c-0.1-0.1-0.1-0.2-0.2-0.3c-0.6,0.3-1.2,0.6-2,1
			c-1-1.3-1.9-2.5-1.7-4.3C31.8,5.2,31.2,4.2,32.2,3.5c0.2,0.2,0.3,0.3,0.5,0.5c0,0.6,0,1.1,0,1.5c0.6,0.8,1.1,1.6,1.6,2.2
			c0.6,0,1.2,0,1.5,0c0.3-0.4,0.5-0.7,0.8-0.9c1-0.4,1.9-1,2.5-1.9c0.2-0.2,0.2-0.6,0.5-1.3c-1,0.8-1.5,1.7-2.6,1.1
			C37,4.5,37,4.3,37.1,4c0.3,0.2,0.4,0.4,0.6,0.5c0.2-0.3,0.4-0.7,0.7-1c0.9-0.5,0.4-1.2,0.4-1.8c-0.6,0.1-1,0.3-1.4,0.4
			c-0.8,0.2-1.9,0.2-2.2,0.7c-0.7,1-1.5,1.2-2.6,1.2C32.5,3.9,32.3,3.7,32.2,3.5z M33.1,3.2c0,0.1,0,0.1,0,0.2c0.2,0,0.3,0,0.5,0
			c0-0.1,0-0.1,0-0.2C33.4,3.2,33.3,3.2,33.1,3.2z M32.2,6.6c0,0.1,0,0.1,0,0.2c0.2,0,0.3,0,0.5,0c0-0.1,0-0.1,0-0.2
			C32.5,6.6,32.3,6.6,32.2,6.6z"/>
		<path d="M40.3,68.8c0-0.5,0-0.9,0-1.3c-1.2-0.2-0.6,1.3-1.6,1.4c-0.6,0.1-1,0.9-1.6,1.4c-0.6-0.2-1.4-0.3-2.1-0.5
			c-0.2-0.5-0.3-1.1-0.5-1.5c-0.1-0.2-0.5-0.3-0.8-0.6c-0.4,1.2,0,1.8,1.3,2.1c0,0.2,0,0.5,0,1.2c-1.3-0.7-2.4-1.3-3.6-1.9
			c0.5-0.2,0.8-0.3,1.1-0.4c-0.1-0.1-0.1-0.3-0.2-0.3c-0.7,0.1-1.5-0.1-1.6-0.7c-0.1-1.1-1.2-2.1-0.3-3.2c0.2-0.2,0.2-0.5,0.4-0.9
			c0.2,0.1,0.3,0.3,0.5,0.4c0.1-0.1,0.3-0.1,0.3-0.2c0-0.3-0.1-0.6-0.3-1c0.3-0.4,0.3-1.4,1.3-1.6c0.1,0.4-0.2,0.9,0.5,1
			c0.2,0.2,0.3,0.3,0.5,0.5c0,0.2,0,0.5,0,0.8c-0.3,0.1-0.5,0.2-0.8,0.3c-0.2,0.6-0.4,1.3-0.7,2.1c0.5,0.3,1.1,0.5,1.6,0.8
			c0.1-0.2,0.2-0.4,0.2-0.4c-0.3-0.5-1.2-0.7-0.7-1.5c1.6,0.4,1.6,0.4,3,1.8c0.9-0.8,1.7-1.6,2.4-2.6c0.5-0.5,0.3-1-0.2-1.5
			c0.6-0.5,0.6-1-0.2-1.5c1.3-0.5,1.5,1.1,2.4,0.9C42.6,65.4,41.7,66.5,40.3,68.8z M39.4,61.8c0,0.8,0,1.2,0,1.7
			c0.4-0.1,0.6-0.1,1.1-0.2C40.2,62.8,39.9,62.5,39.4,61.8z M35.4,66.4c-0.1,0-0.1,0-0.2,0c0,0.2,0,0.3,0,0.5c0.1,0,0.1,0,0.2,0
			C35.4,66.7,35.4,66.6,35.4,66.4z M40.6,66.4c-0.1,0-0.1,0-0.2,0c0,0.2,0,0.3,0,0.5c0.1,0,0.1,0,0.2,0
			C40.6,66.7,40.6,66.6,40.6,66.4z"/>
		<path d="M48,10.3c-0.2,0.7,0.2,1.1,0.7,1.4c0.5,0.3,1,0.6,1.6,1c0.2-0.3,0.3-0.8,0.6-1.1c0.2-0.3,0.6-0.5,0.9-0.8
			c0.8,0.4,0.8,0.4,1.9,0.3c0.1-1.4-1.6-1.1-1.9-2.2c0.6,0.2,1,0.3,1.5,0.5C54.4,9.1,54,8,54.5,7.2c0.7,0.5,1.3,0.9,2,1.4
			c0.3,0.8,0.8,1.7,1.2,2.8c-0.4,0.2-0.7,0.3-1.1,0.4c0,0.4-0.1,1-0.1,1.6c-0.3,0.1-0.6,0.2-1,0.4c0.2,0.4,0.4,0.8,0.6,1.2
			c-0.5,0.5-0.9,1-1.5,1.6c-0.2-0.3-0.3-0.6-0.6-1c-0.3,0-0.6,0-1.1,0c-0.1,0.2-0.3,0.5-0.4,0.9c-0.2-0.2-0.4-0.3-0.5-0.5
			c-0.2,0.2-0.4,0.3-0.6,0.5c-2.1-0.7-3.2-2.7-4.8-4c0-0.9,0-1.9,0-2.9C47.2,9.9,47.6,10.1,48,10.3z"/>
		<path d="M66.2,47.2c0,1.6,0.2,3.2-0.3,4.8c0.3-0.3,0.7-0.6,1.2-1c-0.3,1.4-0.3,1.4-1.8,2.2c0,0.4-0.1,0.7-0.1,1.2
			c-0.2,0-0.4,0.1-0.8,0.1c0.2-0.5,0.3-0.8,0.5-1.2c-0.2-0.1-0.4-0.2-0.7-0.4c-0.3,0.5-0.5,1-0.8,1.5c-1.5-0.4-2.6,0.8-3.7,1
			c-1.2-1.2-2.2-2.2-3.5-3.5c0-0.3,0-1,0-1.7c1.2,0,1.8,0.2,2.9,1.1c1.4-0.3,2.7-0.6,4-0.9c0.1-0.4,0.5-0.7,1.1-1
			c0.6-0.3,0.8-0.9,0.4-1.7c-0.2,0.1-0.4,0.2-0.7,0.4c0-0.4,0-0.8,0-1.3c-1-0.1-2-0.1-3.3-0.2c0.7-0.3,1-0.5,1.3-0.6
			c-0.3-0.3-0.5-0.5-0.7-0.7c-0.3,0.1-0.5,0.3-0.8,0.4c0-0.2,0-0.5,0-0.7c0.4-0.2,0.8-0.4,1.3-0.7c0.1,0.3,0.3,0.7,0.5,1.1
			c0.8-0.6,1.2-0.9,1.7-1.2c0.1,0.1,0.2,0.2,0.3,0.2c-0.1,0.2-0.3,0.3-0.3,0.5c-0.1,0.2,0,0.4,0,0.7c0.6,0,1.1,0,1.4,0
			C66.2,46.1,65.2,47.1,66.2,47.2z"/>
		<path d="M63.8,18.4c0-0.6,0.5-0.6,0.7-0.4c0.5,0.6,1.1,0.3,1.7,0.4c0.3,0.4,0.6,0.9,1,1.4c-0.2,0.2-0.3,0.5-0.6,0.9
			c0.6,1.1,0.9,2.3,0,3.5c0.2,0.3,0.3,0.4,0.6,0.7c-1,0.7-2,1.4-3.2,2.1c-0.7,0-1.5,0-2.2,0c-0.1,0-0.2-0.3-0.4-0.5c0,0,0,0,0.1,0.1
			c0.1-0.1,0.3-0.2,0.4-0.3c-0.1-0.1-0.1-0.1-0.2-0.2c-0.1,0.1-0.2,0.3-0.3,0.4c-0.3-0.1-0.9,0.3-1-0.5c0,0,0,0,0.1,0.1
			c0.1-0.1,0.3-0.2,0.4-0.3c-0.1-0.1-0.1-0.1-0.2-0.2c-0.1,0.1-0.2,0.3-0.3,0.4c-1.4-0.8-2-2.1-2.6-3.7c0.7,0,1.3,0,2,0
			c0.1,0.2,0.4,0.6,0.7,0.9c0.8-0.5,1.5-1,2.3-1.5c0.4,0.1,0.9,0.2,1.9,0.5c-0.8-1-1.3-1.6-2-2.4c0.5,0,0.8,0,1.1,0c0,0,0,0-0.1,0.1
			c0.1,0.1,0.2,0.3,0.3,0.4c0.1-0.1,0.1-0.1,0.2-0.2c-0.1-0.1-0.3-0.2-0.4-0.3c0-0.3,0-0.6,0-0.9c0.1-0.1,0.3-0.1,0.4-0.2
			C64.1,18.6,64,18.5,63.8,18.4z M59,23.4c0,0.1,0,0.1,0,0.2c0.2,0,0.3,0,0.5,0c0-0.1,0-0.1,0-0.2C59.4,23.4,59.2,23.4,59,23.4z"/>
		<path d="M59,18.1c0.7-0.3,1.3-0.5,1.9-0.8c-0.5,1.2-0.4,2.4-1.7,3.3C59.1,19.6,59,18.9,59,18.1z"/>
		<path d="M48.8,10c0.3-0.9,0.4-1.5,0.7-2.4C50.3,9,51,7.6,51.9,7.9c-0.5,0.6-0.8,0.9-1.5,1C49.9,8.9,49.5,9.5,48.8,10z"/>
		<path d="M47.5,37.7c0.4-0.2,0.8-0.3,1.2-0.5c0.1,0.9,0.1,0.9-0.5,1.8C48,38.6,47.7,38.1,47.5,37.7z"/>
		<path d="M41.4,46.1c0.7,0.3,1.2,0.6,2.1,1c-1.1,0.1-1.8,0.1-2.7,0.2C41,46.8,41.2,46.6,41.4,46.1z"/>
		<path d="M33.9,49.8c1-0.8,1.8-0.7,2.9-0.6C35.7,49.7,35,50.5,33.9,49.8z"/>
		<path d="M45.8,45.4c-0.7-0.9-1-1.3-1.6-2.2c0.9,0.4,1.4,0.6,1.9,0.8C46,44.3,46,44.6,45.8,45.4z"/>
		<path d="M66.3,33.9c-0.5,0.6-1,1.1-2.1,0.6c0.4-0.2,0.7-0.2,0.9-0.4c0.2-0.2,0.2-0.5,0.3-0.8C65.7,33.5,66,33.7,66.3,33.9z"/>
		<path d="M27.1,46.2c-0.6,0-1.1,0-1.7,0c0.1-0.4,0.2-0.7,0.4-1.2C26.3,45.5,26.6,45.8,27.1,46.2z"/>
		<path d="M69.2,31c-0.1,0.4-0.1,0.6-0.2,1.1c-0.5-0.4-0.9-0.7-1.5-1.1C68.2,31,68.6,31,69.2,31z"/>
		<path d="M33.1,62.1c0.3-0.9,0.9-0.4,1.6-0.3c-0.5,0.4-0.8,0.6-1.2,0.8C33.4,62.4,33.3,62.3,33.1,62.1z"/>
		<path d="M44.1,45.7c0,0.4,0,0.6,0,0.8c-0.3-0.2-0.5-0.4-0.9-0.6C43.5,45.8,43.7,45.8,44.1,45.7z"/>
		<path d="M46.1,59.2c0.3,0,0.6,0,1,0.1c0,0.3,0,0.6-0.1,0.9c-0.4-0.3-0.8-0.5-1.1-0.7C45.9,59.4,46,59.3,46.1,59.2z"/>
		<path d="M26.9,46.3c0.5,0,1,0,1.4,0C27.8,46.9,27.4,46.9,26.9,46.3z"/>
		<path d="M64.1,32.7c0.2,0.4,0.4,0.7,0.6,1C64.1,33.8,63.5,34,64.1,32.7z"/>
		<path d="M46.1,59.2c-0.3,0-0.6,0-0.9-0.1c-0.1-0.1-0.1-0.2-0.2-0.3c0.3-0.1,0.7-0.2,0.9-0.4C46,58.6,46.1,58.9,46.1,59.2z"/>
		<path d="M35.3,60.4c-0.3,0.2-0.7,0.4-1.1,0.7c0-0.3,0-0.6-0.1-0.9c0.4,0,0.7,0,1-0.1C35.1,60.2,35.2,60.3,35.3,60.4z"/>
		<path d="M22.6,36.6c0,0.3,0,0.6-0.1,0.9c-0.1,0.1-0.2,0.1-0.3,0.2c-0.1-0.3-0.2-0.7-0.4-0.9C21.9,36.7,22.2,36.7,22.6,36.6z"/>
		<path d="M46.2,39.6c0.4,0,0.8,0,1.3,0c0,0.1,0,0.2,0,0.2C47,39.9,46.6,40,46.2,40C46.2,39.9,46.2,39.8,46.2,39.6z"/>
		<path d="M13.9,16c0.1-0.7,0.6-0.6,0.9-0.3c0.2,0.3,0.2,0.7-0.4,0.7C14.2,16.3,14.1,16.2,13.9,16z"/>
		<path d="M62.3,19.2c-0.3-0.1-0.6-0.3-1.2-0.6c0.7-0.1,0.9-0.2,1.2-0.2C62.3,18.7,62.3,19.1,62.3,19.2z"/>
		<path d="M51.8,55.8c-0.3,0-0.5,0-0.8,0c0-0.1,0-0.2,0-0.2c0.3-0.1,0.5-0.1,0.8-0.2C51.7,55.5,51.7,55.6,51.8,55.8z"/>
		<path d="M48,10.3c0-0.7,0.6-0.4,1-0.5C48.9,10.5,48.4,10.2,48,10.3z"/>
		<path d="M70.1,33.3c0-0.3,0-0.6,0-0.9c0.1,0,0.2,0,0.3,0c0.1,0.3,0.1,0.6,0.2,0.9C70.4,33.3,70.2,33.3,70.1,33.3z"/>
		<path d="M61.1,33.3c0-0.3-0.1-0.6-0.1-0.9c0.1,0,0.2,0,0.3,0c0.1,0.3,0.1,0.6,0.2,0.9C61.3,33.3,61.2,33.3,61.1,33.3z"/>
		<path d="M35,59.8c0.3,0,0.6-0.1,0.9-0.1c0,0.1,0,0.2,0,0.3c-0.3,0.1-0.6,0.1-0.9,0.2C35,60.1,35,59.9,35,59.8z"/>
		<path d="M39.4,46.8c0.3,0,0.5,0,0.8,0c0,0.1,0,0.2,0,0.2c-0.3,0.1-0.5,0.1-0.8,0.2C39.5,47.1,39.5,47,39.4,46.8z"/>
		<path d="M63.8,18.9c-0.3,0-0.6,0-0.9,0c0-0.1,0-0.2,0-0.3c0.3-0.1,0.6-0.1,0.9-0.2C63.8,18.6,63.8,18.7,63.8,18.9z"/>
		<path d="M10.1,15.4c-0.3,0-0.6,0-1,0c0-0.1,0-0.2,0-0.2c0.3,0,0.6,0,1,0C10.1,15.3,10.1,15.3,10.1,15.4z"/>
		<path d="M18.2,64.5c-0.2,0.2-0.4,0.3-0.6,0.5c-0.1-0.2-0.2-0.3-0.4-0.5C17.6,64.5,17.9,64.5,18.2,64.5z"/>
		<path d="M58.1,47.3c-0.1,0.1-0.2,0.3-0.3,0.4c-0.1-0.1-0.1-0.1-0.2-0.2C57.8,47.4,57.9,47.3,58.1,47.3
			C58.1,47.2,58.1,47.2,58.1,47.3z"/>
		<path d="M38.4,47.7c-0.2,0.2-0.3,0.3-0.5,0.5C38.1,48,38.2,47.9,38.4,47.7z"/>
		<path d="M58.7,48.2c0-0.2,0-0.3,0-0.5c0.1,0,0.1,0,0.2,0c0,0.2,0,0.3,0,0.5C58.8,48.2,58.8,48.2,58.7,48.2z"/>
		<path d="M51.2,5.5c0,0.2,0,0.3,0,0.5c-0.1,0-0.1,0-0.2,0c0-0.2,0-0.3,0-0.5C51.1,5.5,51.1,5.5,51.2,5.5z"/>
		<path d="M37.5,48.7c-0.1,0.1-0.2,0.3-0.3,0.4C37.1,49,37.1,49,37,48.9C37.1,48.8,37.3,48.7,37.5,48.7
			C37.4,48.6,37.5,48.7,37.5,48.7z"/>
		<path d="M31.6,48.7c-0.1-0.1-0.3-0.2-0.4-0.3c0.1-0.1,0.1-0.1,0.2-0.2C31.5,48.4,31.6,48.5,31.6,48.7
			C31.7,48.6,31.7,48.7,31.6,48.7z"/>
		<path d="M34.6,48.5c-0.2,0-0.3,0-0.5,0c0-0.1,0-0.1,0-0.2c0.2,0,0.3,0,0.5,0C34.6,48.4,34.6,48.4,34.6,48.5z"/>
		<path d="M37.9,48.2c-0.2,0.2-0.3,0.3-0.5,0.5C37.6,48.5,37.8,48.3,37.9,48.2z"/>
		<path d="M63.4,54.4c0.1,0.1,0.3,0.2,0.4,0.3c-0.1,0.1-0.1,0.1-0.2,0.2C63.5,54.7,63.4,54.6,63.4,54.4
			C63.3,54.4,63.4,54.4,63.4,54.4z"/>
		<path d="M47.5,58.9c0.2,0,0.3,0,0.5,0c0,0.1,0,0.1,0,0.2c-0.2,0-0.3,0-0.5,0C47.5,59,47.5,59,47.5,58.9z"/>
		<path d="M32.6,61.1c0.1-0.1,0.2-0.3,0.3-0.4c0.1,0.1,0.1,0.1,0.2,0.2C32.9,61,32.8,61.1,32.6,61.1C32.7,61.2,32.6,61.1,32.6,61.1z
			"/>
		<path d="M40.4,68.9c-0.1,0.1-0.2,0.3-0.3,0.4c-0.1-0.1-0.1-0.1-0.2-0.2C40,69,40.1,68.9,40.4,68.9C40.3,68.8,40.3,68.8,40.4,68.9z
			"/>
		<path d="M51.8,10.8c-0.1-0.1-0.3-0.2-0.4-0.3c0.1-0.1,0.1-0.1,0.2-0.2C51.7,10.4,51.8,10.6,51.8,10.8
			C51.9,10.7,51.8,10.8,51.8,10.8z"/>
		<path d="M46,30.9c0.1-0.1,0.2-0.3,0.3-0.4c0.1,0.1,0.1,0.1,0.2,0.2C46.4,30.7,46.3,30.8,46,30.9C46.1,30.9,46.1,30.9,46,30.9z"/>
		<path d="M12.5,14.9c-0.2,0-0.3,0-0.5,0c0-0.1,0-0.1,0-0.2c0.2,0,0.3,0,0.5,0C12.5,14.8,12.5,14.8,12.5,14.9z"/>
		<path d="M66.2,18.4c0.1-0.1,0.2-0.3,0.3-0.4c0.1,0.1,0.1,0.1,0.2,0.2C66.5,18.2,66.4,18.4,66.2,18.4
			C66.3,18.4,66.2,18.4,66.2,18.4z"/>
		<path d="M61.8,17c0,0.2,0,0.3,0,0.5c-0.1,0-0.1,0-0.2,0c0-0.2,0-0.3,0-0.5C61.7,17,61.7,17,61.8,17z"/>
		<path d="M38.3,47.7c0.1-0.1,0.2-0.3,0.3-0.4c0.1,0.1,0.1,0.1,0.2,0.2C38.7,47.5,38.6,47.6,38.3,47.7
			C38.4,47.7,38.4,47.7,38.3,47.7z"/>
		<path d="M31,47.2c0,0.2,0,0.3,0,0.5c-0.1,0-0.1,0-0.2,0c0-0.2,0-0.3,0-0.5C30.9,47.2,31,47.2,31,47.2z"/>
		<path d="M66.2,47.2c0.1-0.1,0.2-0.3,0.3-0.4c0.1,0.1,0.1,0.1,0.2,0.2C66.5,47,66.4,47.2,66.2,47.2C66.3,47.2,66.2,47.2,66.2,47.2z
			"/>
		<path d="M58.6,46.7c-0.2,0.2-0.3,0.3-0.5,0.5C58.2,47.1,58.4,46.9,58.6,46.7z"/>
		<path d="M58.5,46.7c0.1-0.1,0.2-0.3,0.3-0.4c0.1,0.1,0.1,0.1,0.2,0.2C58.9,46.6,58.7,46.7,58.5,46.7
			C58.6,46.8,58.5,46.7,58.5,46.7z"/>
		<path d="M60.5,45.8c-0.1,0.1-0.2,0.3-0.3,0.4c-0.1-0.1-0.1-0.3-0.2-0.4C60.2,45.8,60.3,45.8,60.5,45.8z"/>
		<path d="M41.3,46.3c-0.2-0.2-0.3-0.3-0.5-0.5C41,45.9,41.1,46.1,41.3,46.3z"/>
		<path d="M28.3,46.2c0.1-0.1,0.2-0.3,0.3-0.4c0.1,0.1,0.1,0.1,0.2,0.2C28.6,46.1,28.5,46.2,28.3,46.2
			C28.3,46.3,28.3,46.2,28.3,46.2z"/>
		<path d="M60,45.8c-0.1-0.1-0.3-0.2-0.4-0.3c0.1-0.1,0.1-0.1,0.2-0.2C59.8,45.5,59.9,45.6,60,45.8C60,45.8,60,45.8,60,45.8z"/>
		<path d="M16.3,45.7c0.1-0.1,0.2-0.3,0.3-0.4c0.1,0.1,0.1,0.1,0.2,0.2C16.6,45.6,16.5,45.7,16.3,45.7
			C16.3,45.8,16.3,45.8,16.3,45.7z"/>
		<path d="M42.8,44.9c-0.1,0.1-0.2,0.3-0.3,0.4c-0.1-0.1-0.1-0.1-0.2-0.2C42.4,45,42.5,44.9,42.8,44.9
			C42.7,44.8,42.7,44.8,42.8,44.9z"/>
		<path d="M31.2,45.3c-0.1-0.1-0.3-0.2-0.4-0.3c0.1-0.1,0.1-0.1,0.2-0.2C31,45,31.1,45.1,31.2,45.3C31.2,45.3,31.2,45.3,31.2,45.3z"
			/>
		<path d="M46.1,42.4c0.1,0.1,0.3,0.2,0.4,0.3c-0.1,0.1-0.1,0.1-0.2,0.2C46.3,42.7,46.1,42.6,46.1,42.4
			C46.1,42.4,46.1,42.4,46.1,42.4z"/>
		<path d="M53.1,6.4c0,0.2,0,0.3,0,0.5c-0.1,0-0.1,0-0.2,0c0-0.2,0-0.3,0-0.5C53,6.4,53.1,6.4,53.1,6.4z"/>
		<path d="M36.3,41.5c0,0.2,0,0.3,0,0.5c-0.1,0-0.1,0-0.2,0c0-0.2,0-0.3,0-0.5C36.2,41.5,36.3,41.5,36.3,41.5z"/>
		<path d="M10.2,19.9c0-0.2,0-0.3,0-0.5c0.1,0,0.1,0,0.2,0c0,0.2,0,0.3,0,0.5C10.3,19.9,10.3,19.9,10.2,19.9z"/>
		<path d="M9.6,18.9c0-0.2,0-0.3,0-0.5c0.1,0.1,0.3,0.2,0.4,0.3C9.9,18.8,9.7,18.8,9.6,18.9z"/>
		<path d="M20.2,58.7c0.2,0,0.3,0,0.5,0c0,0.3,0,0.6,0,0.9c-0.1,0-0.2,0-0.3,0C20.3,59.3,20.2,59,20.2,58.7z"/>
		<path d="M19.4,59.8c-0.6-0.2-0.9-0.2-1.2-0.3c0.2-0.1,0.4-0.2,0.7-0.2C19,59.2,19.1,59.4,19.4,59.8z"/>
		<path d="M20.6,58.7c0.2-0.2,0.3-0.3,0.5-0.5C21,58.4,20.8,58.6,20.6,58.7z"/>
		<path d="M10.1,50.2c0.3,0,0.6,0,1,0c0,0.1,0,0.2,0,0.2c-0.3,0-0.6,0-1,0C10.1,50.4,10.1,50.3,10.1,50.2z"/>
		<path d="M38.4,3.6c-0.1-0.1-0.3-0.2-0.4-0.3c0.1-0.1,0.1-0.1,0.2-0.2C38.2,3.2,38.3,3.4,38.4,3.6C38.4,3.5,38.4,3.6,38.4,3.6z"/>
		<path d="M36.8,3.1c0,0.2,0,0.3,0,0.5c-0.1,0-0.1,0-0.2,0c0-0.2,0-0.3,0-0.5C36.7,3.1,36.7,3.1,36.8,3.1z"/>
	</g>

</svg>
