<svg version="1.1" id="Ebene_1" xmlns="http://www.w3.org/2000/svg" xmlns:xlink="http://www.w3.org/1999/xlink" x="0px" y="0px"
	 viewBox="0 0 157.2 157.7" style="enable-background:new 0 0 157.2 157.7;" xml:space="preserve">
<style type="text/css">
	.st0{fill:#FF0000;}
</style>
<g id="iqLjXT.tif">
	<g>
		<path class="st0" d="M157.2,77.7c0.1,40.4-30.3,77.2-74.6,79.9c-42.9,2.6-79.2-31.4-82.3-72.8c-3.4-44.5,30.9-81,71.4-84.5
			C115.9-3.6,155.4,30.6,157.2,77.7z M30,62.4c0.7,0.3,1.2,0.5,2,0.8c-0.6,0.5-1,0.7-1.3,1c-0.6,0.7-1.1,1.5-1.7,2.2
			c0.9,0.7,1.7,1.5,2.6,1.9c1.4,0.6,2.4,3.1,1.5,4.1c-1.2,1.2-2.3,2.3-3.6,3.7c2.6,2.6,4.6-0.6,6.8-0.3c0.6,0.8,1.1,1.6,1.8,2.5
			c-0.7,0-1.3-0.1-2.5-0.2c2,1.4,3.3,1.8,4.2-0.2c3,2.2,2.4-2.3,4.3-1.8c3.2,1.7,3.2,1.7,3.7,3.2c1.6,0.3,3.2,0,4,0.8
			c1.6,1.5,3,2.6,5.4,2.3c1.9-0.2,4,0.4,5.9,0c2-0.4,3.8-1.3,5.7-2.2c3.2-1.4,5.3-4,6.8-7.1c1.2-2.6-0.3-4.9-1.2-7.2
			c-0.4-0.9-0.8-1.7-1.3-2.5c-0.5,2.7-0.1,5.2-0.6,7.5c-0.5,2.3-1.6,4.8-3.3,6.4c-1.7,1.6-4.3,2.7-6.6,3c-6.5,0.9-11.3-2.8-13.5-9.5
			c-0.6-1.9,3-9.6,5-10.9c3-1.9,6.3-3.3,9.6-2.6c3.2,0.7,7.3,0.4,8.3,5.2c0.2-0.8,0.3-1.3,0.1-1.7c-1-2.9-1.5-5.6,0.9-8.1
			c0.3-0.3,0.2-1.4-0.2-1.7c-1.2-1.2-2.5-2.2-3.8-3.3c-0.7,0.9-1.2,1.5-2,2.6c0.3-3.6-1.4-4.6-4.1-4.6c-1.7,0-3.4-0.4-5.1-0.7
			c0-0.1,0-0.3-0.1-0.4c0.7-0.2,1.4-0.5,2.5-0.9c-2.1-0.9-4-1.7-5.9-2.5c-0.1-0.5-0.2-1.2-0.4-1.7c-2.3,0.2-5-2.4-6.7,1.1
			c0,0-0.3,0-0.5-0.1c-1.5-0.9-2.2,0.6-2.2,1.4c-0.2,1.7-1.1,1.8-2.4,2.3c-1.2,0.5-2.2,1.8-3.1,2.6c0.5,0.4,0.9,0.7,1.4,1.1
			c-2.7,1.2-5,2.3-4.8,5.6c0,0.2-0.3,0.7-0.6,0.7c-3,0.4-2.6,3.2-3.9,5.1c1-0.2,1.6-0.2,2.3-0.3c0.1,0.1,0.2,0.3,0.2,0.4
			C32.5,60.3,31.3,61.2,30,62.4z M94.7,61.9c-0.2-0.6-0.5-1.9-1.1-3c-1.5-2.5-4.9-3.4-8.7-2.4c-3.6,0.9-6,4-6.4,7.9
			c-0.2,2.7,0.7,3.8,4.7,5.5C88.5,72.2,94.6,68.4,94.7,61.9z M70.7,70.1c-0.6-1.1-0.9-2.5-1.8-3.3c-3.8-3.7-11.2-2.4-13.7,2.3
			c-1.8,3.3-1.7,5.8,0,7.5c2.4,2.4,6.6,3.1,9.9,1.7C68.2,77,70.4,73.7,70.7,70.1z M71.6,89.7c-0.1-0.2-0.2-0.4-0.4-0.6
			c-2,1.2-4.6,1.9-5.9,3.5c-3.8,4.9-3.3,8.4,1.6,10.6c3.5,1.5,8.3-0.1,10.5-3.4c3.4-5,1.4-9.3-4.6-10.1C72.5,89.7,72,89.7,71.6,89.7
			z M103,85.6c-0.4-0.7-1-2.7-2.3-3.5c-4.6-3-11-0.7-12.9,4.5c-1.1,3.1-0.8,4.8,1.3,6.4c2.9,2.3,6.1,2.6,9.3,1.1
			C101.4,92.7,102.7,90,103,85.6z M52.2,11.4C41.6,14.8,32.5,20.8,25,29C12.6,42.6,6.1,58.6,6.3,77.1C8.7,46.2,23.8,24.2,52.2,11.4z
			 M113.5,137c16-8.9,26.1-22.5,31-39.9C138.5,113.8,128.7,127.4,113.5,137z M96.5,57.6c0,1.9,0.2,3.7-0.1,5.5
			c-0.3,1.8-1.1,3.5-1.8,5.5C98.1,67.5,99.3,61,96.5,57.6z M78.1,101.7c-2.7,1.3-5,2.5-7.3,3.7C73.8,105.6,76.1,104.3,78.1,101.7z"
			/>
	</g>
</g>
</svg>
