<svg version="1.0" id="Ebene_1" xmlns="http://www.w3.org/2000/svg" xmlns:xlink="http://www.w3.org/1999/xlink" x="0px" y="0px"
	 viewBox="0 0 1600 1600" style="fill: #ff0000;" enable-background="new 0 0 1600 1600" xml:space="preserve">
<path d="M670.9,709.3c2.1-10.9,4.5-22.7,6.6-34.5c8.8-50.6-22.1-95.5-72.8-106.2c-51.6-10.9-101.3,23.6-116.7,81
	c-8.5,31.6,25.6,84.1,67.6,92.2c33.7,6.4,69.6,1.3,104.6,1.3c1.7,2,3.4,4,5.1,5.9c-13.5,8-27.1,16-41.4,24.5
	c9.7,45.9,2,75.7-24.5,90c-50,27.1-62.4,52.3-48.3,107.8c6.8,26.8,18.6,52.2,28.1,78.3c-3.4,2.7-6.8,5.3-10.2,8
	c-24.8-25.8-49.7-51.6-73.9-76.7c0.2,32.7,30.7,78.6,66.5,92.8c40.5,16.1,79.6,11.6,114.7-16.8c9.4-7.6,20.7-13,31.1-19.4
	c3.3,3.5,6.6,7.1,9.8,10.6c-10.7,15.2-21.4,30.5-32.2,45.7c2.4,2,4.9,4.1,7.3,6.1c27.1-30.5,54.3-61,85.1-95.6
	c0.9,16.1,1.3,24.9,1.8,33.6c3,0.3,5.9,0.6,8.9,0.9c10.6-38.3,21.2-76.6,31.7-114.7c-1.8-1.2,6.7,2.1,6.5,4.7
	c-3.8,48.5-8.7,97-14.2,153.1c45.4-39.6,48-92.3,65.6-140.3c26.7,29.2,61.1,40.9,100.2,32.9c16.8-3.5,37.9-6,29.2-35.9
	c-2.6-9,13.5-23.4,21.1-35.3c3.3,2,6.7,4,10,6c0,6.6,1.2,13.4-0.2,19.7c-12.7,57.6-32.2,110.7-66,161.6
	c-40.5,61-86.2,115.5-142.6,160.3c-67,53.1-144.2,86.1-228.2,104c-11.5,2.4-28.4,19.9-28.1,29.9c0.8,23.8,20.5,18.4,37.1,14.3
	c32.5-8.1,65.2-15.5,97.8-23.2c1.4,2.3,2.7,4.7,4.1,7c-19.8,13.2-39.6,26.3-59.5,39.5c0.7,3.7,1.4,7.5,2.1,11.2
	c28.2-4.3,56.4-8.6,83.8-12.7c3.3,7.9,4.2,17.7,9.4,21.1c31.5,20.7,121.2,8.8,150.6-17.7c39-35.1,78.3-69.9,118.6-103.5
	c29.6-24.7,61.1-47.3,91.7-70.9c3.7,2.9,7.4,5.9,11,8.8c-8.4,12.3-14.6,27.3-25.6,36.4c-42.3,34.6-86.4,66.9-129.1,101
	c-11.5,9.2-20.3,21.6-30.4,32.6c2.7,3.4,5.4,6.8,8.2,10.2c25.5-14.5,51-28.8,76.4-43.4c17.8-10.3,39.6-33.1,52.5-28.9
	c34.5,11.4,52.8-10.9,74.9-24.6c21.6-13.4,38-35.7,60.2-47.2c61.6-31.9,96.4-89.2,134.9-141.4c52.6-71.4,77.1-155.6,82.8-243.9
	c2.9-46.2,0.4-92.9-2.2-139.2c-0.5-8.8-12.8-17-19.7-25.4c-5.6,9-13.6,17.3-16.4,27c-6.2,21.8-3.5,49.3-16.1,65.3
	c-18.6,23.7-17.6,42,4.3,70.7c-58-7.8-34,48.2-66.3,69.3c10.1-55.9,19.1-105.6,28.1-155.3c-5.6-1.7-11.1-3.4-16.7-5.1
	c-30.5,81.4-41.7,172.4-112.1,235.4c1.9-13.5,3.9-27,5.8-40.5c-2.1-1.5-4.2-3-6.3-4.4c-20,21.1-39.9,42.2-55.4,58.6
	c-6.5,16.3-8.7,30.5-16.5,39.7c-20,23.4-43.9,43.5-63.5,67.1c-12.2,14.8-16.2,36.9-29.5,50.1c-45.9,46-94.2,89.6-142,133.6
	c-4.3,4-12.3,3.8-18.5,5.8c-22.1,6.8-44.3,13.1-66.1,20.6c-7.4,2.5-13.8,8-23.2,13.6c1.5-19.8,8-36.7,2.4-46.7
	c-11.4-20.3-2.2-31.1,11.1-41.4c81.2-63.3,151.3-136.1,210.8-221c27.1-38.7,40.8-76.3,40.2-121c-0.5-40.1-3.3-80.2-4.9-117.4
	c-21.4-17.7-38.7-38.8-61.1-48.8c-30.2-13.6-43.6-36.3-53.6-64.3c-2-5.5-2.8-12.3-6.7-15.9c-6.6-6.2-15.2-10.3-22.9-15.2
	c-4.8,9.2-13,18.3-13.5,27.8c-0.7,12.3,8.2,25.4,6.6,37.3c-1.6,12.2-8.1,27.9-17.6,33.7c-9.2,5.6-25.5,2.8-37.6-0.5
	c-8-2.2-14.2-11.5-20.9-17.9C782.3,745.3,734.3,717.4,670.9,709.3z"/>
<path d="M110,1125.2c16-3.8,27-5.1,36.9-9.2c5.8-2.4,13.6-9.3,13.8-14.3c0.7-23.1,4.5-48.3-2.9-69.2
	c-22.2-62.2-29.1-126.4-39.9-190.9C103.3,754.1,113.4,672,137,589c65.4-229.8,219.3-377.4,439.1-454.9
	c167.5-59.1,336.2-38.9,500.6,23.3c43.1,16.3,87.1,30.5,139.6,48.8c-32.4-33.2-56.9-58.6-81.9-83.7c-7.3-7.3-14.7-15.4-23.7-19.8
	c-32.7-16.1-65.3-32.9-99.4-45.5c-34.1-12.6-70.9-30.8-104.9-27.9c-44.3,3.8-85.4-13.2-129.2-7.3c-50.2,6.7-102.8,0.1-151.5,11.7
	c-92.6,22-186,44.3-253.7,123.3c-29.4,34.3-72.5,56.4-106.8,86.9c-30.3,27-67.2,53.3-82.9,88.2C153,397.5,108,453.6,81,522
	C57.1,582.2,46.8,643.5,29.9,704c-8.1,28.9,1.3,61.2-0.1,89.5c-2.1,41.9-21.2,81.8-4.4,126.5c17.9,47.9,29.7,98.2,44.4,147.3
	c0.9,2.9,4.4,6.7,7.1,7.1C105.8,1078.5,112.5,1098.3,110,1125.2z"/>
<path d="M1564.7,585.8c-4.6,10.1-7.3,13.2-6.9,15.8c8.8,53.4,32.4,106.9-3.4,159.4c-1.7,2.5-0.7,6.8-0.7,10.3
	c-0.3,45.1,3.1,90.6-1.8,135.1c-4.3,39.9-12.4,81.1-28.4,117.5c-18.2,41.3-47.6,77.6-71.3,116.6c-21,34.7-35.2,75.4-62.3,104.2
	c-63.4,67.6-131.9,130.4-199.8,193.6c-47.5,44.2-106.6,68.9-166.8,90.6c-22.3,8.1-44.8,15.8-67.8,21.7c-23.3,5.9-47.2,9.2-70.8,13.7
	c0.5,3.2,1,6.4,1.4,9.6c8.7,0.4,17.4,1.3,26,1.2c62-1.1,120.1-18.6,177.1-41.4c29.8-11.9,62.6-18.1,90.1-33.7
	c76.2-43.3,148.8-92.3,201.8-164.2c42.3-57.4,90.7-111.9,122.9-174.6c41.5-80.9,68.4-169.4,73.5-261.7c4.4-79.7,6.1-159.7,5.8-239.5
	C1583.4,637.3,1572.4,614.7,1564.7,585.8z"/>
<path d="M450.1,1274.1c-2.8,3.4-5.6,6.7-8.4,10.1c-24.7-22.5-49-45.5-74.3-67.3c-5.8-5-15-6-22.6-8.8
	c0.1,7.4-3,18,0.8,21.6c21.6,20.6,42.8,42.6,67.7,58.5c58.3,37.3,125.3,38.5,191.7,38.9c17,0.1,36.2,2.9,50.5-3.7
	c39.8-18.5,79.2-39,115.7-63.3c34-22.6,71.3-42.4,87.8-85.7c8.5-22.4,23.9-48.9,43.5-58.9c35.3-17.9,45.7-51.2,64.5-79.3
	c4.8-7.2-0.6-21.4-1.4-32.3c-9.6,4-21.7,5.5-28.1,12.4c-10,10.8-18.2,24.4-23.7,38.1c-20.3,50.3-57,86.5-97.1,120.8
	c-8.6,7.4-9.6,23.1-16.7,33.2c-5.9,8.4-15.6,14.1-23.6,21c-17.4-27.5-33.6-6.2-49.4,1.7c-90.1,45.1-181.2,63.8-275.7,12.6
	c-5.9-3.2-13.6-3.1-26-5.6C436,1253.7,443.1,1263.9,450.1,1274.1z"/>
<path d="M920.2,679.8c-4.4-12.8-7.5-22.1-10.9-31.9c11-7.8,20.3-14.7,29.9-21.1c34.3-22.7,34.6-77.8,0.5-103.4
	c-45.1-33.8-110.7-26.6-147.9,16.1c-25.4,29.2-29.2,101,0.8,117.7C829.1,677.6,870,700.6,920.2,679.8z"/>
<path d="M814.8,1581c-15.3-35.8-37.4-25.8-55.7-19.1c-35.8,13.1-68.5,19-100.1-11.1c-8.7-8.2-25.7-8.9-39.2-10.7
	c-42.5-5.4-85.3-8.5-127.6-15c-15.2-2.3-29.3-12-43.9-18.2c-0.8,2.9-1.6,5.8-2.3,8.7C557.8,1586.2,683,1583.3,814.8,1581z"/>
<path d="M578.4,1216.6c-23.5-19.7-25.1-71.1-74.9-36.7c-3.5,2.4-14.2-1.4-18.7-5.5c-19.2-17.6-37.9-36-55.7-55
	c-11.5-12.3-21.2-26.3-31.6-39.5c-2.9,2.6-5.7,5.2-8.6,7.8c26.7,73.7,90,112.9,154.4,151.9C551.7,1234.2,562.9,1226.9,578.4,1216.6z
	"/>
<path d="M936.1,1247.5c3.2,2.7,6.4,5.4,9.7,8.1c20.4-11.4,42.2-21.1,60.3-35.3c6.1-4.8,4.6-21.7,2.7-32.3
	c-0.5-2.8-20.5-7-23.6-3.5C967.4,1204.3,952.1,1226.3,936.1,1247.5z"/>
<path d="M670.9,709.3c63.4,8.1,111.4,36,153.5,75.7c6.7,6.4,12.9,15.7,20.9,17.9c12.1,3.3,28.4,6.1,37.6,0.5
	c9.5-5.8,16-21.5,17.6-33.7c1.6-11.9-7.3-25-6.6-37.3c0.5-9.5,8.7-18.5,13.5-27.8c7.7,5,16.3,9.1,22.9,15.2
	c3.8,3.6,4.7,10.4,6.7,15.9c10,28,23.4,50.7,53.6,64.3c22.3,10,39.6,31.1,61.1,48.8c1.6,37.2,4.4,77.3,4.9,117.4
	c0.6,44.7-13.1,82.3-40.2,121c-59.5,84.9-129.6,157.7-210.8,221c-13.3,10.4-22.5,21.2-11.1,41.4c5.6,10-0.9,26.9-2.4,46.7
	c9.4-5.6,15.8-11.1,23.2-13.6c21.8-7.5,44-13.8,66.1-20.6c6.2-1.9,14.2-1.8,18.5-5.8c47.9-44,96.1-87.7,142-133.6
	c13.2-13.2,17.2-35.4,29.5-50.1c19.6-23.7,43.5-43.7,63.5-67.1c7.9-9.2,10-23.4,16.5-39.7c15.5-16.4,35.4-37.5,55.4-58.6
	c2.1,1.5,4.2,3,6.3,4.4c-1.9,13.5-3.9,27-5.8,40.5c70.4-63,81.6-154,112.1-235.4c5.6,1.7,11.1,3.4,16.7,5.1
	c-9,49.7-18,99.5-28.1,155.3c32.4-21.1,8.4-77.1,66.3-69.3c-21.9-28.7-23-47-4.3-70.7c12.6-16,9.9-43.5,16.1-65.3
	c2.8-9.8,10.7-18.1,16.4-27c6.9,8.4,19.2,16.6,19.7,25.4c2.6,46.3,5.2,93,2.2,139.2c-5.6,88.3-30.1,172.5-82.8,243.9
	c-38.4,52.2-73.3,109.4-134.9,141.4c-22.2,11.5-38.6,33.8-60.2,47.2c-22,13.7-40.3,36-74.9,24.6c-12.9-4.3-34.6,18.6-52.5,28.9
	c-25.4,14.6-51,29-76.4,43.4c-2.7-3.4-5.4-6.8-8.2-10.2c10.1-11,18.9-23.4,30.4-32.6c42.7-34.1,86.9-66.4,129.1-101
	c11.1-9,17.2-24.1,25.6-36.4c-3.7-2.9-7.4-5.9-11-8.8c-30.6,23.5-62,46.2-91.7,70.9c-40.3,33.6-79.6,68.4-118.6,103.5
	c-29.4,26.4-119,38.4-150.6,17.7c-5.2-3.4-6.1-13.2-9.4-21.1c-27.4,4.2-55.6,8.4-83.8,12.7c-0.7-3.7-1.4-7.5-2.1-11.2
	c19.8-13.2,39.6-26.3,59.5-39.5c-1.4-2.3-2.7-4.7-4.1-7c-32.6,7.7-65.3,15.1-97.8,23.2c-16.6,4.2-36.3,9.5-37.1-14.3
	c-0.3-10,16.6-27.4,28.1-29.9c84-17.8,161.3-50.8,228.2-104c56.4-44.8,102.1-99.4,142.6-160.3c33.8-50.8,53.3-104,66-161.6
	c1.4-6.3,0.2-13.1,0.2-19.7c-3.3-2-6.7-4-10-6c-7.6,11.9-23.7,26.3-21.1,35.3c8.7,30-12.4,32.5-29.2,35.9
	c-39.1,8-73.5-3.8-100.2-32.9c-17.5,48-20.1,100.7-65.6,140.3c5.4-56.1,10.3-104.6,14.2-153.1c0.2-2.6-8.4-6-6.5-4.7
	c-10.5,38.1-21.1,76.4-31.7,114.7c-3-0.3-5.9-0.6-8.9-0.9c-0.5-8.7-0.9-17.4-1.8-33.6c-30.8,34.6-58,65.1-85.1,95.6
	c-2.4-2-4.9-4.1-7.3-6.1c10.7-15.2,21.4-30.5,32.2-45.7c-3.3-3.5-6.6-7.1-9.8-10.6c-10.4,6.4-21.6,11.8-31.1,19.4
	c-35.1,28.4-74.2,32.9-114.7,16.8c-35.8-14.3-66.2-60.2-66.5-92.8c24.3,25.2,49.1,50.9,73.9,76.7c3.4-2.7,6.8-5.3,10.2-8
	c-9.5-26.1-21.3-51.5-28.1-78.3c-14.1-55.4-1.7-80.7,48.3-107.8c26.5-14.3,34.2-44.1,24.5-90c14.3-8.5,27.9-16.5,41.4-24.5
	c-1.7-2-3.4-4-5.1-5.9c-34.9,0-70.9,5.1-104.6-1.3c-42-8-76.1-60.6-67.6-92.2c15.4-57.4,65.2-91.9,116.7-81
	c50.7,10.8,81.5,55.7,72.8,106.2C675.4,686.7,673,698.4,670.9,709.3z M1115.6,1234.6c51,8.5,72.3-11.6,64.3-53.9
	C1159.3,1197.9,1140.8,1213.4,1115.6,1234.6z"/>
<path d="M110,1125.2c2.4-26.8-4.2-46.6-33.1-50.7c-2.7-0.4-6.3-4.2-7.1-7.1C55,1018.2,43.3,968,25.4,920
	c-16.7-44.7,2.4-84.6,4.4-126.5c1.4-28.3-8-60.6,0.1-89.5C46.8,643.5,57.1,582.2,81,522c27.1-68.4,72-124.5,101.6-190.1
	c15.7-34.9,52.7-61.2,82.9-88.2c34.3-30.5,77.4-52.6,106.8-86.9c67.6-78.9,161-101.2,253.7-123.3c48.6-11.6,101.3-5,151.5-11.7
	c43.8-5.8,84.8,11.2,129.2,7.3c34-2.9,70.7,15.3,104.9,27.9c34.1,12.6,66.7,29.4,99.4,45.5c9,4.4,16.4,12.5,23.7,19.8
	c25,25.1,49.6,50.6,81.9,83.7c-52.5-18.3-96.5-32.5-139.6-48.8C912.3,95.2,743.7,75,576.1,134.1C356.3,211.6,202.4,359.2,137,589
	c-23.6,82.9-33.8,165.1-19.1,252.6c10.8,64.5,17.7,128.7,39.9,190.9c7.4,20.8,3.6,46,2.9,69.2c-0.1,5-8,11.9-13.8,14.3
	C137,1120.1,126,1121.4,110,1125.2z"/>
<path d="M1564.7,585.8c7.7,29,18.7,51.5,18.7,74.1c0.2,79.8-1.4,159.8-5.8,239.5c-5.1,92.3-32,180.8-73.5,261.7
	c-32.2,62.7-80.7,117.2-122.9,174.6c-53,72-125.6,121-201.8,164.2c-27.5,15.6-60.3,21.8-90.1,33.7c-57,22.8-115.1,40.2-177.1,41.4
	c-8.7,0.2-17.3-0.8-26-1.2c-0.5-3.2-1-6.4-1.4-9.6c23.6-4.5,47.5-7.8,70.8-13.7c23-5.8,45.5-13.6,67.8-21.7
	c60.2-21.7,119.3-46.4,166.8-90.6c67.9-63.2,136.4-126,199.8-193.6c27-28.8,41.2-69.5,62.3-104.2c23.6-39,53.1-75.3,71.3-116.6
	c16.1-36.4,24.1-77.6,28.4-117.5c4.8-44.6,1.5-90.1,1.8-135.1c0-3.5-1-7.8,0.7-10.3c35.8-52.5,12.2-106.1,3.4-159.4
	C1557.4,599,1560.2,595.9,1564.7,585.8z"/>
<path d="M450.1,1274.1c-7.1-10.2-14.1-20.4-24.9-36c12.5,2.6,20.2,2.4,26,5.6c94.5,51.2,185.6,32.5,275.7-12.6
	c15.7-7.9,32-29.2,49.4-1.7c8-6.9,17.7-12.7,23.6-21c7.1-10.1,8.1-25.8,16.7-33.2c40.1-34.3,76.8-70.6,97.1-120.8
	c5.6-13.8,13.7-27.4,23.7-38.1c6.4-6.9,18.6-8.5,28.1-12.4c0.7,11,6.2,25.1,1.4,32.3c-18.8,28.1-29.2,61.4-64.5,79.3
	c-19.7,10-35,36.5-43.5,58.9c-16.5,43.3-53.8,63.1-87.8,85.7c-36.5,24.2-75.9,44.7-115.7,63.3c-14.3,6.7-33.5,3.8-50.5,3.7
	c-66.5-0.3-133.4-1.5-191.7-38.9c-24.9-15.9-46.2-37.9-67.7-58.5c-3.7-3.6-0.7-14.2-0.8-21.6c7.6,2.8,16.8,3.8,22.6,8.8
	c25.3,21.8,49.6,44.8,74.3,67.3C444.5,1280.9,447.3,1277.5,450.1,1274.1z"/>
<path d="M920.2,679.8c-50.2,20.8-91.1-2.2-127.6-22.5c-30-16.6-26.2-88.5-0.8-117.7c37.2-42.8,102.8-49.9,147.9-16.1
	c34.1,25.5,33.8,80.6-0.5,103.4c-9.6,6.4-18.9,13.3-29.9,21.1C912.6,657.7,915.8,667,920.2,679.8z"/>
<path d="M814.8,1581c-131.8,2.3-257,5.2-368.8-65.3c0.8-2.9,1.6-5.8,2.3-8.7c14.6,6.3,28.7,15.9,43.9,18.2
	c42.3,6.5,85.1,9.6,127.6,15c13.5,1.7,30.5,2.4,39.2,10.7c31.6,30.1,64.3,24.2,100.1,11.1C777.4,1555.3,799.5,1545.2,814.8,1581z"/>
<path d="M578.4,1216.6c-15.6,10.2-26.7,17.6-35.1,23c-64.4-39-127.7-78.2-154.4-151.9c2.9-2.6,5.7-5.2,8.6-7.8
	c10.5,13.2,20.1,27.2,31.6,39.5c17.8,19.1,36.5,37.4,55.7,55c4.5,4.1,15.2,7.9,18.7,5.5C553.3,1145.6,555,1197,578.4,1216.6z"/>
<path d="M936.1,1247.5c16.1-21.2,31.4-43.2,49.1-62.9c3.1-3.5,23.1,0.7,23.6,3.5c2,10.6,3.4,27.5-2.7,32.3
	c-18.2,14.3-40,23.9-60.3,35.3C942.5,1252.9,939.3,1250.2,936.1,1247.5z"/>
<path d="M1115.6,1234.6c25.2-21.2,43.8-36.7,64.3-53.9C1187.8,1223,1166.6,1243.1,1115.6,1234.6z"/>
</svg>
