<svg version="1.1" id="Ebene_1" xmlns="http://www.w3.org/2000/svg" xmlns:xlink="http://www.w3.org/1999/xlink" x="0px" y="0px"
	 viewBox="0 0 1600 1600" style="fill: #ff0000; enable-background:new 0 0 1600 1600;" xml:space="preserve">
<g>
	<g>
		<path d="M1593.8,872.9c-41.3,245.8-162.1,441.8-377,573.7c-230.4,141.4-473.9,157-725.1,65.1c14.5-13.6,28.2-24.1,38.9-37.2
			c8.2-10.1,6.6-20.3-8-27.1c-31.1-14.4-61.8-29.8-92-46c-14.3-7.7-27.1-18.1-40.5-27.3c-21.5-14.7-45.1-27.2-64.1-44.6
			c-29.2-26.8-55.3-57-82.9-85.6c-7.6-7.8-16.3-14.5-23.9-22.2c-6.1-6.1-12.7-12.3-16.9-19.6c-21.7-38.3-42.8-76.9-64.1-115.4
			c-0.8-1.4-2-2.7-2.5-4.2c-16.1-50.2-35.8-99.7-47.1-150.9c-11.3-51.3-22.2-103.1-19.8-157c2.8-63.5,10.6-125.3,27.7-186.9
			c17.2-62.1,45-119.2,73.2-176.1c15-30.3,37.9-57.1,59.1-83.9c52.5-66.4,116.5-119.5,186.3-167.5c49.9-34.4,103.5-60.4,157.3-86.5
			c49.7-24.5,103.9-36.7,159.4-40c47.4-2.8,94.9-2.7,142.4-3.7c3.8-0.1,7.7,0.1,11.4,1c52.8,13.3,106.2,24.9,158.2,40.9
			c26.1,8.1,49.6,24.7,74.6,36.8c65.5,31.7,119.9,79,175.5,124.7c4.5,3.7,13.3,7.6,16.8,5.6c5-2.9,7.8-10.8,10-17.1
			c3.7-10.4,5-21.9,9.9-31.7c1.6-3.2,10.9-2.5,16.7-3.6c-1.3,5.1-2.2,10.3-4.1,15.2c-2.3,5.9-6.9,11.3-7.9,17.4
			c-2.2,12.8-3.4,25.9-3.7,39c-0.4,19.5,13.9,40.9,31.8,47c13.4,4.5,17.5-6.1,22.1-15.8c5.2-11,11-21.8,17.3-32.3
			c1-1.7,6.2-2.6,8.4-1.7c7.5,3.3,9.4,30.1,2.2,33.8c-12.2,6.2-12.2,13.4-7.7,25.3c3.1,8.1,1.7,18.6,0,27.6
			c-3.1,16.4,1.8,30.3,15.4,38.5c6.7-10.9,12.4-22.4,20.4-32.2c3.4-4.2,11.5-4.5,17.5-6.6c0.3,6.3,0.8,12.7,0.7,19
			c0,1.3-2.8,2.9-2.6,3.9c6.6,28-22.9,47.8-17,75.6c2.9,13.7,5.5,27.5,8.5,41.2c1.3,5.8,3.5,11.5,5,17.3c5.6,21.8,7.6,23,29,15.8
			c0,6.5,0,12.8,0,24.5c10.3-5.4,19.2-7.8,24.5-13.6c3.1-3.4,0.5-12.1,0.6-18.4c0.1-5.5-1.1-14.8,1.1-15.8
			c5.7-2.5,13.8-3.3,19.6-1.1c6.1,2.3,10.6,8.8,16.9,14.4c-5.7,4.8-10.6,8.9-15.3,12.9c-0.1,1.2-0.7,2.7-0.2,3.3
			c11.9,13.3,8.5,22.7-5.8,32.1c-11.1,7.4-23.6,15.9-29.4,27.1c-6.4,12.4-11.1,30-7.2,42.5c12.6,39.9,6.7,81.2,13.2,121.4
			c1.8,11.4-1.9,23.8-3.6,35.6c-5.5,38.3-11.2,76.5-17,114.7c-4.6,30.2-9.6,60.3-14.3,90.5c-0.4,2.4,0.8,5,1.2,7.7
			c23.3-7.6,28.1-15.2,29.5-37.7c0.5-7.9,5.5-16.5,10.8-23c7.6-9.3,17.1-17.2,26.1-25.3c8.7-7.8,17.4-15.4,30.5-7
			c1.6,1.1,8.5-3,10.6-6.3c4.9-7.6,8.3-16.1,12.3-24.3C1589.2,870.1,1591.5,871.5,1593.8,872.9z M302.8,440.6
			c-6.2,8-12.4,15.9-18.6,23.9c8.8,4.7,17.6,9.4,26.3,14.1c1.4-1.3,2.7-2.5,4.1-3.8c-2-5.5-4-10.9-5.9-16.4
			c-2.1-6-4.1-12.1-6.2-18.2c13.3-5.4,26.7-10.8,39-15.8C319,412.1,303.8,418,302.8,440.6z M312.8,972.3c-0.9-4.5-0.6-8.5-2-9.2
			c-29.5-14.1-19.6-32.4-5.5-50.9c3.2-4.2,7.7-7.5,11.6-11.2c4,5,9.5,9.3,11.5,15c3.4,9.5,4.5,19.8,6.6,29.7
			c1.2,5.8,5.3,13,3.2,17.1c-11.7,23.3,6.8,37.9,14.9,55.2c1.4,3.1,10.4,5.2,14.7,3.8c20.1-6.2,39.4-15.1,59.7-20.4
			c16.8-4.4,34.4-5.9,51.8-7c14.9-0.9,20.2,5.3,17.3,20.1c-2.9,14.9-6.3,30-12,43.9c-7.4,17.9-16.9,35-26.1,52.1
			c-8.4,15.6-7.2,21.4,6.6,31.2c9.8,6.9,19.9,13.8,28,22.5c26.7,28.9,43.5,65.7,9.4,104.3c-21.8,24.7-54.8,29.4-80.2,8.4
			c-10.7-8.9-20.4-19.1-29.4-29.7c-1.8-2.2-0.1-11,2.6-12.8c24.3-16.2,27.8-15.7,52.3,0.6c4,2.7,11.1,5,14.4,3.1c3.6-2,5.8-9,6-13.9
			c0.9-22.2-29-42.5-53-32.4c-14.1,6-26.2,15.3-42.7,10.7c3.6,70.1,88,160.4,135.4,145.9c-0.7-5.1-1.5-10.4-2-15.7
			c-3-32.4,30.1-63.2,57.3-53.4c27.3,9.9,50.9,49.1,45.8,77.7c-1,5.7-5.1,12.6-9.9,15.7c-19.6,12.6-39.9,23.9-60.7,36
			c12.1,8.5,26.4,16.9,43.9,15.5c4.6-0.4,11.2-5.2,12.7-9.4c11.2-31.4,24-39.6,54.5-33.4c4.3-6.5,8.6-12.6,12.4-19.1
			c7.7-13.2,5.3-18.9-9-23.1c-4.7-1.4-9.4-3-13.7-5.2c-12.6-6.6-24.8-37.9-19.4-48.9c4.5-9.1,26.8-12.7,42.5-7.6
			c18.4,6.1,25.1,21,30.9,37.4c1.4,4.1,7.2,6.6,10.9,9.8c1.8-4.5,5.7-9.4,4.9-13.5c-3.5-18.5-1.1-23.8,21-34.6
			c2.1,14,4.6,27,5.9,40.1c0.9,9,18.5,24.1,25,19.4c11.7-8.4,24.7-16.8,32.5-28.3c17.7-26.2,37.6-48.9,67-62.4
			c4.6-2.1,8.4-9.9,9.4-15.6c6.4-37.4,11.3-75.1,18.2-112.3c3.6-19.4,23.4-25.7,39-13.4c12.8,10.1,24.8,21.3,37.1,32.1
			c18.9,16.7,19.3,16.2,33.1-5.2c11.7-18.3,24.5-35.9,38.2-52.7c2.9-3.6,11.8-2.3,17.9-3.3c-1.5,4.8-2.4,9.9-4.5,14.4
			c-4.7,9.7-10.1,19-15,28.5c-3.4,6.6-6.7,13.2-9.4,20c-2.4,6-7.1,13.9-5,18.2c2.1,4.3,11.8,7.8,17.3,6.9c23.5-3.8,46.5-12,70-13.7
			c25.6-1.8,35.1-16.4,41.3-37.5c1.1-3.7,5.8-6.5,9.2-9.3c11.5-9.1,26.3-15.8,34-27.3c14.1-21,24.5-44.5,35.6-67.4
			c13.9-28.6,27-57.5,40.2-86.3c4.8-10.5,7.7-20.6,2.8-32.9c-3.4-8.4-2.5-19-1.7-28.4c0.9-9.7,4.1-19.2,6.1-28.8
			c1.8-9-1.5-14.3-11.1-16.4c-17.6-3.7-35.3-7.5-52.4-12.8c-13.6-4.2-21.6,1.6-22.7,13.2c-2.2,23.6-26.7,24.7-36,41.1
			c-9.5-22.4,0.6-41.2,11.6-56.5c8.3-11.5,8.4-14.9-2.6-22.1c-28.6-18.5-28.8-31.3-1.4-51.4c3.1-2.3,6.6-3.9,9.7-6.1
			c20.7-14.2,41.9-27.7,61.6-43.2c6.1-4.8,10.8-15.1,11-23.1c0.5-18.3-1.8-36.8-3.6-55.2c-1-9.9-7.6-9.4-14.3-5.3
			c-14.5,8.9-27.4,18.5-34.3,35.6c-7.4,18.3-32.2,28.7-48.5,23.7c2.9-18.2,5.7-36.3,8.5-54.3c-1.8-0.6-3.6-1.2-5.4-1.8
			c-7.9,5.3-15.5,11.5-23.9,15.7c-4.5,2.2-10.7,1.1-16.1,1.6c1.5-5.8,1.3-12.9,4.7-17c14.4-16.9,29.6-33.2,45.2-49.2
			c8.7-8.9,17.6-18.3,28.1-24.4c21.4-12.5,36.5-25.9,29.4-54.5c-2.8-11.4-4.3-15.6-14.8-8.8c-20,12.9-39.7,26.2-59.6,39.2
			c-8.6,5.6-19,9.2-25.9,16.2c-11.9,12.3-20.5,27.8-32.8,39.7c-23.2,22.5-39,50.3-57.6,76.1c-8.3,11.5-7.5,21.6,5.3,28.4
			c10.9,5.8,23.3,8.8,32.8,12.3c3.2,11.2,4.9,23.5,10.1,34c9.7,19.8,22.3,38.2,11.7,62.1c-6.2,14-10.1,29.1-15.1,43.6
			c-1.6-0.6-3.2-1.1-4.9-1.7c2.3-7.5,4.9-15,7-22.6c2.6-9.8,6.7-19.7,6.7-29.6c0-16.5-8.5-27.7-22.9-37.9
			c-25.3-18-50.6-34.2-82.6-29.4c-30.9,4.6-64.5,8.4-82.1,39c-10.4,18.1-14.9,39.6-22.5,60.8c-2.6-7.3-5.9-14-7.4-21.2
			c-9-42.5,26.7-107.7,69-117.7c17.5-4.1,35.3-6.8,53-9.9c12-2.1,21.6-6.7,25.2-19.9c1.2-4.6,4.4-8.8,7.4-12.6
			c19.3-24.1,38.8-48,58.2-72c6.4-8,11-19,19.2-23.7c17.3-9.9,23.8-25.3,29.2-42.6c1.9-6,5.3-11.8,9.3-16.7
			c10.3-12.6,21.7-24.3,31.7-37.1c2.3-2.9,2.3-9.8,0.5-13.4c-8.2-16.1-19.6-28.5-39.1-31.2c-7.9-1.1-17.6-2.7-22.7-7.8
			c-17.2-17.6-38.5-19.8-60.8-20.3c-1.6,0-3.4-0.2-4.8-0.9c-23.6-12.4-40.4-14.1-56.4,15.3c-12.5,23-36.4,40-56.3,58.5
			c-7.3,6.8-19.4,15.4-26.6,13.4c-8.7-2.4-18.6-14.3-20.6-23.7c-5.6-25.8-8.5-52.4-10.5-78.8c-2-26.1-5.2-29.7-31-30.5
			c-11.7-0.4-24.2-1.8-34.7-6.5c-15.8-7-29.5-19-45.5-25.4c-9.6-3.8-22.2-3-32.7-0.7c-10.9,2.4-21,8.6-31,14
			c-19,10.4-39.2,19.4-56,32.6c-22.8,18-42.8,39.4-64.1,59.3c-5.1,4.8-10,10-15.4,14.5c-8.7,7.2-17.7,14-24.2,19.1
			c-4-9.7-9.2-17.6-10-25.9c-0.9-9.4-1.1-21.7,4.1-28.2c12.2-15.4,27.8-28.1,41.9-41.9c9-8.7,10.5-18.6,0.7-26.9
			c-10.5-8.9-9.3-19.3-2.8-27.5c7.2-9.1,16.9-17.4,27.3-22.5c17.2-8.6,38.1-2.9,48.1,10.8c6.3-1.6,13-3.3,22.2-5.7
			c-3.8-6-7.1-10.1-9.2-14.8c-4.8-10.4-12.2-20.9-13.2-31.8c-4.4-48.4,32.6-82.3,80.4-92.4C804,80.2,885.1,95.9,954.7,155
			c4.7,3.9,9.7,10.5,9.9,16c0.4,13.9,7.1,19.2,19.6,21.1c6.4,1,12.9,2.9,18.7,5.8c13.5,6.6,20.3,2.9,21.8-12.1
			c1.5-16.1,11.5-23.2,26.9-21.7c28.1,2.8,56.2,5.9,84.1,10c12.7,1.9,24.9,6.7,37.3,10.2c-0.8-4.4-2.5-6.6-4.6-7.8
			c-27.4-15.4-53.7-33.5-82.7-45.2c-44.7-18-90.5-36-137.5-46.3c-93-20.3-187.6-19.9-281.5-4.3c-31.5,5.2-62.5,15-92.9,25
			c-29.9,9.9-59.5,21.4-87.9,34.9c-14.7,7-26.5,19.9-39.7,30.2c1,1.8,2.1,3.5,3.1,5.3c5.7-0.5,11.4-1.2,17.2-1.6
			c39.8-2.2,86.4,25.3,70.4,76.6c-6.6,21.1-21.4,39-42.6,45.3c-37.4,11.1-56.8-21.5-61.1-47.2c-2.9-17.3-8.7-22.2-23.4-12.6
			c-18,11.7-36.3,25-49.8,41.5c-20.4,24.9-40.9,50.4-37.5,87.3c2.8,29.9,0.4,30.1,29.8,36c29.2,5.8,53.1-12.4,53.8-41.7
			c0.1-4.7-2.6-12.5-5.8-13.5c-4.4-1.5-11,1.1-15.7,3.7c-4.1,2.2-6.3,9.1-10.3,10c-9,2-19.8,4.5-27.4,1.2
			c-4.2-1.9-6.4-15.8-4.5-22.9c7.2-27.9,42.7-48.6,71-43c21,4.1,49.2,27,47.3,42.3c-3.5,28.3,2.1,59.5-23.1,82.2
			c-5.8,5.2-10.2,13.2-12.5,20.7c-1.6,5.3-0.8,14,2.6,17.8c23.1,25.3,40.2,54,52.1,85.9c9.2,24.5,3.6,32.9-22,39.4
			c-33.6,8.6-65-1.3-96.5-9.5c-13.3-3.5-19.5,0.4-22.9,12.8c-3.2,11.6-7,23-10.7,34.4c-10.8,33.4-39.9,46.6-69.1,52.6
			c-11.4,2.4-27.2-16.1-40.9-25.3c-2.7-1.8-5.1-4.1-7.6-6.3c-25-21.4-22-57.6,6.7-74.4c9.2-5.4,19.3-13.4,29.8-3.8
			c9.4,8.6,10.2,19.6,4.8,31.5c-1.9,4.2-0.2,9.9-0.1,14.9c5.6-2.2,12.1-3.1,16.6-6.7c24.5-19.9,12.5-64.6-3.9-79.4
			c-2.8-2.6-9-5.4-11.2-4.1c-20,11.7-44.5,20.3-57.9,37.5c-17.6,22.5-27.2,51.6-38.4,78.6c-5.3,12.7-7.4,27.1-8.6,41
			c-1,11.9,6.1,14.9,17.2,10.1c28.4-12.2,58.9,1.1,70.2,29.5c6.9,17.3-2.2,30.4-9.4,44.5c-2.8,5.5-4,12-5.9,18
			c6.1,0.9,12.9,4,18.3,2.4c15.1-4.2,22.3,4.3,28.8,15.1c11,18.4,5.6,42.6-11.5,51.3c-15.8,8-34.9-2.1-43.2-23.1
			c-1.8-4.6-4.1-9.1-4.9-13.9c-2.1-13.1-9.5-17.2-22.5-18.5c-12.5-1.3-24.8-6.7-36.6-11.6c-6.4-2.6-11.3-8.7-17.5-11.9
			c-3.7-1.9-8.6-1.3-13-1.8c-0.4,4.7-2.8,11.1-0.6,13.7c3.7,4.5,9.9,8.1,15.7,9.5c25,5.9,35.1,18.4,34.3,44c-0.1,4.1,0,8.3,0,14.5
			c34.2-4.2,53.9,14.2,68.6,40.9c9.1,16.4,9.2,34.5-1.3,48c-12.1,15.6-29.8,25.4-52.1,19.3c-16.6-4.6-20.5-1.2-18.5,16.3
			c2.9,25.5,13.6,47.5,28.2,68.8c22,32.2,49.5,54.2,90.1,59.3c2.1-5,3.3-11.5,7-15.7c14.9-17.3,5.7-36.6,4.4-54.8
			c-0.5-6.6-8.3-15.4-14.8-18c-6.7-2.6-16.8-0.5-23.6,3c-2.4,1.3-0.5,13,1.3,19.5c1.5,5.6,8.1,10.6,7.9,15.7
			c-0.3,8.4-1.9,20.5-7.3,23.8c-5.2,3.1-16.8-1.6-24-5.6c-5.7-3.2-9.2-10.6-13.4-16.2c-12.2-16.3-13.8-53-3.1-68.5
			c14.9-21.6,36.6-29.8,63-23C289.8,964.5,299.9,968.2,312.8,972.3z M291.5,311.8c-2.2-0.8-4.4-1.6-6.6-2.4
			c-15.7,20.6-32.2,40.6-46.7,62.1c-5.5,8.2-4,18.2,5.5,26.1c16.5,13.7,18.9,24.7,10.9,37.9c-11.1,18.2-24.3,22.9-44.2,14.2
			c-8.7-3.8-15.3-3.4-19.4,4.7c-10.2,19.8-19.8,40-29,60.3c-1.1,2.5,0.8,7.3,2.7,9.9c0.8,1,6.1,0,8.4-1.6c4.4-3.1,7.7-7.8,12.1-10.8
			c12.9-8.9,25.6-23.3,39.4-24.7c22.2-2.2,32.4-14.1,42.5-30.2c6-9.6,12.9-18.9,20.1-27.6s7-14.6-1.1-23.7
			c-5.9-6.6-9.8-18.4-8.7-27.2c1.9-16,8.6-31.4,12.5-47.2C291.3,325.2,290.9,318.4,291.5,311.8z M1183.2,1212.9
			c1.9,31-24.5,61.3-54.9,65.4c-7.8,1.1-15,7.1-22.4,10.8c8.2,2.8,16.4,5.8,24.7,8.4c1.9,0.6,4.4-0.1,6.4-0.9
			c22.5-8.2,46.3-14,67-25.5c17-9.5,30.7-25.2,45.1-39.1c9.6-9.2,9.9-18.4-5-22.8s-29.9-8.9-45.2-12.1
			C1186.9,1194.7,1179.3,1199,1183.2,1212.9z M1026.9,217c0.6,22,5.9,24.9,27,13.2c27-15,53.8-11.1,72.3,13.5
			c8.8,11.7,14.3,26.5,18.8,40.7c5.6,17.9,10.7,20.8,26.1,11.1c10.1-6.4,20.5-12.4,31.1-17.9c14.9-7.7,17.2-14.1,4-25.3
			c-35.9-30.5-77.5-45.3-125.1-40.3C1063.5,213.8,1045.9,215.2,1026.9,217z M1136.7,1411c0.1,4.1,0.6,10.8,12.9,8.3
			c5.1-1.1,11.8,2.2,16.7,5.2c9.1,5.7,16,6.5,21.1-4.6c2.9-6.4,7.1-12.3,9.4-18.9c7.6-22.1,27.2-30.7,44.8-42
			c6.8-4.4,12.8-10.7,17.9-17.1c4.6-5.7,8.4-12.5,11.1-19.3c1.9-4.9,1.2-10.8,1.7-16.2c-5.3-0.4-12.2-3-15.8-0.7
			c-13.1,8.6-25.4,18.6-37.5,28.7c-3,2.5-5.6,7.1-6.1,11c-1.8,13.8-10,21-22.6,24.8c-10.4,3.1-20.4,7.8-31,10.1
			C1144.5,1383.5,1138.6,1393,1136.7,1411z M387.1,1125.9c5.5,2.3,9,5.2,10.9,4.4c10.2-4.2,21.7-7.5,29.7-14.6
			c25.9-23.1,39.4-54.6,54.1-85.2c0.6-1.3,0.2-3.2,0.2-4.9c-0.3-10.8-6.7-17.8-16.7-14.9c-29.1,8.5-57.7,18.6-86.2,28.9
			c-3.2,1.1-4.5,7.4-6.7,11.2c4.3,1.1,9.1,3.8,12.9,2.9c11.6-2.7,22.7-7.8,34.3-10c5.6-1.1,12.6,1.3,17.8,4.2
			c1.5,0.9-0.9,9.3-2.3,14.1c-2.2,7.3-5.5,14.2-7.5,21.5c-4.1,14.6-9.5,27.6-26.5,31.8C396.7,1116.4,393,1121.3,387.1,1125.9z
			 M223.2,1130.5c9.9,31.3,14.3,34.6,39.1,32.6c29.7-2.3,47.8,17.7,35.2,45.1c-10,21.8-1.1,31.6,12,43.7c3.6,3.3,6.1,7.7,9.6,11.1
			c10.5,10.4,21.3,20.6,31.9,30.8c1.1-0.9,2.1-1.7,3.2-2.6c-14.2-30.3-25.8-61.1-20.4-95.4c0.5-3.2-1.7-7.6-3.9-10.4
			c-9.3-11.4-19.1-22.3-28.7-33.4c-6.9-7.9-14.6-10.5-24.7-5.5c-12.4,6.1-24.1,4.8-35.1-4.2C237,1138.7,231.7,1136,223.2,1130.5z
			 M1114,1349.5c-6.8-2.4-12.4-4.8-18.2-6.3c-7.9-2-17.9-0.9-23.5-5.5c-20.4-16.7-38.6-5.3-57.4,2c-10.1,3.9-20.8,6.6-30.5,11.3
			c-5.1,2.5-12.9,9.1-12.2,12.3c2.9,13.7-1.9,24.2-8.8,35.1c-2.2,3.4-2.5,10.6-0.3,13.5c2.1,2.7,8.8,3.1,13.2,2.4
			c19.7-3,26-10.6,26.7-33.8c0.3-11.9,4.8-21.7,15.6-23.9c9.7-2,22.6-1.8,30.4,3.1C1070.8,1373.5,1092.5,1372,1114,1349.5z
			 M783.2,127.5c-0.4,0.9-0.8,1.9-1.1,2.8c-12.3,2-24.7,3.6-36.8,6.4c-3.3,0.8-8.1,5-8.4,7.9c-1.2,13.1,19.6,26,31.9,20.7
			c9.3-4,18.7-9,28.6-10.7c21-3.6,35.5,10.1,47.2,24.1c10.3,12.4,20.7,15.2,33.7,8.3c6.3-3.4,14.9-9.5,15.4-15
			c0.5-5.7-6.4-15.9-12.1-17.7C849,144.4,816,136.3,783.2,127.5z M891,318.3c-1.8,0.5-3.6,1-5.4,1.5c-0.6,5.2-1.9,10.5-1.8,15.7
			c0.4,16.9,0.2,33.9,2.8,50.5c1.1,6.9,7.8,14.2,14,18.2c2.4,1.6,11.9-3.9,15.5-8.3c17.2-20.9,33.6-42.5,49.9-64.1
			c2.2-2.9,2.2-7.4,3.2-11.2c-1.6-1.4-3.1-2.7-4.7-4.1c-8.7,7-17.7,13.8-26.1,21.2c-4.8,4.2-7.9,10.5-13,14.2
			c-12.9,9.6-20,6.5-24.5-8.9C898.4,334.5,894.3,326.5,891,318.3z M786.7,1364.9c-7.3,18.3-14.5,34.7-20.3,51.5
			c-3.6,10.6,5.1,11.3,12.4,11.8c26.2,1.9,52.2,0.4,77.2-8.4c5.1-1.8,9.2-6.4,13.7-9.7c-5.3-2.4-10.6-6.8-16-6.9
			c-24.1-0.5-43.1-9.6-57.3-29.3C793.7,1369.9,789.3,1367.2,786.7,1364.9z M1428.5,943.2c-1.4-0.5-2.8-0.9-4.2-1.4
			c0-6.5,1.2-13.4-0.5-19.5c-0.8-3-8.8-7.3-10.3-6.3c-17.2,11.4-33.9,23.6-50.5,35.9c-7.1,5.3-7.3,11.9-0.4,17.8
			c10.7,9.2,21.3,18.7,32.8,26.7c2.8,2,12.4,0.1,13.5-2.4C1416.2,977.5,1422.1,960.3,1428.5,943.2z M908.2,1235.1c2,0,4,0,6,0
			c2-9.1,4.4-18.2,5.7-27.5c1.6-10.7-1.7-25.9,4.2-31.5c10.2-9.7,20,3.7,29.6,9.3c3.6,2.1,9,1.4,13.5,1.9
			c-0.3-4.5,1.1-10.5-1.3-13.2c-12.9-14.6-25.8-29.4-40.5-42.1c-9.5-8.2-19.8-3.7-20.8,9.2c-1.8,23.8-1.5,47.7-1.1,71.6
			C903.8,1220.2,906.6,1227.6,908.2,1235.1z M1412.6,593c-5.1-21.3-10.2-43.8-16.1-66.2c-0.7-2.8-6.1-7-7.8-6.4
			c-3.4,1.2-7,4.9-8.2,8.4c-5.3,15.4-11.6,31.3,6.4,43.4c1.5,1,1.6,4,2.5,5.9c9.1,19.2-3,32.6-13.6,45.3
			c-9.7,11.6-4.2,20.5,4.3,25.8c10.7,6.7,17.6-3.1,20.6-11.8C1405.6,624,1408.3,609.7,1412.6,593z M901.3,1386.2
			c1.5,1.3,3,2.7,4.5,4c6.4-7.7,14.2-14.7,18.9-23.3c4.9-8.9,5-18.1-9.8-19.2c-3.2-0.2-8.7-5.4-8.7-8.3c0-9.2,3.7-19.1-8.9-22.9
			c-8.7-2.6-17.9-6.3-26.6-5.8c-12.5,0.8-20.4,9.2-21.8,22.3c-1.4,13.7,8.8,13.8,18.1,15.2C900.9,1353.6,901.8,1354.7,901.3,1386.2z
			 M437.5,527.7c-10.1,4.9-17.5,11.1-25.4,11.7c-12.8,1-26.1-0.8-38.9-2.9c-6.6-1.1-12.8-5.4-19-8.4c-4.6-2.2-9.2-4.7-13.7-7.1
			c1.7,5.7,2.8,11.5,5.2,16.9c1.2,2.7,4.2,5.9,7,6.5c32.7,7.2,65.4,14.2,98.3,20.4c3.5,0.7,10.3-3.4,11.6-6.8
			c1.3-3.4-1.4-9.8-4.4-12.8C451.1,538,442.7,532,437.5,527.7z M1340.2,1246.1c6.7-1,11.2-0.3,12.9-2.1c11.8-13.2,27.7-20.1,41.7-30
			c2.5-1.7,1.6-14.7-1-16c-8.8-4.3-15.3-19.6-27.4-10.6c-12.5,9.2-23.6,20.6-33.9,32.2c-3.9,4.4-6.2,13-4.6,18.3
			C1329,1242.1,1337.3,1244.3,1340.2,1246.1z M845.8,1524.9c-0.3,14.6,8.6,20.8,21.1,13.3c7.2-4.3,12.7-11.5,18.4-17.9
			c7.9-8.7,15.6-17.7,22.9-27c2.5-3.1,5.4-7.8,4.7-10.9c-0.7-3-5.7-6.4-9.3-7C879.8,1471.7,846.3,1500.7,845.8,1524.9z
			 M576.8,1313.2c-14.7-16.2-27.8-18.7-41.6-10.2c-12.3,7.5-14.4,18-11.8,32.2c2.6,14.1,0.6,29.1,0.6,46.1c3.2,0.5,9.1,2.7,14.4,1.9
			c7-1.1,13.7-4.5,20.5-6.9c-3.1-5.3-5.5-11.2-9.4-15.7c-9.2-10.4-15.5-21.9-9.6-35.5C546.1,1310.6,559.1,1309,576.8,1313.2z
			 M1458.9,665.7c-2.4-0.9-4.9-1.8-7.3-2.8c-2,6-5.6,11.9-5.8,18c-0.8,19.8-4.6,24-24.4,27.6c-5.1,0.9-13.2,6.3-13.4,10
			c-0.9,14.4,0.3,29,1.7,43.5c1.2,11.9,7.1,17.8,20.8,11.8c-1.9-7.2-6.2-14.4-4.9-20.5c2.7-13.1,4.6-32.7,13.2-37.1
			C1463.5,703.6,1456.5,683.9,1458.9,665.7z M1332.9,1085.4c-14.3-17.6-45-14.2-54.7,8.5c-1.1,2.5-0.9,7.3,0.7,8.8
			c6.7,6.2,13.7,12.2,21.4,17c6.8,4.2,11.3,1.8,14.9-6.2C1319.4,1104.2,1326,1096.1,1332.9,1085.4z M139.4,938
			c14.1-14.3,27.4-9,41.9-1.7c13.9,7,29.2,1.5,36-9.9c6.4-10.7,3.1-34.5-6.2-42.5c-1.1-1-3.7-0.1-6.6-0.1c0.7,3.2,0.7,5.5,1.5,7.3
			c6.4,13.3,4.2,24.6-8.3,32.7c-12.3,8-22.4,2.4-32.3-6.1c-6.6-5.7-14.4-10-21.7-14.9c-2.5,9.5-5,19-7.3,28.5
			C136.3,932.1,137.2,933.2,139.4,938z M1466.4,1066.3c2.5-15.5-5.1-20.8-15.6-15.9c-9,4.2-20.4,12.5-22.2,20.8
			c-2.2,10.3,3.9,22.8,8,33.7c0.6,1.5,14.1,1.4,15.3-1C1458.1,1091.2,1462.3,1077.6,1466.4,1066.3z M1386.5,1158.8
			c-1.3-0.7-2.6-1.4-4-2.1c1.9,6.1,2.5,13.2,6.1,18.1c3.4,4.7,9.5,8.6,15.1,9.9c2.3,0.5,7.3-6.5,9.4-10.8
			c6.7-14,12.6-28.4,20.6-46.7c-7.9,1.1-15.4,0-19.2,3.2C1404.3,1138.8,1395.7,1149.2,1386.5,1158.8z M1381.8,406.9
			c-14.1-24-26.6-45.3-41.7-70.9c2.2,18.8-12.4,31.5,0.6,47.3C1350.6,395.5,1359,407.5,1381.8,406.9z M718.1,118.9
			c-0.8-1.5-1.6-3-2.4-4.5c-12.5,7.7-25.7,14.4-37.2,23.4c-7.5,5.9-9.1,14,4.1,17c13.3,3.1,21.6,11.6,25.9,24.5
			c1.1,3.2,3.8,5.9,6.1,9.4c15.2-8.9,6.3-16.2,0.4-23.5C693.9,139.1,693.9,139.1,718.1,118.9z M1041.5,260.8
			c-2,1.6-6.4,5.2-10.9,8.8c8.1,8.2,15,20.4,24.6,23.1c6.4,1.8,16.6-9.9,25.1-15.6c-6-4.4-11.5-9.7-18.1-12.9
			C1057.6,261.8,1051.6,262.3,1041.5,260.8z M494.2,1218.7c6.2-11.2,3.2-28.3-9.1-41.1c-9.8-10.2-20.4-20-39.2-16.1
			C463.5,1182.4,479,1200.7,494.2,1218.7z M315.1,1098.6c-2.6-0.1-5.2-0.2-7.8-0.3c-1.4,8.7-6.8,19.5-3.6,25.9
			c11.5,22.7,30.4,39.4,51.3,57c-4.5-12.9-7.6-22.9-11.5-32.6c-1.5-3.7-4.5-8.8-7.6-9.6C314.1,1133.9,308.5,1120,315.1,1098.6z
			 M1305.4,967c-16.8,1.6-36,25.7-32.6,40.2c0.6,2.6,3.5,6,5.9,6.5c2.5,0.6,7.4-1.1,8.3-3.1C1293.5,996.5,1299.2,981.9,1305.4,967z
			 M441.3,197c0.2,2,0.3,4.1,0.5,6.1c6.3,5.7,12.6,11.3,19.2,17.2c7.4-7.2,14.4-14.1,21.4-21c-0.4-1.9-0.8-3.7-1.3-5.6
			C467.9,194.8,454.6,195.9,441.3,197z M1010.1,1308.4c-8.9-8.7-15.3-15.4-22.4-21.2c-0.4-0.3-9.7,7.5-9,9
			c3.8,8.9,9.4,17.1,14.4,25.5C997.8,1318.1,1002.3,1314.5,1010.1,1308.4z M793.3,256.7c20.1,22.4,41.7,24.2,52.2,6.1
			C829,260.9,813.1,259.1,793.3,256.7z M310.3,587.9c-11.2,15.2-21.8,29.6-33.5,45.4C306.3,624.9,318.5,608.6,310.3,587.9z
			 M1236.5,773.7c-0.3,2-0.6,3.9-0.9,5.9c17.5,14.6,32,16.6,46.4,2.4C1265,778.9,1250.8,776.3,1236.5,773.7z M141.4,750.7
			c2.1-0.5,4.3-0.9,6.4-1.4c3.8-8.4,7.6-16.7,12.3-27c-10.6-1.1-18.4-1.9-31.7-3.2C133.7,732.1,137.6,741.4,141.4,750.7z
			 M415,1073.9c-0.9-0.9-2.4-3.3-4.6-4.2c-9.1-3.8-26.6,9.2-25.6,19c0.2,2.3,2,5.4,3.9,6.4C395.5,1098.8,415.9,1083.4,415,1073.9z
			 M1169.9,369.6c-11.9-7.5-22.8-14.6-34-21.1c-0.8-0.5-5.6,3.1-5.5,4.4c0.3,2.7,2.2,5.9,4.4,7.6c6.7,5.2,13.8,10,21,14.5
			c2.4,1.5,6,1.8,8.9,1.6C1166.1,376.5,1167.1,373.6,1169.9,369.6z M419,510.6c9.9-14.8-3.5-34.9-21.3-36.4
			C405.4,487.4,412.2,499,419,510.6z M719.9,1407.9c-6.7,7.6-10.4,11.8-14.2,16.1c4.8,3.7,9.2,9.1,14.5,10.4
			c2.4,0.6,9.1-6.6,9.6-10.8C730.3,1419.9,725,1415.5,719.9,1407.9z M179.3,707.1c12.5,7.8,23.1,14.5,33.7,21.2
			c1.3-0.9,2.6-1.9,3.9-2.8c-4-5.6-7.2-12.2-12.3-16.6C197.7,702.9,189.3,698.9,179.3,707.1z M204.4,1157c1.3-0.8,2.6-1.6,3.8-2.4
			c-11.9-20.1-23.8-40.2-35.7-60.2c-1.9,1.1-3.7,2.3-5.6,3.4C179.5,1117.5,192,1137.3,204.4,1157z M936.6,299.3
			c-5.2-4.2-8.4-6.9-11.7-9.5c-3.4,4.8-8.6,9.3-9.5,14.6c-0.6,3.4,5.1,7.9,7.9,12C927.2,311.2,931.2,306.1,936.6,299.3z
			 M1385.2,1026c-4.2,7.1-9.3,11.9-8.6,15.5c1,4.6,6.7,8.3,10.3,12.4c3.7-4.2,10.2-8.3,10.3-12.5
			C1397.3,1037.1,1390.9,1032.8,1385.2,1026z M230.4,589.8c-2.1-1.1-4.2-2.2-6.3-3.2c-3.3,5.6-8.5,11-9.2,16.9c-0.6,5,4,10.7,6.2,16
			c1.7-0.6,3.3-1.1,5-1.7C227.6,608.5,229,599.1,230.4,589.8z M1288.8,1172.9c-5.6,8-10.7,12.5-11.6,17.8
			c-0.5,2.7,6.7,6.7,10.4,10.1c3.3-4.8,7.8-9.2,9.5-14.5C1297.8,1183.8,1293.1,1179.6,1288.8,1172.9z M1303.7,1249.7
			c-4.8,7.3-8.6,11.7-10.3,16.8c-0.4,1.2,7.4,7.5,9.5,6.7c4.1-1.7,8.5-6.3,9.5-10.5C1313,1259.9,1308,1255.8,1303.7,1249.7z
			 M1197.7,739.1c-1.6-1.8-3.1-3.6-4.7-5.4c-6.2,5.3-12.6,10.4-18.3,16.2c-0.7,0.7,2.3,5.1,3.5,7.7c5.9-4.2,11.9-8.3,17.5-12.8
			C1197.1,743.8,1197.1,741.1,1197.7,739.1z M1303.9,398.7c-0.4-2.6-0.9-5.3-1.3-7.9c-6.5,0.3-12.9,0.6-19.4,0.9
			c0.9,3.9,1.8,7.9,2.7,11.8C1291.8,401.9,1297.8,400.3,1303.9,398.7z M1056.3,1191.4c1.3,2.5,2.6,5.1,3.9,7.6
			c8.8-4.4,17.7-8.7,26.5-13.1c-1.3-2.6-2.7-5.3-4-7.9C1074,1182.5,1065.2,1187,1056.3,1191.4z M225.6,411.4
			c-4.5,5.4-7.3,8.8-10.1,12.2c4,2.8,7.7,6.9,12.1,7.7c2.4,0.5,8.8-6,8.4-7C234.1,420.1,230.3,416.8,225.6,411.4z M263,986.5
			c-19.6-4.9-26.5-1.3-30.3,16.8C243.5,997.3,252.4,992.4,263,986.5z M1372.2,448.7c0.8-2.7,1.5-5.4,2.3-8.1
			c-6.1-2-12.2-4.2-18.5-5.6c-0.5-0.1-2.2,5.8-3.4,8.9C1359.1,445.6,1365.7,447.2,1372.2,448.7z M483.8,269.4
			c-8.9-8.1-16.4-14.9-25.5-23.3C459.1,264.8,464.9,270,483.8,269.4z M361,496.7c-0.8,1.6-1.7,3.3-2.5,4.9c7,4,14,8,24.2,13.9
			C380.4,496.3,372.3,493.9,361,496.7z M436.9,1252.3c-0.8,1.4-1.6,2.9-2.3,4.3c5.5,11.6,14.7,14.6,25.7,13.6
			c0.8-1.8,1.6-3.5,2.4-5.3C454.1,1260.7,445.5,1256.5,436.9,1252.3z M218.1,1096.2c-1,1.7-2.1,3.4-3.1,5.1
			c11.9,7.4,23.8,14.7,35.7,22.1c0.9-1.4,1.7-2.8,2.6-4.2C241.5,1111.5,229.8,1103.9,218.1,1096.2z M1288.4,749.2
			c-0.4-2.6-0.9-5.2-1.3-7.9c-6.6,1-13.2,2-19.7,3c0.5,2.8,0.9,5.5,1.4,8.3C1275.3,751.5,1281.9,750.3,1288.4,749.2z"/>
		<path d="M170.2,247.8C103.7,349.9,49.9,458.3,7,571C6.9,503.9,113.2,290,170.2,247.8z"/>
		<path d="M199.8,1302.3c4.9,4.3,11,7.9,14.6,13.1c8.6,12.7,19.2,19.8,35.2,19c4.7-0.2,10.6,2.5,14,5.8c2.3,2.3,1.3,8,1.8,12.2
			c-3.9,0.3-8.1,1.7-11.5,0.7C234.4,1347.1,209.9,1325.3,199.8,1302.3z"/>
		<path d="M231.9,177.6c7.5-6.9,15-13.9,22.5-20.8c1.2,1.1,2.4,2.3,3.7,3.4c-7,7.4-14,14.9-20.9,22.3
			C235.4,180.9,233.6,179.3,231.9,177.6z"/>
		<path d="M718.8,715.7c-32.1-37.7-69.1-54.4-119.5-42.8c-47,10.9-77.6,55.2-79.8,94.8c-5-7.7-11.9-16.2-16.1-25.7
			c-2.6-5.7-3.1-13.9-1-19.8c5.3-14.8,12.1-29.3,19.3-43.3c13.9-27.1,36.6-43,66.6-47.2c15.5-2.2,31.4-4,46.9-2.8
			c36.7,2.7,60.6,23.4,74.9,56.7c3.7,8.6,9.7,16.2,14.6,24.2C722.7,711.8,720.7,713.7,718.8,715.7z"/>
		<path d="M556.4,190.5c-15.2-0.2-27.7-11.8-28-26.1c-0.4-20.9,13.4-33.9,35.7-33.6c19.2,0.2,34.3,12.6,34.2,28.1
			C598.4,174.3,576.5,190.7,556.4,190.5z M575.8,160.1c-5.7-3.1-8.9-6.3-11.4-5.8c-3.4,0.6-6.3,4.1-9.4,6.3c2.9,2.5,5.7,6.9,8.7,7.1
			C566.8,167.9,570.1,164,575.8,160.1z"/>
		<path d="M1117.1,685.8c-3.5,9.3-7,18.5-10.5,27.8c-2.7-1-5.4-2.1-8-3.1c3.7-9,7.4-18.1,11.2-27.1
			C1112.1,684.2,1114.6,685,1117.1,685.8z"/>
		<path d="M767.1,1126.6c-4,8.9-6.8,14.9-10,22C747.7,1135,749.3,1130.7,767.1,1126.6z"/>
	</g>
</g>
</svg>
