<svg version="1.1" id="Ebene_1" xmlns="http://www.w3.org/2000/svg" xmlns:xlink="http://www.w3.org/1999/xlink" x="0px" y="0px"
	 viewBox="0 0 1600 1600" style="fill: #121212; enable-background:new 0 0 1600 1600;" xml:space="preserve">
<g>
	<path d="M1517.1,502.2c-39.4-92.5-95.8-175.5-167.6-246.7c-71.7-71.2-155.2-127-248.1-166c-96.2-40.4-198.3-60.8-303.5-60.8
		S590.5,49.1,494.4,89.5c-92.9,39-176.4,94.9-248.1,166c-71.8,71.2-128.2,154.2-167.6,246.7C37.8,598,17.1,699.8,17.1,804.7
		c0,104.9,20.7,206.7,61.6,302.5c39.4,92.5,95.8,175.5,167.6,246.7c71.7,71.2,155.2,127,248.1,166c96.2,40.4,198.3,60.8,303.5,60.8
		s207.4-20.5,303.5-60.8c92.9-39,176.4-94.9,248.1-166c71.8-71.2,128.2-154.2,167.6-246.7c40.8-95.8,61.6-197.6,61.6-302.5
		C1578.7,699.8,1558,598,1517.1,502.2z M1269.5,279.5c2.8,2.5,5.6,5,8.3,7.5c-1.9,10.8-6.4,20-28.4,18.6
		C1257.1,295.7,1263.4,287.5,1269.5,279.5z M484.2,174.1c-5.2,6-9.9,12.9-14.9,19.1c-19.2,24-32.6,54.7-72.6,52.4
		c-6.7-0.4-15.2,6.5-20.6,12.1c-9.6,10-17.1,22.9-31.9,6.5C387.2,228.7,434,198.6,484.2,174.1z M279.9,324.3
		c0.9,2.4,2.4,4.9,4.7,7.6c-7.1,11.9-12.7,21.9-19,31.4c-2.3,3.4-6.9,8.7-9.3,8.2c-8.5-1.7-14.3-1-18.4,1.4
		C251.1,356.2,265.1,340,279.9,324.3z M230.7,382.2c-2,5.4-2.5,12-3.1,18.7c-4.4,0.8-8.5,1.6-12.4,2.4
		C220.3,396.1,225.5,389.1,230.7,382.2z M207,415.4c-4.8,26.1-16.5,46.8-36.1,59.9C181.9,454.7,193.9,434.7,207,415.4z M96.4,698.2
		c2.9,1.3,5.9,2.6,8.9,3.9c-2.4,4.9-3.8,10.9-7.5,14.6c-1.9,1.9-3.5,4.2-4.8,6.8C94,715,95.1,706.6,96.4,698.2z M205.5,1180.7
		c6.9-0.2,13.9-0.5,23.8-0.9c-1.3,9.8-10.2,21.8-10,32c-18.4-25.6-35-52.3-49.7-80.1c2.4,3.9,4.9,7.8,7.2,11.6
		c26.2-4.5,32.2-0.1,28.4,19C204.1,1168.2,205.3,1174.6,205.5,1180.7z M229.6,1225.8c1.6,0.8,3.5,1.6,5.6,2.3
		c18.2,6.2,23.7,39.3,50.2,23.4c8.3,8.7,17,16,23.1,24.9c5.9,8.7,15.2,21.2,12.5,28.3c-8.2,21.4,6.9,21.8,19.1,23.7
		c39.9,5.9,40.1,5.5,49.3,40.5c1,3.9,1.2,7.9,1.3,11.7c-33.7-23.5-65.4-49.9-94.9-79.1C271.8,1277.5,249.7,1252.3,229.6,1225.8z
		 M411.4,1394.4c-5.1-3.3-10.2-6.7-15.3-10.1c5.9-2.5,11.9-5.1,20.2-8.7C413.4,1382.9,411.8,1389.1,411.4,1394.4z M444.7,1414.5
		c4.6-0.2,10,0.3,10.8,2.1c1,2.2,2,4,3.2,5.7C454,1419.8,449.3,1417.2,444.7,1414.5z M478.4,1432.5c3.4,0.3,7.1,0.3,10.9,0.2
		c7-0.2,14.1,7.5,21.2,11.5c5.3,3.1,10.5,6.5,15.7,9.9c-1.6-0.7-3.3-1.3-4.9-2C506.8,1446.1,492.5,1439.6,478.4,1432.5z
		 M1497.3,924.3c-4.5-3.5-8.6-6.4-10.5-10.3c-3.1-6.1-2.6-13.9-4.1-23.8c-31.8,24.2-2.4,53.2-11.5,77.2
		c-17.1,11.7-27.9-0.3-39.9-9.9c-11.3-9-23.4-17-36.8-26.6c2.3,7.5,4.2,14.4,6.4,21.1c24.2,73.1,4.3,127.6-61.2,170.3
		c-5,3.3-8.6,13-8,19.3c3.9,37.5-12.7,67.2-48.5,82.9c-18.8,8.3-38.4,15-56.5,24.6c-15.8,8.3-25.5,21.7-23.2,45.8
		c9.1-8.3,14.6-13.3,22.2-20.2c8.5,11.6,16.1,21.9,23.6,32.1c11.3-8,21.3-15.1,32.5-23c-6.6-2.4-11.8-4.3-16.1-5.8
		c17.7-15.5,33.6-29.9,50-43.7c3.3-2.7,8.4-5.2,12.4-5c18.2,1.2,19.8-11,24.3-23.7c3.5-9.8,10.9-22.1,19.8-25.6
		c16.4-6.4,20-14.4,17.9-30.5c-2.5-18.7-1.7-37.1,21.3-47.5c7.7-3.5,12.2-16.6,15-26.1c2.4-8.1,0.3-17.5,0.3-23.4
		c9.1-4.6,19.8-6.5,22.6-12.1c16.2-32.1,48.9-60.1,25.5-106.8c8.9,6.7,15,9,19.1,8.6c-9.3,46.4-23.3,91.8-42,135.7
		c-35.7,83.7-86.7,158.8-151.8,223.4c-65.2,64.7-141.1,115.4-225.6,150.9c-72.9,30.6-149.5,48.6-228.5,53.8
		c18.6-14.4,31.4-31.1,18.8-58.5c-0.9-1.8-0.3-4.5,0-6.7c3.2-24.7,18.1-42.6,41.3-49.1c14.3-4,35.3-3.2,46.7,4.5
		c18.3,12.5,19.3,33.8,9.5,54.8c-1.9,4.2,3.7,11.7,5.9,17.7c14-5.9,28.6-10.8,41.4-18.5c2.4-1.5-2.5-14.3-3.8-21.1
		c1.7,0.2,6.5,0.7,11.2,1.3c4.1-38.5,2.3-38.3-34-44.4c-26.7-4.5-53.3-13-78.2-23.6c-22-9.4-41.6-24.2-62.6-36.8
		c-1.6,3.4-3.1,5.2-3.2,7.2c-4,45.3-14.7,55.2-60.5,62.8c-7.4,1.2-16.6,14.7-17.7,23.4c-2,16.2,22.7,37.2,39.9,40.1
		c8.1,1.4,15.5,7.4,23.2,11.3c-7.8,6.8-16,19.6-23.4,19.2c-24-1.3-50.8-2.3-70.7-13.3c-20.3-11.2-38.7-14.1-60.2-13.5
		c-17.2,0.5-23.3,5.7-13.5,21.9c14.8,0,28.2,1.6,41-0.2c17.4-2.5,26.9,2.9,33.6,18.9c0.2,0.5,0.5,1,0.7,1.5
		c-49.9-4.6-98.9-14.3-146.5-29.2c13,0.5,26.3-0.4,39.3-0.8c4.6-0.2,13.3-9.3,12.5-12.3c-4.7-17.3,4.3-28.3,15.4-39.2
		c10.2-10,19.9-20.5,33.7-34.7c-10.3,2.7-16.4,3.9-22.2,5.8c-78.1,25.8-139.3,3.7-182.8-65.5c-2.6-4.2-10.6-8.1-15.6-7.5
		c-45.9,5-70.2-7.3-90.7-47.8c-10.8-21.4-20.2-43.4-32.2-64.1c-7.2-12.3-18.8-19.7-29.5-11.9c-3.3,13.6-5.5,22.5-7.7,31.3
		c-9.3-3.8-21.6-5.2-27.2-11.9c-10.8-12.9,0.4-38.8,17.5-43.8c19.7-5.8,38.6-3.3,53.1,12c17.8,18.8,34.8,37.2,62.9,15.4
		c2.1-1.7,5.9-1.3,8.9-1.9c25.3-5.7,38.6,10,50,27.5c12.2,18.6,7.4,36.9-7.5,51c-10.4,9.8-22.4,12.8-34.6,9.7
		c7.4,3.7,15,7.3,22.9,9.5c5.4,1.5,17-3.2,19.4-8.1c9.9-19.9,17.9-40.9,25.5-61.8c1.5-4-1.1-10-3.2-14.6
		c-20.2-43.5-63-67.7-113.8-63.7c-63.4,4.9-116.9-13.9-149.7-68.1c-16.3-27-31.1-42.9-64-30.3c-1.4,0.5-2.8,0.9-3.5,1.1
		c-2.4,17.4-5.1,34.4-6.8,51.6c-3.8-8-7.5-16.2-11-24.4c-12.3-28.9-22.6-58.5-30.9-88.5c14.7,17.7,37.8,30.4,60.3,31.2
		c25.9,0.9,30.1-3.5,32.6-28.8c3.8-39.2,13.8-76.4,39.6-108.2c7.9-9.7,14.8-20.2,23.5-32.3c-6.6-1.8-9.9-3-13.4-3.5
		c-41.7-5.9-54.6-20.2-59.4-60.1c-0.8-6.4-16.2-17.6-21.4-16c-17.6,5.4-38.9,11.7-41.6,33.4c-2.3,18.9-9.8,27.4-26.3,24.4
		c-3.1,17.4-5.9,33.3-8.7,49.2c1.4,2.9,2.8,5.7,4.1,8.6c5.3-4.3,9.9-10.2,16-12.8c36.8-15.5,83.1,10.9,88.4,49.7
		c2.4,17.4-3.1,33.7-19.4,39.3c-14.5,5-35.6,8-47,1.3c-11.6-6.9-16.2-26.5-21-41.4c-0.8-2.5,12.5-10.8,20.3-13.7
		c3.7-1.4,9.9,3.3,17.6,6.3c-4.5-17.6-13.2-20.7-26.6-16.2c-13,4.4-24.8,20.1-30,36.6c-8.2-43.1-12.4-87-12.4-131.6
		c0-18.9,0.8-37.6,2.2-56.3c1.3,6.4,4.1,12.8,8.4,18.5c2.8-11.3,4.6-20.4,7.3-29.2c1.6-5.2,4.1-13.7,7.3-14.2
		c19.6-2.9,14.2-14.7,12.7-26.8c-1.6-12.9-0.1-26.2-1.3-39.2c-0.7-6.8-4.3-13.4-6.7-20.5c-6.5,14.1-12.4,26.8-18.2,39.5
		c9.2-49.6,23.9-98.1,43.8-145c1-2.3,1.9-4.5,2.9-6.8c8.6,10.8,9.2,24-6.5,39.3c-6.4,6.3-4.8,20.8-5.9,31.7
		c-1,10.6-0.7,21.2-1.1,36.1c15.9,15.2,35.8,34.1,55.7,53.1c-25-81.5,0.5-142.9,73-186.1c-6.6-58.5,11.8-84.9,68.9-106.2
		c18.7-7,36-18.7,52.1-30.5c5.7-4.2,6.1-15.2,10.7-28c-10.3,3-13,4.3-15.8,4.6c-7.9,0.8-15.9,1.1-23.8,1.6c1.8-8.7,0.7-21,6.2-25.3
		c7.7-6.1,22.4-11,30.4-7.8c11,4.4,23.5,15.5,26.8,26.2c7.4,24-6.5,43.2-24.7,58.7c-10.2,8.6-14.4,16.9-11,31.1
		c3.8,16,8,35.6,1.9,49.3c-6.3,14.1-24.9,22.9-41.4,36.8c11.2,2.8,27,11.9,35,7.6c17.2-9.4,33-24,44.6-39.7
		c20.9-28.4,15.6-62.9,16.7-95.5c1.5-45.1,17.1-83.4,57.4-108.6c17.2-10.7,36.1-18.8,56.5-29.1c-18.1-37.2-4.2-70,12.8-103.5
		c36-12.4,72.7-21.8,110.2-28.2c12.4,9.9,23.5,18.4,32.5,28.7c30.7,35.4,16.7,85.5-28,96.2c-13.1,3.1-34.7-1.7-42.7-10.9
		c-9-10.3-13.5-32.5-8-44.3c5.6-11.9,24.8-20.7,39.8-24.5c13.7-3.5,21,6.4,13.8,21.2c-2.6,5.5-3.7,11.7-5.5,17.6
		c2.7,1.2,5.5,2.5,8.2,3.7c4.7-7.4,14.5-16.3,12.9-22c-3.2-11.2-10.6-23.7-20.2-30.2c-24.6-16.9-59.1-14-81.9,3.8
		c-22.5,17.5-34.6,53.2-24.9,78.9c2.2,5.7,11.4,12,17.7,12.4c40.4,2.4,75.9,16.8,109.4,38c16.1,10.2,33.4,18.5,52.1,28.8
		c1-7.1,1.4-9.9,1.7-12.8c4.1-34.8,23.9-54.1,60-58.1c14.8-1.6,26-22.2,18.4-35.1c-10.4-17.5-20.6-35.1-45.9-36.2
		c-5.2-0.2-9.9-9-14.9-13.9c6-4.5,12.1-13,18-12.9c19,0.6,41.3-1,56.2,8c29.5,17.8,57.8,28.6,92.6,20.1c3.1-0.8,14,12.8,13,14.3
		c-10.5,15.1-22.6,29.1-34.6,43.2c-6,7.1-12.5,13.8-18.8,20.7c1.6,1.3,3.3,2.5,4.9,3.8c55.6-41.3,177.2-20.1,207.9,61.7
		c10.4-1.7,20.8-5.1,31.1-4.7c37.7,1.4,73.6,30.1,86,66.9c7.8,23.3,18.3,44.8,44.3,53.6c5,1.7,11.3,0,17-0.1
		c-0.8-4.8-2.2-9.5-2.1-14.3c0.1-5.7,1.5-11.3,2.3-17c6,2.3,12.8,3.6,17.9,7.2c3.2,2.2,4.5,7.7,5.5,12c5.5,25.5-22.3,46.5-49.7,34.4
		c-20.1-8.9-36.9-24.7-52.7-35.6c-19.2,3.1-37.7,8.1-56.2,8.4c-20.5,0.3-33.5-14.1-34.9-32.5c-1-13.2,2.3-30.4,10.8-40
		c16.9-19.1,47.5-9.9,50.3,15c1.1,10.3-10.7,22-18.5,36.5c0,0,0,0,0,0c17.6,1.1,29.7-5.8,33.8-23.1c4.6-19.4-12.2-44-35.7-51.2
		c-15-4.6-30.6-6.7-41.2,9.2c-1.2,1.8-1.1,4.3-2,6.4c-6.2,15-13.1,29.7-18.6,44.9c-3.1,8.7-8.5,20.5-5.1,27
		c18.7,35.6,55.9,67.8,108.6,64.2c78.9-5.3,128.8,4.6,176.2,89.4c3.2,5.7,13.5,9.6,21,10.5c20.3,2.5,40.8,3.2,61.3,4.2
		c4.3,0.2,8.7,0.2,13,0.1c15.7,47,26.3,95.4,31.6,144.8c-18.9,19.4-40.9,31-69.9,22.6c-25.9-7.5-47.8-30.2-46.3-55
		c0.8-12.7,10-30.9,20.6-35.5c13-5.8,33.7-4.3,46.8,2.1c10.2,5,17.6,22,19.3,34.6c2,14.4-9,21.3-24.6,15.2
		c-3.8-1.5-7.6-3.3-12.8-5.5c6.5,20.8,16,24.5,30.9,14.1c27.4-19.3,33.1-50,15.1-81.8c-15.1-26.8-57.7-45.3-82.7-34.3
		c-5.6,2.5-9.6,11.6-11.6,18.4c-8,27.7-12.1,56.8-23.2,83.2c-10.3,24.2-27.9,45.6-43,69.3c3.5,0.1,7,0.2,10.5,0.2
		c41.3-0.3,62,20.2,65.2,60.8c0.5,6.2,17.3,17.7,20.8,15.9c15-7.5,33.4-16.4,40.5-29.8c14.8-28,12.2-29.3,46-20.5
		c0.8-4.8,1.6-9.7,2.4-14.5c0.1,5.5,0.2,11.1,0.2,16.6C1507.5,845.2,1504.1,885.1,1497.3,924.3z"/>
	<path d="M885.9,579.3c-121.9-49.8-266.1,3.8-323.5,128.3c-56.7,123.1-3.8,269.1,129.1,329.3c130.6,59.1,291.1-5.3,338.6-123.7
		C1091.4,785.3,1027.7,637.3,885.9,579.3z M1014.9,770.4c5.1,25.4-0.3,47-20.8,65.3c1.9-5.6,3.9-11.2,5.7-16.8
		c16-50.4-22.8-100.8-76.7-99.5c-30,0.7-55,27.3-62.4,55.7c-7.7,29.6-1.8,51.7,20,72.1c7.3,6.8-2.3,29.8-12.2,30
		c-3.7,0.1-10.9-5-10.6-5.9c2-6.1,5.6-11.8,8.3-16.9c-20.8-5-42.4-10.2-66-15.9c0.6,5.4,1.3,12.9,2.4,24.1
		c-29.1,16.8-60,34.6-90.9,52.4c-2.4-0.5-4.8-1.1-7.3-1.6c45.6-43.8,55.5-87.8,3.2-128.4c-21.7-16.9-55.5-14.7-75.5,0.5
		c-35.5,27-45,60.7-23.9,103c-21-15.5-25.8-35.1-19.9-62.3c3.7-16.8,18.5-34.2-2.5-51.1c-6.1-4.9,12.6-34.8,23.2-34.8
		c27.9,0,48-18,72.1-26.4c15.2-5.3,31.1-13.3,43.3,11.1c3.2-8.1,5.4-13.6,6.5-16.5c32.2-10,63-19.7,100-31.2
		c-0.2,6.3-0.3,11.5-0.3,11.3c22.9,2.9,43.4,5.6,63.9,8.2c2.3,0.3,5.4,2.3,6.5,1.5c29.7-22.8,59.1,25.2,88.6-5.3
		c0.7,2.3,1.5,4.5,2.2,6.8c-3.6,5.6-7.2,11.2-12.4,19.2c14.4,8.6,28.6,17.1,39,23.3C1017,752.8,1013.3,762.1,1014.9,770.4z"/>
	<path d="M1160.4,402.2C1158.8,400.3,1159.5,402,1160.4,402.2L1160.4,402.2z"/>
	<path d="M1160.5,402.3C1160.5,402.3,1160.5,402.3,1160.5,402.3c0-0.1,0-0.1-0.1-0.1C1160.4,402.3,1160.4,402.3,1160.5,402.3z"/>
	<path d="M412.3,1279c5.3,3.6,10.6,6.2,16,7.6c-5.2-2.6-10.3-5.3-15.5-7.7L412.3,1279z"/>
	<path d="M828.5,413c-6.3,4.4-10.3,12-15.3,18.1c2,1.6,3.9,3.2,5.9,4.8c4-2.9,8.4-5.4,11.9-8.7c26.1-24.4,57.2-32.9,93-30.2
		c20.6,1.5,38.2,6.4,47.7,25.4c9.9,20,5,37.6-14.4,52c14.9,12.2,26.5,16,46.4,9.6c19.4-6.2,44.6-4.8,64.3,1.6
		c39,12.6,63.1,60.1,45.7,89.8c-14.9,25.5,1.7,35.7,14.4,50.5c19.2-8.3,25.3-18.1,20.3-39.2c-4.3-18.2,0.4-39,4.1-58.1
		c2.2-11.1,10.3-21.1,15.3-30.7c-2.1-2.8-2.8-4.8-3.9-5.1c-40.3-10.2-69.4-32.8-86.8-70.3c-2.4-5.1-15.4-9.3-22.2-7.9
		c-30.8,6.4-56-4-79.3-21.3c-22.4-16.6-31.6-45.9-22.6-67.7c9.5-22.8,35.6-37.7,61.3-35c29.6,3.1,48.9,36.6,32.8,61.2
		c-6.4,9.9-21,14.7-31.9,21.9c-5.6-8.4-11.2-16.9-17-25.3c-0.7-1-2.6-1.2-5.2-2.4c-13.9,14.9-7.6,28,6.8,36
		c11.5,6.4,26,8.5,39.4,10.7c17.1,2.8,27.4-4.4,30.6-22.1c1.8-10,5.9-20.3,11.8-28.7c10.8-15.5,8.1-28.9-1.7-43.4
		c-28.6-42.1-83.3-59.7-135.8-45.9c-22.9,6-35.8,15.1-31.5,40c1.1,6.3-1.5,13.2-2.7,19.7C901.4,360.1,865.7,387,828.5,413z"/>
	<path d="M1356.6,933c-70.5,1.8-116.2-34.9-151.6-89.3c-3.1-4.7-10.7-6.5-16.3-9.7c-1.1,1.5-2.2,3-3.3,4.5c3.2,3.7,6.5,7.3,9.5,11.1
		c18.9,23.9,36.1,48.4,37.9,80.1c1.5,28.1-10.3,51.6-32.3,62c-24.1,11.4-39.7-1.7-52.5-19.2c-14.3,13.6-14.5,26.5-6.2,41.7
		c4.5,8.3,6.2,18.5,7.1,28.1c5,55.6-53.9,104.2-101.4,80.9c-26-12.8-38.6-1.9-54.5,11.4c11.7,27.1,16.3,29.8,41,20.4
		c23.4-8.9,45.2-6.2,66.5,5.4c8.5,4.6,16.7,9.7,27.8,16.1c10.5-45.2,37.9-74.2,78.7-92.6c3.9-1.8,5.4-12.7,4.9-19.2
		c-2.4-28.4,6.1-53.3,24.1-75.1c27.6-33.3,84.5-27.9,105.1,10c9.2,16.9,10.6,34.7-2.5,50.6c-11.6,14.1-47.9,22.9-61.5,12.7
		c-9.8-7.3-14.6-20.9-21.6-31.7c8.8-5,17.7-10,26.4-15.2c1.2-0.7,1.8-2.2,2.7-3.4c-12.5-15.3-25.4-16.9-33.3-2.1
		c-7.3,13.5-11.7,29-14.3,44.1c-2.7,15.2,4.5,25.1,22.3,27.3c10.3,1.3,21.8,4.7,29.7,11c20.3,16.1,37,9.5,53.2-4.8
		c38.8-34.2,52.1-98.5,29.5-144.3C1369,939,1361.6,932.9,1356.6,933z"/>
	<path d="M238.6,688.8c33.5,6.1,69.4,5.5,95.3,32c17.8,18.2,33.9,37.8,51.3,56.3c4.8,5.1,11.6,8.5,17.5,12.6
		c1.2-1.6,2.5-3.3,3.7-4.9c-31.4-34.8-47.2-67-46.7-96.8c0.4-24.7,9.3-45.7,33-57.5c23.1-11.4,39.3,0.5,56.2,18.3
		c2.9-12.1,5.7-24.9,1.1-34.1c-17-34.3-7.3-64.5,13.3-92.3c19.7-26.6,56.6-31.3,84.1-14.3c4.6,2.8,13.1,4.2,17.5,2
		c14.1-7,27.2-16,40.2-23.9c-11.1-28.2-19.1-33.5-38.4-20.8c-26.9,17.7-50.2,12-74.5-3.6c-8.4-5.3-18.4-8.3-23.6-10.6
		c-14.6,21.9-25,42.3-40,58.5c-12.9,13.9-37.1,20-45.6,35.2c-9,16.1-3.1,39.4-7.8,58.6c-10.7,44.3-55.5,63.5-97.1,43.4
		c-19.6-9.5-33.9-40.6-28-60.9c4.4-15,32.2-31.3,52-30.5c18.4,0.7,35.4,15.2,37,31.2c2.2,22.4-16.1,18.3-29.7,19.9
		c9.9,17.6,24.3,20.6,32.3,6c7.7-13.9,11.8-30.7,13-46.5c0.5-6.1-10.2-15.3-17.8-19.3c-13.3-7-28.7-9.8-42.2-16.6
		c-13.5-6.8-24.3-6.1-35.8,3.5c-48.6,40.5-62.2,80.6-40.7,143.3C220.1,682.6,231.1,687.4,238.6,688.8z"/>
	<path d="M763.1,1210.9c7-4,11.1-12.9,16.5-19.5c-2.2-1.7-4.3-3.3-6.5-5c-28.7,31.1-63.3,48.8-107.2,46.5
		c-25.6-1.3-48.1-16.4-54-37.9c-6.4-23.4,4.5-37.8,27-43.5c-28.5-26.6-56.2-2.5-83.5-2.6c2.4,4.8,7.7,10.3,6.7,14.3
		c-6.6,28.6,8.1,44.1,32,56.7c39.2,20.8,50.6,42.8,43.8,79.3c-4.9,26.4-37.4,47.3-64.2,41.2c-21.6-4.9-33.3-20.5-36.6-48.5
		c-2.9-25.4,16.3-32.6,37-42.7c-7-6.7-15.3-14.7-22.6-13.9c-9.8,1-22,6.5-27.5,14c-8.3,11.2-13,25.4-16.7,39
		c-2.6,9.6-4.5,21.8-0.7,30.2c24,52.8,107.8,77.6,158.4,47.4c5.2-3.1,9.9-11.5,10.1-17.6C677.1,1285.8,708.9,1242,763.1,1210.9z"/>
	<path d="M1294.4,1134.4c-19.2-11.4-40.9-19.3-62.2-26.9c-6.1-2.2-15.1,0.7-21.9,3.4c-38.8,15.2-63.2,59.6-59.3,106.8
		c6.6,80.9-21.4,127.5-97,162.6c-4.9,2.3-11.1,9.2-10.9,13.6c1,17.5,4.4,34.8,8.1,59.9c19.2-16.5,34.3-29.5,50.8-43.7
		c14.1,17.5,17.8-7.6,24.4-9.6c10.4,3.7,17.3,6.1,30,10.7c-15.6-25.9-5.4-36,14-43.9c18.3-7.5,39.2-13.7,43.2-37.4
		c-33.6-15.4-51.1-36.4-41.7-53.4c11.9-21.4,28-40.7,44.1-63.3c-11-18-24.9-41.5-4.8-67.2c13.2-16.8,31.7-23.5,53.2-16.9
		c22.5,6.9,33.6,22.1,31.4,46.1C1304.3,1160.2,1310.8,1144.1,1294.4,1134.4z"/>
	<path d="M1095.5,1321.4c22.2-27.7,37.2-57.8,27.5-98.4c-13.8,7.4-31.3,11-35.5,20.3c-9.4,20.8-12.1,44.5-17.6,66.9
		c-1.9,7.6-1.8,18.4-6.9,21.6c-4.8,3.1-16,0.2-22.7-3.2c-24.6-12.2-48.4-25.8-72.7-38.5c-16.5-8.7-34-15.7-49.7-25.6
		c-10.2-6.4-13.8-17.4-0.6-25.3c34.7-20.6,28.9-59.3,45.8-86.6c-48.4,11.8-94.9,23-144.7,35.1c8.8,9.7,17.5,21.5,28.4,30.9
		c9.8,8.5,19.4,9.7,21.8-7.7c0.7-4.8,6.5-12.4,10.1-12.5c5.8-0.1,13.4,3.5,17.4,8c18.8,21,9.7,51.7-18.4,61.9
		c-12.4,4.5-25.7,6.5-40.7,10.2c21.2,30.3,45.9,27.5,69.4,25.7c38.4-3,70.9,8.2,98.3,34.5c26,24.9,35.4,25.6,64.7,4.8
		C1078.8,1336.9,1088.5,1330.1,1095.5,1321.4z"/>
	<path d="M1187.1,799.9c12-16.1,22.2-29.8,30.9-41.5c-13.4-8.7-21.3-13.9-29.2-19c5.5-7.2,9.5-18.2,16.8-21
		c24.3-9.2,47.5,3.1,57.4,26.6c3.9,9.4,9.8,18,14.9,27.1c21-14.9,26.4-25.1,24.3-50.8c-3.9-46.9,9-86.8,46.4-118.5
		c4.9-4.1,8-14.6,6.4-20.8c-13.2-50.2-73-88.9-128.5-82.9c5,43.4,7.8,46.7,49.9,51.5c13.3,1.5,27,0.5,40.5,0.5
		c18.4-0.1,23.2,7.9,15.2,23.6c-16.1,31.6-31,63.9-47.4,95.3c-5.4,10.3-12.6,20.9-21.8,27.8c-4.7,3.5-19.6,2.2-23.3-2.2
		c-25.3-30.3-66.6-26.1-95.3-49.9C1158.8,698.4,1172.2,746.5,1187.1,799.9z"/>
	<path d="M525.1,448.8c-1.6-3.7-1.9-7.5-3.9-8.7c-9.1-5.4-20.1-8.6-27.6-15.4c-7.2-6.5-12.6-16.2-15.3-25.4
		c-0.7-2.5,11.3-8.4,17.3-12.9c4.7-3.5,10.6-6.5,13.5-11.2c12.4-20.2,21.2-41.5,17.4-65.9c-2.2-13.7,4.1-25.5,18.1-20.4
		c21.3,7.7,40.5,20.9,60.6,31.8c12.5,6.8,24.7,13.9,37.3,20.4c11.8,6.1,24.7,10.5,35.5,18c3.3,2.3,3.8,16.3,1.3,17.6
		c-36.6,20.1-31.3,59.1-48.3,91.6c48.7-10.9,92.9-20.8,143.5-32.2c-14.4-13.2-27.1-24.7-42.4-38.7c-5.3,11.5-7.3,17.1-10.3,22.1
		c-7.7,12.7-17.1,11.4-25.7,1.3c-18.4-21.4-8.5-53.2,18.9-61.8c10.7-3.3,21.3-6.8,32.8-10.5c-11.1-26.7-33.2-27.4-54.6-26.7
		c-38.9,1.2-74-6-105-31.3c-31.2-25.4-40.4-24.7-74.1-0.1c-11,8-21.7,17.2-29.7,27.8c-18.7,24.7-26.2,52.9-15.4,82.5
		C477.8,425.3,488.5,450,525.1,448.8z"/>
	<path d="M346.9,1079.3c-22.1-4.4-44.8-6.5-67.1-10.1c-6.4-1-15.9-2.2-17.8-6.1c-2.6-5.4-0.9-14.2,2.1-20.1
		c4.6-9.2,13.2-16.6,17.7-25.9c17.8-37.1,34.7-74.6,53-114.1c-6.3-13.4-15.1-32.2-23.8-50.9c-2.9-0.7-5.8-1.3-8.7-2
		c-3.6,15.7-10.4,31.4-10.2,47c0.7,42.4-4.1,81.8-38.9,112.5c-20.2,17.8-21.2,28.1-5.6,49.6c22.1,30.5,43.4,62.6,89.7,58.3
		c10-0.9,28.5,0.4,28.8-1.4C368.5,1100.3,367.7,1083.3,346.9,1079.3z"/>
	<path d="M408.2,832.1c-5.6,3.4-12.3,6.5-17.8,11.1c-19.9,16.7-18.9,24.1,3.6,36.6c12.1,6.8,12,15.7,1,22.4
		c-11.3,6.9-24.1,11.5-38.6,18.2c24,25.5,58.6,33.1,89,47.3C432.8,921.9,420.8,878,408.2,832.1z"/>
	<path d="M877.7,248.7c-16.3,8.6-41.8-2.7-48.5,25.1c-0.3,1.1-11.2,1.3-16.1-0.5c-7.5-2.9-18-12.9-20.2-11.2
		c-8.4,6.3-19.2,16-19.4,24.7c-0.8,26.4,10.8,49.7,25.7,69.5C825.9,319.7,851.3,284.8,877.7,248.7z"/>
	<path d="M479,1111c-18.8-11.1-16.8-24.2-11.1-41.7c7.7-23.5,27.6-49-6.3-72.2c-17.3,8.3-24.9,20.7-16.6,39.4
		c12.2,27.6,4.9,52.2-11.7,75.5c-2.8,3.9-4.8,8.4-6.8,12.1c20.9,11.1,40.1,21.3,59.2,31.5C494.1,1139.6,498.7,1122.7,479,1111z"/>
	<path d="M794.7,1270.2c-28.1,37.4-53.8,71.7-78.2,104.3c13.3-2.6,36,5.4,42.6-21.9c0.3-1.1,13.3-0.6,19.5,1.5
		c6.7,2.3,16.5,11.6,17.8,10.4c7.2-6.6,18-16.2,16.9-23.2C809.3,1317,801.1,1293.5,794.7,1270.2z"/>
	<path d="M1375,890.3c0-13.3,4.4-29-18.7-35.9c-11.9-3.6-12.6-13.2-0.4-21.5c5.1-3.4,11.9-13.5,10.5-15.4
		c-5.3-7.2-13.4-17.1-20.8-17.4c-28.3-1.1-54.5,7.7-77,19.5C1304.4,843.4,1339.2,866.5,1375,890.3z"/>
	<path d="M241,716.9c22.4,37.8,92.6,76.8,119.7,67.7C341.7,739.9,284.7,707,241,716.9z"/>
	<path d="M223.6,746.2c-1.3,0.3-2.6,0.7-3.9,1c5,7,8.9,15.5,15.4,20.8c8.2,6.6,14.7,10.8,4.1,20.7c-5.2,4.9-12.9,15.4-11.4,17.4
		c5.5,7.2,15,17,22.2,16.4c26.3-2.2,52.3-8.2,79.8-13C291.4,786.5,257.5,766.4,223.6,746.2z"/>
	<path d="M387.2,675.4c-8.8,30.9,4.3,56.5,28.4,79c0.7-28.4,27.1-54.8,5.7-84.4c-4.6-6.4-9.6-12.6-14.4-18.9
		C400.2,659.2,389.9,666.3,387.2,675.4z"/>
	<path d="M1164.2,939c1.6,10.6,9.6,20.4,19,38.7c8.5-11,18.9-19.1,21.6-29.2c8-29.4-3.7-54.5-26.6-81.1c-3.7,15.4-6.7,26.4-9,37.6
		C1166.9,916.3,1162.5,928.1,1164.2,939z"/>
	<path d="M637.1,1182.5c11.2,37.6,60.3,38,104.1-0.8C705.6,1173.3,671.4,1156,637.1,1182.5z"/>
	<path d="M944.5,426.7c-29.6-16.2-65.5-9.7-93,16.5c38.8,14.5,59.8,17.2,89.8,10.4c5.7-1.3,15.1-7.6,14.6-9.9
		C954.5,437.4,950.1,429.7,944.5,426.7z"/>
	<path d="M773.5,1234.8c-41.7,16.7-78.1,77.2-68,109.1C741.2,1315.9,761.4,1280.7,773.5,1234.8z"/>
	<path d="M1107.7,1087.6c17.3-19.5,20.7-41.5,9.3-63.6c-23.5,25.6-46.7,51-70.3,76.8C1074.6,1109.2,1092,1105.2,1107.7,1087.6z"/>
	<path d="M482,540.9c-15.2,16.8-19.1,42-8.9,61.2c23.4-26,46.6-51.8,70.1-77.9C520.5,515.4,499.7,521.4,482,540.9z"/>
	<path d="M822.7,389.1c42-21.9,65.5-61.1,63.3-106.2C850.5,312.5,827.4,343.7,822.7,389.1z"/>
	<path d="M1347.3,906.4c-28.2-36.5-67.4-52.6-113.4-68C1255.7,881.4,1306.1,910.7,1347.3,906.4z"/>
	<path d="M1084.8,523.5c-20.2-17.9-43.7-29.4-77.7-21.1c29.7,25.1,55.7,47,82.6,69.7C1100.7,551.8,1098.5,535.5,1084.8,523.5z"/>
	<path d="M544.4,1116.2c11.3,11.8,21.9,10.2,34.4,2.3c-26.4-23.1-51.7-45.3-76.9-67.4c-2.3,0.8-4.6,1.6-7,2.3
		c1.9,6.9,1.6,15.7,5.9,20.4C514.5,1088.8,530.4,1101.6,544.4,1116.2z"/>
	<path d="M691.8,296.2c-27.4-13.7-54.3-29.2-88.4-27.6C614.6,296.8,642.1,305.6,691.8,296.2z"/>
	<path d="M899.4,1337.8c28.2,9,56.5,18,84.7,26.9c0.9-2.5,1.8-5,2.6-7.6C967.4,1331.4,930.8,1320.9,899.4,1337.8z"/>
	<path d="M1336.4,717.4c9-28,18.1-56,27.1-84C1332.2,648.9,1322.1,680.8,1336.4,717.4z"/>
	<path d="M264.1,908.3c-2.5-0.8-5-1.5-7.5-2.3c-8.9,27.1-17.7,54.2-26.6,81.3c2.9,0.9,5.9,1.7,8.8,2.6
		C264.1,967.5,267.1,938.8,264.1,908.3z"/>
	<path d="M578.8,1089.7c-27.8-32.1-55.5-64.1-83.3-96.2c-2.3,2-4.6,3.9-6.8,5.9c28.7,31.3,57.3,62.6,86,93.9
		C576,1092.2,577.4,1091,578.8,1089.7z"/>
	<path d="M993.5,520.4c-42-18.3-83.9-36.6-125.9-54.9c-0.7,1.3-1.5,2.6-2.2,3.9c42.1,18.4,84.2,36.7,126.3,55.1
		C992.3,523.1,992.9,521.7,993.5,520.4z"/>
	<path d="M317.8,499.6c2.7-2.6,5.5-5.3,8.2-7.9c-27.6-10.7-33.3-28.3-24.2-52.3c-7.5,15.2-13.4,30.6-11.7,45.2
		C290.9,490.6,308.1,494.7,317.8,499.6z"/>
	<path d="M627.5,503.4c23-7.9,56.2-19.4,89.4-30.8c-0.9-2.2-1.7-4.5-2.6-6.7C682,479.8,649.7,493.8,627.5,503.4z"/>
	<path d="M1170.9,561.2c7-15.2,14.1-30.5,21.1-45.7c-2.5-1.2-5-2.4-7.5-3.6c-7.9,14.8-15.9,29.6-23.8,44.4
		C1164.1,557.9,1167.5,559.6,1170.9,561.2z"/>
	<path d="M385.2,985.3c-14.2-11.8-29.4-24.3-45.7-37.8C342.5,970.2,368.6,989,385.2,985.3z"/>
	<path d="M775.9,1155.2c-27.5-4.3-55-8.6-82.5-12.9c-0.3,2-0.7,3.9-1,5.9c27.4,4.6,54.9,9.2,82.3,13.8
		C775.1,1159.8,775.5,1157.5,775.9,1155.2z"/>
	<path d="M1266.4,1199.3c-11.5-8.5-24.2-17.8-37.1-27.3C1228.8,1199.9,1243.2,1210,1266.4,1199.3z"/>
	<path d="M429,1223.8c-12.4,3.2-29.6,9.2-29.8,15.7c-0.3,8.4,3.4,16.9,7.4,25.4C402.5,1248.4,410,1235,429,1223.8z"/>
	<path d="M412.2,1279c0,0,0.5-0.2,0.5-0.2c-1.8-4.6-4.1-9.3-6.2-13.9C407.6,1269.4,409.5,1274.1,412.2,1279z"/>
	<path d="M1246.9,777.6c-5.1,0.8-11.8-0.1-15,2.8c-7.7,6.7-13.7,15.2-20.5,23c0.9,1.6,1.9,3.1,2.8,4.7c10.1-5.8,20.6-11,29.9-17.8
		C1246.9,788.4,1246.1,782,1246.9,777.6z"/>
	<path d="M832.7,1236.7c-6.4-7.1-14.2-12.9-21.5-19.2c-1.8,0.6-3.5,1.3-5.3,1.9c5.4,9,10,18.7,16.6,26.8c2.7,3.3,9.8,3.1,14.9,4.4
		C836,1245.9,835.8,1240.1,832.7,1236.7z"/>
	<path d="M946.2,1470.8c-13.2,0.2-26.7,0.5-40.6,0.7C922.8,1492.4,934.8,1491.9,946.2,1470.8z"/>
	<path d="M1115.7,804.8c-0.9-6.2-10.2-11.2-15.9-16.8c-1.5,1.1-3,2.2-4.5,3.3c0.9,9.9,1.8,19.9,3.4,37.2
		C1107.6,816.8,1116.5,810.1,1115.7,804.8z"/>
	<path d="M941,556.2c0,1.5,0.1,3,0.1,4.5c9.5,5.2,19,10.5,34.8,19.2c-3.3-13.4-3.9-25.1-6.7-25.6C960.3,552.8,950.5,555.3,941,556.2
		z"/>
	<path d="M926,1141.6c23.7-11.7,47.4-23.3,71.1-35c-0.9-1.6-1.7-3.3-2.6-4.9c-23.4,12.1-46.9,24.2-70.3,36.4
		C924.7,1139.3,925.3,1140.4,926,1141.6z"/>
	<path d="M748.1,514.5c-6.9-2.2-14.3-7-20.5-5.8c-4.1,0.8-6.5,10.1-12.5,20.7c15.1-3.3,23.4-5.1,31.8-6.9
		C747.3,519.8,747.7,517.2,748.1,514.5z"/>
	<path d="M420.7,1067.6c-6.3,13.8-12.7,27.5-19,41.3c0.8,0.6,1.7,1.2,2.5,1.8c8.1-12.8,16.3-25.6,24.4-38.4
		C425.9,1070.7,423.3,1069.1,420.7,1067.6z"/>
	<path d="M661.8,1111c-5.3-12.7-8.3-19.7-11.3-26.7c-10.1,3.1-17.5,5.3-29.5,8.9C635.8,1099.6,645.4,1103.8,661.8,1111z"/>
	<path d="M606.6,1260.3c-2.3-1.3-4.6-2.5-6.9-3.8c-5.3,8.4-10.5,16.7-15.8,25.1c3.4,2,6.7,4,10.1,6
		C598.2,1278.5,602.4,1269.4,606.6,1260.3z"/>
	<path d="M376.3,823.6c-16.8,0.5-28.9,6.3-25.5,26.2C359.3,841,367.8,832.3,376.3,823.6z"/>
	<path d="M508.4,888.2c-3.6-15.3-5.5-23.4-7.4-31.5c-2.3-0.4-4.6-0.8-6.9-1.2c-2.9,6.2-8.8,13-7.6,18.4
		C487.4,878.4,496.8,881.1,508.4,888.2z"/>
	<path d="M1222.2,630.9c-4.2-2.6-13.1,1.7-20.1,2.9c13.7,7,24.3,12.5,40.1,20.6C1234.1,644.3,1229.6,635.4,1222.2,630.9z"/>
	<path d="M897,533.9c8.6,3.7,16.4,7.2,26.6,11.6C917.8,518.5,915.9,517.7,897,533.9z"/>
	<path d="M1124.2,660.1c-0.8,0.3-1.7,0.5-2.5,0.8c6.8,21.2,13.7,42.5,21.6,67.2C1136.3,703.1,1130.3,681.6,1124.2,660.1z"/>
	<path d="M434.2,788.1c2.3,0.4,4.7,0.8,7,1.2c2.1-20.3,4.2-40.7,6.3-61c-1.1-0.1-2.2-0.3-3.3-0.4C440.9,747.9,437.6,768,434.2,788.1
		z"/>
</g>
</svg>
