<svg version="1.1" id="Ebene_1" xmlns="http://www.w3.org/2000/svg" xmlns:xlink="http://www.w3.org/1999/xlink" x="0px" y="0px"
	 viewBox="0 0 1600 1600" style="fill: #ff0000; enable-background:new 0 0 1600 1600;" xml:space="preserve">
<g>
	<path d="M1312.4,1368.4c-23.7,19.6-46,41.7-71.5,58.4c-68.2,44.7-138.7,84.4-217.7,107c-79.9,22.9-160.4,28-242.8,25.3
		c-146.3-4.8-279.7-52.5-405.4-125.6c-84.1-48.9-156.8-113.9-211.6-196.2c-29.6-44.4-49.2-95.9-70.2-146
		c28.3,33.6,37.4,79.1,67.1,111.8c28.9,31.8,56.7,64.7,87.3,99.7c2.6-8.3,3.6-11.5,4.6-14.7c3.8,23.8,23.1,33,37.1,46.9
		c8.4,8.3,14.8,19.1,23.9,26.3c9.4,7.5,21.3,11.4,31.5,18c11.7,7.6,20.8,19.4,37.7,16.6c4.2-0.7,9.9,10.4,15.3,15.6
		c19.2,18.5,43.6,24.5,68.2,28.8c9.7,1.7,14.4,3.1,18.3,15.1c2.8,8.7,19.1,18.6,28.5,17.8c24.7-2.1,42.9,13.1,64.3,19
		c3,0.8,7.6,2.1,9.4,0.5c11.5-10.1,21.4,5.5,21.9,7.4c6.3,24.2,24.9,19.6,38.9,15.9c16.7-4.4,29.3-1.9,45,5.2
		c18.6,8.5,40.5,13.1,60.8,12.9c24.8-0.3,51.1,4.3,74.8-10.8c3.8-2.4,14.9,1.5,18.6,6.1c10.9,13.2,22.4,12.9,34.5,4.5
		c10.7-7.4,18.4-9.7,33.1-5.2c23.5,7.3,49,0.6,70.7-14.2c3.2-2.2,7.1-6.4,9.7-5.8c18,4.4,32.4-2,47.8-11.2c8.3-5,20.8-2.3,32.7-3.2
		c-3.5-14.7,7.5-18.1,17.9-21.1c24.5-7.1,49.3-12.8,73.6-20.7c9.9-3.2,19-10.1,27.9-16.1c20.1-13.7,39.9-27.8,60.8-42.5
		c-8.4-9.2-15.3-12.2-27.3-3.8c-10.8,7.6-24.6,11.1-37.4,15.2c-16.5,5.3-34,8.2-50,14.7c-10.1,4.1-20.3,11.3-27.1,19.9
		c-18,22.7-43.8,25.3-68.3,31.4c-21.8,5.4-43.6,10.8-65.7,14.3c-23.1,3.7-46.7,4.7-69.9,7.7c-16.1,2.1-32,7.5-48,8.2
		c-28,1.2-56.2,0.3-84.2-0.7c-20.4-0.7-40.8-4.9-61-4.2c-28.8,0.9-54.4-8.7-80-20c-5.1-2.3-10.7-3.5-16.2-4.6
		c-15.9-3.1-32.4-4.1-47.7-9.1c-21.4-7-41.5-18.6-63-25.1c-38.4-11.6-72-34.1-108.8-49.1c-6.3-2.6-9.8-11.6-15.8-15.9
		c-11-8-23.5-13.8-34.1-22.2c-20.4-16.2-38.7-35.5-60-50.2c-33.6-23.2-55.7-57.4-83.3-86.2c-14.9-15.5-24.1-32.8-34.3-50.9
		c-12-21.4-31.5-38.5-42.1-60.3c-23.7-48.9-49-98-64.3-150c-17.9-60.8-30.1-124-28-188.9c0.9-28.4-5.7-57.6-1.7-85.3
		c10.8-75.9,31.8-149.3,65.6-217.9c58.3-118.1,140.6-214.7,248-287.3c125.9-85.1,264.8-127,414.7-132.2
		c119-4.1,232.6,19.8,341.7,68.1c93.1,41.3,177.9,97.3,249.8,170.5c73,74.4,130.8,161.9,166.1,262.2
		c32.7,92.9,48.8,189.2,42.5,289.1c-5.4,86.9-27.6,168.9-61.7,247.5c-19.9,45.9-48.3,86.8-75.8,128.4
		c-18.7,28.3-41.1,52.2-63.3,76.5c-19.6,21.4-43.4,38.6-65.4,57.5c-2.6,2.2-6.5,3.2-8.4,5.8c-4,5.4-7,11.6-10.5,17.4
		c6.8,0.6,13.5,1.6,20.3,1.8c3,0.1,6.1-1.5,9.1-2.3C1310.5,1365.5,1311.4,1366.9,1312.4,1368.4z M547.2,769.7
		c-1.5-19.7,0.4-39.9-10.4-58c-1.8-3-0.6-8.7,0.4-12.8c9.7-37.4,36.3-57.1,69.7-67.5c19.4-6,38.6-6,53.6,14.3
		c6.6,8.9,19,13.1,28.7,19.5c0.8-1.3,1.6-2.7,2.4-4c-5.6-12.1-11.2-24.3-17.2-37.2c-4.3,3.4-7.5,5.9-14.1,11.2
		c3.1-8.9,4.7-13.6,6.4-18.3c-5.2,5-10.5,10-15.7,14.9c-1.1-8.5-2.1-17-3.2-25.6c0.8-1.3,1.6-2.6,2.4-3.9c-1.6,4.5-3.1,9.1-3.7,10.6
		c-13.9,1-25.9,0.3-37.1,3c-34.4,8.4-68.5,18.1-79.7,60.1c-0.8,3.2-2.6,7.2-5.1,8.7c-13.8,8-9.6,20.7-6.5,31.2
		c4.1,13.7,10.5,26.8,17,39.6c2.7,5.3,8.1,9.1,12.3,13.6c10.8,14.7,21.5,29.4,31.9,43.6c15.4,1.3,30,3.4,44.6,3.7
		c27.1,0.6,50.6-8.4,70.5-28.4c10.6-10.7,10.3-21.3,1.6-30.6c-16.7-17.9-35.7-32-61.7-32.6C597.7,724.2,569.6,740.6,547.2,769.7z
		 M1137.3,1365.6c9.6,21.7-5,20.6-14.9,23.3c-21.6,5.8-42.8,11.3-62,24.6c-7.7,5.4-22.8,7.1-30.6,2.8c-10.3-5.7-14.7-4.3-20.8,3.9
		c-12.2,16.3-32.8,20.3-52.1,12.3c-4.8-2-13.6-1.6-17,1.7c-21.2,20.5-47.4,23.5-73,18.6c-19.8-3.8-31.7,10.2-48.7,12.3
		c6.5,4.8,12.7,6.5,18.9,6.7c55.2,1.9,110.4-0.6,163.6-16c50-14.4,100.5-29.6,147.7-51.4c57.4-26.4,108.7-64.3,158-105.5
		c51.1-42.6,93.7-92.4,130.8-147.2c39.5-58.4,70-122,89-191c20.5-74.5,35.1-149.5,23.6-227.5c-0.7-4.8-2.2-9.6-3.3-14.3
		c-1.5,0.3-3,0.6-4.5,0.9c-0.7,15.1-1.3,30.2-2.2,45.2c-1.9,32.2-0.8,65.1-6.9,96.4c-8.5,44-19.7,87.9-34.5,130
		c-14.4,41.1-31.1,82.4-53.7,119.1c-25.2,40.9-55.7,79.2-88.4,113.9c-34.5,36.6-72.2,71.1-112.9,100.1
		C1213.4,1345.9,1183.6,1375.1,1137.3,1365.6z M955.5,1361.7c-11.1,8.3-18.9,17.4-28.6,20.6c-10.2,3.4-22.4-0.2-33.3,1.9
		c-8.9,1.7-17.2,7.4-28.5,12.5c5.8,4.5,7.4,6.1,9.3,7.1c26.3,13.8,52.8,1.3,78.3-2.3c32.9-4.7,65.5-15.4,96.8-27.5
		c37.7-14.7,75.2-31.2,110.4-51.4c32-18.4,62.3-40.9,90.5-65.2c28.1-24.2,54-51.6,78.2-80c19.4-22.7,34.8-48.9,52-73.6
		c8.7-12.5,3.8-21.1-5.6-28c-18.4,12.5-18.9,39.3-41,47c-1.2,0.4-0.8,4.6-2.1,6.4c-6.8,9.9-13,20.6-21.2,29
		c-10.8,11-28.9,17.8-33.9,30.6c-8,20.6-22.5,24.4-38.9,29.1c-3.6,1-7.6,2.5-10,5.2c-11.9,13.2-22.7,27.4-35,40.1
		c-3.8,4-11.5,3.7-16.7,6.7c-8.8,5.1-17.2,11.1-25.6,17.1c-10.5,7.5-20.2,16.6-31.4,22.7c-11.6,6.3-24.9,9.5-37,15
		c-3.2,1.4-4.8,6.5-7.6,10.7c-38,12.2-78.2,25-118.5,37.9C955.8,1368.7,955.7,1365.6,955.5,1361.7z M700,78.5
		c-0.1-1.5-0.2-3.1-0.4-4.6c-13.4,1.1-26.8,1.7-40.1,3.4c-29.6,3.8-59.6,6.1-88.5,13.1c-24,5.9-47.2,16.8-69.9,27.3
		c-34.1,15.7-69.1,30.5-101,50.2c-37.2,23.1-73,49.2-106.5,77.6c-26.9,22.9-49.7,51-73.9,77.2c-3.3,3.6-4.4,9.4-6.6,14.1
		c-2,4.1-3.1,9.7-6.4,12c-20.8,14.8-33.7,36-44.5,58.6c-19.4,40.9-39.1,81.8-56.5,123.6c-6,14.5-1.7,34.3-9,47.5
		c-23.5,42.2-18.4,88-20.4,132.9c-1,22.5,1.4,45.1,2.4,67.7c0.3,7.7,1,15.5,1.6,23.2c3.4-8.5,6.8-16.9,10.2-25.4
		c0.2-0.5,0-1.2,0-1.8c4.2-89.7,10.5-178.6,44.3-263.5c26-65.2,59-125.2,102.2-179.3c47.4-59.5,103.5-108.7,167.9-147.2
		c57.6-34.4,117.5-64,182.7-80.2C625,95.7,662.5,87.3,700,78.5z M713.7,552.8c4.2,15.6,7.9,30.4,12.3,45c1.8,6.1,4.2,12.6,8,17.5
		c4.1,5.2,11.9,7.7,15.1,13.3c12.4,21.5,28.6,38.1,50,50.4c41.7,23.9,83.5,20.5,117.9-11.2c14.5-13.3,14.2-24.2,0.4-38.1
		c-36.4-36.7-87.5-34.3-120.9-6.9c-5.6,4.6-11.6,8.5-21.3,15.5c-0.9-18.3-1.6-32.3-2.2-43.6c-3.8-5.3-10.5-11.2-9.5-13.9
		c11.6-30.5,25.6-58.9,61.4-66.1c10.8-2.2,20.9-8.5,31.3-12.9c-0.5-1.9-0.9-3.8-1.4-5.7c-5.3-0.5-10.7-1.6-16-1.3
		c-10.1,0.5-21.3,5.2-29.9,1.9c-14.7-5.6-18.3,4.6-25,12.6c-6.6,7.8-14.1,14.6-21.2,21.9c-5.6,5.7-11,11.5-18.7,19.5
		C737.8,551.1,727.2,551.8,713.7,552.8z M977.6,684.6c-19.7,6.8-45,3.6-44.9,35.8c0,1.9-5.6,3.4-8.1,5.7c-18.1,17-39,31.2-44.5,59.1
		c-3.9,19.8-0.6,37.8,4.9,56.7c8.4,28.8,26.6,51.7,49.6,65c33.7,19.4,82.9,17.5,116.4-18.3c12.1-12.9,9.2-23.7,0-33.5
		c-21.6-23.1-47.6-34.5-79.8-29.4c-26.6,4.2-46.2,19.8-68.4,41.8c0-21.1,5.2-40.2-1.1-53.6c-12.1-25.7-0.8-41.7,14.6-56.1
		c21.1-19.6,47-26.6,75.5-22.6c3.3,0.5,8.7-0.2,10-2.4c1.7-2.8,1.5-8.6-0.3-11.3c-1.5-2.2-6.7-2.2-10.2-2.4
		c-9.6-0.3-19.2-0.1-28.7-0.1c-0.1-1.6-0.3-3.3-0.4-4.9C971.6,707.5,985.1,703.3,977.6,684.6z M681.3,957.3
		c-1.4-0.7-2.8-1.5-4.2-2.2c8-14.6,16-29.3,23.9-43.8c-13-6.4-18.7,21.1-32.7,6c12.3-31.9,30.2-56.5,64.4-64.3
		c4.5-1,7.8-7.4,14.2-13.8c-29.9-8.8-51,8.7-74.4,11.7c-2.2,0.3-2.7,9.5-5,14c-2.9,5.7-5.7,13.7-10.5,15.6
		c-12.2,4.9-13.4,15.1-11.8,24.4c3.3,19.5,6.8,39.7,14.4,57.7c8,18.9,17.8,39,32.2,52.4c40,37.3,85.9,26,123.2,3.9
		c15.4-9.2,18.7-27.7,6.9-40c-17-17.7-36.4-31.8-62.5-31.3c-23.6,0.4-45.5,5.8-68.1,24.5c4.6-10.8,7.1-16.7,11.4-26.7
		C692.8,950.8,687.1,954.1,681.3,957.3z M849.3,798.9c3-4.4,8.9-12.1,14-20.3c3.9-6.3,5.6-14.7,10.6-19.6c9.1-8.8,9.4-15.5-1-22.3
		c-24.2-15.8-51.1-7.9-76.9-7.8c-2.8,0-7.7,10-7.8,15.4c-0.2,11.9,1.7,23.9,3.8,35.6c0.5,2.6,5.2,5.4,8.5,6.3
		C815.3,790.5,830.1,794.1,849.3,798.9z M1414.7,962.9c-3.7,14.2-7.8,29.7-11.9,45.2c-0.3,1.1-0.7,2.6-0.2,3.4
		c2.2,3.7,4,9.3,7.2,10.3c2.6,0.9,8.4-2.7,10.1-5.9c4.8-8.6,8.8-17.8,11.9-27.2c1.2-3.6,0.2-9.6-2.1-12.5
		C1425.4,970.9,1419.4,967,1414.7,962.9z M778.5,848.5c-2.1,21.3,12.2,28.7,27.3,34.5c3.7,1.4,11.5,0.2,12.9-2.4
		c1.8-3.3,0.8-11.3-2-13.8C806,857,796,844,778.5,848.5z M1456.5,869.7c-2.4-1.2-4.8-2.5-7.1-3.7c-4.6,8.2-12.1,16-13.1,24.6
		c-0.9,7.7,5.4,16.4,8.4,24.6c2.3-0.5,4.6-1,6.9-1.5C1453.3,899,1454.9,884.4,1456.5,869.7z M521.8,149.3
		c-25.8-6.5-51.5,7.4-47.4,21.8C488.9,164.4,503.4,157.7,521.8,149.3z M484.2,1368.2c-3.4,19.7,8,29.2,31.3,24
		C503.4,1382.9,494.5,1376.1,484.2,1368.2z M1089.9,830.8c9.6-3.4,17.3-5.4,24.3-9.1c1.6-0.9,1.9-9.8,0.1-11c-4.8-3.4-11-4.8-16.7-7
		C1094.9,813.3,1093.1,819.7,1089.9,830.8z M679.4,1437.9c-11.7-1.6-20.5-2.7-29.2-3.9c1.1,4.1,0.8,9.8,3.4,11.8
		C661.3,1452.1,669.6,1453.5,679.4,1437.9z M427.5,193.9c-1.8-2.9-3.5-5.9-5.3-8.8c-10.5,7.4-20.9,14.9-31.4,22.3
		c1.5,2.4,3.1,4.8,4.6,7.2C406.1,207.7,416.8,200.8,427.5,193.9z M164.3,1097.3c3.1,0.6,6.1,1.2,9.2,1.8c1.3-6.1,2.9-12.2,3.4-18.4
		c0.1-0.6-6.5-1.8-10-2.8C166.1,1084.4,165.2,1090.9,164.3,1097.3z M1128.1,740.8c-1.8,1.7-3.6,3.4-5.4,5.1
		c4.3,6.1,8.5,12.3,12.8,18.4c2.2-2.1,6.6-5.8,6.4-6C1137.6,752.3,1132.8,746.6,1128.1,740.8z M165.7,549.5c1.7,1.2,3.4,2.3,5.1,3.5
		c5.2-10.4,10.4-20.9,15.7-31.3c-1.7-0.9-3.4-1.8-5.2-2.7C176.1,529.1,170.9,539.3,165.7,549.5z"/>
</g>
</svg>
