<svg version="1.1" xmlns="http://www.w3.org/2000/svg" xmlns:xlink="http://www.w3.org/1999/xlink" x="0px" y="0px"
	 viewBox="0 0 1600 1600" fill="#121212">
<g>
	<path d="M498.5,121.2c-14.7,4.7-29.3,9.4-43.8,14c3.3-14.5,93.8-58.3,129-62c-2.3,2.1-4.5,4.1-7,6.4c7,3.3,12.3,5.9,19.1,9.1
		c3.2-3.8,7.1-8.7,12.3-15c-6.1-1.3-9.5-2.1-12.9-2.9c7.7-14.3,21.6-11.1,34-11.9c-4.5,2.8-8.9,5.5-13.5,8.3
		c4.3,14.7,7.8,15.2,41.1,3.9c-10.8-4.6-19.3-8.3-27.9-12c3.5-2.4,6.7-5.8,10.6-6.9c94.5-26.4,190.1-37.5,287.4-17.1
		c38.7,8.1,77.3,16.6,120.2,25.9c-5.8,9.7-9.2,15.4-13.8,23c24-1.4,42.8,20.5,67.9,19.7c0.5-1.6,1.1-3.2,1.6-4.7
		c-4.8-2.4-9.6-4.8-14.3-7.2c-0.6-1.4-1.2-2.9-1.7-4.3c4.5-1.6,9.9-5.6,13.4-4.3c9.7,3.6,24,2.7,24.1,19c0,1.5,2.4,3.4,4.1,4.3
		c14.7,7.5,29,16.3,44.5,21.8c18.7,6.6,32.1,18.6,44.8,33c5.6,6.3,16.6,7.4,23.5,13c22.9,18.7,44.9,38.5,67.5,57.4
		c2.9,2.4,7.7,2.4,7.5,2.4c7.4,6.7,12.8,10.5,16.8,15.6c4.2,5.4,7.1,11.8,11.1,18.8c5.7-0.9,27.3,12.5,33,20.1
		c10.5,14,22.7,26.8,33.7,40.5c6.4,8.1,11.7,17,17.7,25.4c10.5,14.6,21.3,28.8,31.6,43.5c2.6,3.7,5.4,8.4,5.3,12.6
		c-0.4,21.2,10.1,37.8,19.4,55.8c12.8,24.9,22.1,51.7,31.8,78.1c2.3,6.2,0.3,14,0.3,23.1c10,5,16.2,18.4,15.5,35.6
		c-0.5,12.8,0.8,25.6,0.8,38.4c0.1,17.6-0.5,35.3-0.2,52.9c0.9,49.8,4.5,99.8,2.8,149.5c-2.2,63.2-17.1,124.5-38.2,184.1
		c-21.6,61-49.7,119.1-87,171.8c-25.2,35.7-53.2,69.7-82.8,101.9c-24.8,27-51.2,53.9-81.2,74.6c-49.1,33.9-98.8,67.4-155.3,89
		c-22.6,8.6-44.2,20-66.3,30c-1.9,0.8-4.4,2.5-5.7,1.9c-21.8-10.2-36.2,10.6-55,13c-19.9,2.6-39.6,6.5-59.5,9.4
		c-48.2,7-96.3,6.1-144.7,0.6c-33.5-3.9-64.9-17.2-97.1-22.8c-40-7-75-24.1-111.5-38.3c-54-21-102.7-52.2-149.4-86.5
		c-37.2-27.3-70.4-58.6-99-94.8c-22.3-28.2-46.7-54.8-67.7-83.8c-12-16.5-16.8-38.2-28.9-54.6c-17.2-23.3-22.3-51.4-35.1-76.3
		c-8.6-16.7-14.3-35-19.6-53.1C132.4,943.8,122.4,876,122,806.6c-0.4-75.3,10.9-148.8,32.8-220.5c19.9-65.3,48.3-127.1,87.2-183.4
		c37.9-54.9,80.5-106,130.5-150.4c10.2-9.1,22.9-15.4,34.8-22.3c12.3-7.2,13.1-17.1,8.9-28.8c-11.4,2.9-22.2,5.7-37,9.5
		c46.4-38.9,34.5-38.5,70.9-35.9c-5-2.7-9.9-5.4-16.7-9c19.4-11.1,38.9-22,58.1-33.4c4.2-2.5,7.2-7.1,10.8-10.7
		c9-3.3,17.9-6.6,26.9-9.9c11.8-4.3,23.6-8.5,35.4-12.8c-1.1-2.5-2.2-4.9-3.3-7.4c-4.1,2.4-8.1,4.8-12.2,7c-2.1,1.1-5.2,3.2-6.5,2.5
		c-14.7-8.2-12.2,3.2-13,11c-10.4,0.8-20.8,1.6-31.2,2.8C498.3,114.8,498.5,118.9,498.5,121.2z M512.2,532.9
		C503,530,495,533,487,535c-9,2-6-13-11-9c-38,29-62,72-36,119c4,7,10,14,16,20c3,3,8,4,12,5c20,1,37-10,56-14c-11,25-40,39-66,31
		c-6-2-9-8-13-13c-22-29-4-98-42-97c-14,0-30,13-43,24c-1-3-3-6-5-8c18-8,34-22,46-37c-30,1-45,34-68,51c-8,5-19,7-28,11
		c-9.2,4.1-18.4,8.1-27.5,12.4c-12.6,5.9-24.9,12.6-38.2,19.3c4.6-5.7,8.4-10.4,12.1-15.1c-20.9,3-33.2,16.5-38.6,33.4
		c-2.7,8.5,3.7,19.9,5.9,30c1.6-0.3,3.2-0.7,4.8-1c0.4-7.4,0.8-14.9,1.2-21.8c9.4,11.7,16.2,24.4,26.7,32.3
		c8.4,6.3,17.5,11.9,26.8,18C304,744,332,772,331,806c0,2-2,4-4,3c-25-28-51-53-83.2-72.2c-5.5-3.1-11.1-6-16.7-8.7
		c-18.5-8.9-28-17.2-26.9-41.5c1.4-32.6,12.8-56.8,45-68.5c6.8-2.4,16-3.7,19.5-8.7c6.1-8.9,13.3-12.3,21.1-13.3
		c7.8-1.1,16.1,0.1,24.7,0.4c1.7-0.5,4.7,0.5,6.7-0.5c39-20,64-67,118-56c18,4,32-39,65-43c10-2,16-15,25-20c21-11,40-23,54-43
		c-6,1-10,5-16,6c37-42,94-62,124-110c-12,10-23,23-36,32c36-35,63-78,107-109c11-7,14-20,21-30c-5,2-9,7-14,9c4-16,28-31,42.1-42.9
		c9.7-6.3,18.6-14.3,28.3-20.7c9.8-6.4,20.4-11.3,33.7-11.3c6,0,11.9-7.9,18.5-12.5c-2.9-2.7-4.2-4.7-5.1-4.5
		c-17.9,2.9-37.4,0-52,14.9c-3.1,3.2-7.4,5.2-11.4,7.4c-6.4,3.4-13,6.6-19.4,9.9c-6.5,3.8-12.9,7.6-19.1,12.2
		C771,193,760,201,754,213c-14,27-39,53-70,54c-3,0-7-2-9-5c-11-21-10-45-23-63c-6-7-17,4-20,12c-6,26,0,54,12,76c5,10,27,2,30,14
		c6,22-22,38-36,31c-31-15-25-60-25-93c0-11-2-28-14-32c-8-3-15,3-22,7c-2,2-5,6-5,9c1,14,10,27,6,42c-9,37-39,101,1,124
		c-10,11-17,24-30,31c-5,2-2-13-5-13c-11-1-16,26-16,23c-6-52-6-106-38.5-149.3c-4.3-10.4-9.9-17.7-17-21.1
		c-7.1-3.4-15.8-2.8-26.5,2.7c-7.9,4-13.4,8.4-5.9,17.7c6.8,8.3,13.2,16.9,19.8,25.4c1.3-0.7,2.6-1.5,4-2.2c0.4-3,0.8-6,1.2-9.3
		c3.5,1.8,7.7,4.8,12.3,8.5c4.4,4.4,9.2,9.6,14,15.7C514,349,514,392,504,428c3-22,5-44-1-65c-1,32,0,64-12,94
		c6-48,6-102-33.6-135.7c-5.9-6.1-12.3-16.2-22.8-8.3c-0.9,0.7,5.9,13.9,11,19.8C463,352,480,373,484,399c-10-3-13,17-14,25
		c-1,6,6,14,4,20c-7,23-35,59-63,42c-15-10-27-23-39.7-36.2c-4.1-5-7.1-9.9-8.4-14c-7.5-23.4,2.5-42.5,15.1-60.3
		c10.6-14.9,23.8-27.9,35-42.4c2.3-3,2.9-10.3,0.9-12.9c-5.8-7.2-24.5-5.4-31.7,1.2c-21.8,20.2-43.5,40.7-66.1,60
		c-11.6,9.9-17.8,19.6-9.9,34.3l0.4-0.4c-7.3,5.4-20.3-2.3-24.4,11.4c-2.6,8.8-6.8,17.2-11.2,25.2c-9.6,17.3-20,34.2-29.9,51.4
		c-4.8,8.4-9.3,17-13.8,25.6c-8.1,15.4-18.2,30.2-23.6,46.6c-9.2,27.7-17.1,56.2-22.6,84.9c-6.6,34.7-12.1,69.9-14.1,105.1
		c-1.5,27.9,5.6,56.2,4.4,84.1c-0.7,15.5,0.6,30.6,3,45.5c1.2,7.4,2.6,14.8,4.3,22.2C198,985,211,1057,255,1115c7,9,20,9,31,13
		c0,1,0,3,0,4c28-4,83-6,80,25c-2,20-53,32-38,63c24-45,82-43,125-33c-7-5-21-10-25-17c-10-19-35-26-51-46c-4-5-11-6-17-8
		c-18-5-39-1-53-14c6,0,12,1,18,2c-14-7-35-23-49-12c-3,2,1,6,3,9c-12,2-30,4-31-13c0-23-11-43-19-64c-8-25,11-45,22-65
		c10,6-1,28,6,31c36,12,61,45,66,80c0,2-4,1-7,1c-18-2-33-24-50-10c35,22,75,38,116,45c-11-28-36-48-56-71c-26-31-45-66-56-104
		c5,1,10,3,14,6c17,14,38,45,56,31c7-6-8-24-5-39c3,4,4,9,8,11c0-5-1-11,1-16c4,37,20,74,61,85c7,3,6,20,2,22c-22,7-39-20-56-33
		c-8-7-16-14-27-16c-5,34,29,64,49,93c4,5,10,11,17,9c7-1,14-5,19-11c4-5,4-11,4-17c2-47,0-99,35-135c19-20,43-53,9-70
		c-10-4-19,2-28,6c-7-21,14-48,33-41c15,4,30,16,34,33c0,4,2,7,1,11c-2,7-4,13-7,20c-1,2,0,4,2,5c11,1,22-3,29-12c9-10,30-17,26-25
		c-34-63-9-137,48.5-171.3c5.8-3.2,11.9-5.9,18.6-8.3c14-5,25.5-16.9,38.7-24.6c21.6-12.5,43.7-24.2,68-37.6
		c-1.4,33.1,4.8,49.6,21.1,55.5c-6.9-26.7-13.2-51.2,0.8-77.6c19-36,32.2-75.2,76.6-89.1c6.9-2.2,12.1-9.1,18.5-13.3
		c7.1-4.6,14.9-12.7,21.6-12.3C871,472,874,459,875,450c-3,1-6-1-9,1c4-13,15-8,25-13c4-2,3-10,6-15c-3,3-6,8-10,8c-1,0-2-3-2-4
		c4-5,8-9,9-14c7-29,23-47,40-69c1,0-2-5-2-5c28-12,58-10,88-8c-3-4-7-6-10-9c25,0,53,13,74-1c16-11,31-16,46.5-26.1
		c8-4.1,16.3-6.6,26.5-2.4c0.7,0.3,2.3-0.2,2.9-0.8c10.9-13,21.6-26.2,32.2-38.9c-5.3-1.1-15.9-7.1-22.8-4.2
		c-16.8,7-33.9,14.5-49.3,24c-5.4,3.1-10.5,6.4-15.6,9.9C1077,300,1035,316,1015,299c-17-14-9-50-25.8-74.1
		c-3.5-7-7.2-13.9-10.9-20.8c-7.4-13.8-14.9-27.5-22.5-41.2c-1.9-3.4-7.8-4.5-11.9-6.7c-1.6,4.6-5.6,10.3-4.2,13.8
		c4.3,10.8,10.5,20.9,16.2,31.1c3.6,6.3,7.7,12.4,11.4,18.7C990,251,971,287,967,320c-5-1-14-1-14-5c2-29,9-59-5.4-87.1
		c-2.7-6.3-5.7-12.6-8.7-18.9c-6-12.5-12.1-25.1-18-37.6c-4.1-8.6-9.8-9.9-17.5-6.4c-9.3,4.2-19.2,7.7-27.5,13.5
		c-15.8,11.1-31.4,22.4-47,33.7c-5.2,3.8-10.4,7.5-15.6,11.3C787,249,739,264,734,302c0,2,5,5,8,6c19,6,43,5,53,24
		c16,30,34,56,58,81c4,4,5,10,7,15c-4,0-10,1-12-1c-44-35-67-114-121-102c-54,11-91,66-136,102c5-1,9-2,14-4c-25,31-55,53-86,79
		c-9,7-7,20-7.2,31.4L512.2,532.9z M558.1,1164.5c-0.1,0.5-0.1-0.5-0.1-0.5c13,16-2,31-18,36c-20,7-40,3-61,0c-14-3-26-8-40-11
		c-27-4-53,0-76,14c20-1,38-12,59-8c-30,8-61,17-85,36c11,6,22,10,32,17c4-8,7-22,12-21c19,2,40,1,56-10c7,28,0,57,0,86
		c0,4,1,8,3.6,11.3c2.5,5.8,6.2,11,10.6,15.5c8.7,9.1,19.6,15.9,30.3,18.1c20.1,4,38.8,11.1,54,25.8c4.9,4.8,10.8,8.5,16.3,12.7
		c1-0.9,2.1-1.7,3.1-2.6c-3.3-8.4-5.7-17.3-9.9-25C538,1326,585,1310,605,1285c0,0,3,1,5,1c-25,15-55,42-38.7,72.8
		c3.3,7.2,7.8,14.3,12.2,21.4c-2.5-7.1-4.1-13.9-4.2-20.3C585,1318,626,1290,660,1269c-14,31-14,70,3,99.6
		c3.2,7.7,5.7,15.6,6.7,23.9c1,8.3,0.6,17-2,26.3c-0.7,2.7,3.4,6.7,5.2,10.1c3.2-1.9,7.3-3.2,9.6-5.9c8-9.3,11.2-19.5,11.6-29.9
		s-2.1-20.8-5.6-30.4C669,1321,676,1263,721,1241c1,2,2,3,3,4c-27,29-42,70-21.7,107.6c4.6,9,9.5,17.7,14.7,26.2
		c6.2,10.3,16.8,12.4,26.9,4.9c8.4-6.3,16.7-12.7,24.9-19.2C781,1355,797,1347,800,1332c10-47,34-76,64-109c5-5-1-13,2-18
		c5-8,17,0,20,7c1,5,0,11-3,16c-17,26-61,41-52,76c0,3,4,6,8,6c63-14,123-20,181-44c7-3,13-7,18-13c3-4,6-8,7-12c0-2-1-5-1-6
		c-47-36-109-53-136-106c16,10,31,22,47,32c-39-41,22-69,53-90c4-2,9-3,14-2c4,1,7,1,10,3c29,28,54,58,96,62c-9,26-25,61-50,73
		c-24,12-50-6-75-11c20,16,48,20,60,44c55-23,89-89,112-142c1-1-3-3-5-3c-43,8-87-8-106-47c0-1,3-3,4-3c38,26,83,50,126,32
		c25-11,41-49,73-44c15,3,33,23,34,18c14-53,9-139-47-171c-3-1,9-12,15-7c45,35,35,95,46,147c3,12,9,26,23,25c28-3,51-22,79-21
		c-4,7-16,3-16.3,16.9c7-0.6,14.1-1.2,21.1-1.9c-6.2,5.4-12.5,10-19,14.3c-6.5,4.2-13.1,8.1-19.8,11.8
		C1342,1086,1292,1079,1247,1069c-25-5-53,24-64,49c-25,57-63,114-121,138c-65,25-127,50-191,75c-13,5-27,3-40,4
		c-15,0-22,14-31.2,23.7c-7.6,7.1-14.8,14.4-21.7,22c-15.8,17.3-33.1,30.7-58.6,28.9c-4.3-0.3-9.8,5.2-13.3,9.3
		c-4.3,5-7.1,11.4-9.8,16c20.8,3.7,42.7,8.8,64.8,10.7c7,0.6,16.6-5.7,21.7-11.6c17.5-20.2,31.1-44.4,50.7-62
		c6.6-5.9,13.5-10.6,20.6-13.9c20.9-13,46.9,3,51.2,25.8c3.1,8.5,7.5,16.7,12.4,24.6s10.4,15.5,15.9,23c4,5.5,13.5,7.1,21.6,11.1
		c-2.2-13.3-2.2-22.3-5.2-30.2c-2.4-6.2-4.6-12.5-7-18.6s-5-12.2-8.1-18C931,1358,902,1344,917,1328c5-5,19-9,22-3
		c15,24,20,51,29.8,77.4c2.4,8.4,3.9,17.1,4.4,26.4c0.1,1.7,1.9,3.3,3.2,5.5c14.2-5.8,27.7-11.4,41.2-16.9c-0.4-1.3-0.9-2.6-1.3-3.9
		c-5,0.4-10.5,2.3-15,0.9c-6.1-1.8-14-4.6-16.8-9.5C961,1373,958,1323,999,1303c28-13,57-20,84-35c18-11,29-27,44-42
		c7-5,13-15,22-12c3,1,3,7,3,11c0,46-35,101-5,140c5,6,20-2,28-9c20-16,36-33,59-44c32-17,57-46,83.3-71.8c5-4.9,9.9-10,14.7-15.1
		c18.1-19.2,30.3-43.9,46.5-65.1c43.4-56.5,71.4-120.3,88.2-188.9c7.4-30.4,10.4-61.8,15.4-92.8c1.6-10.1,4.5-20.2,4.2-30.2
		c-0.8-24.4-3-48.7-4.8-73c-1.3-18-2.6-36-4.7-53.9c-0.7-5.9-2.4-15.2-5.9-16.5c-12.2-4.4-8.1-12.4-6.8-20.1
		c0.7-4.5,3.5-9.2,2.5-13.2c-0.8-3.5-5.6-6-8.6-8.9c-1.9,3.2-5,6.2-5.6,9.6c-1.8,11.6-2.7,23.3-4.1,35c-2,17.4-4.2,34.7-6.2,52
		c-1,8.7-2,17.3-3,26C1438,802,1434,820,1440,837c-82,2-108-108-139-170c-2-4,4-5,7-4c30,1,63,6,88.5-12.7
		c7.4-5.6,15.3-10,23.3-14.3s16.3-8.3,23.5-13.5c6.6-4.8,15.3-15.7,13.6-20.9c-3.6-11.3-12.9-21-20.6-30.7c-1.3-1.6-7-0.8-10.1,0.5
		c-19.6,8.1-32.2,5.6-44.5-11.3c-14.4-19.8-28.6-39.8-41.3-60.7c-18-29.5-16.7-33.9,5.9-57.7c4.1-4.4,4.9-11.9,7.9-19.8
		c-5.9,0.7-7,0.5-7.9,0.9c-1.8,1-3.5,2.1-5.2,3.4c-15.4,12.1-31.2,23.1-48.2,32c-5.6,3-11.4,5.7-17.3,8.1
		C1217,495,1154,485,1094,464c-16-5-32,6-35,23c-6,48,1,107-44.7,136.4c-9.1,5.7-18.1,11.3-27.1,17c7.3,18.3,14.4,19.9,27,10.7
		c5.7-4.1,11.4-8.3,17-13.1c24.9-22,34.9-54,39.9-87c0-6,4-15,7-13c52,35,74,105,33,159c-4,4-8,8-13,9c-12,3-23-3-33.8-4.9
		c-9.3-2.9-18.2-6.3-27.1-9.4c-4.6-1.6-9-3.7-13.5-5.5c-0.8,2.2-2.9,5.9-2.3,6.5c3.5,3.3,7.6,6.1,11.8,8.6
		c7.3,4.2,15.2,7.7,22.8,11.5c27.1,12.3,45.1,38.3,58.4,64.1c5.4,9.5,8.1,22.3,7.5,33.3c-1,17.2-6.5,34.1-9.1,51.2
		c-1.9,13-2.1,26.3-3.2,40.9c6.8-5.3,13.2-10.3,20.1-15.6c4.8,12.3,5.1,24.2,1.6,34.4s-11,18.9-21.7,24.8c-7.7,4.3-15.4,8.5-23,12.9
		c-7.6,4.3-15.2,8.7-22.7,13.2c-27.6,16.4-47.4,11.8-65.7-15.5c-2.6-3.8-5.1-8.2-8.8-10.7c-3.5-2.3-8.5-3.2-12.8-3.3
		c-1.4,0-4.7,5.3-4,6.6c1.8,3.8,5.3,6.8,8.1,10.1c4.7,5.4,10.4,10.2,14,16.3c4.4,7.5,6.4,16.3,10.8,23.9c5.3,9.1,13.6,12.5,23.8,7.7
		c9.1-4.3,18.1-8.7,27.2-13c9.1-4.4,18.1-8.8,27.1-13.3C1121,963,1156,941,1196,925c7-3,12-12,16-20c-5,3-11,3-16,5
		c38-32,44-84,64-127c12-28,48,6,69,15c2,1,7,4,6,1c-7-35-33-58-55-84c-24-29-44-59-57-93c62,50,87,125,134,192
		c16,23,39,38,66.1,38.5c11.9-0.9,23.3-3,34.7-4.9c3-0.5,6.2-0.4,11.9-0.7c-8.1,9.3-26.7,14.6-5.7,25.5
		c-4.7,7.4-10.6,11.4-17.1,13.3c-57,7.2-87-49.8-132-75.8c-13-7-33-19-39-4c-41,110-126,191-236.3,226c-8.3,2.7-16.7,5.1-25.4,6.9
		c-9.7,2-18.5,8.7-27.5,13.7c-6.6,3.7-13.1,7.5-19.7,11.3C932,1088,886,1106,865,1142c-3,6,3,15,4,23c-24-43,6-90,48.8-104.5
		c6.2-3.2,12.5-6.3,18.7-9.3c17.9-8.9,36.8-15.6,55.2-23.5c9.9-4.2,14.6-12,6.9-20.6c-11-12.2-24.1-22.5-36.3-33.6
		c-1.8,13.1,2.2,24.6,0.2,34.9c-2.4,12.5-14.2,17.2-25.7,18.7c2.4-16.4,4.4-31.9,7.2-47.3c1.4-7.9,4.2-15.7,6.3-23.5
		c1.9-0.1,3.9-0.2,5.8-0.3c-4.3-5.9-8.6-11.8-15.2-21c-5.1,20.6-9.2,37.1-13.8,55.8c-1-11.1-1.7-19.5-2.7-31
		c-3.9,4.2-5.2,4.9-5.2,5.6c0,4.6,0.3,9.2,0.4,13.9c0.9,24.3-6.5,46-19.5,64.3c-4.3,6.1-9.3,11.9-14.6,17.3
		c-16.4,19-38.4,34-61.4,44c-10,5-9,22-13,34c-14,43-63,11-90-3c-8-4-15-10-22-17c-6-8-12-16-16-25c5,2,12,2,14-1c11-12-9-27-9.9-42
		c-2.7-11.8-0.6-26.9-7.1-32.8c-5.9-5.4-20.8-1.2-34.6-1.2c8.3-9.3,14.7-16.4,21.1-23.5c-0.7-0.8-1.5-1.6-2.2-2.3
		c-14.4,10-28.7,20-43.1,30c-1-1.3-2.1-2.5-3.1-3.8c15.8-25.1,41.6-39.5,64.3-59.4c4.5,11.4,8,20.1,11.6,29.3
		c4.8-17.6,8-33.5,13.6-48.4c5.6-15,13.6-29.1,20.5-43.5c-9.3,3.9-17.1,14.4-23.7,13.7c-21-2.3-22.2,9.8-22,24.2
		c0.1,10.6-5.3,13.2-14.6,15.9c-9.9,2.8-20,8.2-27.4,15.3c-14.2,13.5-21.2,13-32.8-3.4c-14-19.9-19.3-42.8-25.2-65.5
		c-1.7-6.5-8.5-13.1-16.3-16.9c-7.7-3.9-16.3-5.1-21.7-0.9C531,888,512,888,498,895c-68,37-87,115-76,190c0,4-3,6-5,9
		c-10,10-28,9-31,23c-1,7,8,12,15,16c3-7-4-16,0-17c14-6,30-14,25-32c9,2,6,16,3,23c-3,6-12,7-14,12c-4,14,17,24,28,31
		c-3-4-4-10-7-14c4,1,7,2,11,3c7,2,12-3,10-10c-3-9-9-17-10-27c30,15,74,43,77,73c2,24-43,1-61-11c1,27,33,37,56,34c7-1,13-2,19-4
		c4-2,8-2,11-6s2-9,4.6-12.8C554.9,1171.3,556.3,1167.8,558.1,1164.5z M979.2,631.2c-12.2-8.8-5.6-12.3,3.4-18.1
		c5.6-3.6,11.5-6.5,17.5-9.6C1017,597,1032,584,1035,566c3-21,6-39,11-59c4-12-5-25-1-35c19-45,80-1,117,2c13,1,28,4,39-2
		c22-12,42-21,64.4-29.6c5.7-2,11.3-4,16.9-6.1c5.5-2,11-4.1,16.5-6.4c13.7-5.7,26.8-12.9,39.8-20.2c8.4-4.8,12-13.3,4.1-20.4
		c-6.7-6-16.2-14.4-25.3-3c-10.8,13.5-24.2,21-41,25.3c-9.6,2.5-18.3,3.1-25.6,0.9c-7.3-2.2-13.1-7.2-16.6-16.2
		c-2.3-5.9-5.1-11.8-7.9-17.6c-14.6-29-32.3-57.5-20.4-95.1c-6.2,2.2-9.7,2.9-12.5,4.6c-6.5,4-12.8,8.3-19.2,12.4s-12.8,8.3-19.5,12
		C1100,344,1035,335,974,339c-24,1-55,20-58,47c3-3,2-6,5-9c-2,36-8,102-54,102c-2,0-3,2-4.2,2.5c-6.1,8.4-11.7,17.2-17.6,25.9
		c2.7-2.8,10.9-1,17.8-3.2c21.8-6.9,36.9,4.3,50.6,17.9c28.5,28,47.9,60.3,44.2,102.6C956.8,636.2,964.7,638.9,979.2,631.2z
		 M1048.1,885.5c18.1,4.6,30-6.8,37.7-17.6c32.4-45.1,7.2-119.1-47.3-130.5c-3.7-0.8-8,2.3-12.2,3c-12.9,2.3-30.8,10.6-37.6,5.1
		c-13.7-11.1-20.2-2.2-27.2,3.7c-9.4,8-17,18.2-24.9,27.8c-12,14.4-16.2,30.9-8.6,48.4c3.1,7,12,11.6,14.6,18.7
		c6.5,17.4,24.3,22.9,34.5,35.8c9.7,12.3,22.3,11.2,35.1,10.1C1024.6,889,1036.8,887,1048.1,885.5z M938,621.9
		c0.4-41.3-21.1-74.7-52.4-87.1c-4.3-1.7-11.8-3.1-14.1-0.8c-12.1,11.7-26.3,5.8-37.5,2.6c-11.9-3.4-21.1-2.2-30.4,3.5
		c-12.6,7.7-24.3,14.9-24.1,34.1c0.2,14.6-7.5,29.3-10.7,44.2c-0.8,3.9,1.4,11.8,3.9,12.5c15.7,4.9,15.5,24,29.5,30.7
		c9,4.3,15,14.6,23.8,19.5c26.8,14.7,53.3-7.3,80.3-2.3c2,0.4,4.8-3.5,7.1-5.5C930.8,657.7,937,637.5,938,621.9z M646.1,706.2
		c-14.7-10.3-24.3-14.4-33.3-13.2s-17.3,7.6-29.3,18.5C558,737,550,775,564,809c4-5,2-12,5.6-16.9c6.4,8,11.2,13.7,15.5,19.6
		c22.2,30.3,48.2,43.2,78.3,33.2c6.3-2.1,13.1-3,19.7-3.1c3.4,0,6.9,2.9,10.6,4.6c46.6-34.8,45.2-71.2,28.7-112.3
		c-8.9-22.1-40.3-40.4-62.4-34.1c30.3,5.3,35.7,24.6,37.6,48.3c-21.3-34.1-51.6-37.4-86-28.1c-0.3-1.6-0.5-3.1-0.8-4.7
		C621.7,712.6,632.7,709.7,646.1,706.2z M723.2,975.2c-1.3,10.3-3,20.3,11.1,21.4c2.3,0.2,3.7,6.7,6.2,9.8
		c5.2,6.6,9.8,14.5,14.8,21.6c5,7.1,10.5,13.2,17.4,16.2C794,1055,819,1057,840,1044c3-1,7,1,11.4-0.7c6.3-1.4,14.4-1.5,18.6-5.5
		c42.2-41,22.2-98.2-12.7-128.8c-7.8-6.8-20.6-10.1-31.3-10.7c-8.7-0.4-17.8,5.7-26.9,9c5.8,1,11.5,2,17.2,3c0,0.8-0.1,1.6-0.1,2.4
		c-6.7,1.3-13.5,2.6-23,4.5c20.5,4.6,37.3-9.8,56.7,1.2c-4.8,3.2-7.5,5-10.6,7c6.1,4,10.9,7.2,15.7,10.4c-0.9,1.9-1.8,3.8-2.7,5.8
		c-18.9-17.7-41.2-21.8-63.5-21.2c-4.1-7.5-9.6-16.9-15.5-17.2c-25.1-1.4-51,33.2-45.7,58.1c1.3,6.3,0.2,13,0.2,19.6
		c-0.8-0.1-1.6-0.2-2.4-0.2C724.5,978.7,723.9,977,723.2,975.2z M877.4,804.3c-1.4,1-2.7,2-4.1,3c-0.8-2.5-1.3-5.1-2.5-7.4
		c-8.7-17.7-17.4-35.6-26.6-53c-1.9-3.7-6.6-5.9-10-8.8c-0.9,5-3.6,10.4-2.4,14.8c2.7,10.4,6.8,20.4,11,30.3
		c2.4,5.5,4.8,12.7,9.4,15.3c19,10.6,23,30.5,31.7,47.5c1.4,2.7,4.2,6.6,6.3,6.5c2.6-0.1,7.3-3.8,7.2-5.8c-0.6-10.9-2.1-21.9-4-32.7
		c-1-5.9-6.5-12.7-4.8-17.1c6.4-16.6,14.4-32.6,22.8-48.3c6.2-11.7,13.8-22.6,20.8-33.9c-1.9-1.1-3.9-2.2-5.8-3.3
		C894.6,733.8,880.8,766.1,877.4,804.3z M751.3,745.3c10.8,29.7,4.6,56-4.5,83.6c-9.5,29-35.9,40.8-52.9,62.8
		c9.2-0.9,16.8-3.7,22.9-8.6c8.4-6.6,15.6-14.8,23.3-22.3c6.5-6.3,15-11.5,19.2-19.2c9.6-17.7,17.2-36.6,25.5-55.1
		c10.4-23.2,2.7-37.1-22.1-39.8C759.8,746.6,756.8,746.1,751.3,745.3z M630.9,936.6c-1.1,0.5-2.3,1-3.4,1.5c2.1,2.9,3.7,7,6.6,8.3
		c1.8,0.8,6.5-1.7,8.2-4c8-10.6,15.7-21.5,22.8-32.8c1.9-3,2.8-8.2,1.4-11.3c-2.9-6.6-23.2-8.5-32.8-2.7
		c-7.6,4.6-10.4,10.9-5.9,20.4C630.7,922,630,929.7,630.9,936.6z M806.2,747.5c-2,1-4,2-6.1,3c5,9.8,9.4,19.8,15,29.2
		c14.1,23.5,27.8,46.9,23.3,76.1c-0.3,2,1.4,4.4,2.2,6.6c22.3-9.5,26-17,16.6-29.3c-8.6-11.3-16.2-23.4-23.4-35.6
		C824.2,781.1,815.4,764.2,806.2,747.5z M1119.9,155.3c-5.8,8.5-10.5,14.6-14.1,21.3c-1.4,2.7-1.3,7.2,0,9.9
		c0.9,1.9,6.9,3.7,7.6,2.8c7.5-8.5,16.5-5.1,25.4-4.2c3,0.3,6.2-1.9,9.4-3c-1.2-3.1-1.5-7.4-3.7-9.2
		C1136.8,166.7,1128.4,161.3,1119.9,155.3z M1038.7,124.4c2.5,23.9-11.4,21.4-23.8,22.2c14.3,3.9,28.6,7.8,47.2,12.9
		c-5.2-8.2-7.7-12.2-10.6-16.7c5.2-1,9.3-1.8,13.5-2.5c0.2-1.1,0.4-2.1,0.7-3.2C1057.6,133.4,1049.7,129.6,1038.7,124.4z M926,698.6
		c1.5,1.4,2.9,2.9,4.4,4.3c11.3-7.5,27.2-9.3,30.9-26.3c0.6-2.9-0.5-7.2-2.5-9.4c-1.1-1.2-6.8-0.6-8.3,1
		C942,678.1,934.1,688.5,926,698.6z M1056,1400.8c11,10.2,31-2.8,44-8.8c5-3,11-5,14-10c0-2-1-5-2-5c-10,1-18,8-27.7,11.2
		C1074.9,1392.4,1065.4,1396.7,1056,1400.8z M1018.5,59.1c-17.5-3.2-32.3-6-51.2-9.4C1001,75,1005.9,76,1018.5,59.1z M875.4,864.1
		c-6.5,10.9,7.6,26.5,30.7,29.8C896.2,884.3,886.3,874.7,875.4,864.1z M895.9,77.2c-0.1,1.4-0.2,2.9-0.3,4.3
		c19.5,1.7,39,3.5,58.6,5.2c0.1-1.3,0.2-2.6,0.3-4C934.9,80.9,915.4,79.1,895.9,77.2z M762.3,698.8c-1.8,1.7-3.6,3.4-5.5,5.1
		c4.8,5.1,9,11,14.6,14.9c2.3,1.6,7.7-1,11.6-1.7c-1.7-3.3-2.7-7.6-5.3-9.6C773.2,703.9,767.5,701.7,762.3,698.8z M746.7,709.1
		c-2.3,1.2-4.7,2.4-7,3.6c3.4,7.8,6.8,15.7,10.1,23.5c2.3-1,4.5-2,6.8-3C753.3,725.1,750,717.1,746.7,709.1z M408,295
		c19.9,3.4,21.8,1.5,16.1-14.8C418.8,285,414.4,289.1,408,295z M760.2,868.6c0.7,1.4,1.4,2.7,2.1,4.1c7.1-3.2,14.3-6.4,21.4-9.5
		c-0.8-1.7-1.7-3.5-2.5-5.2C774.2,861.4,767.2,865,760.2,868.6z"/>
	<path d="M300.1,1321.8c11.5-2.7,23.4,6.7,24.2,18.4c0.3,4.9,2.1,9.6,3.2,14.5c1.6-0.3,3.2-0.6,4.8-0.9c0-3.2,0-6.3,0-10.8
		c2.7,1.2,4.8,1.5,6,2.8c15,16.4,29.4,33.5,45.1,49.3c6.7,6.8,16.2,10.8,24.3,16.4c10.8,7.6,20.8,16.4,32.1,23
		c22.3,13,45.3,24.7,68.1,36.9c1.7,0.9,4,0.8,6.1,1.1c17.6,3.2,35.1,6.4,52.7,9.6c0,1.4,0,2.7,0,4.1c-2.8,1.1-5.6,2.3-9.7,3.9
		c20.5,12.4,40.5,19.8,63.4,20.6c8.7,0.3,16.8,8.4,25.7,11.2c35.1,11,71.1,16.8,107.8,21c19,2.1,34.7-0.4,51.6-7.4
		c3.4,14.8,13,8,20.6,6.4c6.2-1.3,12.3-9.5,17.9,1.4c0.5,0.9,8.2-0.3,11.2-2.4c18.8-13.3,39.8-5.2,59.8-6.4
		c14.1-0.8,28.3-0.2,44-0.2c-3.5-2.2-6.1-3.9-11.3-7.2c22.3-4.6,42.2-8.6,62.1-12.7c0.3,1.1,0.5,2.2,0.8,3.3
		c-7.4,2.5-14.9,5-22.3,7.4c0.5,1.7,1,3.4,1.6,5.1c40.8-12,81.6-23.9,122.4-35.9c-1.1-1.6-2.2-3.2-3.4-4.8
		c3.2-4.2,5.6-10.7,9.8-12.2c14-5.1,27.3-14.1,44.1-8c5.2,1.9,15.1-0.2,18.7-4.3c11.7-13.1,28.5-15,42.6-22.6
		c6.5-3.5,11.8-9.2,18.3-14.5c6.5,0.8,14.5,1.8,25.8,3.3c-33.2,26.9-68.1,45.9-104.3,61.9c-36.6,16.1-73.7,31.9-111.9,43.6
		c-38.7,11.9-78.5,21.6-118.5,27c-39.6,5.3-80.2,6.7-120.1,4.9c-38.9-1.8-77.5-9.7-112.7-14.5c-10.5,0-16.7,0.8-22.6-0.2
		c-13.7-2.3-27.8-4-40.8-8.6c-48-17.1-97-32.2-142.8-53.9c-41-19.5-79.2-45.5-117-71c-24.6-16.6-47.5-36.1-68.9-56.7
		c-52.9-50.9-101.9-105.3-138.8-169.6c-35.5-61.8-64.6-126.2-83.9-194.9c-2.6-9.3-3.7-19-5.5-28.7c3.4,0.9,5.9,1.5,11.6,3
		c5.8,30.3,27.4,60.1,28.3,95c5.2,4,10.8,8.2,16.3,12.5c1,21,13,36.5,23.3,52.7c1.7-0.9,3.4-1.8,5.1-2.6
		c-9.6-16.6-19.1-33.2-28.7-49.8c-2.9-13.5-5.7-27-8.6-40.6c40.9,87.7,84,173.4,151.7,244.4c-1,1.1-2.1,2.1-3.1,3.2
		c-4.5-0.9-9.1-1.8-18.4-3.6c11.7,9.7,20.1,16.6,28.4,23.5C290.9,1312.8,295.5,1317.3,300.1,1321.8z M177.6,1157
		c-1.6,0.9-3.2,1.7-4.7,2.6c7,12.4,14.1,24.7,21.1,37.1c1.4-0.8,2.8-1.6,4.2-2.4C191.4,1181.9,184.5,1169.4,177.6,1157z"/>
	<path d="M1551.6,772.1c-2.4,37.6-4.8,75.1-7.2,112.7c-1.5-0.1-2.9-0.2-4.4-0.2c2.2-37.6,4.4-75.1,6.6-112.7
		C1548.3,772,1549.9,772,1551.6,772.1z"/>
	<path d="M63.9,757.4c0,15.3,0,30.5,0,45.8c-1.2,0-2.3,0-3.5,0c0-15.3,0-30.7,0-46C61.6,757.3,62.7,757.4,63.9,757.4z"/>
	<path d="M300.1,1321.8c-4.6-4.5-9.2-8.9-13.7-13.3c-2.5-3.5-5-7.1-8.3-11.8C295.6,1298.5,299.7,1303.6,300.1,1321.8z"/>
	<path d="M1217.2,139.7c12.9,8.3,25.8,16.7,38.7,25c-0.8,1.3-1.6,2.6-2.5,3.9c-12.9-8.3-25.9-16.6-38.8-24.9
		C1215.5,142.4,1216.4,141,1217.2,139.7z"/>
	<path d="M68.3,702.3c-1.1,13.3-2.1,26.7-3.2,40c-1.4-0.1-2.7-0.2-4.1-0.3c1.2-13.2,2.3-26.5,3.5-39.7
		C65.8,702.2,67.1,702.2,68.3,702.3z"/>
	<path d="M1514.6,507.7c4,11.6,8,23.2,12.1,34.8c-1.2,0.4-2.3,0.8-3.5,1.3c-4.3-11.5-8.5-23-12.8-34.6
		C1511.8,508.7,1513.2,508.2,1514.6,507.7z"/>
	<path d="M1139.4,760.1C1159,753,1178,740,1182,717c5-31-4-68,18-92c31,34,50,79,75,120c1,2,1,4-1,6c-12,8-26,9-30,24
		c-9,35-16,91-48,88c-27-3-51-46-55.9-80.9C1139.7,775.5,1139.9,768.1,1139.4,760.1z"/>
	<path d="M1235.7,1122.6c2.3-7.6,2.3-17.6,9.3-21.6s15,5,18,11c17,31,30,63,44,95c15,36-41,57-68,79c-10,8-20,13-30,24
		c-3,2-7,3-10,4c-7,0-9-8-10-13c-5-46,1-90,7-136c2-13,5-26,10-38c4-7,6-14,14-18c1,0,3,0,3.7,0.3
		C1228.1,1111.3,1231.8,1116.4,1235.7,1122.6z"/>
	<path d="M1222.9,575.2C1178,555,1125,536,1111,484c-1-3,10,0,17,2c44,9,84,18,128,16c42-2,79,62,63,89c-17,27-65,6-93.8-14.4
		C1223.3,575.4,1221.3,574.3,1222.9,575.2z"/>
	<path d="M1120.6,753.8c1.4-3.8,4.4-7.8,5.4-11.8c-5,0-11,1-16,2c0-2,0-5,2-6c53-32,39-97,60-145c6-12,23-11,34-5
		c51,25,112,57,167,27c-19-33-46-61-64.5-93.6c-4.1-6.1-8.1-12.2-12.2-18.3c-2.8-4.3-5.9-8.6-7.4-13.4c-1-2.9-0.5-8.4,1.4-9.7
		c2.7-1.9,8.7-2.7,11-1c8.9,6.8,19.1,13.4,24.8,22.5c18.1,28.7,35.4,58,51.1,88.1c6.5,12.5,13.4,16.3,26.7,13.7
		c10.3-2,21.1-1.8,31.6-1.4c3.7,0.1,7.2,3.7,10.8,5.8c-2.4,3.6-4,9.1-7.4,10.6c-7.5,3.3-15.3,6.2-23,9c-7.7,2.9-15.5,5.7-24,8.7
		c-62,25.1-124,4.1-180-28.9c-21-12-35,10-37,29c-3,46-3,100-51.9,121.5C1122.3,756.3,1121.4,755,1120.6,753.8z"/>
	<path d="M1005.7,1247.2C969,1278,914,1287,868,1275c-4-1-3-9-1-11c36-30,36-71,22-111c40,12,71,50,109.5,69.1
		C1009.7,1232,1011.4,1240.9,1005.7,1247.2z"/>
	<path d="M541,1209c-13,4-17,17-13,29c7-5,14-15,21-15c23,1,40-16,59-21c12-4,23,19,11,30c-24,21-47,42-76,56c-5,2-9,4-14,5
		c-5,0-10,1-14-2c-2-1-3-2-4-4c-5-7,2-15-3-22c-8,12-24,28-13,37c45,37,93-33,138-48c-37,29-69,64-113,81c-8,3-14-5-21-8
		c-4-2-10-2-14.9-0.1c-9.5,2.8-16.6,2.7-20.9-0.6c-4.3-3.2-5.9-9.5-1.9-19.8c1.7-4.6,4.7-9.6,3.7-14.6c-4-30,10-79,40-79
		c1,0-2,6-1,9c13-4,25-7,37.1-12.8L541,1209z"/>
	<path d="M1335,996.5c-27-45.5-33-99.5-51-149.5c-2-4-2-11,3-12c10-3,15,11,24,11c8,0-1-14,3-12c60,24,105,95,69,157
		c-5,9-15,12-24.3,16.5C1351.1,1009.9,1343.4,1007.4,1335,996.5z"/>
	<path d="M778.7,1304.1C772,1327,765,1358,738,1366c-6,2-12-2-14-7c-22-39-15-86,23-112c22-15,45-26,71-28c4,0,8,1,11,3c2,1,4,3,3,5
		c-15,20-38,30-48.1,53.2C780.5,1287.9,778.9,1296,778.7,1304.1z"/>
	<path d="M1114.5,1023.9c31.5-5.9,60.5-20.9,86.5-39.9c-6-1-13,0-18-4c28-19,53-62,84-54c22,5,24,56-1,70c-12,7-26,4-38,10
		c5-7,13-18,7-24c-2-3-8,2-12,4c-33,21-67,47-107.3,44.3C1115.2,1028.2,1114.9,1026.1,1114.5,1023.9z"/>
	<path d="M612.7,1076.1C630,1130,683,1152,728,1183c4,3,6,6,7,10c0,8-9,11-15,12c-10,3-21,5-31-1c-15-9-29-19-45-29c-4-3-7-6-9-10
		c-1-3,1-6,0-9c-14-25-35-49-27.4-79C609.3,1076.6,611,1076.4,612.7,1076.1z"/>
	<path d="M518.9,932.3c4.4,8.9,8.8,18.1,12.7,27.7c3.7,9.7,7.1,19.5,9.8,29.5c3,11.5,2.6,22-0.8,32.3C533,1037,525,1063,510,1060
		c-28-5-35-39-36-66c0-5,0-10,2-14c9-15,16-30,20-46c6,7,8,23,19,21.1C516.2,947.5,517.5,939.9,518.9,932.3z"/>
	<path d="M628.2,1049.5c6.8-1.5,16.8-2.5,17.8-0.5c17,36,33,71,67,96c23,17,68,22,64,50c-5,32-50,34-78,47c-6,3-14,2-21-1
		c-2-1-3-2-4-4c32-13,86-10,97-48c1-1-1-4-2-5c-20-14-42-20-63-31c-33-16-65-41-74.1-77.8C629.8,1066.6,628.5,1058,628.2,1049.5z"/>
	<path d="M554.4,1139.3C534,1102,544,1057,572.4,1027.4c4.1-4.7,8.3-9.3,12.4-13.8c-22.4-16.7-32.7-39.8-39.6-64.3
		c-2.3-8.2-4.3-16.5-6.3-24.8c-1.7-6.7,2.6-20.5,6.7-21.7c10.1-2.8,15.8,5.8,19,15.8c8.8,27.4,18.1,54.6,27.6,81.8
		c3.2,9,2.2,14.9-5.1,22.8c-4.7,5.2-9.4,10.6-14,16.9c-26.1,29.8-19.1,68.8-8.7,103.5C561.1,1142.3,557.7,1140.8,554.4,1139.3z"/>
	<path d="M606,1176.3c-3-5.3-7-10.3-10-15.3c31,10,83,27,79,63c-1,8-17,16-30,11c7-14,2-30-10.4-39.6
		C628,1189.6,618.2,1183.2,606,1176.3z"/>
	<path d="M558.1,1164.5C507,1128,419,1086,441,1014c2-6,16,6,19,15c18,56,58,96,97.7,135.4C557.8,1164.4,558.1,1164.5,558.1,1164.5z
		"/>
	<path d="M1151,576.7c0,6.3,4,15.3-2,19.3c-22-36-75-68-72-111c32,16,50,54,70.4,83.2C1148.4,569.8,1149.1,572.1,1151,576.7z"/>
	<path d="M1163.7,1352.8C1164,1288,1175,1223,1177,1158c0-4,1-10,7-11c1,62-12,122-3,185c1,3-1,7-2.2,9.6
		C1175.8,1346.7,1170.9,1350.8,1163.7,1352.8z"/>
	<path d="M1318.5,1103.1c21.5-4.1,40.5-14.1,59.6-24.3c6.5-3.9,12.9-7.9,19.5-12c0.4,5.5,0.8,7.2,0.4,7.4
		c-12.3,7-16.5,13.2-6.2,27.6c4.9,6.9,3.8,14.6-0.6,20.2s-12.1,9-20.6,7.1c-7.7-1.7-15.4-4.5-23.8-8.4
		C1338.3,1116.8,1328.9,1111.4,1318.5,1103.1z"/>
	<path d="M790.2,1181.4C806,1183,831,1186,837,1169c7-20-7-46,12-62c1,2,4,4,4,6c-3,20,5,38,4,58c-2,36-40,21-61.5,14.9
		C793.8,1184.4,792,1182.9,790.2,1181.4z"/>
	<path d="M1131.2,850.6c6.1,0,12.2,0,18.8-0.4c14,16.7,28,35.7,30,58.7c-14-13-34-18-42.2-37.1c-3.8-5.7-7.5-11.5-11.4-17.2
		C1128,853.4,1129.6,852,1131.2,850.6z"/>
	<path d="M1346.3,1152.5c-1.3,2.2-4,6.7-6.2,10.5c2,10.9,3.9,21,5.8,31.1c-1.4,0.4-2.8,0.8-4.2,1.2c-3.8-5.3-7.6-10.7-11.5-16.7
		C1316,1155,1301,1131,1295,1103c12,8,18,22,27.4,33C1328.8,1142.2,1335.9,1146.2,1346.3,1152.5z"/>
	<path d="M1438.6,989.2C1433,959,1424,929,1420,898c23,10,30,39,26.4,61.8C1445.4,969.5,1442.8,979.5,1438.6,989.2z"/>
	<path d="M776.6,1428.3c-6.2,5.1-10.3,9.4-15.4,11.9c-1.1,0.5-8.3-6.6-7.7-8c2.8-6.6,7.4-12.4,11.4-18.4
		C768.1,1417.7,771.3,1421.7,776.6,1428.3z"/>
	<path d="M585.9,1044.5C564,1069,557,1108,577,1135c-17-8-17-35-15-53c1-8,4-16,8-23c4-6,6-12,11.6-17.3
		C583,1042.6,584.4,1043.6,585.9,1044.5z"/>
	<path d="M541.1,1209.2C552,1198,576,1194,575,1176c1,0,4,1,4,1c0,20-23,25-38,32C541,1209,541.1,1209.2,541.1,1209.2z"/>
	<path d="M435.9,974.8C448,958,459,934,479,928c-15,14-29,28-39.4,45.7C438.4,974,437.1,974.4,435.9,974.8z"/>
	<path d="M782.3,285.3c3.6-2.9,7.4-7.4,9-6.8c9.3,3.6,15,1.9,18.5-2.2s5-10.4,5.5-15.9c2.3-21.9,18.1-30.8,33-41.7
		c16.8-12.2,33.4-24.8,49.6-37.8c7.7-6.2,12.6-3.5,15.7,3.8c2.8,6.3,5.3,12.8,7.8,19.2c2.5,6.5,4.9,12.9,7.3,19.4
		C954,272,932,324,897,364c-6,6-4,20-12,23c-33,9-46-39-69.5-55.7c-4.1-5.5-7.8-11.7-10.4-19c-1.7-4.9-5.2-9.3-9.3-13.7
		C791.7,294.3,786.8,290,782.3,285.3z"/>
	<path d="M764.5,512.2c-14.8,10.7-29.3,21.7-44.6,31.7c-2.3,1.5-9.3-0.6-11.6-3.2c-5.4-6.1-9.5-13.3-13.9-20.3
		C676,478,631,475,591,477c39-54,87-118,153-134c11-2,26,11,35,24c1,2,0,4-1,5c-28,20-47,48-46,80.7c-0.2,6.1,0,12.5,0.7,19
		c0.8,8.1,1.3,16.4,0.8,24.6c-1.1,18,3,21.4,19.4,15.2c3.2-1.2,6.6-1.7,10-2.5C763.4,510.1,763.9,511.1,764.5,512.2z"/>
	<path d="M649.9,557.8C649,571,641,582,631,586c-23,9-45,14-61,35c-4,5-11,8-17,8c-27,1-49,19-76,22c-3,0-6,0-8-2c-18-15,6-40,12-59
		c3-9,7-19,16-24c28-16,57-24,88-29c20-3,39,2,57.2,11.1C646.8,550.6,648.5,555.4,649.9,557.8z"/>
	<path d="M366.2,877.5C349,866,332,881,316,884c2,8,7,14,8,22c-6,1-11-1-17-1c2-8,6-19,0-22c-15-8-35,0-51-3c-15-2-31-8-43.6-19.6
		c-7-5.4-13.1-12-18.4-19.6c-2.6-3.8-3.3-8.9-5.6-15.7c6.2,1.5,9.5,2.2,12.7,3c0.8-0.8,1.6-1.5,2.4-2.3
		c-7.7-8.2-15.5-16.4-26.4-27.9c-1.8-16.1-0.9-17.1,15.8-9.8c1.7-3.9,3.5-7.8,5.2-11.6c23.1,3.2,22.7,3.1,28.8-18.7
		c0.9-3,8.7-7.4,10.6-6.2C261,764,298,787,284,818c-2,3-5,4-7,6c-15,8-32,1-48,4c16,35,67,16,94,3c1,13-4,30,9,38c2,1,5,0,6-1
		c7-17-2-34,0-51c1-1,2-3,3-3c15,10,14,44,34,36c11-5,17-17,22-28c0,22-21,38-31.1,55.8L366.2,877.5z"/>
	<path d="M449.6,746.3C440,752,427,764,417,755c-27-22-28-62-26-94c1-13,9-25,14-38c1-2,4-6,5-4c24,36,18,105,79,84
		c0,14-18,22-26,31.7C457,739.8,451.3,744.8,449.6,746.3z"/>
	<path d="M529.2,720.9C480,730,447,769,420,808c-11-18,14-36,26-48c18-20,46-26,60-49c28-45,67-84,120-89c9-1-1-7,0-14
		c1-5,7-7,12.2-8.2c5.3-1.2,9.8-5.2,15-7.1c8.2-3.1,16.7-5.5,25-8.3c7.7-2.6,15.4-5.4,23-8.3c4.8-1.9,9.2-5.6,14-6.1
		c4.8-0.5,11.3,0.7,14.3,3.8c1.9,2,0.3,10.4-2.5,13.1c-7.2,6.9-15.3,13.4-24.2,18.1c-19.4,10.1-39.2,19.5-59.4,28.1
		c-6.6,2.8-14.6,2.7-22,3.3c-2.9,0.2-7.9-2.6-8.6-1.6C610,638,608,641,605,643c-24,16-64,21-63,54c0,3,6,2,10,2
		c-7,8-16,14-23.2,21.9L529.2,720.9z"/>
	<path d="M340.4,775.1C322,748,302,721,272.6,706.1c-9.2-5.2-12.1-11.4-6.3-21.5c6.6-11.5,11.4-24,18-35.4c1.6-2.7,7.7-5.2,10.9-4.3
		C353,664,366,734,368,787c1,3-1,7-4,7c-2,1-6-1-7.6-3C351.6,786.4,346.4,780.5,340.4,775.1z"/>
	<path d="M295.1,467.8c6,2.9,11.1,6.2,15.6,10c4.4,3.8,8.2,8,11.3,12.6c15,21.6,20,56.6-8.1,71.5c-8.6,5.3-17.3,8-26.3,8.7
		c-9,0.7-18.2-0.7-27.4-3.3c-9.3-2.6-12-8.8-7.1-17.8c11.2-20.6,22.4-41.3,33.3-62C289.5,481.8,291.7,475.6,295.1,467.8z"/>
	<path d="M430.5,908.4C423,935,413,984,384,985c-22,1-30-33-20-53c7-15,15-29,26-42c3-3,7-8,12-5s8,9,13.2,12.4
		C420,901.1,425.1,904.7,430.5,908.4z"/>
	<path d="M306.1,415.7c10.6,8.4,22.6,15.5,31.6,25.4c4.8,5.2,9.5,10.5,14.1,15.8C368,475,384,494,395,516c0,1-1,3-2,4
		c-26,11-45-26-65.6-39.2c-5.7-5.9-10.9-12.1-15.6-18.8c-4.7-6.7-9-13.9-12.7-21.5c-3.9-8.1-4-16.5,7.7-19.3c-3,14.9,7.4,20.1,21,28
		c-3.8-15.1-7.9-24.9-21.4-27.6c0.1-2.1,0.1-4.1,0.2-6.2C306.5,415.4,306.1,415.7,306.1,415.7z"/>
	<path d="M528.8,720.9c2.2,3.1,2.2,7.1,1.2,9.1c-20,35-25,74,0,109c2,3,1,9,0,9c-22-4-42-22-48-44c-3-12,5-24,12-35c2-4,3-10,1-11
		c-16-8-27,21-42,28c5-16,20-24,33-33c14-12,29-20,43.2-32.1C529.2,720.9,528.8,720.9,528.8,720.9z"/>
	<path d="M511.8,533.4C554,510,613,472,651,507c9,9,25,27,29.1,45.8c0.6,2.3,0.7,4.7,1.7,12.1c-6.4-5.4-10.6-7.4-12.3-10.6
		C641,501,574,518,527,535c-5,1-10-1-14.8-2.1C512.2,532.9,511.8,533.4,511.8,533.4z"/>
	<path d="M212.4,903c14.6,3,30.6,11,32.6,27c3,24-20,41-37,55c-3-27,1-54-14-80c-8-14,14-26,29-24c-1,6-2,11-4.1,16.9
		C218.5,899.5,215.9,900.4,212.4,903z"/>
	<path d="M360,664.4c-4-13.4-10-24.4-14-37.4c34,48,44,109,60,165c-4,1-9-1-10-4c-28-50-33-104-65-153c-2-3,0-7,1-11
		c15,8,19,25,23.5,40C357,664.1,358.5,664.2,360,664.4z"/>
	<path d="M386.8,1057.8C369,1069,359,1037,346,1028c15-14,27,13,38.2,22C385,1052.6,385.9,1055.3,386.8,1057.8z"/>
	<path d="M365.9,877.8C382,869,392,854,406,843c-18,19-32,64-64,52c8-5,18-10,24.2-17.5C366.2,877.5,365.9,877.8,365.9,877.8z"/>
	<path d="M220,581.1c5.4,1.9,10.8,3.8,16.2,5.7c1.1-1.5,2.2-3,3.3-4.6c-6.9-5.8-13.9-11.6-20.8-17.4c0.8-1.5,1.7-2.9,2.5-4.4
		c5.3,2.5,11.3,4.1,15.8,7.6c6.5,5,12.1,11.2,17.6,17.3c2,2.3,2.6,5.9,3.9,8.9c-3.7,1.1-8.1,4.1-11,3c-9.9-3.7-19.3-8.8-28.9-13.4
		C219.1,583,219.5,582.1,220,581.1z"/>
	<path d="M480.2,531.8C472,553,455,571,439,587c9-21,20-43,41.3-54.6C480.3,532.3,480.2,531.8,480.2,531.8z"/>
	<path d="M612.2,368.6C606,372,600,387,593,378c-7-10,1-20,9-24c5-3,12,4,18.5,3.5C617.7,361.2,614.9,365,612.2,368.6z"/>
	<path d="M815,444.7c4.3,5.5,9.6,9.8,8.8,11.8c-2.2,5.7-6.8,10.6-10.5,15.7c-1.2-0.7-2.4-1.5-3.6-2.2
		C811.2,462.9,812.7,455.9,815,444.7z"/>
	<path d="M756,547.5c-6.7,5-13.4,10-20.1,15c-1.2-1.6-2.5-3.3-3.7-4.9c6.8-5,13.5-10,20.3-15C753.6,544.2,754.8,545.9,756,547.5z"/>
	<path d="M1162.6,420.6C1120,458,1051,431,1006,408c-13-6-22-17-30-29c-1-2-2-5-2-7c6-20,32-20,49-21c32-3,62,2,95-3
		c30-6,43,22,42.6,47.7C1161.4,404.6,1161.7,413,1162.6,420.6z"/>
	<path d="M936.2,400.5C983,428,1040,496,1013,555c-4,8-10,14-17,20c-3,2-6,5-10,6c-3,0-7,1-10-1c-10-7-15-17-22.2-25.7
		c-4.1-5.1-8.2-10.2-12.3-15.2s-8.3-10.1-12.6-15s-8.5-9.9-12.9-14.7c-4-5.3-11-11.3-8-16.3c15-24,25-47,25.6-74
		C934.3,413.4,935.2,407.4,936.2,400.5z"/>
	<path d="M1031,465.3C988,450,961,408,941,369c4-1,8-4,10-2c27,22,43,51,69,74c4,5,8,11,11,16.5
		C1030.9,460.1,1030.9,462.6,1031,465.3z"/>
	<path d="M1180,381.7c4-6.7,8-15.7,1.3-21.6c-14.7,0.9-13.5-12.2-18.1-19.6c-2.1-3.4-0.6-9.2-0.7-13.9c5.3,0.6,12.8-0.9,15.6,2.1
		c7.4,7.6,14.7,16.4,18.7,26.2C1203,382,1230,417,1210,440c-2,3-10,1-12-2c-7-9-8-19-10.8-28.7
		C1184.7,400.2,1182.4,390.8,1180,381.7z"/>
	<path d="M869,554.2c12.8,1.7,20.1,1.1,12.9-11.1c4.9,3.3,9.7,6.6,14.6,10C886.5,566.4,885.7,566.6,869,554.2z"/>
	<path d="M652.9,841.1c-8.9-0.6-17.8-1.3-26.6-1.9c0.1-1.7,0.3-3.5,0.4-5.2c8.9,0.6,17.8,1.2,26.6,1.7
		C653.2,837.4,653,839.2,652.9,841.1z"/>
</g>
</svg>
