<svg version="1.1" id="Ebene_1" xmlns="http://www.w3.org/2000/svg" xmlns:xlink="http://www.w3.org/1999/xlink" x="0px" y="0px"
	 viewBox="0 0 1600 1600" style="fill: #ff0000; enable-background:new 0 0 1600 1600;" xml:space="preserve">
<g>
	<path d="M71.8,554.9c5.9-4.1,15.3-5.9,11-17.3c-2.5,0.7-5,1.4-9,2.5c2.7-10.1,16.7-15.2,9.5-27.1c11.6-1.5,14.3-4.6,13.1-19
		c-0.5-6.9,1.1-10.7,7.4-13.5c2.2-1,3.7-4.2,5-6.7c2.7-5.2,5.2-10.5,7.6-15.9c1.3-3.1,2.7-6.3,2.9-9.6c0.3-5,10-19.6,14.8-21.2
		c10-3.3,13.6-9.7,11.1-20c7.4-5.7,7.4-5.7,6.7-18.6c8.7,1.3,10.6-4.4,13.6-11.3c4-9.1,5.6-19.3,14.6-26.8
		c7.6-6.3,11.6-16.8,17.7-25.1c3.7-5.1,8.4-9.4,12.4-14.3c8.5-10.3,16.5-21,25.2-31.1c6.4-7.4,10.7-17.6,22.7-18.6
		c2.1-0.2,5.6-3.1,5.8-5c0.6-6.7,5.7-8.6,10-12c3.9-3.1,7.4-7.1,10.1-11.3c4-6.3,7.1-12.5,16.5-8.5c4.4,1.9,7.8-0.8,7.5-5.7
		c-0.8-12.4,7-19.9,15.6-26.4c9-6.8,18.9-12.6,28.4-18.9c0.9-0.6,2-1.5,2.9-1.4c11.3,0.6,17.8-6.2,23.3-14.8c0.9-1.4,3-2.1,4.6-3
		c3.9-2.3,7.9-4.3,11.6-6.8c4-2.7,7.7-5.8,12.3-9.3c1,5,1.7,8.5,2.8,14c2.7-5.6,4.2-8.7,5.8-12c5.1,3.4,9.4,6.1,13.6,8.9
		c0.6-0.6,1.2-1.2,1.8-1.8c-0.4-1.7-0.5-3.5-1.2-5.1c-4.7-10.2-1.1-17.2,9.8-19.1c3-0.5,5.9-1.4,8.7-2.3
		c11.9-3.5,15.2-1.3,17.2,11.4c0.4,2.5,1.2,5.4,2.8,7.2c1.4,1.5,4.5,2.4,6.4,2c1.4-0.3,2.6-3.3,3-5.3c0.4-2.1,0.2-4.5-0.4-6.5
		c-2.5-8.7-5.2-17.4-8.3-27.6c16.9,1.7,28-7.6,39.7-17.1c5.4-4.4,13.5-5.5,20.5-7.8c11.5-3.9,22.8-8.1,34.5-11
		c6.3-1.6,4.5,3.8,4.1,7.5c-0.3,3.5,0.1,7,0.1,10.5c1,0.1,2,0.2,3,0.2c2.1-6.5,4.1-13,6.1-19.1c6.3-4,13.4-8.6,20.6-12.9
		c1.5-0.9,3.6-0.8,5.5-0.9c3.7-0.2,7.5-0.8,11.2-0.4c11.6,1.2,21.4-1.9,30.5-9.4c3.7-3.1,7.3-1,6.3,4.9c-0.4,2.6-1.2,6.2,0.1,7.8
		c5.7,6.6,3.7,11.8-3.5,17.3c10-2.9,11.4-6,10.1-14.4c-0.5-3.2,0.4-7.8,2.5-10.2c6.7-7.6,15.2-11.9,25.8-12.8
		c10.8-1,21.6-3.4,32.3-5.2c7.8-1.3,15.5-3.3,23.3-3.9c2.7-0.2,6.8,2.6,8.3,5.1c4.8,7.9,12.8,11.2,20.2,10.2
		c5.6-0.8,10.9-7.1,15.5-11.7c3.2-3.2,5-7.7,7.7-9.2c7.2,1.2,14.8,4.2,21.5,3c7.5-1.3,13.4,11,22.1,0.6c3.6-4.4,13.5-3.5,22.2-5.4
		c-0.4,2.8-0.9,6.8-1.7,12.4c3.5-0.8,6.9-1,9.7-2.4c5.5-2.6,10-2.6,15,1.7c5,4.2,11.1,4.8,17.5,1.4c2.3-1.2,6.6-0.6,9,0.8
		c4.7,2.8,7.3,5.1,14.6,3.7c11.3-2.2,24.8-4.7,35.4,6.2c7.5,7.7,12,6.4,17.2-2.1c0.8-1.4,5.7-2.1,6.8-1.1c3,2.8,5.1,6.6,8.4,11.3
		c3.3,0.4,8.2,1.8,13,1.5c6.7-0.3,11.3,1.5,15.5,7c1.8,2.3,8.2,3.6,10.6,2.2c7.6-4.6-0.8-6.9-3.4-11c7.5,0.9,13.5,1,18.4,7.4
		c2.8,3.6,8.7,4.9,13.2,7.2c0.6-0.7,1.2-1.3,1.8-2c-0.5,3.3-0.9,6.7-1.4,10c0.5,0.3,1,0.6,1.5,0.8c1.4-2,2.5-4.1,4.1-6
		c3.2-3.9,6.6-4.2,12.2-4.3c12.8-0.2,14.4,11.5,22,16.3c4.8,3,9.2,6.5,13.6,10c2.4,1.9,4.3,4.4,6.8,6.9c0.7-0.5,1.7-1,2.4-1.7
		c2.1-2,5.1-6.1,6.2-5.7c4.4,1.9,10.8,4.4,11.8,8c2.1,7.4,4.6,9.1,11.3,5.9c1.4-0.7,3.8,0.6,5.8,1c-0.6,1.9-0.8,4.2-1.9,5.7
		c-1.6,2.1-3.9,3.5-5.1,6.8c7-1.8,13.9-3.5,21.2-5.4c-1.1-1.7-2.2-3.6-4.2-6.8c10.6,4.4,20.4,7.1,28.5,12.4
		c6.4,4.2,11,11.5,15.8,17.9c2.9,3.9,4.5,8.7,6.7,13.1c3.4-3.3,6.8-6.7,11.3-11.1c1.5,2.7,3.6,6.1,5.5,9.8c2,4,1.6,10,9.3,8.7
		c1.7-0.3,4.3,4.6,7.6,8.5c-3.6,0.1-5.2-0.3-6.5,0.2c-2.1,0.8-4.1,2.2-6.1,3.3c1.9,1.5,3.6,3.9,5.7,4.4c5.3,1.2,10.8,1.5,16.8,2.3
		c-0.5-2.2-1.3-5.6-2-8.9c0.5-0.6,1-1.2,1.5-1.8c5.2,3,11.2,5.2,15.6,9.1c9.5,8.4,17.7,17.9,29.9,23.4c5.5,2.5,8.5,10.4,13,15.5
		c2.9,3.2,6.8,5.4,9.8,8.5c2.1,2.2,3,5.6,5.1,7.8c2.7,2.9,6,5.5,9.3,7.7c3.4,2.4,7.9,3.5,10.6,6.4c7,7.3,14.7,14.4,19.5,23.1
		c10,17.9,28.7,27.9,39.1,44.4c7.6,12,23.5,18.7,23.7,35.7c0,2.2,5,4.1,6.5,6.7c3.7,6.6,4.6,13.4-2.2,21.5c11.3-3.5,17.3,0.9,21.3,9
		c3.9,7.7,8,15.3,12,23c0.4,0.7,0.5,2.1,1,2.2c10.7,2.2,6.3,10.5,7.2,16.8c0.3,2,1.2,5.1,2.6,5.7c13.9,5.2,12.4,19.1,17.3,29.5
		c3.8,8.1,7.1,16.8,12.5,23.8c3.6,4.7,3.6,8.7,3.2,13.5c-0.9,11.7,2.4,17.2,13.1,23.2c1.6,0.9,2.7,4.1,2.6,6.1
		c-0.9,11.9,3.3,22.1,9.7,31.7c0.7,1.1,1.4,2.4,1.7,3.7c2.6,12,5.1,24.1,7.8,36.2c0.9,4,1.4,8.5,3.6,11.7c3.9,5.6,0.8,9.7-1.5,14.2
		c-1.9,3.7-3.9,7.3-6.5,12c3.9,0.8,5.5,0.8,6.9,1.4c1.3,0.5,2.4,1.6,3.6,2.4c-1.4,1-2.6,2.4-4.1,2.9c-1.5,0.5-3.3-0.1-4.9,0.2
		c-4.1,0.8-5.3,2.7-3.3,7c1.8,3.7,1.6,8.4,3.3,12.2c2.2,5,4.6,10.3,8.2,14.3c3.8,4.2,7.2,7.7,3.7,13.3c3.2,3.2,6.2,6.2,9.1,9.1
		c-0.3,0.5-0.7,1-1,1.5c-1.8-0.6-3.5-1.2-7.1-2.4c3.1,8.3-2.7,16.5,5.7,23.5c3.2,2.7,3.1,9.5,4.5,14.4c-1,0.5-2,1-2.9,1.5
		c-1.8-1.7-3.4-3.7-5.5-4.9c-1.7-1-4-1.1-6.1-1.5c0.7,1.8,0.9,4.3,2.3,5.2c5.4,3.6,11.1,6.6,18.4,10.9c-4.9,0.1-8,0.1-14,0.2
		c3.3,3.3,5.2,4.9,6.6,6.9c1.5,2.2,4.1,5.3,3.5,7c-2.6,7.2-1.1,15.8-9.3,21.2c-5.1,3.4-1.9,15.8,3.9,19.2c1.4,0.8,2.5,1.9,2.5,1.9
		c-1.4,5.5-2.5,10-3.7,14.5c3,0.7,6,1.4,9.6,2.3c0.3,10.5,0.2,10.7-9.4,20.4c0.7,0.4,1.4,0.7,2.1,1.1c2.1,0.9,4.3,1.9,6.5,2.8
		c-1.9,1.3-3.8,2.7-5.8,3.9c-2.7,1.6-6.2,2.4-8.2,4.6c-6.6,7.3-4.7,12.4,4.8,15.3c2.7,0.8,5.1,2.5,7.6,3.8c-0.3,0.8-0.5,1.6-0.8,2.4
		c-2.5,0.2-4.9,0.5-8.5,0.8c-2.1,15.9-3.8,31.8-6.6,47.4c-1.6,8.7-5.5,16.9-7.7,25.5c-4,15.9-6.9,32.1-11.3,47.9
		c-2.9,10.5-3.9,22.2-13.3,30c-1.1,1-2.3,2.8-2.2,4.2c1,15.8-7.1,28.7-13,42.4c-0.9,2-1.7,4.1-2.3,6.2c-2.5,8.9-4.3,18.2-7.7,26.8
		c-2.5,6.4-7.2,12-10.6,18.1c-1.4,2.5-1.8,5.6-3,8.2c-3.3,6.8-6.6,13.5-10.3,20.1c-5.8,10.2-11.7,20.3-17.9,30.2
		c-6.6,10.6-13.2,21.3-20.5,31.5c-12.8,18.1-26.1,35.7-38.9,53.8c-5.2,7.3-9.1,15.6-14.8,22.4c-3.2,3.8-8.9,5.5-13.5,8.2
		c0.1,0.1,1.6,1.4,3.7,3.3c-2.4,2.9-4.5,5.7-6.9,8.3c-13.5,14-26.1,28.9-40.9,41.4c-16.4,13.9-30.7,30.4-50.7,40.2
		c-8,4-14.2,12.5-20.1,19.7c-5.3,6.6-5,7.2-10.7,5c-9.8,7.5-18.5,14-27.1,20.8c-6.4,5-12,11.3-19,15c-14.6,7.8-26.9,19.1-43.1,24.8
		c-11.2,3.9-20.9,12.9-30.3,20.8c-8.1,6.8-16.8,9.1-26.7,7.8c-5.9-0.8-10.1,0.4-14.7,4.8c-6.2,6-13.4,14-20.9,15
		c-9.6,1.3-16,6.7-23.8,10.3c-8.3,3.8-14.6,0.9-20.8-4.6c-1.6-1.4-4.7-1-7.1-1.5c0.8,2.4,1.3,4.9,2.4,7.2c1.1,2.3,4.2,5.6,3.6,6.5
		c-2.1,2.9-5.3,6.6-8.4,7c-3.8,0.5-10.2-0.9-11.7-3.6c-4.2-7.7-8.5-4.1-12.7-1.3c-3.1,2-5.4,5.3-9.1,9.1c-1.5-4.9-2.8-9.1-4.3-13.8
		c-9.3-0.7-9.3,9-14.6,14.1c-6.2-4.2-13.2-8.1-18.9,0.3c-2.2,3.2-3,7.3-4.5,10.9c0.7,0.7,1.4,1.4,2.1,2.1
		c-16.4,2.2-32.8,4.8-49.3,6.4c-2.1,0.2-5.1-3.7-7-6.3c-0.9-1.2,0-3.7-0.1-5.6c-0.1-4.5-0.2-9-0.4-13.5c-4.3,3.8-8.7,7.4-12.7,11.5
		c-1.3,1.4-1.3,4-2,6.3c-3-0.4-5.6-0.7-8.2-1.1c-0.4,0.7-0.9,1.3-1.3,2c3.2,2.4,6.5,4.7,9.7,7.1c-0.2,0.9-0.3,1.8-0.5,2.7
		c-5-0.3-11.7,1.3-14.8-1.4c-7.4-6.3-5.8-14.6,0.5-21.9c-4.4-1.8-7.8-3.3-11.3-4.8c-14.5,6-5.4,19.1-7.6,27.7
		c-4.9,0.2-8.9,0.6-12.9,0.6c-4-0.1-8-0.6-13.6-1c10.8-10.8,9.1-16.6-7.1-28.9c-3,7.8-15.1,9.7-12.3,21.2c0.1,0.5-0.2,1.1-0.5,1.5
		c-0.6,1.2-20.4,6.4-21.7,6c-1.9-0.6-4.5-2-5.9-1.2c-5.6,3.2-10.2,2.4-15.1-1.6c-1.3-1.1-4.5,0.2-6.8,0.4
		c-5.1,0.5-10.2,1.1-17.2,1.9c2-4.1,2.9-5.9,4.3-8.7c-2.4,0.4-4.7,0.2-5,0.9c-3.6,7.8-10.4,6.1-16.4,5.4
		c-11.4-1.3-22.8-3.4-34.1-5.5c-1.8-0.3-4.3-2.8-4.4-4.4c-0.3-4.8-1.9-5.9-6.7-5.4c-6.9,0.8-13.8,0.4-20.8,0.3
		c-2.4,0-5.8-0.1-7.1-1.6c-5-6-10.7-6-17.7-2.4c-0.2-2.8-0.3-4.5-0.6-7.7c-4.4,1.6-8.1,3.7-12.1,4.1c-2.4,0.3-5-2.1-7.1-3.7
		c-4.5-1.2-9-2.4-13.5-3.6c0.1-0.3,0.3-0.5,0.4-0.8c-3.1,0-6.4,0.7-9.2-0.2c-22.6-7.4-45.6-14.1-67.5-23
		c-21.8-8.9-43.1-19.3-63.7-30.7c-25.2-13.8-50.2-28.2-73.9-44.4c-24.2-16.5-47.4-34.5-69.6-53.6c-24.9-21.4-49.3-43.7-71.7-67.7
		c-19.4-20.8-36.5-43.9-53.4-66.9c-14.5-19.8-28.7-40.1-40.6-61.6c-16.3-29.1-33.4-58-44.4-89.9c-5-14.5-12.6-28.2-17.5-42.7
		c-5.1-14.9-8.4-30.3-12.7-45.5c-1.8-6.3-4.9-12.2-6.4-18.6c-5-21.8-9.6-43.8-14.3-65.7c-2.2-10.5-4.6-21.1-6.3-31.7
		c-0.7-4.5-0.1-9.3,0-13.9c0.3-9.2,0.7-18.4,0.8-27.7c0-0.9-2-1.8-3.7-3.3c13.5-8.8,3.1-21.7,5.6-32.6c-7.7-3.2-7.9-6.5-6.2-14.5
		c2-9.3,4.6-20.1,1.9-28.5c-4.3-13.1,0.7-24.2,2.6-36c1.2-7.7,4.7-15.1,7-22.7c0.4-1.2,0.5-3.1-0.2-3.9c-6.4-7.7-2.2-15.3-0.1-23
		c0.5-2,0-4.2,0.3-6.3c0.6-3.9,1.8-7.8,2.2-11.8c0.8-7,1.1-14,2-21c0.4-2.9,1.7-5.7,2.7-8.5c4.2-11.3,8.7-22.4,12.4-33.9
		c0.9-2.7-2.1-6.4-1.7-9.5c0.9-6.6,1.7-12.6,8.7-17.3c6.6-4.5,11.4-12.3,15.7-19.5c2.7-4.4,0.5-9.1-5.3-10.6L71.8,554.9z
		 M419.3,231.5c-5-7.2-11.9,0.5-18.1-2.9c-0.2,6,0,11.4,1.4,16.4c0.8,2.7,3.8,4.7,5.8,7.1c1.5-2.6,3.6-5.1,4.4-8
		c1.3-4.8,0-10.8,6.5-12.9c5.6,4.7,9.8-0.2,12.4-3.3c3-3.6,3.7-9,5.9-14.6c-3.4,0.1-4.2,0-4.9,0.2
		C423.1,215.7,423,224.9,419.3,231.5z M334.5,593c3.1,0.5,6.3,1.3,9.5,1.6c2.7,0.2,5.4-0.1,8.1-0.1c-0.2-3.1,0.7-7-0.9-9
		c-1.4-1.9-6.5-3.3-8.2-2.2c-3.4,2.3-5.7,6.4-8.4,9.8c-0.6,1.8-2.2,4.3-1.6,5.2c5.2,7.5,1.3,14-1.5,20.8c-1.3,3-1.6,6.4-2.4,9.5
		c-2.3,8.3-4.8,16.6-6.9,25c-0.6,2.4,0.2,5.1,0.3,7.6c2.4-0.8,6-0.8,7-2.4c3.7-5.8,5.8-12.7,9.7-18.3c7.5-10.9,6-23.5,7.5-35.5
		c0.2-1.9-2.4-4.7-4.3-6.4C340.2,596.4,337.2,594.8,334.5,593z M147.6,749.3c-4.9-4.1-8.2-1.7-8.3,3.4c-0.2,6.4,0.6,13.1,2.4,19.3
		c2,7.2,1.4,13.3-2.8,19.3c-1,1.4-1.7,3.2-1.8,4.8c-0.3,3.6,0.1,7.2-0.2,10.8c-0.4,4-2.1,8.2-1.6,12.1c1.2,9.1-0.4,17-5.4,24.8
		c-1.6,2.5-0.2,7.1,0.3,10.7c0,0.3,5.6,0.6,5.9-0.2c2.9-6.7,5.9-13.5,7.5-20.6c3.8-17.3,6.5-34.8,10.3-52.2
		c1.8-8.3,1.4-15.4-4.1-22.4c-1.9-2.4-1.5-6.6-2.2-10.1c3.5,1.8,7,3.6,10.4,5.4c1.6-3.6,3.5-7.1,4.7-10.8c0.9-2.8,0.8-5.8,1.2-9
		c-1.7-0.3-3.5-0.5-5.5-0.8c0.4-2.6,0.8-4.8,1.2-7.6c-2.5,0.4-4.3,0.7-6.1,1c-0.2-0.7-0.4-1.5-0.6-2.2c2.8-2.4,5.6-4.8,8.4-7.2
		c-6.7,1.2-12.7,2.9-13.5,10.6c-0.4,3.7-1,7.4-1.5,11.2c-0.5-0.1-1-0.2-1.5-0.2C145.8,742.6,146.7,745.9,147.6,749.3z M131.5,595.5
		c-0.9-4-3.2-8.1-2.6-11.9c1.6-9.5,4.4-18.8,6.8-28.5c13.3,0.3-0.7,12.9,8.1,17.2c1.7-5,3.9-9.6,4.6-14.3c1-7,0.5-14.3,1.7-21.3
		c0.3-2,3.9-3.7,6.3-5c0.4-0.2,3.5,2.8,3.5,4.2c-0.2,6.8-0.4,13.7-1.9,20.3c-3.7,15.4-8.2,30.6-12.2,45.9c-1.8,6.8-4,13.7-4.3,20.6
		c-0.4,10,0.8,20,1.4,32.5c3.4-1.9,8.2-2.9,9.1-5.4c3.5-9.4,5.7-19.2,8.5-28.9c0.9-3.1,1.6-6.4,3.1-9.2c4.2-7.6,10.1-14.6,6-24.4
		c-0.6-1.4,0.6-3.7,1.3-5.4c3.4-8.6,8.9-16.9,9.9-25.7c1.5-12.8,3.1-24.4,14.6-32.3c0.3-0.2,0.2-1,0.1-0.2c-3.2-2.4-7.7-4-8.2-6.5
		c-1-4.8,1.6-8.4,7.6-7.7c6.3,0.7,7.3-1.6,6.7-8.2c-0.7-7.9-5.9-15.6-1-24.4c3-5.3,3.3-12.2,4.2-18.4c1-6.5,4-6.8,8.1-4.5
		c-2.2,13.5-4.3,26.2-6.4,38.9c0.7,0.2,1.5,0.4,2.2,0.7c1.4-2.2,3.1-4.3,4.3-6.7c5.8-11.9,8-24.2,5.2-37.5c-1.7-7.9-0.9-7.9-8.4-4
		c-1.5,0.8-4.1-0.6-6.3-0.9c0.8-2,1.2-4.4,2.5-6c0.8-1,3.3-0.5,4.6-1.4c2.9-1.8,7.4-3.6,7.9-6.1c0.6-3.1-2.1-6.9-3.8-11.5
		c-3.5,5-5.8,8.1-8,11.2c-2.5-2.9-5-5.8-7.8-9.1c-5.1,5.9-9.4,11.3-14.3,16.1c-1.3,1.3-4.3,0.8-6.5,1.1c-0.2-1.9-0.6-3.8-0.7-5.7
		c0-2.4,0.2-4.8,0.3-7.2c0.1-2,0.1-4.1,0.3-6.1c0.3-3,1.7-8.2,1-8.5c-4.3-1.7-9-2.3-13.6-3.3c-0.3,0.9-0.6,1.8-0.9,2.7
		c1.1,1.5,2.2,2.9,3.2,4.5c4,6,3.6,17,0.5,21.4c-3.7,5.2-7.2,10.9-9.2,16.9c-3.5,10.4-3.1,10.7-14.5,7c2.7,7.2,5,13.2,7.3,19.2
		c-0.7,0.5-1.4,1.1-2.2,1.6c-4.5-6.5-9.6-5.2-14.7-2.1c-5.5,3.4-4.3,8-2.6,13.1c0.8,2.5,0.8,5.5,0.2,8.1c-2.1,8.2-6,16.2-6.6,24.4
		c-0.7,9.9-3.3,17.6-10.9,21.3c0.1,6.1,0.1,10.9,0.3,15.6c0.2,4.8,1.2,9.7,0.8,14.4c-0.3,3.4-2.3,6.7-3.7,9.9
		c-0.9,2-3.5,4.6-2.9,5.6c4.3,7.9,1.9,14.1-3.7,20.1c-1.3,1.4-1.2,4.1-1.9,6.2c-1.2,3.5-2.4,7-3.6,10.5c-0.9,2.5-2.6,5-2.6,7.5
		c-0.2,8.6-1.7,16.6-6.5,24.2c-1.8,2.8-1.5,9.4,0.6,11.7c8.8,9.6,11.1,9.1,19.4,0.7c-0.2-4.5-0.4-7.8-0.5-11.1
		c3.9,0.6,7.7,1.3,12.9,2.2c1.9-3.1,1-7-4.7-8.9c-5.1-1.7-7.5-4.9-6-9.9c1-3.3,3-7.3,5.7-8.9c1.4-0.8,5.5,2.9,9.7,5.4
		c1.1-2.5,3.5-5.3,3.6-8.3c0.6-13.3,3.5-25.8,9.3-37.8c1.7-3.6,2.5-7.8,3.1-11.8c0.3-1.7-1.1-3.6-1.7-5.5c-0.9-0.2-1.9-0.3-2.8-0.5
		c-2.8,6-5.6,12-8.4,18C131.2,595.6,131.5,595.5,131.5,595.5z M852.3,449.9c4.4,6.4,8.7,12.9,13.4,19.9
		c12.4,1.7,26.1,13.3,25.7,23.4c-1.6-1.6-2.1-4.1-3.7-5.2c-4.5-3.4-9.3-6.6-14.3-9.2c-2-1.1-6.3,0.5-7.2-0.7
		c-5.2-7.7-13.5-7.6-21.1-9.3c-2.1-0.5-4.8-0.6-6.1-2c-7.6-8.4-15.7-9.1-25.7-3.8c-6,3.2-11.1,0.3-13-5.4c11.6-1.5,11.6-1.5,13-5.7
		c-2.9-2.9-5.5-5.3-8.4-8.2c-3.5,2.3-7.2,4.9-11.5,7.7c0.6-1.9,0.9-3.1,1.2-4.3c-5.1,1.6-9,4.6-12.8,7.6c-2.4,1.9-4.4,4.4-7.1,5.6
		c-9.9,4.5-22.5,5.9-21.7,21.6c-6.2-1.4-12.6-2.8-14.9,4.6c-3,9.7-11.3,13.3-18.7,18.2c-2.5,1.7-4.4,4.2-6.7,6.2
		c-7.8,6.9-15.6,13.9-23.5,20.7c-3.8,3.3-9.2,5.7-11.3,9.8c-4.6,9-11.7,12.1-20.9,13.1c-2.5,0.3-7,3.4-6.8,4.2
		c2.1,8.6-6.1,11.9-8.3,18.5c-2.7-0.8-4.8-1.5-6.9-2.2c-3.1,9.4-7.2,16.6-17,20.1c-4.3,1.6-7.1,7.2-10.6,11.1
		c-0.7,0.8-1.3,1.6-2.1,2.7c-2.4-1.1-4.4-2-7.5-3.4c-0.8,7.9-2.9,13.3-10.1,17.8c-3.8,2.4-9.2,4.7-12.2,8.4
		c-6.6,8.3-15,12.8-24.9,15.8c-3.3,1-7.3,3.9-8.6,6.9c-2.6,6.1-6.6,7.9-12.7,8.2c-2.5,0.1-5.7,2.3-6.9,4.5c-0.8,1.4,1.5,4.5,3,8.2
		c-3.9,3.4-8.5,7.3-15,12.9c-1.2-10.9-2.1-19.1-3-27.4c-7.1,0.3-17.2,15.2-13.5,21.3c2.8,4.5,1,6.2-1.9,8.7
		c-1.8,1.6-3.1,3.7-4.3,5.8c-3,5.4-5.6,10.9-8.7,16.2c-5.1,8.7-10.5,17.3-15.7,26c-1.8,3-2.5,6.8-4.8,9.1
		c-8.6,8.6-9.8,18.1-4.6,28.8c0.7,1.5,0.4,3.4,0.6,5.2c-6.7,0.7-12.6,1.3-18.6,1.9c-0.5-1.3-1.2-2.8-2-4.7c-5.4,3-6.7,7.4-3.7,11.1
		c1.2,1.5,6.6,0.1,10-0.6c2.3-0.5,4.3-2.2,7.9-4.1c-2.4,7.4-4.3,12.7-5.8,18.1c-0.6,1.9-0.5,4-0.7,6.1c1.8,0.1,3.6,0.4,5.4,0.4
		c1.6,0,3.1-0.1,5.3-0.2c0.3,3.2-0.1,6.2,1,8.5c1.9,4,4.1,8.4,7.4,11.1c6.7,5.5,14.1,10,21.4,14.8c6.8,4.5,13.9,8.5,20.5,13.3
		c7.6,5.6,16.7,2.8,24.9,5.1c5.4,1.5,12.1,0.4,17.8-1.1c6.5-1.8,12.6-5.2,18.7-8.1c4.3-2,8.4-4.6,12.8-6.6c4.7-2.2,9.8-3.6,14.3-6.1
		c11.7-6.6,16.2-21.5,29.8-26.2c1.4-0.5,2-3.7,2.6-5.8c2.1-7.5,6.2-8.6,11.2-3.8c3.2-4.4,5.9-12,9.8-12.7c9.7-1.7,15-8.6,21.5-14.1
		c5.2-4.4,9.9-10,17.4-1.3c-5.5-8.5-1.3-13.5,3.7-18.3c2.6-2.5,5.1-5,7.8-7.4c12.6-10.8,25.8-21,37.7-32.6
		c11-10.7,18-25.6,33.9-31.1c1.6-0.5,2.6-2.7,3.8-4.2c4.9-6.3,9.7-12.5,13.5-17.4c8.3,3.1,14,5.2,21.4,7.9
		c-3.1-8.9-9.6-17.4,0.9-21.7c3.7,1.5,7.1,4,8.7,3.2c2.3-1.2,3.3-4.8,4.9-7.4c-3.5-1.3-7-2.6-11.1-4.1c6.5-3,14.4-4.9,19.8-9.6
		c6.4-5.6,10.6-13.6,16-20.5c3.1-4,6.1-8.3,10.1-11.2c9.9-7.3,22.2-11.4,29.6-22.4c2-3,6.7-4.2,10.3-6c2.3-1.2,4.8-2,7.9-3.2
		c-9-8.1-11.8-28.8-6.2-37.8c0.6,2.9,1.1,5.6,1.6,8.3c1,0,2.1,0.1,3.1,0.1c0.5-4,1.4-7.9,1.6-11.9c0.2-8.1-0.4-16.3,0.2-24.4
		c1-14.1-15.3-42.2-29.4-48.6c-6.6-3-13.8-4.5-20.8-6.7c-7.7-9.3-18.5-5.6-28.1-6.4c-1.4-0.1-2.9,1.8-4.4,2.8c4,2.5,6.8,4.3,8.1,5
		c6.7-0.1,12.1,0.1,17.5-0.2C847.6,451.3,849.9,450.4,852.3,449.9z M843.2,875.9c-0.9,3-1.2,5.5-2.4,7.5
		c-7.9,13.2-15.9,26.3-31.2,32.4c-1.5,0.6-3,1.7-3.8,3c-7.1,11.2-16.1,19.2-29.2,23.8c-7.2,2.5-12.9,10-18.8,15.8
		c-4.3,4.3-7.3,9.9-11.6,14.2c-4.8,4.7-10.4,8.8-15.9,12.8c-3,2.1-7.3,2.7-9.5,5.3c-4.4,5.2-16.4,0.2-15.6,11.8
		c-8.8,2.8-8.4,9.9-11.1,17.3c-3.3,9.4-10,18.2-10.7,28.6c-0.5,6.8-4.1,14.8,2.8,20.6c4.9,4.1,4.3,9.3,5,14.8
		c0.8,5.9,2.1,12.6,5.7,17c6,7.4,9.6,17.9,21,19.7c0.8,0.1,1.3,1.7,2.1,2.4c4,3.4,7.9,7,12.2,10c4.4,3.1,9,5.8,13.7,8.4
		c2.1,1.2,4.4,2,6.7,2.6c3.4,0.9,7,1.6,9.5,2.1c9.4-1.6,18.3-3.2,27.2-4.8c2.1-0.4,4.1-0.9,6.1-1.7c3.7-1.6,7.2-3.5,10.9-5.2
		c1.4-0.7,3.2-0.8,4.2-1.8c9.8-9.5,19.3-19.3,29.3-28.6c2.1-2,6-2,11.3-3.7c4.5-10.4,6.6-11.7,17.1-10.8
		c6.5-6.9,11.6-12.5,16.8-17.9c4.9-5.1,9.9-10.1,14.8-15.1c1.1-1.1,2.3-2.7,3.6-2.8c12.1-1.4,19.6-10.8,27.5-17.8
		c16.2-14.4,29.3-32.5,51.1-39.7c0.7-0.2,1.5-1,1.7-1.7c2.4-11.1,12.4-14.6,20.2-20.1c9.1-6.4,20.9-10,23.7-23.1
		c0.3-1.5,3.3-2.9,5.3-3.3c5.8-1.3,7.9-4.3,6.1-7.5c6.9-5.7,14.4-9.6,18.3-15.9c4.2-6.8,8.6-10.2,16.2-11.7c4.5-0.9,6.7-4.5,2.5-8.1
		c11.6-8.1,23.4-16.3,35.1-24.7c4-2.9,8.1-5.9,11.2-9.7c2.2-2.6,3.1-6.5,4.2-9.9c1-3.3,0.3-7.5,2.2-10c6.8-9.1,7.1-9.8,0.4-18
		c1.7-3.5,3.2-6.4,5.4-10.9c1-0.2,4.2-0.9,6.6-1.4c1.2-3.6,2.3-6.5,3.2-9.6c1.2-3.8,3.5-7.8,3-11.4c-1.5-12.4-6-23.7-13.2-34.1
		c-14-20.1-33-31.1-57.3-33.8c-24.9-2.7-45.5,9.3-66.8,18.8c-3.9,1.7-6,7.4-9.1,11.2c-1,1.3-2.4,2.2-3.7,3.3
		c-7.2,6.3-14.3,12.9-21.9,18.7c-3.1,2.4-7.5,3.3-11.2,4.9c-2.4,1-3.4,4.5-5.7,6.5c-10.8,9.1-22.1,17.8-33.1,26.6
		c-7.2,5.8-14.5,11.4-21.7,17.3c-5.3,4.4-10.4,9.1-15.8,13.3c-5.9,4.6-14.3,7.4-17.9,13.3C863.2,876.3,855.1,879.1,843.2,875.9z
		 M170.7,681.1c15.7-3.7,25.4-30.2,17.5-44.9c1.5-2,3.1-3.9,5.1-6.5c-3.9-0.7-6.7-1.2-10.3-1.8c1.3-3.5,2.2-6.2,3.2-8.9
		c0.8,0.7,1.5,1.5,2.3,2.2c3.2-2.2,8.3-3.9,9.1-6.8c3.6-12.2,5.5-24.9,8.7-37.2c2.8-10.5,6.6-20.7,9.7-31.1c1-3.4,1.6-7,2-10.6
		c1.1-9.6,1.9-19.3,3-28.9c0.4-3.3,1.7-6.5,1.5-9.7c-0.2-2.3-2.1-4.5-3.2-6.7c-1.8,1.8-4.6,3.2-5.3,5.4c-2.4,6.5-4,13.3-5.8,20
		c-0.3,1.3-0.5,3,0.2,4c3.6,5.6,0.3,9.7-3.3,12.9c-11,9.9-12.3,24.6-18.5,36.8c-1,1.9-0.8,5.1,0.1,7.1c5.7,13.3,4.1,22.5-5.5,33.1
		c-2.1,2.3-3.3,6.2-3.5,9.5c-0.4,5.2,0.5,10.4,0.6,15.6c0,2-0.2,5.1-1.5,6c-9.1,5.9-8,15.4-9.1,24.1c-1.2,8.9,0.3,19.3-3.8,26.5
		c-4.4,7.7-0.4,11.7,1.3,19.7c4.5-6.7,7.7-11.5,10.4-15.6C173.6,690.1,172.2,685.6,170.7,681.1z M342,224.6
		c-5.9,1.5-11.9,1.9-16.8,4.5c-7,3.8-13.2,9.3-19.1,13.7c-1.7,3.2-2.7,7-5.1,9.1c-3,2.6-7.1,4.2-10.9,5.5
		c-9.4,3-12.8,10.5-15.1,18.8c-0.7,2.5-0.6,5.2-0.9,7.9c-3.1-1.3-5.6-2.4-8.1-3.5c-0.3,2.7-0.6,5.5-1,8.2c-0.3,2.3-0.8,4.5-1.4,8.2
		c4.5-2.9,7.8-4.9,13.1-8.3c-5.3,10.7-0.2,14.5,7,16.6c1.4,0.4,4.6-1.2,5.2-2.5c1.7-4.2,2.4-8.7,3.7-13.6c-1.6-0.7-3.4-1.2-4.9-2.3
		c-2-1.5-3.7-3.3-5.5-5c1.9-1.2,3.8-2.7,5.8-3.5c1.4-0.6,3.3-0.7,4.8-0.4c6,1.5,7.7-2,10.3-6.6c3.3-5.9,8.3-10.9,12.6-16.2
		c0.7,0.4,1.4,0.9,2.2,1.3c-2.1,7.5-7.5,15.7,3.3,20.4c6.1,2.7,15-1.8,18.6-8.5c4.8-9,3.4-13.3-7.3-21.3
		C339,241.7,343.9,235.4,342,224.6z M117.2,795.3c0.9,0.1,1.8,0.2,2.7,0.3c0.8-1.6,2.1-3.1,2.2-4.7c1.8-18.3,4-36.7,5.1-55
		c1.2-20.4,9.8-38.2,19.4-55.5c4-7.1,2.9-11.9-2.7-16.4c-1.9-1.5-5-2.6-7.2-2.1c-1.4,0.3-2.1,3.9-2.9,6c-1.3,3.7-2.2,7.6-3.6,11.3
		c-1.4,3.7-3.6,7.2-4.6,11c-2.4,8.6-4.6,17.2-6.4,25.9c-1.5,7.3-2.8,14.7-3.3,22.2c-0.3,4.1,1.8,8.3,1.7,12.5c-0.2,12-1.1,24-1.5,36
		C116,789.7,116.8,792.5,117.2,795.3z M252.5,544c-2.4,0.1-4.8,0.7-7.1,0.3c-1.4-0.3-3.9-2.6-3.7-2.9c1.7-3.5,3.9-6.7,5.8-10
		c0.9-1.7,2.7-4.2,2.1-5.1c-1.1-1.8-3.7-3.9-5.5-3.7c-5.6,0.6-10.6,2.8-12,9.3c-3,14.4-6.2,28.8-8.9,43.3c-1,5.6-0.7,11.5-1.1,17.3
		c1.2,0.1,2.5,0.3,3.7,0.4c0.3-2.2,1-4.4,1-6.6c0-5.4,0.4-9.7,6.6-12.3C248.7,567.7,253.5,559.8,252.5,544z M300.5,709.6
		c1.1,0.4,2.2,0.7,3.3,1.1c5.8-9,12.1-17.9,17.3-27.2c5.9-10.5,5.7-10.9-4.8-16.8c-2.4-1.4-7.2-2.7-8.3-1.6
		c-2.3,2.4-3.4,6.4-4.2,9.8c-1,4.3-0.8,8.9-2,13.1C299.7,695.4,297.1,702.4,300.5,709.6z M390.3,813.7c-0.7,0-1.4,0-2.2-0.1
		c1.8,8.4,3.6,16.8,5.4,25.2c1.3-0.2,2.7-0.4,4-0.6c-0.6-6.2-1.4-12.4-1.6-18.7c-0.1-2,1.6-4.1,2.5-6.2c2.1,1.4,4.8,2.3,6,4.2
		c1.6,2.4,2.1,5.6,3.2,9.1c6.2-6.3,7.6-23.5,4-28c1-2.7,1.9-4.9,2.8-7.1c-2.7,0.1-5.5-0.1-8.1,0.5c-3.8,1-7.4,2.6-9.3,3.2
		C394.5,802.1,392.4,807.9,390.3,813.7z M199.2,712.1c2.7,3.4,4.9,6.2,7.7,9.8c7.1-22.2,0.8-46.8,19.8-64
		c-13.8,1.9-15.7,14.6-18.3,22.6c-3,9.7-7.2,17.1-13.6,24.3c-2.2,2.5-2.8,6.4-4.1,9.7c0.7,0.3,1.5,0.6,2.2,1
		C195,714.4,197.1,713.3,199.2,712.1z M250.2,804.6c-2.4,1.8-4.7,4-7.4,5.3c-4.2,1.9-5.5,4-4.4,8.9c1.4,6.1,1.4,12.6,1.2,18.9
		c-0.2,4.6-2.2,9.1-2.4,13.7c0,1.9,2.8,3.8,4.4,5.7c2.1-2,5.8-3.9,6-6.1C248.9,835.5,249.5,819.9,250.2,804.6z M334.1,913.2
		c-0.7-0.3-1.5-0.6-2.2-0.8c0,8.5,0,17.1,0,25.6c-0.6,0.1-1.2,0.3-1.7,0.4c-1.3-1.6-2.5-3.3-3.8-4.9c-0.8,0.3-1.5,0.5-2.3,0.8
		c4.4,11.4-1,24.7,7,35.5c1.1,0,2.1,0,3.2,0c1.7-16.3,3.5-32.6,5.2-48.8C337.9,918.6,336,915.9,334.1,913.2z M475.2,671.1
		c2-2,4.7-3.5,5.4-5.8c0.7-2-0.8-4.8-1.4-7.2c-1.9,0.7-4.6,0.9-5.5,2.3c-5.3,8.8-8.9,18.2-7,28.7c0.9,4.9,2.9,9.6,4.3,14.4
		c4.5-6.9,13.2-11.9,5.7-20.3c2.7-0.3,4.8-0.5,9.2-1C481.5,677.6,478.5,674.5,475.2,671.1z M317.5,539.4c-1.5-0.2-3-0.5-4.5-0.7
		c-3,14.7-6.1,29.3-8.9,44c-1.2,6.6-1.7,13.3-2.5,19.9c0.9,0.2,1.8,0.3,2.6,0.5C317.4,583.7,315.9,561.3,317.5,539.4z M434.4,748.2
		c1.1,12.7,1.1,12.5-9.4,9c-1.6-0.5-3.9,1.4-5.9,2.2c0.9,1.9,1.5,4.2,2.9,5.7c1.5,1.6,4.6,1.9,5.7,3.5c4.3,6.2,12.8,6.8,15.9-0.2
		c3.2-7.2,4.3-15.2,6.4-22.9c-1-0.4-1.9-0.9-2.9-1.3c-2.3,2.3-4.6,4.7-7,7.1C438.5,750.4,436.9,749.5,434.4,748.2z M349.2,751.9
		c0.9,0.4,1.7,0.8,2.6,1.1c6.1-14.9,12.1-29.8,18.5-45.5c-5.2-0.9-8-1.3-11.2-1.9c-0.4,2.4-1.4,4.5-0.8,6c2.5,6.4,0.5,9.6-6,11.4
		c-1.7,0.4-3.7,3.6-3.8,5.6C348.4,736.4,348.9,744.2,349.2,751.9z M262.8,734.9c8.1,12.3-3.2,23.6,0,34.6c1,0.2,2.1,0.5,3.1,0.7
		c4.3-13.7,8.5-27.4,13-42C270.1,719.4,269.2,733.7,262.8,734.9z M237.8,689.4c7.2-6.3,7.5-10.1,1.1-16.8c-2.5,6.1-5.1,12-7.3,17.9
		c-0.4,1,0.8,2.5,1,3.8c0.5,4.6,1.5,9.2,1.3,13.7c-0.3,5.3-1.7,10.5-2.6,15.7c1.2,0.2,2.4,0.5,3.7,0.7c2.8-10.9,5.6-21.9,8.3-32.8
		C241.3,690.9,239.6,690.2,237.8,689.4z M426.5,862.9c-7.2,2-12.3,10.2-13.1,20.8c11-1.6,18.7-8.1,19.6-17.2c0.5-5,0.6-10.3-7-12.7
		C426.2,857.2,426.3,859.8,426.5,862.9z M411.1,911.8c5.4-2.6,10-4.8,14.4-7.2c1-0.5,1.9-2,2.1-3.1c0.8-5.4,1.4-10.7,2.3-17.8
		c-2.8,1.3-7.3,2-8.9,4.5C416.4,895.1,407.8,900.7,411.1,911.8z M423.6,981.9c8,5.8,3.2,13-0.2,20.6c6.9-0.2,10.6-1.9,10.8-8.5
		c0.2-7.1,0.9-14.2,1.2-21.3c0.1-1.4-0.8-2.9-1.2-4.3c-1.5,0.8-3.7,1.1-4.5,2.4C427.5,974,426,977.4,423.6,981.9z M256.9,326
		c9.7-2.2,16.3-8.5,15.3-14.8c-0.4-2.7-3.6-5.8-6.2-6.9c-1.6-0.6-6.2,1.9-6.7,3.8C257.8,313.7,257.6,319.7,256.9,326z M191.1,752
		c1.3-3,2.1-3.9,2.2-4.9c0.6-6.7,0.4-13.6,6.1-18.8c0.6-0.5-1.1-3.5-1.8-5.4c-1.8,0.8-4.9,1.1-5.3,2.4c-2.3,6.9-4.3,14-5.7,21.1
		C186.3,747.8,189.1,749.6,191.1,752z M411.4,661.4c3.1,5.7,5.3,9.9,7.7,13.9c0.8,1.2,2.2,2.5,3.5,2.8c0.8,0.2,2.7-1.3,2.9-2.2
		c1.1-6.4,1.9-12.8,2.9-20.5C420.9,658,416,659.8,411.4,661.4z M650,126.2c-9.4,13-12.8,16.5-5.2,21.5c2.7-3.3,5.1-6.7,8-9.6
		c1.9-1.9,4.4-3.1,6.7-4.7c-2.1-1.3-4.3-2.6-6.3-4.1C652.2,128.7,651.4,127.6,650,126.2z M644.2,97c10.1,13.7,10.1,13.7,17.6,9.5
		c-1.4-5.3-2.8-10.3-4.2-15.5C652.8,93.2,648.5,95.1,644.2,97z M611.1,67.1c0.4,3.8,0.8,7.5,1.3,11.2c0.1,0.4,0.7,0.8,0.9,1.1
		c4-1.9,7.8-3.6,11.6-5.5c6.1-3,7.6-9.8,3.6-15.9C622.2,67.7,622.2,67.7,611.1,67.1z M555.4,1106.5c1.5,0.2,3,0.5,4.5,0.7
		c1.2-9,2.5-17.9,3.5-26.9c0.1-0.9-2.5-3.2-3-3c-1.5,0.6-3.7,2.2-3.8,3.5C555.9,1089.4,555.7,1097.9,555.4,1106.5z M463,721.4
		c1.8-5.4,13.2-5,8.1-12.5c-1.6-2.4-11.3-2.7-13.9-0.3C449.8,715.4,461.1,716.6,463,721.4z M327.6,329.9c-0.1-4-0.4-5.8-0.1-7.5
		c0.6-2.9,1.7-5.6,2.6-8.4c0.7-2.2,2-4.3,2.1-6.4c0.1-0.9-2.5-3.1-3.2-2.8c-2.4,0.9-5.9,2.3-6.3,4.2c-1.2,5.5-1.4,11.3-1.3,17
		C321.4,326.9,324.4,327.9,327.6,329.9z M221.5,347.2c-8.9,11.3-11.7,23.7-6.4,28.1C221.4,368,224.9,352.5,221.5,347.2z
		 M412.8,602.4c-2.3,5.2-4.1,9-5.7,12.8c-0.9,2.1-1.5,4.4-2.2,6.6c3,0.6,8.5,2.3,8.7,1.8c1.9-4.9,3.7-10.1,4-15.2
		C417.7,606.3,414.1,604,412.8,602.4z M640.4,312.4c3.4,1.8,5.6,3.9,7.2,3.5c1.9-0.5,4.1-2.9,4.6-4.9c1.1-4.4,1.9-9.2,1.7-13.7
		c-0.1-2.7-2.3-5.3-3.5-8c-0.9,2.4-2.2,4.8-2.7,7.4C646.5,302.1,649.9,309,640.4,312.4z M300.9,293.2c-0.4,5.8-0.8,10.6-1.2,15.4
		c-0.1,1.1-0.4,2.4,0.1,3.2c0.9,1.8,2.1,4.4,3.6,4.7c1.5,0.3,4.1-1.3,5.1-2.8C310.6,310.8,305.4,296.4,300.9,293.2z M104.4,691.8
		c-6.5-2.6-12.1-4.8-18.3-7.3c-6.5,9.9,9.9,9.1,10.2,17.3C98.9,698.7,101.5,695.5,104.4,691.8z M348.4,577.1
		c5.5-5.5,6.4-12.2,2.6-19.3C337.9,568.1,337.7,569.8,348.4,577.1z M349.9,221.4c4.6,1,7,1.4,9.4,1.9c0.3-5,0.6-9.9,0.9-14.9
		c-2.5,0.2-6.6-0.4-7.2,0.7C351.2,212.5,351,216.5,349.9,221.4z M348.5,869.6c-1,0.5-1.9,1-2.9,1.5c2-1.1,5.3-1.9,5.8-3.5
		c1.3-4.6,1.8-9.6,1.9-14.4c0-1.6-2-3.3-3.1-4.9c-1.3,1.7-3.6,3.5-3.6,5.2C346.7,858.9,347.8,864.2,348.5,869.6z M571.5,121.3
		c4.1-9-2.2-14.2-5.1-21.2C560.3,110.1,561.8,116,571.5,121.3z M452.8,126.9c-0.9,0-1.8,0-2.7,0c-0.2,3.6,0,7.3-0.5,10.9
		c-0.5,3.7-1.7,7.2-2.7,10.9c0.4,0.6,0.8,1.2,1.1,1.8c2.9-2.1,6.4-3.6,8.5-6.3C462.3,136.9,451.5,133.4,452.8,126.9z M953.1,1199.8
		c3-3.5,5.1-5.1,6-7.3c1.3-3.1,2-6.5,2.4-9.8c0.1-0.8-2.9-2.9-3.2-2.7c-2.5,1.8-6.2,3.8-6.6,6.3
		C951,1190.4,952.4,1194.8,953.1,1199.8z M120.2,910.6c-1.1,7.1-2,12.8-2.7,18.5c0,0.1,3.1,0.6,4.8,0.9c0.7-5.6,1.5-11.1,2.2-16.7
		C124.6,913.1,123.7,912.8,120.2,910.6z M506.3,172c0.4-5.6,0.8-9.5,1.1-13.5c-3.6-0.1-7.2-0.2-10.8-0.3c0.3,3.9,0.1,7.9,1.3,11.5
		C498.2,170.9,502,171,506.3,172z M432,590c0.9-0.1,1.8-0.2,2.7-0.4c-1.8-10,5.6-8.1,11-10c-4-2.4-8.3-4.8-12.1-4.2
		c-2.3,0.4-4.7,5-5.6,8.2C427.7,585.3,430.6,587.8,432,590z M1423.9,347.3c-1.7-13-1.7-13-6.8-13.8
		C1413,349.2,1413.2,349.8,1423.9,347.3z M529.1,1078.1c7-6.1,14-12.1,21-18.1C544,1057.9,532.3,1066.6,529.1,1078.1z M322.4,1016.1
		c-3.9,7.2-5.2,13.8,0.2,20.4C328.9,1025.8,328.9,1020.6,322.4,1016.1z M199.2,387.7c-3.5,2.5-7.3,3.7-7.9,5.9
		c-1.1,3.8-0.3,8.2-0.2,12.4c1.8-0.5,5-0.6,5.3-1.6C197.6,399.8,198.1,395,199.2,387.7z M600.6,338.3c-11.5-3.8-24,0.9-25.6,8.2
		C582.9,344,590.8,341.4,600.6,338.3z M368.3,661.9c-10.7,2.2-14.6,8-10.9,18.6C360.9,674.5,364.4,668.6,368.3,661.9z
		 M1012.2,1092.5c0.5-0.6,1.1-1.1,1.6-1.7c-0.8-2-1-5.2-2.4-5.8c-4.2-1.9-8.9-2.8-13.5-3.9c-0.6-0.1-2.3,1.3-2.3,1.8
		c0.2,1.4,0.7,3.4,1.7,3.8C1002.2,1088.9,1007.2,1090.6,1012.2,1092.5z M389.4,1163.4c-1.3-0.4-2.6-0.7-3.9-1.1
		c-2,5.4-4.2,10.7-5.8,16.2c-0.3,0.9,1.2,2.8,2.4,3.5c0.7,0.4,3.1-0.4,3.3-1.1C386.9,1175.1,388.1,1169.3,389.4,1163.4z M68.5,845.1
		c-4.9,0.5-9.4,0.6-13.8,1.4c-1.9,0.3-3.6,1.8-5.2,3c-0.2,0.2,0.7,2.6,1.6,3.2C57.1,856.4,67.7,851,68.5,845.1z M474.9,266.3
		c-1.2,7.5-13.4,9.6-9.9,19.4C469.1,279.6,478.1,276.1,474.9,266.3z M267.1,780.7c-1.4-0.7-2.9-1.5-4.3-2.2
		c-2.4,3.4-4.7,6.8-7.1,10.2c2.5,1.2,4.9,2.5,7.4,3.7C264.5,788.5,265.8,784.6,267.1,780.7z M369.4,657c0.9,0,1.7,0,2.6,0.1
		c1.5-4.2,3.5-8.4,4.4-12.8c0.4-1.7-1.4-3.9-2.2-5.9c-1.8,1.3-4.9,2.4-5.1,3.8C368.7,647.1,369.3,652.1,369.4,657z M436.7,674.9
		c5.3-1.5,8.1-2.2,13.1-3.6c-4.6-4.2-8.2-7.5-11.9-10.9C437.5,664.9,437.1,669.5,436.7,674.9z M1278.1,182.2c-1.9,1-3.4,1.3-3.7,2.1
		c-1.4,3.8-2.6,7.7-3.4,11.7c-0.1,0.4,2.5,1.3,3.8,2c1.6-3.7,3.4-7.4,4.7-11.2C1279.8,185.7,1278.8,184.3,1278.1,182.2z
		 M641.6,480.7c-0.1-1.1-0.3-2.2-0.4-3.4c-4.2-0.2-8.4-0.9-12.4-0.3c-1.4,0.2-2.3,3.6-3.4,5.6c1.8,0.8,3.7,2.5,5.2,2.1
		C634.3,483.9,637.9,482.1,641.6,480.7z M69.9,777.1c0.6,0.9,1.2,1.8,1.9,2.7c5,1.2,9-0.6,11-5.7c0.4-1.1-1.7-3.3-2.7-4.9
		C76.7,771.8,73.3,774.5,69.9,777.1z M68.7,812.2c0.9,0.7,1.8,1.4,2.7,2.2c4.5-1.1,9.2-2.4,9.2-8.7c0-1.3-2.8-2.6-4.3-3.9
		C73.7,805.3,71.2,808.7,68.7,812.2z M564,133.2c-4.9,0.4-9.2,0.1-9.4,0.9c-0.8,3.1-0.4,6.5-0.1,9.7c0,0.2,4.4,0.8,5-0.1
		C561.1,141.3,562,138.1,564,133.2z M449.3,906.1c0.2,15.7,1.5,18.4,9.7,18.6C452,919.8,460.2,908.7,449.3,906.1z M786.2,1219.3
		c-5.5-1.1-9.3-1.8-13.1-2.5c0.2,2.2-0.5,5,0.7,6.4C777.8,1227.9,781.1,1225.1,786.2,1219.3z M227.3,426.8c0.1-4.7,0.2-8,0.2-11.4
		c-1.9,0.2-5.2-0.1-5.4,0.6c-0.8,2.8-0.9,5.8-0.6,8.7C221.6,425.4,224.4,425.8,227.3,426.8z M624.6,163.9c-0.9-4.1-0.7-7.5-2.1-8.5
		c-1.6-1.1-4.6-0.1-7.1,0c0.1,2.2-0.6,5.2,0.5,6.3C617.4,163.1,620.4,163,624.6,163.9z M411.2,205.3c0.2,0.8,0.3,1.5,0.5,2.3
		c3.3-0.3,6.9,0,9.8-1.1c1.8-0.7,2.7-3.7,3.9-5.7c-2.1-0.3-4.6-1.3-6.3-0.6C416.3,201.3,413.8,203.6,411.2,205.3z M630.2,190.1
		c1,0.4,2,0.9,3,1.3c1.9-3.8,3.8-7.5,5.7-11.3c-0.9-0.4-1.8-0.9-2.6-1.3C630.6,180.7,627.8,184.1,630.2,190.1z M366.9,786.1
		c2.1-5.8,3.6-10,5.4-15.1C362.1,772.8,360.9,775.8,366.9,786.1z M368.3,1170.3c1.6,0.1,3.1,0.2,4.7,0.3c0.8-3.6,1.5-7.1,2.3-10.7
		c-2.2,0.1-6.3-0.2-6.4,0.2C368.2,1163.5,368.4,1166.9,368.3,1170.3z M1042.9,1145.9c-1.3,8,4.6,13.7,12.8,14.8
		C1051.7,1156.1,1047.9,1151.7,1042.9,1145.9z M573.3,1175.4c-3.1-6-6-11.4-8.8-16.8c-0.7,0.4-1.3,0.7-2,1.1
		C563,1168,567.4,1175.2,573.3,1175.4z M302.7,340c-0.4-4.9-0.5-8.1-1.2-11.2c-0.2-0.7-3.1-0.6-4.7-0.9c-0.2,3.3-0.7,6.7-0.5,10
		C296.3,338.5,299.1,338.9,302.7,340z M529.3,1504.5c-7.7-1.7-8.9,4.5-11.3,8.4c-1,1.6,0.4,4.6,0.9,8.3
		C523,1514.6,525.9,1510,529.3,1504.5z M1006.2,1172c-0.2-5-0.2-8.8-0.7-12.5c-0.1-0.9-1.8-2.2-2.8-2.3c-0.9-0.1-2.7,1.2-2.8,2.1
		C999.3,1164,999,1168.7,1006.2,1172z M400.3,1447.3c7.6-8.7,7.5-13.5-0.1-17.1C400.2,1435.8,400.2,1440.9,400.3,1447.3z
		 M439.5,823.4c-9.8,5.7-11.7,10.3-6.7,17C435,834.8,437,829.7,439.5,823.4z M1326,1090.9c1.3-0.2,2.6-0.5,4-0.7
		c-0.8-2-1.1-5.1-2.6-5.8c-1.9-0.9-4.9-0.3-6.9,0.7c-1,0.5-0.8,3.4-1.1,5.2C1321.6,1090.4,1323.8,1090.6,1326,1090.9z M235.7,783.3
		c-8.7,0.9-9.3,5-8.9,9.5c0.1,0.8,2.3,1.5,3.5,2.2C231.9,791.6,233.4,788.2,235.7,783.3z M499.7,125c-8.4,3.5-9.1,7.5-3.6,15.2
		C497.4,134.4,498.5,129.7,499.7,125z M327.9,990.6c1.1,0.1,2.1,0.2,3.2,0.4c0.7-3.9,1.6-7.8,2-11.7c0.1-1.2-1.3-2.5-2-3.7
		c-1.1,0.9-3.2,1.8-3.2,2.8C327.6,982.4,327.9,986.5,327.9,990.6z M413.9,526.9c0.8,0.3,1.5,0.6,2.3,0.9c7.7-5.4,8.2-7.7,2-12.4
		C416.7,519.4,415.3,523.1,413.9,526.9z M593.9,268.6c-10.8,4.4-11.4,6.9-4.4,14C591,278.1,592.2,274.2,593.9,268.6z M400.3,1119.5
		c-1.7,5.7-3.1,10.7-4.6,15.8C402.8,1134.2,404.7,1128.4,400.3,1119.5z M405.4,928c1.4,0.7,2.7,1.5,4.1,2.2c1.6-2.9,3.3-5.8,4.9-8.6
		c-1.4-0.5-3.7-1.8-4-1.5C408.5,922.6,407,925.4,405.4,928z M189.3,758.9c-0.8-1.1-1.7-2.2-2.5-3.3c-2.7,2-5.4,3.9-8,5.9
		c1,1.3,2,2.6,3,4C184.2,763.3,186.8,761.1,189.3,758.9z M298.6,820.5c-0.8,0.4-1.6,0.7-2.4,1.1c1.9,3.8,3.7,7.5,5.6,11.3
		c1-0.7,3.1-2,3-2.1C302.8,827.3,300.7,823.9,298.6,820.5z M322.3,284.6c-1.3,1.1-2.6,2.2-3.9,3.3c2,2.3,4,4.7,6,7
		c1.2-1.2,3.7-3.2,3.5-3.4C326.3,289,324.3,286.9,322.3,284.6z M407.5,1293.9c-0.2-1.3-0.4-2.6-0.6-3.8c-6.1,1-12.3,1.9-18.4,2.9
		c0.2,1,0.3,1.9,0.5,2.9C395.2,1295.2,401.4,1294.5,407.5,1293.9z M359.8,806.5c2.1-6.1,3.5-9.9,4.8-13.8c-0.5-0.4-1-0.9-1.5-1.3
		c-2.6,3.3-5.4,6.4-7.6,10C355.2,801.9,357.9,804.3,359.8,806.5z M575.2,1267.4c1.1-0.1,2.1-0.2,3.2-0.4c-0.1-3.1,0.4-6.4-0.5-9.2
		c-0.4-1.3-3.5-1.7-5.4-2.5c-0.5,0.6-0.9,1.1-1.4,1.7C572.4,1260.5,573.8,1264,575.2,1267.4z M1049.5,1234.4c4.2-0.5,7.5-0.1,7.9-1
		c1.3-2.9,1.4-6.2,2-9.4c-0.7-0.2-1.5-0.4-2.2-0.6C1055.1,1226.4,1053,1229.4,1049.5,1234.4z M481.3,174.3c-3.6-1.4-5.9-2.3-8.3-3.2
		c-0.9,3.3-1.9,6.6-2.8,9.8c0.6,0.1,1.3,0.2,1.9,0.3C474.7,179.3,477.2,177.5,481.3,174.3z M1324.9,1129.1c-3.3,0.4-5.8,0.1-7.4,1.1
		c-0.9,0.6-0.6,3.2-0.9,4.9c2.5,0.2,4.9,0.6,7.3,0.2C1324.4,1135.3,1324.4,1132.3,1324.9,1129.1z M293.5,734.5c1,0.3,2,0.7,3,1
		c1.1-4.6,2.3-9.2,3.4-13.9c-1.4-0.3-2.9-0.6-4.3-1C294.9,725.2,294.2,729.9,293.5,734.5z M96.7,714.3c-4,2.9-7.8,5.7-12.9,9.3
		C95.1,724,97.6,722,96.7,714.3z M377.5,1192.1c-1.1,0.8-2.2,1.5-3.4,2.3c1.4,2.4,2.8,4.9,4.2,7.3c1.6-1.1,3.1-2.2,4.7-3.3
		C381.1,1196.3,379.3,1194.2,377.5,1192.1z M98.4,758.2c1.1,0.2,2.3,0.4,3.4,0.6c1-5.3,2-10.6,3.1-15.9c-1.1-0.2-2.1-0.4-3.2-0.6
		C100.6,747.6,99.5,752.9,98.4,758.2z M567.3,269.2c-8.7-3.2-11.1-1.9-11.6,5.4C559.4,272.9,562.6,271.4,567.3,269.2z M985.2,1122.1
		c0.2-1.1,0.5-2.1,0.7-3.2c-3.5-0.9-7-1.9-10.5-2.8c-0.3,1.5-0.7,2.9-1,4.4C978,1121,981.6,1121.6,985.2,1122.1z M1035.3,1177.2
		c1.2,0.6,2.4,1.2,3.6,1.8c1.4-2.6,2.8-5.2,4.2-7.9c-1.5-0.7-2.9-1.4-4.4-2.1C1037.6,1171.7,1036.4,1174.5,1035.3,1177.2z
		 M1082.6,1164c1-0.6,2-1.2,3-1.8c-1.8-3.2-3.6-6.4-5.5-9.6c-1.1,0.9-3.2,2.3-3.1,2.6C1078.6,1158.2,1080.6,1161.1,1082.6,1164z
		 M359,246.8c1.1-0.9,2.1-1.9,3.2-2.8c-2-2.3-3.9-4.6-6.1-6.7c-0.1-0.1-2.1,1.6-3.2,2.5C354.9,242.1,356.9,244.5,359,246.8z
		 M447.6,331.8c-0.9,0-1.7,0-2.6,0c-0.1,3.1-1.4,6.9,0,9c1.1,1.8,5.3,1.6,8.2,2.3c0.7-1,1.3-2.1,2-3.1
		C445,342.7,449.1,335.2,447.6,331.8z M1392.5,311.7c4.8-4.5,3.5-7.1-5.7-11.7C1388.8,304.1,1390.6,307.9,1392.5,311.7z
		 M627.1,535.4c-0.9-2.7-1.1-4.9-2-5.4c-1.9-0.9-4.3-1.1-6.4-0.8c-0.6,0.1-0.8,2.9-1.2,4.4C619.7,534,621.9,534.5,627.1,535.4z
		 M1105.2,1071.5c-6.5,7-5.8,9.7,2.9,16.5C1107.2,1083.1,1106.3,1077.9,1105.2,1071.5z M80.8,904.3c-1,0.3-1.9,0.5-2.9,0.8
		c0.2,2.5,0.3,5,0.5,7.5c1.9-0.5,3.8-1,5.7-1.5C83,908.9,81.9,906.6,80.8,904.3z M619.8,567.6c-0.8-0.3-1.6-0.5-2.3-0.8
		c-1.5,3.4-3,6.9-4.9,11.3C620.8,576.6,621.3,572.7,619.8,567.6z M125.8,897.2c-1.3-0.2-2.6-0.3-3.9-0.5c-0.5,2.6-0.9,5.3-1.4,7.9
		c1.7,0.2,3.4,0.4,5.1,0.6C125.6,902.6,125.7,899.9,125.8,897.2z M405.9,737.5c1.5,0.2,2.9,0.4,4.4,0.5c0.4-3.7,0.8-7.4,1.2-11.1
		c-1.3-0.2-2.6-0.4-3.8-0.5C407,730.1,406.4,733.8,405.9,737.5z M318.6,1003.2c1.3-0.3,2.6-0.7,3.9-1c-0.7-3.3-1.5-6.6-2.2-9.9
		c-1.2,0.2-2.4,0.5-3.6,0.7C317.3,996.4,317.9,999.8,318.6,1003.2z M447.5,201c1.3,0.4,2.6,0.9,4,1.3c0.7-3,1.5-6,1.9-9
		c0.1-0.4-2.1-1-3.2-1.6C449.4,194.8,448.5,197.9,447.5,201z M619.2,259.6c-0.8-0.7-1.6-1.5-2.3-2.2c-1.9,1.6-4.7,3-5.3,5
		c-0.4,1.5,2.2,3.8,4.7,7.8C617.7,264.9,618.5,262.3,619.2,259.6z M647.4,446.3c1.4-0.4,2.8-0.8,4.1-1.3c-0.9-2.4-1.7-4.8-3-7
		c-0.2-0.3-2.6,0.6-4,1C645.4,441.5,646.4,443.9,647.4,446.3z M447.8,875.5c-0.6,0.6-1.2,1.3-1.8,1.9c3.4,3.2,6.7,6.4,10.1,9.5
		c0.8-0.9,1.7-1.9,2.5-2.8C455,881.2,451.4,878.4,447.8,875.5z M664.5,210.5c0.3-0.6,0.7-1.1,1-1.7c-1.6-1.4-3.4-4.2-4.8-4
		c-2.4,0.3-4.5,2.5-6.7,3.9c0.4,0.6,0.8,1.3,1.2,1.9C658.3,210.6,661.4,210.6,664.5,210.5z M1154.3,979.1c0.4,0.5,0.8,1,1.2,1.4
		c2.2-1.9,5-3.5,6.4-5.9c0.7-1.2-1-3.8-2.2-7.7C1157.2,972.4,1155.7,975.8,1154.3,979.1z M558.9,975.7c-0.7-3-0.8-5.1-1.8-6.7
		c-0.4-0.6-2.7-0.1-4.1-0.1c0.1,2-0.1,4.1,0.5,5.9C553.8,975.5,556.2,975.3,558.9,975.7z M634.1,267.9c-1.1-3.3-1.2-5.4-2.2-6
		c-1.5-0.9-3.7-1.1-5.6-0.9c-0.5,0.1-1.4,3.6-1,3.9C627,266,629,266.3,634.1,267.9z M580.2,1057.1c1.1-0.3,2.3-0.7,3.4-1
		c-1-3.5-2-7-3.1-10.5c-1.1,0.3-2.2,0.6-3.4,0.9C578.2,1050,579.2,1053.6,580.2,1057.1z M100.4,813.8c-2.9,0.3-5.4,0.1-5.6,0.6
		c-0.6,2.1-0.5,4.4-0.6,6.6c1.4-0.2,3.6,0.1,4.2-0.8C99.4,818.8,99.6,816.6,100.4,813.8z M155.2,907.5c1.2-0.1,2.5-0.3,3.7-0.4
		c-0.5-3.1-0.9-6.2-1.4-9.3c-1.1,0.2-2.3,0.4-3.4,0.5C154.5,901.4,154.9,904.4,155.2,907.5z M573.8,368.3c0.9,0.3,1.7,0.6,2.6,0.9
		c1.7-4.5,3.4-9,5.1-13.5c-1.1-0.4-2.2-0.8-3.3-1.1C576.7,359.1,575.2,363.7,573.8,368.3z M400.1,1103.2c-0.2-2.3,0.2-4.2-0.5-5.1
		c-0.7-0.9-2.6-0.8-4-1.2c-0.2,1.7-0.8,3.5-0.3,4.9C395.6,1102.6,397.9,1102.6,400.1,1103.2z M375.8,811.2c1.1,0.2,2.1,0.5,3.2,0.7
		c1.3-3.6,2.5-7.2,3.8-10.7c-1.2-0.4-2.4-0.7-3.5-1.1C378.1,803.7,377,807.4,375.8,811.2z M646.7,203.7c1,0.5,1.9,1,2.9,1.6
		c1.5-2.7,3-5.3,4.5-8c-1.1-0.6-2.1-1.2-3.2-1.8C649.5,198.2,648.1,200.9,646.7,203.7z M577.6,1215.3c-1.3-0.3-2.7-0.5-4-0.8
		c-0.6,3.2-1.2,6.4-1.7,9.6c1,0.2,2,0.5,2.9,0.7C575.7,1221.7,576.7,1218.5,577.6,1215.3z M568.3,1187.7c-8.5,0.6-8.8,1-4.8,8.1
		C565,1193.1,566.3,1191,568.3,1187.7z M384.4,724.6c0.5,1.2,0.9,2.4,1.4,3.6c2.7-1.1,5.5-2.2,8.1-3.5c0.1-0.1-0.8-2.2-1.2-3.3
		C389.9,722.5,387.2,723.6,384.4,724.6z M809.4,666c-0.7,0.6-1.3,1.2-2,1.8c1.9,2.4,3.7,4.8,5.6,7.1c0.8-0.7,2.2-1.9,2.2-1.9
		C813.3,670.6,811.4,668.3,809.4,666z M608.5,246.1c-1.3,0.4-2.6,0.9-3.9,1.3c0.9,2.3,1.7,4.6,2.8,6.7c0.1,0.1,3.2-1,3.1-1.1
		C610,250.7,609.2,248.4,608.5,246.1z M1003.4,1419.8c-1.3,0.3-2.5,0.6-3.8,0.9c0.7,2.9,1.3,5.9,2,8.8c1-0.2,2.1-0.4,3.1-0.5
		C1004.2,1425.9,1003.8,1422.9,1003.4,1419.8z M1254.8,1219.5c0.4,0.5,0.8,1,1.2,1.6c2.7-2.4,5.5-4.7,8.2-7.1
		c-0.4-0.5-0.8-1-1.3-1.5C1260.2,1214.8,1257.5,1217.1,1254.8,1219.5z M965.8,1214.3c-0.8-1-1.6-2-2.4-2.9c-2.3,2-4.6,3.9-6.8,5.9
		c0.5,0.7,1.1,1.4,1.6,2.2C960.8,1217.8,963.3,1216.1,965.8,1214.3z"/>
	<path d="M953.7,1563.5c-3.8-0.7-7.6-1.5-11.5-2.2c0.8-2.4,1.6-4.9,2.3-7.3c3.5,1.9,7,3.8,10.6,5.7
		C954.7,1561,954.2,1562.3,953.7,1563.5z"/>
	<path d="M71.8,554.7c-2.5,3.7-5,7.4-7.5,11c-0.7-0.2-1.4-0.4-2.2-0.6c0.1-1.9-0.5-4.9,0.5-5.6c2.7-2,6-3.1,9.1-4.6
		C71.8,554.9,71.8,554.7,71.8,554.7z"/>
	<path d="M155.6,526.1c1.1-4.3,1.5-6.3,1.8-7.3c-2.8-3.2-7.4-7.2-6.8-8.2c2.1-3.5,5.7-6.2,9.2-8.6c0.7-0.5,4.7,1.6,4.7,2.2
		c-0.7,6.1-1.7,12.2-3.1,18.2C161,523.4,158.9,524,155.6,526.1z"/>
	<path d="M131.2,595.6c-1.1,4.8-2.1,9.7-3.3,15.1c-6-5.5-4.9-8.9,3.6-15.1C131.5,595.5,131.2,595.6,131.2,595.6z"/>
	<path d="M163.8,491.5c1.1-2.9,2-5.8,3.3-8.5c0.2-0.4,2.3,0.2,3.6,0.3c-1.1,3.2-2.3,6.4-3.4,9.6C166.1,492.4,164.9,492,163.8,491.5z
		"/>
	<path d="M329.3,260.7c0.5,2.8,1.3,5.6,1.3,8.5c0,0.5-3.5,0.9-5.4,1.4c0-3.2,0.1-6.3,0.1-9.5C326.6,261,327.9,260.9,329.3,260.7z"/>
</g>
</svg>
